<?xml version="1.0" encoding="utf-8" ?>
<svg baseProfile="full" height="1536" version="1.1" width="1024" xmlns="http://www.w3.org/2000/svg" xmlns:ev="http://www.w3.org/2001/xml-events" xmlns:xlink="http://www.w3.org/1999/xlink"><defs /><polyline fill="none" points="498.0,1407.5 486.0,1407.5 482.5,1404.0 482.0,1356.5 258.0,1356.5 101.5,1191.0 102.5,951.0 74.5,949.0 73.5,728.0 204.5,597.0 152.5,547.0 152.0,461.5 62.0,461.5 60.5,459.0 60.5,238.0 173.0,84.5 587.0,83.5 590.5,87.0 591.0,199.5 877.0,198.5 884.5,202.0 884.5,535.0 959.0,535.5 961.5,539.0 961.5,848.0 956.5,851.0 958.5,1401.0 948.0,1404.5 501.0,1403.5 498.0,1407.5" stroke="black" stroke-width="1" /><polyline fill="none" points="496.5,1404.0 499.0,1401.5 955.5,1400.0 954.5,849.0 958.5,847.0 960.5,752.0 958.5,540.0 883.0,538.5 881.5,536.0 881.5,203.0 786.0,200.5 588.0,201.5 587.0,86.5 173.0,87.5 62.5,240.0 62.5,457.0 155.0,459.5 155.5,547.0 206.5,595.0 206.5,599.0 76.5,729.0 76.5,947.0 104.5,949.0 104.5,1191.0 260.0,1354.5 483.0,1353.5 485.5,1356.0 485.5,1404.0 496.5,1404.0" stroke="black" stroke-width="1" /><polyline fill="none" points="940.0,1397.5 924.0,1395.5 509.0,1397.5 497.5,1395.0 498.5,1353.0 576.0,1276.5 898.0,1275.5 899.0,1219.5 874.5,1219.0 871.0,1248.5 578.0,1248.5 575.5,1246.0 575.5,1187.0 584.5,1185.0 563.0,1184.5 562.5,1251.0 488.0,1325.5 271.0,1326.5 131.5,1182.0 134.0,936.5 455.0,937.5 456.5,933.0 455.0,920.5 433.5,921.0 434.0,884.5 359.0,884.5 358.0,876.5 359.0,885.5 418.0,885.5 418.5,921.0 108.0,922.5 104.5,919.0 104.5,739.0 227.0,617.5 231.0,617.5 247.0,632.5 419.0,632.5 419.5,813.0 435.5,813.0 434.5,596.0 416.5,596.0 420.5,597.0 420.5,617.0 416.0,618.5 268.0,618.5 182.5,534.0 184.0,445.5 419.0,445.5 420.5,522.0 415.5,524.0 435.0,523.5 435.5,420.0 382.5,420.0 419.0,420.5 420.5,429.0 412.0,431.5 89.5,430.0 89.5,250.0 184.0,117.5 419.0,116.5 420.5,334.0 419.5,341.0 414.5,343.0 421.0,343.5 435.0,342.5 436.0,329.5 454.0,329.5 457.5,315.0 457.0,311.5 452.0,315.5 436.0,315.5 433.5,309.0 434.5,116.0 560.0,114.5 562.5,312.0 561.0,314.5 525.0,313.5 524.0,285.5 523.5,327.0 562.5,331.0 562.0,449.5 585.5,449.0 576.5,448.0 578.0,228.5 855.5,230.0 855.5,541.0 578.0,542.5 576.5,529.0 582.5,526.0 562.0,525.5 561.5,747.0 581.5,748.0 576.5,746.0 578.0,556.5 854.0,556.5 857.0,565.5 931.0,565.5 933.5,632.0 932.5,821.0 874.0,822.5 872.5,838.0 870.0,839.5 580.0,839.5 576.5,836.0 578.0,821.5 625.5,821.0 561.0,820.5 561.5,920.0 526.5,921.0 526.5,975.0 527.5,938.0 560.0,936.5 561.5,1109.0 584.0,1110.5 576.5,1107.0 578.0,853.5 870.0,853.5 872.5,855.0 871.5,1144.0 898.0,1145.5 898.5,850.0 949.5,849.0 951.5,1388.0 950.0,1396.5 940.0,1397.5" stroke="black" stroke-width="1" /><polyline fill="none" points="448.5,313.0 454.5,311.0 463.5,286.0 479.0,269.5 491.0,261.5 513.0,255.5 526.0,255.5 527.5,258.0 526.5,311.0 559.5,312.0 559.0,117.5 436.5,118.0 436.5,309.0 438.0,312.5 448.5,313.0" stroke="black" stroke-width="1" /><polyline fill="none" points="318.5,429.0 417.5,428.0 417.0,423.5 411.0,422.5 352.0,423.5 349.5,411.0 355.5,387.0 364.5,370.0 386.0,350.5 417.5,339.0 418.5,120.0 186.0,119.5 92.5,250.0 92.5,428.0 318.5,429.0" stroke="black" stroke-width="1" /><polyline fill="none" points="697.5,540.0 852.5,539.0 853.0,231.5 578.5,232.0 578.5,446.0 646.0,445.5 648.5,450.0 645.5,474.0 631.5,501.0 612.0,518.5 601.0,524.5 580.0,529.5 579.5,539.0 697.5,540.0" stroke="black" stroke-width="1" /><polyline fill="none" points="524.5,993.0 523.5,921.0 525.0,918.5 559.5,918.0 558.5,819.0 636.5,818.0 631.5,790.0 613.0,765.5 586.0,751.5 559.5,749.0 559.5,524.0 589.0,522.5 617.0,507.5 634.5,486.0 641.5,468.0 642.5,452.0 559.5,451.0 560.5,333.0 521.5,329.0 522.5,276.0 521.5,261.0 519.0,260.5 495.0,265.5 473.5,282.0 462.5,300.0 458.5,329.0 455.0,333.5 438.0,332.5 437.0,345.5 410.0,346.5 385.0,358.5 363.5,384.0 356.5,404.0 356.5,417.0 436.0,416.5 438.5,419.0 438.5,528.0 431.0,525.5 415.0,526.5 393.0,534.5 372.5,554.0 360.5,583.0 360.5,592.0 364.0,593.5 428.0,592.5 437.5,596.0 437.5,815.0 410.0,817.5 386.0,829.5 366.5,855.0 360.5,882.0 436.0,882.5 436.5,919.0 457.5,918.0 460.5,948.0 472.5,970.0 494.0,987.5 514.0,993.5 524.5,993.0" stroke="black" stroke-width="1" /><polyline fill="none" points="412.5,616.0 418.5,615.0 418.0,598.5 357.0,598.5 354.5,586.0 358.5,568.0 373.5,544.0 389.0,530.5 417.5,521.0 417.0,448.5 185.5,449.0 185.5,535.0 268.0,615.5 412.5,616.0" stroke="black" stroke-width="1" /><polyline fill="none" points="860.5,837.0 869.5,836.0 869.5,822.0 872.0,819.5 930.5,819.0 931.5,640.0 929.0,567.5 855.0,567.5 852.0,559.5 844.0,558.5 578.5,560.0 579.5,745.0 596.0,748.5 623.5,768.0 633.5,781.0 642.5,812.0 641.0,824.5 580.0,823.5 580.0,836.5 860.5,837.0" stroke="black" stroke-width="1" /><polyline fill="none" points="411.5,920.0 416.0,919.5 417.5,915.0 416.0,887.5 357.0,887.5 355.5,875.0 358.5,859.0 377.5,829.0 400.0,814.5 417.5,810.0 417.0,634.5 246.0,635.5 229.0,619.5 107.5,739.0 108.0,919.5 411.5,920.0" stroke="black" stroke-width="1" /><polyline fill="none" points="948.5,1394.0 947.5,851.0 915.0,850.5 901.5,852.0 901.5,1146.0 820.5,1147.0 825.5,1175.0 835.5,1192.0 846.0,1202.5 868.0,1214.5 901.5,1218.0 901.5,1276.0 885.0,1278.5 578.0,1278.5 500.5,1355.0 499.5,1393.0 948.5,1394.0" stroke="black" stroke-width="1" /><polyline fill="none" points="828.5,1246.0 869.0,1245.5 870.5,1242.0 870.5,1221.0 846.0,1209.5 834.5,1199.0 820.5,1178.0 814.5,1157.0 814.5,1143.0 817.0,1141.5 869.5,1141.0 870.5,857.0 579.0,856.5 579.5,1106.0 611.0,1116.5 629.5,1133.0 643.5,1156.0 647.5,1185.0 644.0,1188.5 580.0,1187.5 578.5,1245.0 828.5,1246.0" stroke="black" stroke-width="1" /><polyline fill="none" points="429.5,1324.0 486.0,1323.5 555.5,1255.0 560.5,1245.0 561.0,1182.5 641.5,1183.0 642.5,1174.0 634.5,1150.0 616.0,1127.5 604.0,1119.5 583.0,1112.5 564.0,1111.5 563.5,1115.0 560.5,1115.0 559.5,940.0 529.5,940.0 529.5,999.0 516.0,999.5 493.0,992.5 477.0,982.5 457.5,957.0 453.0,939.5 136.0,939.5 133.5,1180.0 273.0,1324.5 429.5,1324.0" stroke="black" stroke-width="1" /></svg>