<?xml version='1.0' encoding='utf-8'?>
<svg xmlns="http://www.w3.org/2000/svg" version="1.1" width="1024" height="1536" viewBox="0 0 1024 1536"><rect x="0" y="0" width="1024" height="1536" fill="#FFFFFF" /><polyline points="448,313 454,311 463,286 479,269 491,261 513,255 526,255 527,258 526,311 559,312 559,117 436,118 436,309 438,312 448,313" fill="none" stroke="#0000FF" stroke-width="2" /><polyline points="318,429 417,428 417,423 411,422 352,423 349,411 355,387 364,370 386,350 417,339 418,120 186,119 92,250 92,428 318,429" fill="none" stroke="#00FF00" stroke-width="2" /><polyline points="697,540 852,539 853,231 578,232 578,446 646,445 648,450 645,474 631,501 612,518 601,524 580,529 579,539 697,540" fill="none" stroke="#FF0000" stroke-width="2" /><polyline points="524,993 523,921 525,918 559,918 558,819 636,818 631,790 613,765 586,751 559,749 559,524 589,522 617,507 634,486 641,468 642,452 559,451 560,333 521,329 522,276 521,261 519,260 495,265 473,282 462,300 458,329 455,333 438,332 437,345 410,346 385,358 363,384 356,404 356,417 436,416 438,419 438,528 431,525 415,526 393,534 372,554 360,583 360,592 364,593 428,592 437,596 437,815 410,817 386,829 366,855 360,882 436,882 436,919 457,918 460,948 472,970 494,987 514,993 524,993" fill="none" stroke="#00FFFF" stroke-width="2" /><polyline points="412,616 418,615 418,598 357,598 354,586 358,568 373,544 389,530 417,521 417,448 185,449 185,535 268,615 412,616" fill="none" stroke="#FF00FF" stroke-width="2" /><polyline points="860,837 869,836 869,822 872,819 930,819 931,640 929,567 855,567 852,559 844,558 578,560 579,745 596,748 623,768 633,781 642,812 641,824 580,823 580,836 860,837" fill="none" stroke="#FFFF00" stroke-width="2" /><polyline points="411,920 416,919 417,915 416,887 357,887 355,875 358,859 377,829 400,814 417,810 417,634 246,635 229,619 107,739 108,919 411,920" fill="none" stroke="#0080FF" stroke-width="2" /><polyline points="948,1394 947,851 915,850 901,852 901,1146 820,1147 825,1175 835,1192 846,1202 868,1214 901,1218 901,1276 885,1278 578,1278 500,1355 499,1393 948,1394" fill="none" stroke="#FF0080" stroke-width="2" /><polyline points="828,1246 869,1245 870,1242 870,1221 846,1209 834,1199 820,1178 814,1157 814,1143 817,1141 869,1141 870,857 579,856 579,1106 611,1116 629,1133 643,1156 647,1185 644,1188 580,1187 578,1245 828,1246" fill="none" stroke="#FF8000" stroke-width="2" /><polyline points="429,1324 486,1323 555,1255 560,1245 561,1182 641,1183 642,1174 634,1150 616,1127 604,1119 583,1112 564,1111 563,1115 560,1115 559,940 529,940 529,999 516,999 493,992 477,982 457,957 453,939 136,939 133,1180 273,1324 429,1324" fill="none" stroke="#8080FF" stroke-width="2" /></svg>