<?xml version='1.0' encoding='utf-8'?>
<svg xmlns="http://www.w3.org/2000/svg" width="1024" height="1536">
  
  <rect width="1024" height="1536" fill="black" />

  
  <g stroke-width="2.0" fill="none" opacity="0.8">
    <line x1="571.8" y1="1260.6" x2="571.8" y2="929.6" stroke="#0000ff" /><line x1="571.8" y1="929.6" x2="571.8" y2="847.5" stroke="#0000ff" /><line x1="424.4" y1="929.6" x2="424.4" y2="610.0" stroke="#0000ff" /><line x1="424.4" y1="610.0" x2="424.4" y2="437.2" stroke="#0000ff" /><line x1="571.8" y1="829.8" x2="571.8" y2="542.4" stroke="#0000ff" /><line x1="571.8" y1="542.4" x2="571.8" y2="323.5" stroke="#0000ff" /><line x1="571.8" y1="323.5" x2="571.8" y2="214.5" stroke="#0000ff" /><line x1="141.5" y1="437.2" x2="424.4" y2="437.2" stroke="#0000ff" /><line x1="881.9" y1="847.5" x2="571.8" y2="847.5" stroke="#0000ff" /><line x1="571.8" y1="542.4" x2="854.1" y2="542.4" stroke="#0000ff" /><line x1="141.5" y1="929.6" x2="424.4" y2="929.6" stroke="#0000ff" /><line x1="424.4" y1="929.6" x2="571.8" y2="929.6" stroke="#0000ff" /><line x1="424.4" y1="109.1" x2="424.4" y2="437.2" stroke="#0000ff" /><line x1="424.4" y1="323.5" x2="571.8" y2="323.5" stroke="#0000ff" /><line x1="269.3" y1="610.0" x2="424.4" y2="610.0" stroke="#0000ff" /><line x1="881.9" y1="829.8" x2="881.9" y2="1277.7" stroke="#00ff00" /><line x1="881.9" y1="1260.6" x2="571.8" y2="1260.6" stroke="#00ff00" /><line x1="141.5" y1="1241.5" x2="141.5" y2="639.0" stroke="#00ff00" /><line x1="269.3" y1="1340.9" x2="496.5" y2="1340.9" stroke="#00ff00" /><line x1="486.6" y1="1395.5" x2="486.6" y2="1340.9" stroke="#00ff00" /><line x1="881.9" y1="542.4" x2="881.9" y2="214.5" stroke="#00ff00" /><line x1="141.5" y1="437.2" x2="141.5" y2="542.4" stroke="#00ff00" /><line x1="881.9" y1="214.5" x2="571.8" y2="214.5" stroke="#00ff00" /><line x1="220.0" y1="610.0" x2="269.3" y2="610.0" stroke="#00ff00" /><line x1="941.7" y1="829.8" x2="941.7" y2="542.4" stroke="#00ff00" /><line x1="141.5" y1="109.1" x2="141.5" y2="214.5" stroke="#00ff00" /><line x1="960.0" y1="1395.5" x2="960.0" y2="847.5" stroke="#00ff00" /><line x1="881.9" y1="829.8" x2="941.7" y2="829.8" stroke="#00ff00" /><line x1="571.8" y1="829.8" x2="571.8" y2="847.5" stroke="#00ff00" /><line x1="854.1" y1="542.4" x2="941.7" y2="542.4" stroke="#00ff00" /><line x1="960.0" y1="1395.5" x2="941.7" y2="1407.4" stroke="#00ff00" /><line x1="486.6" y1="1395.5" x2="496.5" y2="1407.4" stroke="#00ff00" /><line x1="79.7" y1="437.2" x2="141.5" y2="437.2" stroke="#00ff00" /><line x1="79.7" y1="251.8" x2="141.5" y2="214.5" stroke="#00ff00" /><line x1="941.7" y1="829.8" x2="960.0" y2="847.5" stroke="#00ff00" /><line x1="269.3" y1="1340.9" x2="248.3" y2="1313.5" stroke="#00ff00" /><line x1="141.5" y1="639.0" x2="220.0" y2="610.0" stroke="#00ff00" /><line x1="220.0" y1="610.0" x2="141.5" y2="542.4" stroke="#00ff00" /><line x1="248.3" y1="1313.5" x2="211.0" y2="1277.7" stroke="#00ff00" /><line x1="141.5" y1="1241.5" x2="211.0" y2="1277.7" stroke="#00ff00" /><line x1="496.5" y1="1340.9" x2="529.6" y2="1302.0" stroke="#00ff00" /><line x1="529.6" y1="1302.0" x2="571.8" y2="1260.6" stroke="#00ff00" /><line x1="571.8" y1="109.1" x2="571.8" y2="214.5" stroke="#00ff00" /><line x1="571.8" y1="109.1" x2="424.4" y2="109.1" stroke="#00ff00" /><line x1="424.4" y1="109.1" x2="141.5" y2="109.1" stroke="#00ff00" /><line x1="79.7" y1="251.8" x2="79.7" y2="437.2" stroke="#00ff00" /><line x1="941.7" y1="1407.4" x2="496.5" y2="1407.4" stroke="#00ff00" /><line x1="941.7" y1="1407.4" x2="941.7" y2="1419.0" stroke="#00ff00" /></g>

  
  <g opacity="1.0">
    <circle cx="571.8" cy="109.1" r="4.0" fill="#00ff00" />
    <circle cx="141.5" cy="109.1" r="4.0" fill="#00ff00" />
    <circle cx="424.4" cy="109.1" r="4.0" fill="#0000ff" />
    <circle cx="141.5" cy="214.5" r="4.0" fill="#00ff00" />
    <circle cx="571.8" cy="214.5" r="4.0" fill="#0000ff" />
    <circle cx="881.9" cy="214.5" r="4.0" fill="#00ff00" />
    <circle cx="79.7" cy="251.8" r="4.0" fill="#00ff00" />
    <circle cx="571.8" cy="323.5" r="4.0" fill="#0000ff" />
    <circle cx="424.4" cy="437.2" r="4.0" fill="#0000ff" />
    <circle cx="79.7" cy="437.2" r="4.0" fill="#00ff00" />
    <circle cx="141.5" cy="437.2" r="4.0" fill="#00ff00" />
    <circle cx="571.8" cy="542.4" r="4.0" fill="#0000ff" />
    <circle cx="141.5" cy="542.4" r="4.0" fill="#00ff00" />
    <circle cx="881.9" cy="542.4" r="4.0" fill="#00ff00" />
    <circle cx="854.1" cy="542.4" r="4.0" fill="#00ff00" />
    <circle cx="941.7" cy="542.4" r="4.0" fill="#00ff00" />
    <circle cx="220.0" cy="610.0" r="4.0" fill="#00ff00" />
    <circle cx="424.4" cy="610.0" r="4.0" fill="#0000ff" />
    <circle cx="269.3" cy="610.0" r="4.0" fill="#0000ff" />
    <circle cx="141.5" cy="639.0" r="4.0" fill="#00ff00" />
    <circle cx="571.8" cy="829.8" r="4.0" fill="#00ff00" />
    <circle cx="941.7" cy="829.8" r="4.0" fill="#00ff00" />
    <circle cx="881.9" cy="829.8" r="4.0" fill="#00ff00" />
    <circle cx="571.8" cy="847.5" r="4.0" fill="#0000ff" />
    <circle cx="881.9" cy="847.5" r="4.0" fill="#00ff00" />
    <circle cx="960.0" cy="847.5" r="4.0" fill="#00ff00" />
    <circle cx="141.5" cy="929.6" r="4.0" fill="#00ff00" />
    <circle cx="424.4" cy="929.6" r="4.0" fill="#0000ff" />
    <circle cx="571.8" cy="929.6" r="4.0" fill="#0000ff" />
    <circle cx="141.5" cy="1241.5" r="4.0" fill="#00ff00" />
    <circle cx="571.8" cy="1260.6" r="4.0" fill="#00ff00" />
    <circle cx="211.0" cy="1277.7" r="4.0" fill="#00ff00" />
    <circle cx="529.6" cy="1302.0" r="4.0" fill="#00ff00" />
    <circle cx="248.3" cy="1313.5" r="4.0" fill="#00ff00" />
    <circle cx="496.5" cy="1340.9" r="4.0" fill="#00ff00" />
    <circle cx="486.6" cy="1340.9" r="4.0" fill="#00ff00" />
    <circle cx="486.6" cy="1395.5" r="4.0" fill="#00ff00" />
    <circle cx="960.0" cy="1395.5" r="4.0" fill="#00ff00" />
    <circle cx="496.5" cy="1407.4" r="4.0" fill="#00ff00" />
    </g>

</svg>