<?xml version="1.0" encoding="utf-8" ?>
<svg baseProfile="full" height="1024" version="1.1" width="1536" xmlns="http://www.w3.org/2000/svg" xmlns:ev="http://www.w3.org/2001/xml-events" xmlns:xlink="http://www.w3.org/1999/xlink"><defs /><polyline fill="none" points="1172.0,955.5 769.0,955.5 765.5,953.0 765.0,922.5 157.0,920.5 156.5,605.0 159.0,601.5 260.5,601.0 260.5,379.0 159.0,378.5 156.5,376.0 156.5,45.0 159.0,42.5 1349.0,42.5 1351.5,45.0 1352.5,174.0 1352.5,592.0 1429.0,592.5 1431.5,598.0 1433.5,930.0 1431.0,932.5 1353.0,932.5 1352.5,952.0 1350.0,954.5 1172.0,955.5" stroke="black" stroke-width="1" /><polyline fill="none" points="1348.5,952.0 1351.0,929.5 1429.0,929.5 1431.5,912.0 1428.5,596.0 1355.0,596.5 1349.5,592.0 1348.0,45.5 159.5,46.0 159.5,374.0 262.5,377.0 262.5,603.0 159.5,606.0 161.0,919.5 767.0,919.5 770.0,952.5 1348.5,952.0" stroke="black" stroke-width="1" /><polyline fill="none" points="1423.0,925.5 1349.5,924.0 1350.5,723.0 1328.0,720.5 1292.5,722.0 1323.5,724.0 1322.0,924.5 797.0,924.5 794.5,697.0 800.0,694.5 782.0,694.5 780.0,713.5 740.5,714.0 742.0,727.5 745.0,725.5 781.5,728.0 781.0,892.5 585.0,893.5 583.5,729.0 677.0,729.5 677.5,723.0 676.0,713.5 585.0,714.5 582.0,702.5 568.5,704.0 570.5,707.0 568.0,893.5 188.0,893.5 188.0,622.5 565.0,622.5 569.5,624.0 568.5,639.0 582.0,639.5 582.5,621.0 586.0,616.5 690.5,616.0 690.5,495.0 685.0,493.5 626.5,495.0 678.5,496.0 676.0,604.5 289.0,604.5 288.5,366.0 677.0,364.5 677.5,419.0 671.5,421.0 678.0,421.5 690.5,420.0 690.5,351.0 609.0,350.5 604.5,349.0 604.0,337.5 558.5,338.0 592.0,338.5 591.0,350.5 187.0,350.5 185.5,74.0 591.0,72.5 592.5,267.0 586.5,269.0 595.0,269.5 605.0,268.5 604.5,258.0 609.0,255.5 701.5,255.0 701.0,194.5 700.0,243.5 605.5,242.0 606.0,72.5 882.0,72.5 884.5,74.0 884.5,242.0 773.0,243.5 771.0,237.5 771.5,256.0 883.0,255.5 884.0,280.5 914.0,280.5 897.5,279.0 899.0,72.5 1323.0,73.5 1323.0,379.5 902.0,380.5 897.5,379.0 897.5,354.0 906.5,351.0 885.0,351.5 884.5,379.0 882.0,380.5 784.0,380.5 781.5,431.0 813.5,432.0 794.5,431.0 795.5,395.0 798.0,393.5 1322.0,393.5 1323.5,581.0 796.0,581.5 794.0,502.5 781.5,504.0 781.5,619.0 783.0,623.5 836.5,623.0 795.0,621.5 794.5,596.0 797.0,594.5 1321.0,594.5 1323.5,596.0 1322.5,647.0 1332.0,654.5 1338.0,654.5 1350.5,653.0 1351.0,601.5 1421.0,599.5 1423.5,620.0 1425.5,837.0 1425.5,921.0 1423.0,925.5" stroke="black" stroke-width="1" /><polyline fill="none" points="573.5,348.0 589.0,347.5 589.5,341.0 530.0,341.5 527.5,329.0 532.5,309.0 541.5,293.0 559.0,276.5 572.0,269.5 589.0,265.5 590.5,262.0 589.0,75.5 188.5,76.0 189.0,347.5 573.5,348.0" stroke="black" stroke-width="1" /><polyline fill="none" points="848.5,241.0 882.5,240.0 882.0,75.5 607.5,76.0 608.0,240.5 698.0,240.5 697.5,181.0 701.0,177.5 709.0,177.5 733.0,183.5 750.0,194.5 764.5,211.0 770.5,223.0 774.0,240.5 848.5,241.0" stroke="black" stroke-width="1" /><polyline fill="none" points="1249.5,378.0 1320.5,377.0 1321.0,75.5 900.5,76.0 900.5,276.0 961.0,275.5 963.5,278.0 960.5,306.0 952.5,322.0 936.0,340.5 924.0,348.5 899.5,356.0 901.0,377.5 1249.5,378.0" stroke="black" stroke-width="1" /><polyline fill="none" points="740.5,778.0 738.5,712.0 741.0,709.5 778.0,710.5 779.0,688.5 786.0,692.5 806.0,691.5 823.0,684.5 835.0,675.5 847.5,660.0 856.5,634.0 856.0,624.5 783.0,626.5 779.5,624.0 779.5,502.0 807.0,499.5 832.0,486.5 848.5,466.0 856.5,442.0 854.0,432.5 779.0,433.5 779.5,380.0 782.0,377.5 882.0,377.5 882.5,350.0 908.0,348.5 931.0,337.5 951.5,313.0 958.5,283.0 956.0,280.5 884.0,283.5 880.5,281.0 881.0,258.5 770.0,258.5 767.5,257.0 767.5,232.0 755.5,208.0 733.0,189.5 715.0,183.5 704.0,183.5 704.5,255.0 702.0,258.5 608.0,258.5 608.5,269.0 606.0,271.5 575.0,274.5 552.0,289.5 540.5,305.0 533.5,326.0 533.5,335.0 537.0,336.5 606.0,334.5 608.0,347.5 688.0,347.5 693.5,350.0 692.5,422.0 662.0,425.5 640.0,436.5 622.5,456.0 613.5,478.0 614.0,492.5 692.5,493.0 693.5,616.0 691.0,619.5 668.0,620.5 586.0,619.5 584.0,641.5 566.0,642.5 550.0,647.5 530.5,663.0 519.5,683.0 517.5,701.0 584.0,700.5 585.5,711.0 593.0,712.5 678.0,711.5 681.5,738.0 692.5,758.0 706.0,769.5 721.0,776.5 740.5,778.0" stroke="black" stroke-width="1" /><polyline fill="none" points="592.5,602.0 675.5,601.0 675.5,498.0 610.0,498.5 606.5,495.0 611.5,466.0 627.5,440.0 638.0,430.5 656.0,421.5 675.5,417.0 675.0,366.5 291.5,367.0 291.0,601.5 592.5,602.0" stroke="black" stroke-width="1" /><polyline fill="none" points="1321.5,579.0 1320.0,396.5 797.5,397.0 798.0,428.5 861.5,430.0 859.5,454.0 846.5,480.0 821.0,500.5 797.5,507.0 798.0,579.5 1321.5,579.0" stroke="black" stroke-width="1" /><polyline fill="none" points="1299.5,922.0 1321.5,921.0 1321.5,726.0 1275.0,725.5 1272.5,720.0 1275.5,699.0 1283.5,681.0 1305.0,660.5 1322.5,653.0 1320.0,597.5 797.5,598.0 798.0,619.5 860.0,619.5 862.5,622.0 859.5,647.0 843.5,675.0 826.0,689.5 797.5,698.0 799.0,922.5 1299.5,922.0" stroke="black" stroke-width="1" /><polyline fill="none" points="1387.5,923.0 1422.0,922.5 1423.5,919.0 1421.5,622.0 1419.0,602.5 1353.0,603.5 1352.5,655.0 1326.0,657.5 1306.0,666.5 1286.5,688.0 1278.5,711.0 1278.5,719.0 1282.0,720.5 1343.0,718.5 1353.5,721.0 1352.5,922.0 1387.5,923.0" stroke="black" stroke-width="1" /><polyline fill="none" points="518.5,891.0 567.5,890.0 567.5,707.0 514.0,706.5 511.5,704.0 513.5,685.0 521.5,666.0 539.0,647.5 554.0,639.5 566.0,637.5 566.0,625.5 188.5,626.0 190.0,891.5 518.5,891.0" stroke="black" stroke-width="1" /><polyline fill="none" points="630.5,891.0 779.5,890.0 779.0,729.5 744.5,730.0 745.5,783.0 740.0,784.5 723.0,782.5 698.0,770.5 683.5,755.0 674.0,729.5 585.5,731.0 586.5,890.0 630.5,891.0" stroke="black" stroke-width="1" /></svg>