<?xml version='1.0' encoding='utf-8'?>
<svg xmlns="http://www.w3.org/2000/svg" version="1.1" width="1536" height="1024" viewBox="0 0 1536 1024"><rect x="0" y="0" width="1536" height="1024" fill="#FFFFFF" /><polyline points="573,348 589,347 589,341 530,341 527,329 532,309 541,293 559,276 572,269 589,265 590,262 589,75 188,76 189,347 573,348" fill="none" stroke="#0000FF" stroke-width="2" /><polyline points="848,241 882,240 882,75 607,76 608,240 698,240 697,181 701,177 709,177 733,183 750,194 764,211 770,223 774,240 848,241" fill="none" stroke="#00FF00" stroke-width="2" /><polyline points="1249,378 1320,377 1321,75 900,76 900,276 961,275 963,278 960,306 952,322 936,340 924,348 899,356 901,377 1249,378" fill="none" stroke="#FF0000" stroke-width="2" /><polyline points="740,778 738,712 741,709 778,710 779,688 786,692 806,691 823,684 835,675 847,660 856,634 856,624 783,626 779,624 779,502 807,499 832,486 848,466 856,442 854,432 779,433 779,380 782,377 882,377 882,350 908,348 931,337 951,313 958,283 956,280 884,283 880,281 881,258 770,258 767,257 767,232 755,208 733,189 715,183 704,183 704,255 702,258 608,258 608,269 606,271 575,274 552,289 540,305 533,326 533,335 537,336 606,334 608,347 688,347 693,350 692,422 662,425 640,436 622,456 613,478 614,492 692,493 693,616 691,619 668,620 586,619 584,641 566,642 550,647 530,663 519,683 517,701 584,700 585,711 593,712 678,711 681,738 692,758 706,769 721,776 740,778" fill="none" stroke="#00FFFF" stroke-width="2" /><polyline points="592,602 675,601 675,498 610,498 606,495 611,466 627,440 638,430 656,421 675,417 675,366 291,367 291,601 592,602" fill="none" stroke="#FF00FF" stroke-width="2" /><polyline points="1321,579 1320,396 797,397 798,428 861,430 859,454 846,480 821,500 797,507 798,579 1321,579" fill="none" stroke="#FFFF00" stroke-width="2" /><polyline points="1299,922 1321,921 1321,726 1275,725 1272,720 1275,699 1283,681 1305,660 1322,653 1320,597 797,598 798,619 860,619 862,622 859,647 843,675 826,689 797,698 799,922 1299,922" fill="none" stroke="#0080FF" stroke-width="2" /><polyline points="1387,923 1422,922 1423,919 1421,622 1419,602 1353,603 1352,655 1326,657 1306,666 1286,688 1278,711 1278,719 1282,720 1343,718 1353,721 1352,922 1387,923" fill="none" stroke="#FF0080" stroke-width="2" /><polyline points="518,891 567,890 567,707 514,706 511,704 513,685 521,666 539,647 554,639 566,637 566,625 188,626 190,891 518,891" fill="none" stroke="#FF8000" stroke-width="2" /><polyline points="630,891 779,890 779,729 744,730 745,783 740,784 723,782 698,770 683,755 674,729 585,731 586,890 630,891" fill="none" stroke="#8080FF" stroke-width="2" /></svg>