<?xml version='1.0' encoding='utf-8'?>
<svg xmlns="http://www.w3.org/2000/svg" width="3000" height="3000">
  <rect width="3000" height="3000" fill="black" />
  <g stroke-width="2.0" fill="none" opacity="0.8">
    <line x1="1620.41015625" y1="2726.953125" x2="1620.41015625" y2="2126.1718749999995" stroke="rgb(0,0,255)" />
    <line x1="1620.41015625" y1="2126.1718749999995" x2="1620.41015625" y2="1948.2421875" stroke="rgb(0,0,255)" />
    <line x1="1620.41015625" y1="1948.2421875" x2="1620.41015625" y2="1410.3515625" stroke="rgb(0,0,255)" />
    <line x1="1620.41015625" y1="1410.3515625" x2="1620.41015625" y2="831.640625" stroke="rgb(0,0,255)" />
    <line x1="1620.41015625" y1="831.640625" x2="1620.41015625" y2="190.625" stroke="rgb(0,0,255)" />
    <line x1="1620.41015625" y1="190.625" x2="1620.41015625" y2="162.109375" stroke="rgb(0,0,255)" />
    <line x1="1074.609375" y1="2593.9453125" x2="1074.609375" y2="2126.1718749999995" stroke="rgb(0,0,255)" />
    <line x1="1193.84765625" y1="1948.2421875" x2="1193.84765625" y2="1566.40625" stroke="rgb(0,0,255)" />
    <line x1="1323.6328125" y1="598.2421875" x2="1323.6328125" y2="190.625" stroke="rgb(0,0,255)" />
    <line x1="1193.84765625" y1="1003.7109374999999" x2="1193.84765625" y2="598.2421875" stroke="rgb(0,0,255)" />
    <line x1="1620.41015625" y1="831.640625" x2="2733.3984375" y2="831.640625" stroke="rgb(0,0,255)" />
    <line x1="1620.41015625" y1="1410.3515625" x2="2733.3984375" y2="1410.3515625" stroke="rgb(0,0,255)" />
    <line x1="2575.1953125" y1="2126.1718749999995" x2="1620.41015625" y2="2126.1718749999995" stroke="rgb(0,0,255)" />
    <line x1="884.1796875" y1="598.2421875" x2="1323.6328125" y2="598.2421875" stroke="rgb(0,0,255)" />
    <line x1="594.43359375" y1="2126.1718749999995" x2="884.1796875" y2="2126.1718749999995" stroke="rgb(0,0,255)" />
    <line x1="1620.41015625" y1="1948.2421875" x2="1193.84765625" y2="1948.2421875" stroke="rgb(0,0,255)" />
    <line x1="1193.84765625" y1="1948.2421875" x2="1142.578125" y2="1948.2421875" stroke="rgb(0,0,255)" />
    <line x1="594.43359375" y1="449.4140625" x2="594.43359375" y2="396.484375" stroke="rgb(0,0,255)" />
    <line x1="672.94921875" y1="500.19531250000006" x2="594.43359375" y2="449.4140625" stroke="rgb(0,0,255)" />
    <line x1="732.12890625" y1="500.19531250000006" x2="672.94921875" y2="500.19531250000006" stroke="rgb(0,0,255)" />
    <line x1="1142.578125" y1="1948.2421875" x2="1074.609375" y2="2004.296875" stroke="rgb(0,0,255)" />
    <line x1="1074.609375" y1="2004.296875" x2="1074.609375" y2="2030.0781250000002" stroke="rgb(0,0,255)" />
    <line x1="884.1796875" y1="598.2421875" x2="805.078125" y2="564.0625" stroke="rgb(0,0,255)" />
    <line x1="490.4296875" y1="353.90625" x2="594.43359375" y2="396.484375" stroke="rgb(0,0,255)" />
    <line x1="732.12890625" y1="500.19531250000006" x2="805.078125" y2="564.0625" stroke="rgb(0,0,255)" />
    <line x1="2575.1953125" y1="2758.3984375" x2="2575.1953125" y2="2126.1718749999995" stroke="rgb(0,255,0)" />
    <line x1="2894.53125" y1="2126.1718749999995" x2="2894.53125" y2="2758.3984375" stroke="rgb(0,255,0)" />
    <line x1="2733.3984375" y1="190.625" x2="2733.3984375" y2="2126.1718749999995" stroke="rgb(0,255,0)" />
    <line x1="594.43359375" y1="2593.9453125" x2="594.43359375" y2="2126.1718749999995" stroke="rgb(0,255,0)" />
    <line x1="208.59375" y1="1003.7109374999999" x2="1193.84765625" y2="1003.7109374999999" stroke="rgb(0,255,0)" />
    <line x1="2894.53125" y1="2126.1718749999995" x2="2575.1953125" y2="2126.1718749999995" stroke="rgb(0,255,0)" />
    <line x1="208.59375" y1="1622.265625" x2="1193.84765625" y2="1622.265625" stroke="rgb(0,255,0)" />
    <line x1="2894.53125" y1="2758.3984375" x2="2575.1953125" y2="2758.3984375" stroke="rgb(0,255,0)" />
    <line x1="2575.1953125" y1="2758.3984375" x2="1193.84765625" y2="2758.3984375" stroke="rgb(0,255,0)" />
    <line x1="1074.609375" y1="2593.9453125" x2="1074.609375" y2="2666.40625" stroke="rgb(0,255,0)" />
    <line x1="732.12890625" y1="190.625" x2="1323.6328125" y2="190.625" stroke="rgb(0,255,0)" />
    <line x1="1323.6328125" y1="190.625" x2="1620.41015625" y2="190.625" stroke="rgb(0,255,0)" />
    <line x1="1620.41015625" y1="190.625" x2="2733.3984375" y2="190.625" stroke="rgb(0,255,0)" />
    <line x1="208.59375" y1="2126.1718749999995" x2="594.43359375" y2="2126.1718749999995" stroke="rgb(0,255,0)" />
    <line x1="884.1796875" y1="1153.9062499999998" x2="884.1796875" y2="1003.7109374999999" stroke="rgb(0,255,0)" />
    <line x1="208.59375" y1="1622.265625" x2="208.59375" y2="2126.1718749999995" stroke="rgb(0,255,0)" />
    <line x1="1620.41015625" y1="2726.953125" x2="1620.41015625" y2="2758.3984375" stroke="rgb(0,255,0)" />
    <line x1="459.9609375" y1="353.90625" x2="490.4296875" y2="353.90625" stroke="rgb(0,255,0)" />
    <line x1="732.12890625" y1="190.625" x2="672.94921875" y2="226.5625" stroke="rgb(0,255,0)" />
    <line x1="490.4296875" y1="353.90625" x2="594.43359375" y2="302.34375" stroke="rgb(0,255,0)" />
    <line x1="1074.609375" y1="2126.1718749999995" x2="884.1796875" y2="2126.1718749999995" stroke="rgb(0,255,0)" />
    <line x1="1074.609375" y1="2030.0781250000002" x2="1074.609375" y2="2126.1718749999995" stroke="rgb(0,255,0)" />
    <line x1="1193.84765625" y1="2758.3984375" x2="1074.609375" y2="2666.40625" stroke="rgb(0,255,0)" />
    <line x1="672.94921875" y1="226.5625" x2="594.43359375" y2="302.34375" stroke="rgb(0,255,0)" />
    <line x1="672.94921875" y1="1333.59375" x2="884.1796875" y2="1153.9062499999998" stroke="rgb(0,255,0)" />
    <line x1="459.9609375" y1="353.90625" x2="208.59375" y2="500.19531250000006" stroke="rgb(0,255,0)" />
    <line x1="672.94921875" y1="1333.59375" x2="672.94921875" y2="1622.265625" stroke="rgb(0,255,0)" />
    <line x1="594.43359375" y1="2593.9453125" x2="1074.609375" y2="2593.9453125" stroke="rgb(0,255,0)" />
    <line x1="208.59375" y1="1003.7109374999999" x2="208.59375" y2="500.19531250000006" stroke="rgb(0,255,0)" />
  </g>
  <g opacity="1.0">
    <circle cx="1620.41015625" cy="190.625" r="4.0" fill="rgb(0,0,255)" />
    <circle cx="732.12890625" cy="190.625" r="4.0" fill="rgb(0,255,0)" />
    <circle cx="1323.6328125" cy="190.625" r="4.0" fill="rgb(0,255,0)" />
    <circle cx="2733.3984375" cy="190.625" r="4.0" fill="rgb(0,255,0)" />
    <circle cx="672.94921875" cy="226.5625" r="4.0" fill="rgb(0,255,0)" />
    <circle cx="594.43359375" cy="302.34375" r="4.0" fill="rgb(0,255,0)" />
    <circle cx="490.4296875" cy="353.90625" r="4.0" fill="rgb(0,0,255)" />
    <circle cx="459.9609375" cy="353.90625" r="4.0" fill="rgb(0,255,0)" />
    <circle cx="594.43359375" cy="396.484375" r="4.0" fill="rgb(0,0,255)" />
    <circle cx="594.43359375" cy="449.4140625" r="4.0" fill="rgb(0,0,255)" />
    <circle cx="672.94921875" cy="500.19531250000006" r="4.0" fill="rgb(0,0,255)" />
    <circle cx="732.12890625" cy="500.19531250000006" r="4.0" fill="rgb(0,0,255)" />
    <circle cx="208.59375" cy="500.19531250000006" r="4.0" fill="rgb(0,255,0)" />
    <circle cx="805.078125" cy="564.0625" r="4.0" fill="rgb(0,0,255)" />
    <circle cx="884.1796875" cy="598.2421875" r="4.0" fill="rgb(0,0,255)" />
    <circle cx="1193.84765625" cy="598.2421875" r="4.0" fill="rgb(0,0,255)" />
    <circle cx="1620.41015625" cy="831.640625" r="4.0" fill="rgb(0,0,255)" />
    <circle cx="2733.3984375" cy="831.640625" r="4.0" fill="rgb(0,255,0)" />
    <circle cx="208.59375" cy="1003.7109374999999" r="4.0" fill="rgb(0,255,0)" />
    <circle cx="884.1796875" cy="1003.7109374999999" r="4.0" fill="rgb(0,255,0)" />
    <circle cx="884.1796875" cy="1153.9062499999998" r="4.0" fill="rgb(0,255,0)" />
    <circle cx="672.94921875" cy="1333.59375" r="4.0" fill="rgb(0,255,0)" />
    <circle cx="2733.3984375" cy="1410.3515625" r="4.0" fill="rgb(0,255,0)" />
    <circle cx="1620.41015625" cy="1410.3515625" r="4.0" fill="rgb(0,0,255)" />
    <circle cx="672.94921875" cy="1622.265625" r="4.0" fill="rgb(0,255,0)" />
    <circle cx="208.59375" cy="1622.265625" r="4.0" fill="rgb(0,255,0)" />
    <circle cx="1193.84765625" cy="1948.2421875" r="4.0" fill="rgb(0,0,255)" />
    <circle cx="1620.41015625" cy="1948.2421875" r="4.0" fill="rgb(0,0,255)" />
    <circle cx="1142.578125" cy="1948.2421875" r="4.0" fill="rgb(0,0,255)" />
    <circle cx="1074.609375" cy="2004.296875" r="4.0" fill="rgb(0,0,255)" />
    <circle cx="1074.609375" cy="2030.0781250000002" r="4.0" fill="rgb(0,255,0)" />
    <circle cx="1620.41015625" cy="2126.1718749999995" r="4.0" fill="rgb(0,0,255)" />
    <circle cx="1074.609375" cy="2126.1718749999995" r="4.0" fill="rgb(0,0,255)" />
    <circle cx="2894.53125" cy="2126.1718749999995" r="4.0" fill="rgb(0,255,0)" />
    <circle cx="2575.1953125" cy="2126.1718749999995" r="4.0" fill="rgb(0,255,0)" />
    <circle cx="208.59375" cy="2126.1718749999995" r="4.0" fill="rgb(0,255,0)" />
    <circle cx="884.1796875" cy="2126.1718749999995" r="4.0" fill="rgb(0,0,255)" />
    <circle cx="594.43359375" cy="2126.1718749999995" r="4.0" fill="rgb(0,255,0)" />
    <circle cx="1074.609375" cy="2593.9453125" r="4.0" fill="rgb(0,255,0)" />
    <circle cx="594.43359375" cy="2593.9453125" r="4.0" fill="rgb(0,255,0)" />
    <circle cx="1074.609375" cy="2666.40625" r="4.0" fill="rgb(0,255,0)" />
    <circle cx="1620.41015625" cy="2726.953125" r="4.0" fill="rgb(0,255,0)" />
    <circle cx="2575.1953125" cy="2758.3984375" r="4.0" fill="rgb(0,255,0)" />
    <circle cx="1193.84765625" cy="2758.3984375" r="4.0" fill="rgb(0,255,0)" />
    <circle cx="2894.53125" cy="2758.3984375" r="4.0" fill="rgb(0,255,0)" />
  </g>
</svg>