<?xml version="1.0" encoding="utf-8" ?>
<svg baseProfile="full" height="1536" version="1.1" width="1024" xmlns="http://www.w3.org/2000/svg" xmlns:ev="http://www.w3.org/2001/xml-events" xmlns:xlink="http://www.w3.org/1999/xlink"><defs /><polyline fill="none" points="913.0,1429.5 265.0,1429.5 261.5,1427.0 261.0,1287.5 92.5,1286.0 93.0,80.5 927.0,79.5 930.5,82.0 931.5,1284.0 927.0,1287.5 915.5,1288.0 915.5,1427.0 913.0,1429.5" stroke="black" stroke-width="1" /><polyline fill="none" points="911.5,1427.0 912.5,1286.0 928.5,1284.0 928.5,84.0 917.0,81.5 95.0,82.5 94.5,1284.0 264.0,1285.5 265.0,1426.5 911.5,1427.0" stroke="black" stroke-width="1" /><polyline fill="none" points="907.0,1422.5 270.0,1422.5 268.5,1420.0 270.0,1284.5 643.0,1284.5 717.0,1281.5 725.5,1299.0 717.5,1280.0 715.0,1253.5 500.5,1254.0 500.5,899.0 585.0,898.5 587.0,870.5 649.5,870.0 648.5,851.0 642.0,837.5 648.5,860.0 648.5,868.0 646.0,869.5 577.0,868.5 573.5,873.0 575.5,885.0 573.0,886.5 489.5,888.0 489.5,964.0 478.0,965.5 475.5,978.0 477.0,982.5 478.0,977.5 489.5,979.0 488.0,1255.5 124.5,1255.0 125.0,977.5 414.0,976.5 419.5,1000.0 427.5,1012.0 418.5,992.0 416.5,966.0 405.0,965.5 403.5,963.0 402.0,922.5 332.5,921.0 335.5,899.0 343.0,884.5 333.5,901.0 331.5,922.0 391.0,923.5 391.0,965.5 137.0,966.5 123.5,964.0 123.5,558.0 391.5,558.0 391.5,857.0 384.5,859.0 402.0,859.5 403.5,500.0 462.5,497.0 459.5,473.0 449.0,455.5 457.5,472.0 460.5,496.0 393.0,497.5 391.0,544.5 124.5,545.0 125.0,413.5 316.0,413.5 318.5,411.0 317.0,398.5 316.0,401.5 309.0,402.5 123.5,401.0 125.0,113.5 391.5,114.0 391.5,401.0 382.0,401.5 380.5,399.0 380.0,341.5 358.0,343.5 335.5,358.0 354.0,346.5 378.0,342.5 379.5,412.0 391.5,414.0 393.0,434.5 420.0,436.5 439.0,446.5 427.0,437.5 405.0,433.5 403.5,431.0 403.5,367.0 489.0,365.5 491.5,364.0 493.5,339.0 500.5,325.0 494.5,333.0 489.0,353.5 403.5,353.0 405.0,113.5 573.5,115.0 573.0,353.5 553.5,352.0 553.5,298.0 538.0,297.5 524.5,303.0 546.0,297.5 552.5,299.0 552.5,363.0 573.5,366.0 573.5,417.0 600.0,418.5 617.0,426.5 604.0,418.5 585.5,414.0 585.5,115.0 898.5,115.0 898.5,509.0 873.0,511.5 597.0,512.5 585.5,511.0 585.5,482.0 645.0,480.5 644.5,461.0 642.5,460.0 644.0,479.5 572.5,480.0 575.0,687.5 606.5,690.0 585.5,684.0 587.0,523.5 897.0,523.5 898.5,775.0 897.0,777.5 586.5,778.0 587.0,752.5 648.0,752.5 647.0,735.5 647.5,750.0 645.0,751.5 575.0,750.5 573.5,803.0 576.0,805.5 609.0,808.5 627.0,819.5 609.0,807.5 587.0,804.5 585.5,791.0 898.5,790.0 898.5,1254.0 776.0,1254.5 775.5,1286.0 908.5,1286.0 907.0,1422.5" stroke="black" stroke-width="1" /><polyline fill="none" points="225.5,400.0 314.0,399.5 319.5,374.0 329.5,359.0 342.0,348.5 370.0,338.5 380.0,338.5 383.5,342.0 383.5,399.0 389.5,399.0 389.0,115.5 126.5,116.0 126.5,399.0 225.5,400.0" stroke="black" stroke-width="1" /><polyline fill="none" points="448.5,352.0 487.0,351.5 492.5,331.0 506.0,311.5 529.0,297.5 548.0,293.5 554.0,293.5 556.5,297.0 556.5,351.0 571.5,351.0 570.0,115.5 405.5,117.0 406.5,351.0 448.5,352.0" stroke="black" stroke-width="1" /><polyline fill="none" points="857.5,509.0 896.5,507.0 895.5,116.0 589.0,116.5 588.5,413.0 611.0,418.5 632.5,434.0 646.5,459.0 649.5,481.0 645.0,483.5 589.0,482.5 587.5,509.0 857.5,509.0" stroke="black" stroke-width="1" /><polyline fill="none" points="473.5,1034.0 473.5,966.0 476.0,962.5 486.5,963.0 488.0,884.5 571.0,884.5 573.5,883.0 571.5,871.0 575.0,866.5 646.5,866.0 641.5,843.0 626.0,821.5 607.0,810.5 574.0,807.5 571.5,805.0 573.0,748.5 645.5,748.0 639.5,723.0 625.0,703.5 599.0,690.5 573.0,690.5 571.5,688.0 570.5,478.0 640.0,477.5 642.5,469.0 631.5,443.0 616.0,428.5 598.0,420.5 570.5,418.0 571.5,368.0 553.0,367.5 550.5,365.0 550.0,300.5 526.0,305.5 505.5,322.0 495.5,341.0 494.5,364.0 491.0,367.5 406.5,369.0 406.5,430.0 429.0,435.5 450.5,452.0 461.5,471.0 464.5,499.0 463.0,501.5 406.5,502.0 406.5,858.0 402.0,862.5 378.0,863.5 356.0,874.5 342.5,890.0 334.5,914.0 335.0,919.5 404.0,920.5 406.5,962.0 418.5,964.0 420.5,990.0 429.5,1011.0 444.0,1025.5 473.5,1034.0" stroke="black" stroke-width="1" /><polyline fill="none" points="336.5,543.0 389.0,542.5 389.5,497.0 393.0,494.5 458.5,494.0 454.5,471.0 438.0,448.5 418.0,438.5 391.0,436.5 389.5,416.0 377.5,414.0 376.0,345.5 356.0,348.5 334.5,363.0 323.5,381.0 321.5,411.0 318.0,415.5 126.5,417.0 127.0,542.5 336.5,543.0" stroke="black" stroke-width="1" /><polyline fill="none" points="690.5,776.0 895.5,774.0 895.0,525.5 588.5,526.0 588.5,683.0 612.0,688.5 626.0,696.5 643.5,717.0 651.5,742.0 650.0,754.5 589.0,754.5 588.5,775.0 690.5,776.0" stroke="black" stroke-width="1" /><polyline fill="none" points="386.5,963.0 389.5,962.0 389.0,926.5 332.0,926.5 328.5,920.0 331.5,899.0 343.5,878.0 363.0,862.5 389.5,855.0 389.5,560.0 127.0,559.5 126.5,963.0 386.5,963.0" stroke="black" stroke-width="1" /><polyline fill="none" points="772.5,1321.0 774.0,1251.5 896.5,1252.0 895.5,792.0 589.0,792.5 589.0,801.5 611.0,805.5 623.0,811.5 638.5,826.0 650.5,849.0 652.5,870.0 651.0,872.5 589.0,872.5 588.5,898.0 585.0,901.5 503.5,901.0 503.5,1252.0 717.0,1251.5 719.5,1278.0 727.5,1298.0 743.0,1313.5 757.0,1319.5 772.5,1321.0" stroke="black" stroke-width="1" /><polyline fill="none" points="470.5,1253.0 486.5,1252.0 486.0,980.5 479.5,980.0 478.0,1040.5 456.0,1037.5 435.0,1026.5 420.5,1009.0 413.0,979.5 125.5,981.0 127.0,1252.5 470.5,1253.0" stroke="black" stroke-width="1" /><polyline fill="none" points="887.5,1420.0 905.5,1419.0 905.0,1287.5 779.0,1287.5 777.0,1328.5 758.0,1326.5 738.0,1317.5 723.5,1303.0 715.0,1285.5 271.5,1288.0 272.0,1419.5 887.5,1420.0" stroke="black" stroke-width="1" /></svg>