<?xml version="1.0" encoding="utf-8" ?>
<svg baseProfile="full" height="1536" version="1.1" width="1024" xmlns="http://www.w3.org/2000/svg" xmlns:ev="http://www.w3.org/2001/xml-events" xmlns:xlink="http://www.w3.org/1999/xlink"><defs /><polyline fill="none" points="990.0,1430.5 399.0,1430.5 347.5,1378.0 347.0,1355.5 182.0,1355.5 180.5,1124.0 50.5,1122.0 50.5,801.0 204.0,800.5 205.5,664.0 285.5,583.0 285.0,528.5 51.5,528.0 50.5,259.0 237.0,74.5 947.5,75.0 948.5,515.0 975.5,548.0 974.5,682.0 948.5,716.0 947.5,722.0 948.5,1062.0 988.0,1062.5 993.5,1065.0 993.5,1427.0 990.0,1430.5" stroke="black" stroke-width="1" /><polyline fill="none" points="990.5,1427.0 991.5,1067.0 947.0,1065.5 945.5,1063.0 945.5,716.0 972.5,680.0 972.5,548.0 945.5,514.0 945.5,77.0 239.0,76.5 52.5,261.0 52.5,345.0 57.0,341.5 64.5,344.0 64.5,418.0 52.5,419.0 52.5,524.0 286.0,525.5 288.5,544.0 286.5,587.0 207.5,666.0 207.5,801.0 52.5,803.0 52.5,1120.0 182.5,1121.0 184.0,1353.5 349.0,1353.5 349.5,1376.0 400.0,1427.5 990.5,1427.0" stroke="black" stroke-width="1" /><polyline fill="none" points="977.0,1415.5 897.5,1414.0 897.5,1234.0 885.0,1232.5 868.5,1234.0 868.0,1398.5 559.0,1398.5 557.5,1196.0 581.0,1188.5 599.0,1171.5 591.0,1180.5 575.0,1189.5 545.5,1194.0 545.0,1397.5 413.0,1398.5 377.5,1364.0 376.5,1199.0 378.0,1196.5 432.0,1196.5 430.5,1176.0 419.0,1156.5 430.5,1181.0 430.0,1195.5 364.5,1196.0 363.0,1324.5 212.0,1324.5 211.5,1105.0 360.0,1104.5 364.5,1106.0 365.0,1135.5 390.0,1137.5 410.0,1148.5 396.0,1138.5 376.5,1132.0 377.5,1039.0 413.0,1001.5 431.0,1000.5 433.5,1002.0 433.5,1059.0 454.0,1059.5 475.5,1049.0 454.0,1058.5 434.5,1058.0 434.5,989.0 417.5,987.0 416.0,915.5 398.0,914.5 374.5,904.0 388.0,912.5 404.5,917.0 404.5,995.0 311.0,1092.5 81.5,1092.0 83.0,832.5 404.5,833.0 404.0,852.5 351.0,852.5 352.0,870.5 352.0,854.5 417.5,853.0 416.0,802.5 251.0,803.5 236.5,801.0 238.5,676.0 318.5,596.0 319.0,525.5 414.5,524.0 415.5,430.0 401.5,429.0 402.5,495.0 400.0,496.5 81.5,495.0 81.5,273.0 163.0,191.5 167.0,191.5 184.0,207.5 289.0,312.5 402.0,313.5 402.5,365.0 384.0,369.5 368.0,378.5 366.0,382.5 386.0,370.5 414.5,367.0 416.0,312.5 459.5,312.0 459.0,246.5 446.5,248.0 446.5,299.0 444.0,300.5 293.0,299.5 176.5,184.0 176.5,179.0 249.0,107.5 445.0,106.5 446.5,183.0 423.0,188.5 409.0,199.5 427.0,188.5 458.5,185.0 460.0,106.5 544.0,106.5 546.0,333.5 558.5,333.0 559.0,106.5 916.5,108.0 916.0,418.5 559.0,419.5 559.5,397.0 545.5,397.0 545.5,621.0 575.0,624.5 591.0,633.5 578.0,624.5 557.5,619.0 559.0,431.5 916.5,433.0 916.5,524.0 945.5,561.0 945.5,667.0 918.5,704.0 915.0,716.5 559.0,716.5 558.5,685.0 545.5,685.0 545.5,843.0 568.0,844.5 592.0,856.5 578.0,846.5 561.0,843.5 557.5,840.0 559.0,728.5 916.5,730.0 916.5,1076.0 559.0,1077.5 558.5,907.0 551.0,905.5 545.5,907.0 545.5,986.0 502.0,987.5 497.5,1019.0 503.0,1000.5 545.5,1002.0 545.5,1132.0 611.0,1133.5 612.5,1142.0 608.0,1159.5 613.5,1144.0 613.0,1132.5 558.5,1132.0 559.0,1090.5 868.0,1090.5 869.5,1174.0 876.0,1175.5 876.5,1179.0 863.0,1185.5 882.0,1178.5 898.5,1177.0 898.0,1106.5 944.0,1106.5 947.0,1078.5 977.0,1078.5 977.0,1415.5" stroke="black" stroke-width="1" /><polyline fill="none" points="394.5,298.0 443.0,297.5 444.5,295.0 443.0,248.5 383.5,247.0 387.5,222.0 398.5,204.0 421.0,186.5 443.5,181.0 443.0,108.5 253.0,108.5 178.5,181.0 295.0,297.5 394.5,298.0" stroke="black" stroke-width="1" /><polyline fill="none" points="450.5,1056.0 474.0,1046.5 487.5,1033.0 495.5,1018.0 500.0,985.5 543.5,984.0 544.0,904.5 613.5,903.0 605.5,875.0 591.0,858.5 572.0,848.5 542.5,844.0 543.5,683.0 604.0,682.5 612.0,681.5 613.5,678.0 605.5,653.0 590.0,635.5 573.0,626.5 546.0,624.5 542.5,619.0 543.5,394.0 612.0,393.5 612.5,384.0 604.5,364.0 591.0,348.5 569.0,337.5 542.5,335.0 542.0,108.5 462.0,108.5 461.5,186.0 459.0,188.5 437.0,188.5 417.0,196.5 400.5,212.0 390.5,233.0 391.0,243.5 461.5,245.0 462.5,313.0 460.0,315.5 418.0,315.5 418.5,368.0 388.0,372.5 371.0,381.5 355.5,398.0 348.5,417.0 348.5,425.0 355.0,426.5 416.5,426.0 416.5,526.0 414.0,528.5 321.0,528.5 320.5,598.0 240.5,678.0 240.0,799.5 392.0,799.5 419.5,802.0 420.5,854.0 418.0,856.5 354.0,856.5 353.5,862.0 361.5,885.0 376.0,901.5 400.0,912.5 418.0,912.5 420.5,915.0 419.5,985.0 437.5,987.0 437.5,1056.0 450.5,1056.0" stroke="black" stroke-width="1" /><polyline fill="none" points="797.5,417.0 914.5,416.0 913.5,109.0 561.0,108.5 560.5,330.0 589.0,339.5 603.5,352.0 614.5,369.0 619.5,398.0 561.0,399.5 560.5,416.0 797.5,417.0" stroke="black" stroke-width="1" /><polyline fill="none" points="368.5,494.0 400.5,493.0 399.5,431.0 343.0,431.5 342.5,414.0 350.5,394.0 366.0,376.5 384.0,366.5 400.5,363.0 399.5,316.0 287.0,314.5 165.0,193.5 83.5,275.0 83.5,493.0 368.5,494.0" stroke="black" stroke-width="1" /><polyline fill="none" points="884.5,714.0 914.0,713.5 916.5,702.0 942.5,667.0 942.5,560.0 914.5,526.0 913.0,434.5 560.5,435.0 560.5,618.0 580.0,622.5 595.0,631.5 614.5,656.0 619.5,676.0 617.0,687.5 561.0,687.5 561.0,713.5 884.5,714.0" stroke="black" stroke-width="1" /><polyline fill="none" points="913.5,1075.0 913.0,731.5 560.5,732.0 560.5,840.0 578.0,843.5 596.0,854.5 610.5,871.0 619.5,898.0 619.5,906.0 616.0,909.5 560.5,910.0 561.0,1075.5 913.5,1075.0" stroke="black" stroke-width="1" /><polyline fill="none" points="292.5,1091.0 309.0,1090.5 402.5,993.0 402.5,919.0 375.0,908.5 360.5,895.0 348.5,871.0 346.5,856.0 349.0,850.5 402.0,850.5 402.5,835.0 85.0,834.5 83.5,1090.0 292.5,1091.0" stroke="black" stroke-width="1" /><polyline fill="none" points="540.5,1396.0 543.5,1371.0 543.5,1192.0 570.0,1188.5 589.0,1178.5 605.5,1158.0 609.5,1137.0 542.5,1134.0 542.0,1003.5 505.0,1003.5 502.5,1017.0 492.5,1037.0 473.0,1054.5 447.0,1063.5 433.0,1063.5 430.5,1060.0 431.5,1004.0 415.0,1003.5 379.5,1041.0 379.5,1132.0 398.0,1136.5 418.5,1151.0 432.5,1174.0 435.5,1198.0 379.5,1200.0 379.5,1362.0 412.0,1395.5 540.5,1396.0" stroke="black" stroke-width="1" /><polyline fill="none" points="988.0,1426.5 897.5,1426.0 899.0,1416.5 979.5,1415.0 979.5,1078.0 947.0,1076.5 947.0,1066.5 989.5,1067.0 988.0,1426.5" stroke="black" stroke-width="1" /><polyline fill="none" points="983.5,1424.0 987.5,1421.0 987.5,1069.0 949.0,1069.5 949.0,1074.5 980.0,1074.5 982.5,1078.0 982.5,1417.0 980.0,1419.5 901.0,1419.5 899.5,1424.0 983.5,1424.0" stroke="black" stroke-width="1" /><polyline fill="none" points="934.5,1413.0 975.5,1412.0 976.5,1086.0 973.0,1080.5 947.5,1082.0 948.5,1107.0 946.0,1108.5 899.5,1109.0 900.5,1179.0 884.0,1180.5 864.0,1187.5 848.5,1202.0 838.5,1225.0 839.0,1231.5 899.5,1231.0 899.5,1412.0 934.5,1413.0" stroke="black" stroke-width="1" /><polyline fill="none" points="866.5,1396.0 867.5,1238.0 832.5,1236.0 833.5,1220.0 838.5,1206.0 857.0,1184.5 870.5,1178.0 866.5,1175.0 866.0,1093.5 560.5,1094.0 561.0,1129.5 610.0,1129.5 616.5,1132.0 613.5,1156.0 603.5,1173.0 588.0,1187.5 559.5,1200.0 561.0,1395.5 866.5,1396.0" stroke="black" stroke-width="1" /><polyline fill="none" points="346.5,1322.0 362.5,1321.0 362.5,1194.0 428.0,1193.5 428.5,1183.0 420.5,1164.0 409.0,1150.5 394.0,1141.5 363.0,1137.5 361.0,1107.5 214.0,1107.5 213.5,1321.0 346.5,1322.0" stroke="black" stroke-width="1" /></svg>