<?xml version='1.0' encoding='utf-8'?>
<svg xmlns="http://www.w3.org/2000/svg" version="1.1" width="1024" height="1536" viewBox="0 0 1024 1536">
<rect x="0" y="0" width="1024" height="1536" fill="#FFFFFF" />
<path d="M 448.0,313.0 L 453.0,311.3 L 528.0,311.1 L 559.0,312.0 L 559.0,117.0 L 436.0,118.0 L 436.0,309.0 L 438.0,312.0 L 448.0,313.0 Z" stroke="#0000FF" stroke-width="2" fill="none" />
<path d="M 318.0,429.0 L 417.0,428.0 L 417.0,424.0 L 417.0,338.0 L 418.0,120.0 L 186.0,119.0 L 92.0,250.0 L 92.0,428.0 L 318.0,429.0 Z" stroke="#00FF00" stroke-width="2" fill="none" />
<path d="M 697.0,540.0 L 852.0,539.0 L 853.0,231.0 L 578.0,232.0 L 578.0,444.0 L 579.9,530.0 L 579.0,539.0 L 697.0,540.0 Z" stroke="#FF0000" stroke-width="2" fill="none" />
<path d="M 523.2,936.0 L 523.0,921.0 L 525.0,918.0 L 559.0,918.0 L 558.0,819.0 L 576.0,818.8 L 576.0,750.3 L 559.0,749.0 L 559.0,524.0 L 576.0,522.9 L 576.0,451.2 L 559.0,451.0 L 560.0,333.0 L 521.0,329.0 L 521.3,314.0 L 460.1,314.0 L 458.0,329.0 L 455.0,333.0 L 438.0,332.0 L 437.0,345.0 L 420.0,345.6 L 420.0,416.2 L 436.0,416.0 L 438.0,419.0 L 438.0,528.0 L 431.0,525.0 L 420.0,525.7 L 420.0,592.1 L 428.0,592.0 L 437.0,596.0 L 437.0,815.0 L 420.0,816.3 L 420.0,882.0 L 436.0,882.0 L 436.0,919.0 L 457.0,918.0 L 458.8,936.0 Z" stroke="#00FFFF" stroke-width="2" fill="none" />
<path d="M 412.0,616.0 L 418.0,615.0 L 418.0,599.0 L 417.0,520.0 L 417.0,448.0 L 185.0,449.0 L 185.0,535.0 L 268.0,615.0 L 412.0,616.0 Z" stroke="#FF00FF" stroke-width="2" fill="none" />
<path d="M 860.0,837.0 L 869.0,836.0 L 869.0,822.0 L 872.0,819.0 L 930.0,819.0 L 931.0,640.0 L 929.0,567.0 L 855.0,567.0 L 852.0,559.0 L 844.0,558.0 L 578.0,560.0 L 579.0,744.0 L 580.0,825.0 L 580.0,836.0 L 860.0,837.0 Z" stroke="#FFFF00" stroke-width="2" fill="none" />
<path d="M 411.0,920.0 L 416.0,919.0 L 417.0,915.0 L 416.0,888.0 L 417.0,809.0 L 417.0,634.0 L 246.0,635.0 L 229.0,619.0 L 107.0,739.0 L 108.0,919.0 L 411.0,920.0 Z" stroke="#0080FF" stroke-width="2" fill="none" />
<path d="M 948.0,1394.0 L 947.0,851.0 L 915.0,850.0 L 901.0,852.0 L 901.0,1146.0 L 873.0,1146.3 L 873.0,1214.6 L 901.0,1218.0 L 901.0,1276.0 L 885.0,1278.0 L 578.0,1278.0 L 500.0,1355.0 L 499.0,1393.0 L 948.0,1394.0 Z" stroke="#FF0080" stroke-width="2" fill="none" />
<path d="M 828.0,1246.0 L 869.0,1245.0 L 870.0,1242.0 L 870.0,1222.0 L 869.0,1140.0 L 870.0,857.0 L 579.0,856.0 L 579.0,1105.0 L 579.9,1189.0 L 578.0,1245.0 L 828.0,1246.0 Z" stroke="#FF8000" stroke-width="2" fill="none" />
<path d="M 429.0,1324.0 L 486.0,1323.0 L 555.0,1255.0 L 560.0,1245.0 L 561.0,1182.0 L 578.0,1182.2 L 576.0,1111.6 L 564.0,1111.0 L 563.0,1115.0 L 560.0,1115.0 L 559.0,940.0 L 530.0,940.0 L 452.0,939.0 L 136.0,939.0 L 133.0,1180.0 L 273.0,1324.0 L 429.0,1324.0 Z" stroke="#8080FF" stroke-width="2" fill="none" />
</svg>