<?xml version='1.0' encoding='utf-8'?>
<svg xmlns="http://www.w3.org/2000/svg" width="1024.0" height="1536.0" viewBox="0 0 1024.0 1536.0"><rect width="1024.0" height="1536.0" fill="white" /><text x="512.0" y="30" font-family="Arial" font-size="20" fill="black" text-anchor="middle">All Red Lines from Original SVG</text><line x1="424.4" y1="808.8" x2="424.4" y2="890.0" stroke="rgb(255,0,0)" stroke-width="3.0" id="red_line_1" /><text x="424.4" y="839.4" font-family="Arial" font-size="12" fill="black" text-anchor="middle">R1</text><line x1="571.8" y1="542.4" x2="571.8" y2="437.2" stroke="rgb(255,0,0)" stroke-width="3.0" id="red_line_2" /><text x="571.8" y="479.79999999999995" font-family="Arial" font-size="12" fill="black" text-anchor="middle">R2</text><line x1="424.4" y1="323.5" x2="424.4" y2="437.2" stroke="rgb(255,0,0)" stroke-width="3.0" id="red_line_3" /><text x="424.4" y="370.35" font-family="Arial" font-size="12" fill="black" text-anchor="middle">R3</text><line x1="571.8" y1="1218.2" x2="571.8" y2="1104.0" stroke="rgb(255,0,0)" stroke-width="3.0" id="red_line_4" /><text x="571.8" y="1151.1" font-family="Arial" font-size="12" fill="black" text-anchor="middle">R4</text><line x1="571.8" y1="743.1" x2="571.8" y2="829.8" stroke="rgb(255,0,0)" stroke-width="3.0" id="red_line_5" /><text x="571.8" y="776.45" font-family="Arial" font-size="12" fill="black" text-anchor="middle">R5</text><line x1="941.7" y1="1407.4" x2="941.7" y2="1419.0" stroke="rgb(255,0,0)" stroke-width="3.0" id="red_line_6" /><text x="941.7" y="1403.2" font-family="Arial" font-size="12" fill="black" text-anchor="middle">R6</text><line x1="881.9" y1="1260.6" x2="881.9" y2="1277.7" stroke="rgb(255,0,0)" stroke-width="3.0" id="red_line_7" /><text x="881.9" y="1259.15" font-family="Arial" font-size="12" fill="black" text-anchor="middle">R7</text><line x1="529.6" y1="323.5" x2="451.3" y2="323.5" stroke="rgb(255,0,0)" stroke-width="3.0" id="red_line_8" /><text x="490.45000000000005" y="313.5" font-family="Arial" font-size="12" fill="black" text-anchor="middle">R8</text><line x1="451.3" y1="929.6" x2="529.6" y2="929.6" stroke="rgb(255,0,0)" stroke-width="3.0" id="red_line_9" /><text x="490.45000000000005" y="919.6" font-family="Arial" font-size="12" fill="black" text-anchor="middle">R9</text><line x1="424.4" y1="542.4" x2="424.4" y2="610.0" stroke="rgb(255,0,0)" stroke-width="3.0" id="red_line_10" /><text x="424.4" y="566.2" font-family="Arial" font-size="12" fill="black" text-anchor="middle">R10</text><line x1="881.9" y1="1218.2" x2="881.9" y2="1137.7" stroke="rgb(255,0,0)" stroke-width="3.0" id="red_line_11" /><text x="881.9" y="1167.95" font-family="Arial" font-size="12" fill="black" text-anchor="middle">R11</text><line x1="809.5" y1="1260.6" x2="733.0" y2="1260.6" stroke="rgb(255,0,0)" stroke-width="3.0" id="red_line_12" /><text x="771.25" y="1250.6" font-family="Arial" font-size="12" fill="black" text-anchor="middle">R12</text><text x="50" y="1436.0" font-family="Arial" font-size="16" fill="black" font-weight="bold">Legend:</text><line x1="50" y1="1456.0" x2="150" y2="1456.0" stroke="rgb(255,0,0)" stroke-width="3.0" /><text x="170" y="1461.0" font-family="Arial" font-size="14" fill="black">All Red Lines (12 found)</text></svg>