<?xml version='1.0' encoding='utf-8'?>
<svg xmlns="http://www.w3.org/2000/svg" width="3000.0" height="3000.0" viewBox="0 0 3000.0 3000.0"><rect width="3000.0" height="3000.0" fill="white" /><text x="1500.0" y="30" font-family="Arial" font-size="20" fill="black" text-anchor="middle">All Red Lines from Original SVG</text><line x1="1563.6" y1="1718.8" x2="1563.6" y2="1912.3" stroke="rgb(255,0,0)" stroke-width="3.0" id="red_line_1" /><text x="1563.6" y="1805.55" font-family="Arial" font-size="12" fill="black" text-anchor="middle">R1</text><line x1="1563.6" y1="2323.3" x2="1350.7" y2="2323.3" stroke="rgb(255,0,0)" stroke-width="3.0" id="red_line_2" /><text x="1457.15" y="2313.3" font-family="Arial" font-size="12" fill="black" text-anchor="middle">R2</text><line x1="1350.7" y1="1122.1" x2="1116.1" y2="1122.1" stroke="rgb(255,0,0)" stroke-width="3.0" id="red_line_3" /><text x="1233.4" y="1112.1" font-family="Arial" font-size="12" fill="black" text-anchor="middle">R3</text><line x1="1563.6" y1="2080.4" x2="1563.6" y2="2323.3" stroke="rgb(255,0,0)" stroke-width="3.0" id="red_line_4" /><text x="1563.6" y="2191.8500000000004" font-family="Arial" font-size="12" fill="black" text-anchor="middle">R4</text><line x1="966.0" y1="1281.2" x2="966.0" y2="1530.0" stroke="rgb(255,0,0)" stroke-width="3.0" id="red_line_5" /><text x="966.0" y="1395.6" font-family="Arial" font-size="12" fill="black" text-anchor="middle">R5</text><line x1="1116.1" y1="1960.2" x2="1116.1" y2="1760.0" stroke="rgb(255,0,0)" stroke-width="3.0" id="red_line_6" /><text x="1116.1" y="1850.1" font-family="Arial" font-size="12" fill="black" text-anchor="middle">R6</text><line x1="1116.1" y1="2080.4" x2="1116.1" y2="2279.5" stroke="rgb(255,0,0)" stroke-width="3.0" id="red_line_7" /><text x="1116.1" y="2169.95" font-family="Arial" font-size="12" fill="black" text-anchor="middle">R7</text><line x1="1350.7" y1="1122.1" x2="1350.7" y2="1222.1" stroke="rgb(255,0,0)" stroke-width="3.0" id="red_line_8" /><text x="1350.7" y="1162.1" font-family="Arial" font-size="12" fill="black" text-anchor="middle">R8</text><line x1="966.0" y1="1222.1" x2="1116.1" y2="1122.1" stroke="rgb(255,0,0)" stroke-width="3.0" id="red_line_9" /><text x="1041.05" y="1162.1" font-family="Arial" font-size="12" fill="black" text-anchor="middle">R9</text><line x1="2474.2" y1="1072.5" x2="2474.2" y2="1222.1" stroke="rgb(255,0,0)" stroke-width="3.0" id="red_line_10" /><text x="2474.2" y="1137.3" font-family="Arial" font-size="12" fill="black" text-anchor="middle">R10</text><text x="50" y="2900.0" font-family="Arial" font-size="16" fill="black" font-weight="bold">Legend:</text><line x1="50" y1="2920.0" x2="150" y2="2920.0" stroke="rgb(255,0,0)" stroke-width="3.0" /><text x="170" y="2925.0" font-family="Arial" font-size="14" fill="black">All Red Lines (10 found)</text></svg>