<?xml version='1.0' encoding='utf-8'?>
<svg xmlns="http://www.w3.org/2000/svg" width="1024.0" height="1536.0" viewBox="0 0 1024.0 1536.0"><rect width="1024.0" height="1536.0" fill="white" /><text x="512.0" y="30" font-family="Arial" font-size="20" fill="black" text-anchor="middle">All Red Lines from Original SVG</text><line x1="451.8" y1="256.1" x2="451.8" y2="181.2" stroke="rgb(255,0,0)" stroke-width="3.0" id="red_line_1" /><text x="451.8" y="208.65" font-family="Arial" font-size="12" fill="black" text-anchor="middle">R1</text><line x1="366.8" y1="1202.4" x2="366.8" y2="1127.8" stroke="rgb(255,0,0)" stroke-width="3.0" id="red_line_2" /><text x="366.8" y="1155.1" font-family="Arial" font-size="12" fill="black" text-anchor="middle">R2</text><line x1="407.5" y1="910.6" x2="407.5" y2="802.0" stroke="rgb(255,0,0)" stroke-width="3.0" id="red_line_3" /><text x="407.5" y="846.3" font-family="Arial" font-size="12" fill="black" text-anchor="middle">R3</text><line x1="553.1" y1="329.9" x2="553.1" y2="380.6" stroke="rgb(255,0,0)" stroke-width="3.0" id="red_line_4" /><text x="553.1" y="345.25" font-family="Arial" font-size="12" fill="black" text-anchor="middle">R4</text><line x1="553.1" y1="602.5" x2="553.1" y2="682.8" stroke="rgb(255,0,0)" stroke-width="3.0" id="red_line_5" /><text x="553.1" y="632.65" font-family="Arial" font-size="12" fill="black" text-anchor="middle">R5</text><line x1="553.1" y1="97.6" x2="553.1" y2="83.0" stroke="rgb(255,0,0)" stroke-width="3.0" id="red_line_6" /><text x="553.1" y="80.3" font-family="Arial" font-size="12" fill="black" text-anchor="middle">R6</text><line x1="407.5" y1="380.6" x2="407.5" y2="425.8" stroke="rgb(255,0,0)" stroke-width="3.0" id="red_line_7" /><text x="407.5" y="393.20000000000005" font-family="Arial" font-size="12" fill="black" text-anchor="middle">R7</text><line x1="879.0" y1="1235.9" x2="879.0" y2="1171.0" stroke="rgb(255,0,0)" stroke-width="3.0" id="red_line_8" /><text x="879.0" y="1193.45" font-family="Arial" font-size="12" fill="black" text-anchor="middle">R8</text><line x1="553.1" y1="1127.8" x2="553.1" y2="1202.4" stroke="rgb(255,0,0)" stroke-width="3.0" id="red_line_9" /><text x="553.1" y="1155.1" font-family="Arial" font-size="12" fill="black" text-anchor="middle">R9</text><line x1="553.1" y1="830.6" x2="553.1" y2="910.6" stroke="rgb(255,0,0)" stroke-width="3.0" id="red_line_10" /><text x="553.1" y="860.6" font-family="Arial" font-size="12" fill="black" text-anchor="middle">R10</text><line x1="430.9" y1="997.5" x2="503.3" y2="997.5" stroke="rgb(255,0,0)" stroke-width="3.0" id="red_line_11" /><text x="467.1" y="987.5" font-family="Arial" font-size="12" fill="black" text-anchor="middle">R11</text><text x="50" y="1436.0" font-family="Arial" font-size="16" fill="black" font-weight="bold">Legend:</text><line x1="50" y1="1456.0" x2="150" y2="1456.0" stroke="rgb(255,0,0)" stroke-width="3.0" /><text x="170" y="1461.0" font-family="Arial" font-size="14" fill="black">All Red Lines (11 found)</text></svg>