<?xml version='1.0' encoding='utf-8'?>
<svg xmlns="http://www.w3.org/2000/svg" width="1536.0" height="1024.0" viewBox="0 0 1536.0 1024.0"><rect width="1536.0" height="1024.0" fill="white" /><text x="768.0" y="30" font-family="Arial" font-size="20" fill="black" text-anchor="middle">All Red Lines from Original SVG</text><line x1="788.5" y1="256.0" x2="680.9" y2="256.0" stroke="rgb(255,0,0)" stroke-width="3.0" id="red_line_1" /><text x="734.7" y="246.0" font-family="Arial" font-size="12" fill="black" text-anchor="middle">R1</text><line x1="586.9" y1="352.3" x2="586.9" y2="256.0" stroke="rgb(255,0,0)" stroke-width="3.0" id="red_line_2" /><text x="586.9" y="294.15" font-family="Arial" font-size="12" fill="black" text-anchor="middle">R2</text><line x1="750.2" y1="722.0" x2="680.9" y2="722.0" stroke="rgb(255,0,0)" stroke-width="3.0" id="red_line_3" /><text x="715.55" y="712.0" font-family="Arial" font-size="12" fill="black" text-anchor="middle">R3</text><line x1="680.9" y1="422.3" x2="680.9" y2="500.6" stroke="rgb(255,0,0)" stroke-width="3.0" id="red_line_4" /><text x="680.9" y="451.45000000000005" font-family="Arial" font-size="12" fill="black" text-anchor="middle">R4</text><line x1="788.5" y1="696.2" x2="788.5" y2="606.5" stroke="rgb(255,0,0)" stroke-width="3.0" id="red_line_5" /><text x="788.5" y="641.35" font-family="Arial" font-size="12" fill="black" text-anchor="middle">R5</text><line x1="788.5" y1="422.3" x2="788.5" y2="500.6" stroke="rgb(255,0,0)" stroke-width="3.0" id="red_line_6" /><text x="788.5" y="451.45000000000005" font-family="Arial" font-size="12" fill="black" text-anchor="middle">R6</text><line x1="586.9" y1="722.0" x2="586.9" y2="606.5" stroke="rgb(255,0,0)" stroke-width="3.0" id="red_line_7" /><text x="586.9" y="654.25" font-family="Arial" font-size="12" fill="black" text-anchor="middle">R7</text><line x1="788.5" y1="947.0" x2="788.5" y2="935.2" stroke="rgb(255,0,0)" stroke-width="3.0" id="red_line_8" /><text x="788.5" y="931.1" font-family="Arial" font-size="12" fill="black" text-anchor="middle">R8</text><line x1="1333.9" y1="50.0" x2="1333.9" y2="64.3" stroke="rgb(255,0,0)" stroke-width="3.0" id="red_line_9" /><text x="1333.9" y="47.15" font-family="Arial" font-size="12" fill="black" text-anchor="middle">R9</text><line x1="586.9" y1="64.3" x2="586.9" y2="50.0" stroke="rgb(255,0,0)" stroke-width="3.0" id="red_line_10" /><text x="586.9" y="47.15" font-family="Arial" font-size="12" fill="black" text-anchor="middle">R10</text><line x1="890.2" y1="50.0" x2="890.2" y2="64.3" stroke="rgb(255,0,0)" stroke-width="3.0" id="red_line_11" /><text x="890.2" y="47.15" font-family="Arial" font-size="12" fill="black" text-anchor="middle">R11</text><line x1="586.9" y1="256.0" x2="643.2" y2="256.0" stroke="rgb(255,0,0)" stroke-width="3.0" id="red_line_12" /><text x="615.05" y="246.0" font-family="Arial" font-size="12" fill="black" text-anchor="middle">R12</text><line x1="1333.9" y1="722.0" x2="1333.9" y2="606.5" stroke="rgb(255,0,0)" stroke-width="3.0" id="red_line_13" /><text x="1333.9" y="654.25" font-family="Arial" font-size="12" fill="black" text-anchor="middle">R13</text><line x1="890.2" y1="352.3" x2="890.2" y2="256.0" stroke="rgb(255,0,0)" stroke-width="3.0" id="red_line_14" /><text x="890.2" y="294.15" font-family="Arial" font-size="12" fill="black" text-anchor="middle">R14</text><text x="50" y="924.0" font-family="Arial" font-size="16" fill="black" font-weight="bold">Legend:</text><line x1="50" y1="944.0" x2="150" y2="944.0" stroke="rgb(255,0,0)" stroke-width="3.0" /><text x="170" y="949.0" font-family="Arial" font-size="14" fill="black">All Red Lines (14 found)</text></svg>