<?xml version='1.0' encoding='utf-8'?>
<svg xmlns="http://www.w3.org/2000/svg" width="1024.0" height="1536.0" viewBox="0 0 1024.0 1536.0"><rect width="1024.0" height="1536.0" fill="white" /><text x="512.0" y="30" font-family="Arial" font-size="20" fill="black" text-anchor="middle">All Red Lines from Original SVG</text><line x1="301.5" y1="412.4" x2="396.1" y2="412.4" stroke="rgb(255,0,0)" stroke-width="3.0" id="red_line_1" /><text x="348.8" y="402.4" font-family="Arial" font-size="12" fill="black" text-anchor="middle">R1</text><line x1="579.1" y1="684.4" x2="579.1" y2="754.9" stroke="rgb(255,0,0)" stroke-width="3.0" id="red_line_2" /><text x="579.1" y="709.65" font-family="Arial" font-size="12" fill="black" text-anchor="middle">R2</text><line x1="781.0" y1="1269.6" x2="723.5" y2="1269.6" stroke="rgb(255,0,0)" stroke-width="3.0" id="red_line_3" /><text x="752.25" y="1259.6" font-family="Arial" font-size="12" fill="black" text-anchor="middle">R3</text><line x1="579.1" y1="412.4" x2="579.1" y2="519.4" stroke="rgb(255,0,0)" stroke-width="3.0" id="red_line_4" /><text x="579.1" y="455.9" font-family="Arial" font-size="12" fill="black" text-anchor="middle">R4</text><line x1="396.1" y1="90.0" x2="396.1" y2="105.2" stroke="rgb(255,0,0)" stroke-width="3.0" id="red_line_5" /><text x="396.1" y="87.6" font-family="Arial" font-size="12" fill="black" text-anchor="middle">R5</text><line x1="579.1" y1="105.2" x2="579.1" y2="90.0" stroke="rgb(255,0,0)" stroke-width="3.0" id="red_line_6" /><text x="579.1" y="87.6" font-family="Arial" font-size="12" fill="black" text-anchor="middle">R6</text><line x1="396.1" y1="878.3" x2="396.1" y2="923.9" stroke="rgb(255,0,0)" stroke-width="3.0" id="red_line_7" /><text x="396.1" y="891.0999999999999" font-family="Arial" font-size="12" fill="black" text-anchor="middle">R7</text><line x1="579.1" y1="803.3" x2="579.1" y2="878.3" stroke="rgb(255,0,0)" stroke-width="3.0" id="red_line_8" /><text x="579.1" y="830.8" font-family="Arial" font-size="12" fill="black" text-anchor="middle">R8</text><line x1="396.1" y1="973.1" x2="477.0" y2="973.1" stroke="rgb(255,0,0)" stroke-width="3.0" id="red_line_9" /><text x="436.55" y="963.1" font-family="Arial" font-size="12" fill="black" text-anchor="middle">R9</text><line x1="493.9" y1="358.1" x2="579.1" y2="358.1" stroke="rgb(255,0,0)" stroke-width="3.0" id="red_line_10" /><text x="536.5" y="348.1" font-family="Arial" font-size="12" fill="black" text-anchor="middle">R10</text><line x1="396.1" y1="519.4" x2="396.1" y2="412.4" stroke="rgb(255,0,0)" stroke-width="3.0" id="red_line_11" /><text x="396.1" y="455.9" font-family="Arial" font-size="12" fill="black" text-anchor="middle">R11</text><text x="50" y="1436.0" font-family="Arial" font-size="16" fill="black" font-weight="bold">Legend:</text><line x1="50" y1="1456.0" x2="150" y2="1456.0" stroke="rgb(255,0,0)" stroke-width="3.0" /><text x="170" y="1461.0" font-family="Arial" font-size="14" fill="black">All Red Lines (11 found)</text></svg>