<?xml version='1.0' encoding='utf-8'?>
<svg xmlns="http://www.w3.org/2000/svg" version="1.1" width="1024" height="1536" viewBox="0 0 1024 1536">
  <rect x="0" y="0" width="1024" height="1536" fill="#FFFFFF" />
  <polyline points="458.0,312.5 457.5,312.0 457.0,311.5 456.0,311.5 455.5,311.0 455.0,310.5 454.5,310.0 455.0,309.5 455.5,309.0 455.5,308.0 455.5,307.0 456.0,306.5 456.5,306.0 456.5,305.0 457.0,304.5 457.5,304.0 457.5,303.0 457.5,302.0 458.0,301.5 458.5,301.0 458.5,300.0 458.5,299.0 459.0,298.5 459.5,298.0 459.5,297.0 459.5,296.0 460.0,295.5 460.5,295.0 460.5,294.0 460.5,293.0 461.0,292.5 461.5,292.0 461.5,291.0 462.0,290.5 462.5,290.0 462.5,289.0 462.5,288.0 463.0,287.5 463.5,287.0 463.5,286.0 464.0,285.5 464.5,285.0 465.0,284.5 465.5,284.0 466.0,283.5 466.5,283.0 467.0,282.5 467.5,282.0 468.0,281.5 468.5,281.0 469.0,280.5 469.5,280.0 470.0,279.5 470.5,279.0 471.0,278.5 471.5,278.0 471.5,277.0 472.0,276.5 472.5,276.0 473.0,275.5 473.5,275.0 474.0,274.5 474.5,274.0 475.0,273.5 475.5,273.0 476.0,272.5 476.5,272.0 477.0,271.5 477.5,271.0 478.0,270.5 478.5,270.0 479.0,269.5 479.5,269.0 480.0,268.5 480.5,268.0 481.0,267.5 482.0,267.5 482.5,267.0 483.0,266.5 483.5,266.0 484.0,265.5 485.0,265.5 485.5,265.0 486.0,264.5 486.5,264.0 487.0,263.5 488.0,263.5 488.5,263.0 489.0,262.5 489.5,262.0 490.0,261.5 491.0,261.5 491.5,261.0 492.0,260.5 493.0,260.5 494.0,260.5 495.0,260.5 495.5,260.0 496.0,259.5 497.0,259.5 498.0,259.5 498.5,259.0 499.0,258.5 500.0,258.5 501.0,258.5 502.0,258.5 502.5,258.0 503.0,257.5 504.0,257.5 505.0,257.5 506.0,257.5 506.5,257.0 507.0,256.5 508.0,256.5 509.0,256.5 509.5,256.0 510.0,255.5 511.0,255.5 512.0,255.5 513.0,255.5 514.0,255.5 515.0,255.5 516.0,255.5 517.0,255.5 518.0,255.5 519.0,255.5 520.0,255.5 521.0,255.5 522.0,255.5 523.0,255.5 524.0,255.5 525.0,255.5 525.5,256.0 526.0,256.5 526.5,257.0 526.5,258.0 526.5,259.0 526.5,260.0 526.5,261.0 526.5,262.0 526.5,263.0 526.5,264.0 526.5,265.0 526.5,266.0 526.5,267.0 526.5,268.0 526.5,269.0 526.5,270.0 526.5,271.0 526.5,272.0 526.5,273.0 526.5,274.0 526.5,275.0 526.5,276.0 526.5,277.0 526.5,278.0 526.5,279.0 526.5,280.0 526.5,281.0 526.5,282.0 526.5,283.0 526.5,284.0 526.0,284.5 525.5,285.0 525.5,286.0 525.5,287.0 525.5,288.0 525.5,289.0 525.5,290.0 525.5,291.0 525.5,292.0 525.5,293.0 525.5,294.0 525.5,295.0 525.5,296.0 525.5,297.0 525.5,298.0 525.5,299.0 525.5,300.0 525.5,301.0 525.5,302.0 525.5,303.0 525.5,304.0 525.5,305.0 525.5,306.0 525.5,307.0 525.5,308.0 525.5,309.0 525.5,310.0 525.0,310.5 524.5,311.0 524.0,311.5 523.0,311.5 522.5,311.0 522.0,310.5 521.5,310.0 521.5,309.0 521.5,308.0 521.5,307.0 521.5,306.0 521.5,305.0 521.5,304.0 521.5,303.0 522.0,302.5 522.5,302.0 522.5,301.0 522.5,300.0 522.5,299.0 522.5,298.0 522.5,297.0 522.5,296.0 522.5,295.0 522.5,294.0 522.5,293.0 522.5,292.0 522.5,291.0 522.5,290.0 522.5,289.0 522.5,288.0 522.5,287.0 522.5,286.0 522.5,285.0 522.5,284.0 522.5,283.0 522.5,282.0 522.5,281.0 522.5,280.0 522.5,279.0 522.5,278.0 522.5,277.0 522.5,276.0 522.5,275.0 522.5,274.0 522.5,273.0 522.5,272.0 522.5,271.0 522.5,270.0 522.5,269.0 522.0,268.5 521.5,268.0 521.5,267.0 521.5,266.0 521.5,265.0 521.5,264.0 521.5,263.0 521.5,262.0 521.5,261.0 521.0,260.5 520.0,260.5 519.5,260.0 519.0,259.5 518.5,260.0 518.0,260.5 517.0,260.5 516.0,260.5 515.0,260.5 514.0,260.5 513.5,261.0 513.0,261.5 512.0,261.5 511.0,261.5 510.0,261.5 509.0,261.5 508.5,262.0 508.0,262.5 507.0,262.5 506.0,262.5 505.0,262.5 504.5,263.0 504.0,263.5 503.0,263.5 502.0,263.5 501.0,263.5 500.0,263.5 499.5,264.0 499.0,264.5 498.0,264.5 497.0,264.5 496.0,264.5 495.0,264.5 494.5,265.0 494.0,265.5 493.5,266.0 493.0,266.5 492.0,266.5 491.5,267.0 491.0,267.5 490.5,268.0 490.0,268.5 489.5,269.0 489.0,269.5 488.5,270.0 488.0,270.5 487.0,270.5 486.5,271.0 486.0,271.5 485.5,272.0 485.0,272.5 484.5,273.0 484.0,273.5 483.0,273.5 482.5,274.0 482.0,274.5 481.5,275.0 481.0,275.5 480.5,276.0 480.0,276.5 479.0,276.5 478.5,277.0 478.0,277.5 477.5,278.0 477.0,278.5 476.5,279.0 476.0,279.5 475.5,280.0 475.0,280.5 474.0,280.5 473.5,281.0 473.0,281.5 472.5,282.0 472.0,282.5 471.5,283.0 471.5,284.0 471.0,284.5 470.5,285.0 470.5,286.0 470.0,286.5 469.5,287.0 469.0,287.5 468.5,288.0 468.5,289.0 468.0,289.5 467.5,290.0 467.5,291.0 467.0,291.5 466.5,292.0 466.0,292.5 465.5,293.0 465.5,294.0 465.0,294.5 464.5,295.0 464.0,295.5 463.5,296.0 463.5,297.0 463.0,297.5 462.5,298.0 462.5,299.0 462.0,299.5 461.5,300.0 461.5,301.0 461.5,302.0 461.5,303.0 461.0,303.5 460.5,304.0 460.5,305.0 460.5,306.0 460.5,307.0 460.5,308.0 460.5,309.0 460.5,310.0 460.0,310.5 459.5,311.0 459.0,311.5 458.5,312.0 458.0,312.5 458.0,312.5" fill="none" stroke="#0000FF" stroke-width="2" />
  <polyline points="416.0,422.5 415.0,422.5 414.0,422.5 413.0,422.5 412.0,422.5 411.5,422.0 411.0,421.5 410.5,422.0 410.0,422.5 409.0,422.5 408.0,422.5 407.0,422.5 406.0,422.5 405.0,422.5 404.0,422.5 403.0,422.5 402.0,422.5 401.0,422.5 400.0,422.5 399.0,422.5 398.0,422.5 397.0,422.5 396.0,422.5 395.0,422.5 394.0,422.5 393.0,422.5 392.0,422.5 391.0,422.5 390.0,422.5 389.0,422.5 388.0,422.5 387.0,422.5 386.0,422.5 385.0,422.5 384.0,422.5 383.0,422.5 382.0,422.5 381.0,422.5 380.0,422.5 379.0,422.5 378.0,422.5 377.0,422.5 376.0,422.5 375.0,422.5 374.0,422.5 373.0,422.5 372.0,422.5 371.0,422.5 370.0,422.5 369.0,422.5 368.0,422.5 367.0,422.5 366.0,422.5 365.0,422.5 364.0,422.5 363.0,422.5 362.0,422.5 361.0,422.5 360.0,422.5 359.0,422.5 358.0,422.5 357.0,422.5 356.0,422.5 355.0,422.5 354.0,422.5 353.0,422.5 352.5,422.0 352.0,421.5 351.5,421.0 351.5,420.0 351.5,419.0 351.5,418.0 351.0,417.5 350.5,417.0 350.5,416.0 350.5,415.0 350.5,414.0 350.0,413.5 349.5,413.0 349.5,412.0 349.5,411.0 349.5,410.0 349.5,409.0 350.0,408.5 350.5,408.0 350.5,407.0 350.5,406.0 350.5,405.0 351.0,404.5 351.5,404.0 351.5,403.0 351.5,402.0 351.5,401.0 352.0,400.5 352.5,400.0 352.5,399.0 352.5,398.0 352.5,397.0 353.0,396.5 353.5,396.0 353.5,395.0 353.5,394.0 353.5,393.0 354.0,392.5 354.5,392.0 354.5,391.0 354.5,390.0 354.5,389.0 355.0,388.5 355.5,388.0 355.5,387.0 356.0,386.5 356.5,386.0 356.5,385.0 357.0,384.5 357.5,384.0 357.5,383.0 358.0,382.5 358.5,382.0 358.5,381.0 359.0,380.5 359.5,380.0 359.5,379.0 360.0,378.5 360.5,378.0 360.5,377.0 361.0,376.5 361.5,376.0 361.5,375.0 362.0,374.5 362.5,374.0 362.5,373.0 363.0,372.5 363.5,372.0 363.5,371.0 364.0,370.5 364.5,370.0 365.0,369.5 365.5,369.0 366.0,368.5 366.5,368.0 367.0,367.5 367.5,367.0 368.0,366.5 368.5,366.0 369.0,365.5 369.5,365.0 370.0,364.5 371.0,364.5 371.5,364.0 372.0,363.5 372.5,363.0 373.0,362.5 373.5,362.0 374.0,361.5 374.5,361.0 375.0,360.5 375.5,360.0 376.0,359.5 376.5,359.0 377.0,358.5 377.5,358.0 378.0,357.5 378.5,357.0 379.0,356.5 379.5,356.0 380.0,355.5 380.5,355.0 381.0,354.5 382.0,354.5 382.5,354.0 383.0,353.5 383.5,353.0 384.0,352.5 384.5,352.0 385.0,351.5 385.5,351.0 386.0,350.5 386.5,350.0 387.0,349.5 388.0,349.5 389.0,349.5 389.5,349.0 390.0,348.5 391.0,348.5 392.0,348.5 392.5,348.0 393.0,347.5 394.0,347.5 394.5,347.0 395.0,346.5 396.0,346.5 397.0,346.5 397.5,346.0 398.0,345.5 399.0,345.5 400.0,345.5 400.5,345.0 401.0,344.5 402.0,344.5 403.0,344.5 403.5,344.0 404.0,343.5 405.0,343.5 406.0,343.5 406.5,343.0 407.0,342.5 408.0,342.5 409.0,342.5 409.5,342.0 410.0,341.5 411.0,341.5 411.5,341.0 412.0,340.5 413.0,340.5 414.0,340.5 414.5,340.0 415.0,339.5 416.0,339.5 416.5,340.0 417.0,340.5 417.5,341.0 417.5,342.0 417.5,343.0 418.0,343.5 418.5,344.0 418.0,344.5 417.5,345.0 417.0,345.5 416.0,345.5 415.0,345.5 414.0,345.5 413.0,345.5 412.0,345.5 411.0,345.5 410.0,345.5 409.5,346.0 409.0,346.5 408.0,346.5 407.5,347.0 407.0,347.5 406.0,347.5 405.5,348.0 405.0,348.5 404.0,348.5 403.5,349.0 403.0,349.5 402.0,349.5 401.5,350.0 401.0,350.5 400.0,350.5 399.5,351.0 399.0,351.5 398.0,351.5 397.5,352.0 397.0,352.5 396.0,352.5 395.0,352.5 394.5,353.0 394.0,353.5 393.0,353.5 392.5,354.0 392.0,354.5 391.0,354.5 390.5,355.0 390.0,355.5 389.0,355.5 388.5,356.0 388.0,356.5 387.0,356.5 386.5,357.0 386.0,357.5 385.0,357.5 384.5,358.0 384.0,358.5 383.5,359.0 383.0,359.5 382.5,360.0 382.0,360.5 381.5,361.0 381.5,362.0 381.0,362.5 380.5,363.0 380.0,363.5 379.5,364.0 379.0,364.5 378.5,365.0 378.0,365.5 377.5,366.0 377.0,366.5 376.5,367.0 376.5,368.0 376.0,368.5 375.5,369.0 375.0,369.5 374.5,370.0 374.0,370.5 373.5,371.0 373.0,371.5 372.5,372.0 372.0,372.5 371.5,373.0 371.0,373.5 370.5,374.0 370.5,375.0 370.0,375.5 369.5,376.0 369.0,376.5 368.5,377.0 368.0,377.5 367.5,378.0 367.0,378.5 366.5,379.0 366.0,379.5 365.5,380.0 365.5,381.0 365.0,381.5 364.5,382.0 364.0,382.5 363.5,383.0 363.0,383.5 362.5,384.0 362.5,385.0 362.0,385.5 361.5,386.0 361.5,387.0 361.5,388.0 361.0,388.5 360.5,389.0 360.5,390.0 360.5,391.0 360.0,391.5 359.5,392.0 359.5,393.0 359.5,394.0 359.0,394.5 358.5,395.0 358.5,396.0 358.0,396.5 357.5,397.0 357.5,398.0 357.5,399.0 357.0,399.5 356.5,400.0 356.5,401.0 356.5,402.0 356.0,402.5 355.5,403.0 355.5,404.0 355.5,405.0 355.5,406.0 355.5,407.0 355.5,408.0 355.5,409.0 355.5,410.0 355.5,411.0 355.5,412.0 355.5,413.0 355.5,414.0 355.5,415.0 355.5,416.0 355.5,417.0 356.0,417.5 356.5,417.0 357.0,416.5 358.0,416.5 359.0,416.5 360.0,416.5 361.0,416.5 362.0,416.5 363.0,416.5 364.0,416.5 365.0,416.5 366.0,416.5 367.0,416.5 368.0,416.5 369.0,416.5 370.0,416.5 371.0,416.5 372.0,416.5 373.0,416.5 374.0,416.5 375.0,416.5 376.0,416.5 377.0,416.5 378.0,416.5 379.0,416.5 380.0,416.5 381.0,416.5 382.0,416.5 383.0,416.5 384.0,416.5 385.0,416.5 386.0,416.5 387.0,416.5 388.0,416.5 389.0,416.5 390.0,416.5 391.0,416.5 392.0,416.5 393.0,416.5 394.0,416.5 395.0,416.5 396.0,416.5 397.0,416.5 398.0,416.5 399.0,416.5 400.0,416.5 401.0,416.5 402.0,416.5 403.0,416.5 404.0,416.5 405.0,416.5 406.0,416.5 407.0,416.5 408.0,416.5 409.0,416.5 410.0,416.5 411.0,416.5 412.0,416.5 413.0,416.5 414.0,416.5 415.0,416.5 416.0,416.5 417.0,416.5 417.5,417.0 418.0,417.5 418.5,418.0 418.0,418.5 417.5,419.0 417.5,420.0 417.5,421.0 417.0,421.5 416.5,422.0 416.0,422.5 416.0,422.5" fill="none" stroke="#00FF00" stroke-width="2" />
  <polyline points="583.0,528.5 582.0,528.5 581.0,528.5 580.5,528.0 580.0,527.5 579.5,527.0 579.5,526.0 579.5,525.0 579.0,524.5 578.5,524.0 579.0,523.5 579.5,523.0 580.0,522.5 581.0,522.5 582.0,522.5 583.0,522.5 584.0,522.5 585.0,522.5 586.0,522.5 587.0,522.5 588.0,522.5 589.0,522.5 589.5,522.0 590.0,521.5 591.0,521.5 591.5,521.0 592.0,520.5 593.0,520.5 593.5,520.0 594.0,519.5 595.0,519.5 595.5,519.0 596.0,518.5 596.5,518.0 597.0,517.5 598.0,517.5 598.5,517.0 599.0,516.5 600.0,516.5 600.5,516.0 601.0,515.5 602.0,515.5 602.5,515.0 603.0,514.5 604.0,514.5 604.5,514.0 605.0,513.5 606.0,513.5 606.5,513.0 607.0,512.5 608.0,512.5 608.5,512.0 609.0,511.5 610.0,511.5 610.5,511.0 611.0,510.5 611.5,510.0 612.0,509.5 613.0,509.5 613.5,509.0 614.0,508.5 615.0,508.5 615.5,508.0 616.0,507.5 617.0,507.5 617.5,507.0 618.0,506.5 618.5,506.0 619.0,505.5 619.5,505.0 619.5,504.0 620.0,503.5 620.5,503.0 621.0,502.5 621.5,502.0 622.0,501.5 622.5,501.0 623.0,500.5 623.5,500.0 623.5,499.0 624.0,498.5 624.5,498.0 625.0,497.5 625.5,497.0 626.0,496.5 626.5,496.0 627.0,495.5 627.5,495.0 628.0,494.5 628.5,494.0 628.5,493.0 629.0,492.5 629.5,492.0 630.0,491.5 630.5,491.0 631.0,490.5 631.5,490.0 632.0,489.5 632.5,489.0 632.5,488.0 633.0,487.5 633.5,487.0 634.0,486.5 634.5,486.0 634.5,485.0 635.0,484.5 635.5,484.0 635.5,483.0 636.0,482.5 636.5,482.0 636.5,481.0 636.5,480.0 637.0,479.5 637.5,479.0 637.5,478.0 637.5,477.0 638.0,476.5 638.5,476.0 638.5,475.0 639.0,474.5 639.5,474.0 639.5,473.0 639.5,472.0 640.0,471.5 640.5,471.0 640.5,470.0 641.0,469.5 641.5,469.0 641.5,468.0 641.5,467.0 641.5,466.0 641.5,465.0 641.5,464.0 641.5,463.0 641.5,462.0 641.5,461.0 641.5,460.0 642.0,459.5 642.5,459.0 642.5,458.0 642.5,457.0 642.5,456.0 642.5,455.0 642.5,454.0 642.5,453.0 642.5,452.0 642.0,451.5 641.0,451.5 640.0,451.5 639.0,451.5 638.0,451.5 637.0,451.5 636.0,451.5 635.0,451.5 634.0,451.5 633.0,451.5 632.0,451.5 631.0,451.5 630.0,451.5 629.0,451.5 628.0,451.5 627.0,451.5 626.0,451.5 625.0,451.5 624.0,451.5 623.0,451.5 622.0,451.5 621.0,451.5 620.0,451.5 619.0,451.5 618.0,451.5 617.0,451.5 616.0,451.5 615.0,451.5 614.0,451.5 613.0,451.5 612.0,451.5 611.0,451.5 610.0,451.5 609.0,451.5 608.0,451.5 607.0,451.5 606.0,451.5 605.0,451.5 604.0,451.5 603.0,451.5 602.0,451.5 601.0,451.5 600.0,451.5 599.0,451.5 598.0,451.5 597.0,451.5 596.0,451.5 595.0,451.5 594.0,451.5 593.0,451.5 592.0,451.5 591.0,451.5 590.0,451.5 589.0,451.5 588.0,451.5 587.0,451.5 586.0,451.5 585.0,451.5 584.0,451.5 583.0,451.5 582.0,451.5 581.0,451.5 580.0,451.5 579.0,451.5 578.5,451.0 578.0,450.5 577.5,450.0 577.5,449.0 577.5,448.0 578.0,447.5 578.5,447.0 579.0,446.5 579.5,446.0 580.0,445.5 581.0,445.5 582.0,445.5 583.0,445.5 584.0,445.5 585.0,445.5 586.0,445.5 587.0,445.5 588.0,445.5 589.0,445.5 590.0,445.5 591.0,445.5 592.0,445.5 593.0,445.5 594.0,445.5 595.0,445.5 596.0,445.5 597.0,445.5 598.0,445.5 599.0,445.5 600.0,445.5 601.0,445.5 602.0,445.5 603.0,445.5 604.0,445.5 605.0,445.5 606.0,445.5 607.0,445.5 608.0,445.5 609.0,445.5 610.0,445.5 611.0,445.5 612.0,445.5 613.0,445.5 614.0,445.5 615.0,445.5 616.0,445.5 617.0,445.5 618.0,445.5 619.0,445.5 620.0,445.5 621.0,445.5 622.0,445.5 623.0,445.5 624.0,445.5 625.0,445.5 626.0,445.5 627.0,445.5 628.0,445.5 629.0,445.5 630.0,445.5 631.0,445.5 632.0,445.5 633.0,445.5 634.0,445.5 635.0,445.5 636.0,445.5 637.0,445.5 638.0,445.5 639.0,445.5 640.0,445.5 641.0,445.5 642.0,445.5 643.0,445.5 644.0,445.5 645.0,445.5 645.5,446.0 646.0,446.5 646.5,447.0 646.5,448.0 647.0,448.5 647.5,449.0 647.5,450.0 647.5,451.0 647.5,452.0 647.5,453.0 647.5,454.0 647.0,454.5 646.5,455.0 646.5,456.0 646.5,457.0 646.5,458.0 646.5,459.0 646.5,460.0 646.5,461.0 646.5,462.0 646.0,462.5 645.5,463.0 645.5,464.0 645.5,465.0 645.5,466.0 645.5,467.0 645.5,468.0 645.5,469.0 645.5,470.0 645.0,470.5 644.5,471.0 644.5,472.0 644.5,473.0 644.5,474.0 644.0,474.5 643.5,475.0 643.5,476.0 643.0,476.5 642.5,477.0 642.5,478.0 642.0,478.5 641.5,479.0 641.5,480.0 641.0,480.5 640.5,481.0 640.5,482.0 640.0,482.5 639.5,483.0 639.5,484.0 639.0,484.5 638.5,485.0 638.5,486.0 638.0,486.5 637.5,487.0 637.5,488.0 637.0,488.5 636.5,489.0 636.5,490.0 636.0,490.5 635.5,491.0 635.5,492.0 635.0,492.5 634.5,493.0 634.5,494.0 634.0,494.5 633.5,495.0 633.5,496.0 633.0,496.5 632.5,497.0 632.5,498.0 632.0,498.5 631.5,499.0 631.5,500.0 631.0,500.5 630.5,501.0 630.0,501.5 629.5,502.0 629.0,502.5 628.5,503.0 628.0,503.5 627.5,504.0 627.0,504.5 626.5,505.0 626.0,505.5 625.0,505.5 624.5,506.0 624.0,506.5 623.5,507.0 623.0,507.5 622.5,508.0 622.0,508.5 621.5,509.0 621.0,509.5 620.5,510.0 620.0,510.5 619.5,511.0 619.0,511.5 618.5,512.0 618.0,512.5 617.5,513.0 617.0,513.5 616.0,513.5 615.5,514.0 615.0,514.5 614.5,515.0 614.0,515.5 613.5,516.0 613.0,516.5 612.5,517.0 612.0,517.5 611.5,518.0 611.0,518.5 610.0,518.5 609.5,519.0 609.0,519.5 608.0,519.5 607.5,520.0 607.0,520.5 606.5,521.0 606.0,521.5 605.0,521.5 604.5,522.0 604.0,522.5 603.0,522.5 602.5,523.0 602.0,523.5 601.0,523.5 600.5,524.0 600.0,524.5 599.0,524.5 598.0,524.5 597.0,524.5 596.5,525.0 596.0,525.5 595.0,525.5 594.0,525.5 593.0,525.5 592.5,526.0 592.0,526.5 591.0,526.5 590.0,526.5 589.0,526.5 588.0,526.5 587.5,527.0 587.0,527.5 586.0,527.5 585.0,527.5 584.0,527.5 583.5,528.0 583.0,528.5 583.0,528.5" fill="none" stroke="#FF0000" stroke-width="2" />
  <polyline points="417.0,597.5 416.0,597.5 415.0,597.5 414.0,597.5 413.0,597.5 412.0,597.5 411.0,597.5 410.0,597.5 409.0,597.5 408.0,597.5 407.0,597.5 406.0,597.5 405.0,597.5 404.0,597.5 403.0,597.5 402.0,597.5 401.0,597.5 400.0,597.5 399.0,597.5 398.0,597.5 397.0,597.5 396.0,597.5 395.0,597.5 394.0,597.5 393.0,597.5 392.0,597.5 391.0,597.5 390.0,597.5 389.0,597.5 388.0,597.5 387.0,597.5 386.0,597.5 385.0,597.5 384.0,597.5 383.0,597.5 382.0,597.5 381.0,597.5 380.0,597.5 379.0,597.5 378.0,597.5 377.0,597.5 376.0,597.5 375.0,597.5 374.0,597.5 373.0,597.5 372.0,597.5 371.0,597.5 370.0,597.5 369.0,597.5 368.0,597.5 367.0,597.5 366.0,597.5 365.0,597.5 364.0,597.5 363.0,597.5 362.0,597.5 361.0,597.5 360.0,597.5 359.0,597.5 358.0,597.5 357.5,597.0 357.0,596.5 356.5,596.0 356.5,595.0 356.5,594.0 356.5,593.0 356.0,592.5 355.5,592.0 355.5,591.0 355.5,590.0 355.5,589.0 355.0,588.5 354.5,588.0 354.5,587.0 354.5,586.0 354.5,585.0 354.5,584.0 355.0,583.5 355.5,583.0 355.5,582.0 355.5,581.0 355.5,580.0 356.0,579.5 356.5,579.0 356.5,578.0 356.5,577.0 356.5,576.0 356.5,575.0 357.0,574.5 357.5,574.0 357.5,573.0 357.5,572.0 357.5,571.0 358.0,570.5 358.5,570.0 358.5,569.0 358.5,568.0 359.0,567.5 359.5,567.0 359.5,566.0 360.0,565.5 360.5,565.0 360.5,564.0 361.0,563.5 361.5,563.0 362.0,562.5 362.5,562.0 362.5,561.0 363.0,560.5 363.5,560.0 364.0,559.5 364.5,559.0 364.5,558.0 365.0,557.5 365.5,557.0 365.5,556.0 366.0,555.5 366.5,555.0 367.0,554.5 367.5,554.0 367.5,553.0 368.0,552.5 368.5,552.0 369.0,551.5 369.5,551.0 369.5,550.0 370.0,549.5 370.5,549.0 370.5,548.0 371.0,547.5 371.5,547.0 372.0,546.5 372.5,546.0 372.5,545.0 373.0,544.5 373.5,544.0 374.0,543.5 374.5,543.0 375.0,542.5 375.5,542.0 376.0,541.5 376.5,541.0 377.0,540.5 378.0,540.5 378.5,540.0 379.0,539.5 379.5,539.0 380.0,538.5 380.5,538.0 381.0,537.5 381.5,537.0 382.0,536.5 382.5,536.0 383.0,535.5 383.5,535.0 384.0,534.5 384.5,534.0 385.0,533.5 386.0,533.5 386.5,533.0 387.0,532.5 387.5,532.0 388.0,531.5 388.5,531.0 389.0,530.5 389.5,530.0 390.0,529.5 391.0,529.5 392.0,529.5 392.5,529.0 393.0,528.5 394.0,528.5 395.0,528.5 395.5,528.0 396.0,527.5 397.0,527.5 398.0,527.5 398.5,527.0 399.0,526.5 400.0,526.5 401.0,526.5 401.5,526.0 402.0,525.5 403.0,525.5 404.0,525.5 405.0,525.5 405.5,525.0 406.0,524.5 407.0,524.5 408.0,524.5 408.5,524.0 409.0,523.5 410.0,523.5 411.0,523.5 411.5,523.0 412.0,522.5 413.0,522.5 414.0,522.5 414.5,522.0 415.0,521.5 416.0,521.5 416.5,522.0 417.0,522.5 417.5,523.0 417.5,524.0 417.0,524.5 416.5,525.0 416.0,525.5 415.0,525.5 414.5,526.0 414.0,526.5 413.0,526.5 412.0,526.5 411.5,527.0 411.0,527.5 410.0,527.5 409.5,528.0 409.0,528.5 408.0,528.5 407.0,528.5 406.5,529.0 406.0,529.5 405.0,529.5 404.0,529.5 403.5,530.0 403.0,530.5 402.0,530.5 401.0,530.5 400.5,531.0 400.0,531.5 399.0,531.5 398.5,532.0 398.0,532.5 397.0,532.5 396.0,532.5 395.5,533.0 395.0,533.5 394.0,533.5 393.0,533.5 392.5,534.0 392.0,534.5 391.5,535.0 391.0,535.5 390.5,536.0 390.0,536.5 389.5,537.0 389.0,537.5 388.5,538.0 388.0,538.5 387.5,539.0 387.0,539.5 386.5,540.0 386.0,540.5 385.5,541.0 385.0,541.5 384.5,542.0 384.0,542.5 383.5,543.0 383.0,543.5 382.5,544.0 382.0,544.5 381.0,544.5 380.5,545.0 380.0,545.5 379.5,546.0 379.0,546.5 378.5,547.0 378.0,547.5 377.5,548.0 377.0,548.5 376.5,549.0 376.0,549.5 375.5,550.0 375.0,550.5 374.5,551.0 374.0,551.5 373.5,552.0 373.0,552.5 372.5,553.0 372.0,553.5 371.5,554.0 371.5,555.0 371.0,555.5 370.5,556.0 370.5,557.0 370.0,557.5 369.5,558.0 369.5,559.0 369.5,560.0 369.0,560.5 368.5,561.0 368.5,562.0 368.0,562.5 367.5,563.0 367.5,564.0 367.0,564.5 366.5,565.0 366.5,566.0 366.5,567.0 366.0,567.5 365.5,568.0 365.5,569.0 365.0,569.5 364.5,570.0 364.5,571.0 364.5,572.0 364.0,572.5 363.5,573.0 363.5,574.0 363.0,574.5 362.5,575.0 362.5,576.0 362.0,576.5 361.5,577.0 361.5,578.0 361.5,579.0 361.0,579.5 360.5,580.0 360.5,581.0 360.0,581.5 359.5,582.0 359.5,583.0 359.5,584.0 359.5,585.0 359.5,586.0 359.5,587.0 359.5,588.0 359.5,589.0 359.5,590.0 359.5,591.0 359.5,592.0 360.0,592.5 361.0,592.5 362.0,592.5 363.0,592.5 363.5,593.0 364.0,593.5 364.5,593.0 365.0,592.5 366.0,592.5 367.0,592.5 368.0,592.5 369.0,592.5 370.0,592.5 371.0,592.5 372.0,592.5 373.0,592.5 374.0,592.5 375.0,592.5 376.0,592.5 377.0,592.5 378.0,592.5 379.0,592.5 380.0,592.5 381.0,592.5 382.0,592.5 383.0,592.5 384.0,592.5 385.0,592.5 386.0,592.5 387.0,592.5 388.0,592.5 389.0,592.5 390.0,592.5 391.0,592.5 392.0,592.5 393.0,592.5 394.0,592.5 395.0,592.5 396.0,592.5 397.0,592.5 398.0,592.5 399.0,592.5 400.0,592.5 401.0,592.5 402.0,592.5 403.0,592.5 404.0,592.5 405.0,592.5 406.0,592.5 407.0,592.5 408.0,592.5 409.0,592.5 410.0,592.5 411.0,592.5 412.0,592.5 413.0,592.5 414.0,592.5 415.0,592.5 416.0,592.5 417.0,592.5 417.5,593.0 418.0,593.5 418.5,594.0 418.5,595.0 418.5,596.0 418.0,596.5 417.5,597.0 417.0,597.5 417.0,597.5" fill="none" stroke="#00FFFF" stroke-width="2" />
  <polyline points="436.0,526.5 435.5,526.0 435.0,525.5 434.5,525.0 435.0,524.5 435.5,524.0 436.0,523.5 436.5,524.0 437.0,524.5 437.5,525.0 437.0,525.5 436.5,526.0 436.0,526.5 436.0,526.5" fill="none" stroke="#FF00FF" stroke-width="2" />
  <polyline points="857.0,566.5 856.0,566.5 855.5,566.0 855.0,565.5 854.5,565.0 854.5,564.0 854.0,563.5 853.5,563.0 854.0,562.5 854.5,562.0 855.0,561.5 855.5,562.0 856.0,562.5 856.5,563.0 857.0,563.5 857.5,564.0 858.0,564.5 858.5,565.0 858.0,565.5 857.5,566.0 857.0,566.5 857.0,566.5" fill="none" stroke="#FFFF00" stroke-width="2" />
  <polyline points="639.0,823.5 638.0,823.5 637.0,823.5 636.0,823.5 635.0,823.5 634.0,823.5 633.0,823.5 632.0,823.5 631.0,823.5 630.0,823.5 629.0,823.5 628.0,823.5 627.0,823.5 626.0,823.5 625.0,823.5 624.0,823.5 623.0,823.5 622.0,823.5 621.0,823.5 620.0,823.5 619.0,823.5 618.0,823.5 617.0,823.5 616.0,823.5 615.0,823.5 614.0,823.5 613.0,823.5 612.0,823.5 611.0,823.5 610.0,823.5 609.0,823.5 608.0,823.5 607.0,823.5 606.0,823.5 605.0,823.5 604.0,823.5 603.0,823.5 602.0,823.5 601.0,823.5 600.0,823.5 599.0,823.5 598.0,823.5 597.0,823.5 596.0,823.5 595.0,823.5 594.0,823.5 593.0,823.5 592.0,823.5 591.0,823.5 590.0,823.5 589.0,823.5 588.0,823.5 587.0,823.5 586.0,823.5 585.0,823.5 584.0,823.5 583.0,823.5 582.0,823.5 581.0,823.5 580.5,823.0 580.0,822.5 579.5,822.0 579.5,821.0 579.0,820.5 578.5,820.0 579.0,819.5 579.5,819.0 580.0,818.5 581.0,818.5 582.0,818.5 583.0,818.5 584.0,818.5 585.0,818.5 586.0,818.5 587.0,818.5 588.0,818.5 589.0,818.5 590.0,818.5 591.0,818.5 592.0,818.5 593.0,818.5 594.0,818.5 595.0,818.5 596.0,818.5 597.0,818.5 598.0,818.5 599.0,818.5 600.0,818.5 601.0,818.5 602.0,818.5 603.0,818.5 604.0,818.5 605.0,818.5 606.0,818.5 607.0,818.5 608.0,818.5 609.0,818.5 610.0,818.5 611.0,818.5 612.0,818.5 613.0,818.5 614.0,818.5 615.0,818.5 616.0,818.5 617.0,818.5 618.0,818.5 619.0,818.5 620.0,818.5 621.0,818.5 622.0,818.5 623.0,818.5 624.0,818.5 625.0,818.5 626.0,818.5 627.0,818.5 628.0,818.5 629.0,818.5 630.0,818.5 631.0,818.5 632.0,818.5 633.0,818.5 634.0,818.5 635.0,818.5 636.0,818.5 636.5,818.0 636.5,817.0 636.5,816.0 636.0,815.5 635.5,815.0 635.5,814.0 635.5,813.0 635.5,812.0 635.5,811.0 635.5,810.0 635.0,809.5 634.5,809.0 634.5,808.0 634.5,807.0 634.5,806.0 634.5,805.0 634.0,804.5 633.5,804.0 633.5,803.0 633.5,802.0 633.5,801.0 633.5,800.0 633.5,799.0 633.0,798.5 632.5,798.0 632.5,797.0 632.5,796.0 632.5,795.0 632.5,794.0 632.5,793.0 632.0,792.5 631.5,792.0 631.5,791.0 631.5,790.0 631.0,789.5 630.5,789.0 630.5,788.0 630.0,787.5 629.5,787.0 629.0,786.5 628.5,786.0 628.0,785.5 627.5,785.0 627.5,784.0 627.0,783.5 626.5,783.0 626.0,782.5 625.5,782.0 625.5,781.0 625.0,780.5 624.5,780.0 624.0,779.5 623.5,779.0 623.0,778.5 622.5,778.0 622.5,777.0 622.0,776.5 621.5,776.0 621.0,775.5 620.5,775.0 620.0,774.5 619.5,774.0 619.5,773.0 619.0,772.5 618.5,772.0 618.0,771.5 617.5,771.0 617.5,770.0 617.0,769.5 616.5,769.0 616.0,768.5 615.5,768.0 615.0,767.5 614.5,767.0 614.5,766.0 614.0,765.5 613.5,765.0 613.0,764.5 612.0,764.5 611.5,764.0 611.0,763.5 610.0,763.5 609.5,763.0 609.0,762.5 608.0,762.5 607.5,762.0 607.0,761.5 606.0,761.5 605.5,761.0 605.0,760.5 604.0,760.5 603.5,760.0 603.0,759.5 602.0,759.5 601.5,759.0 601.0,758.5 600.0,758.5 599.5,758.0 599.0,757.5 598.5,757.0 598.0,756.5 597.0,756.5 596.5,756.0 596.0,755.5 595.0,755.5 594.5,755.0 594.0,754.5 593.0,754.5 592.5,754.0 592.0,753.5 591.0,753.5 590.5,753.0 590.0,752.5 589.0,752.5 588.5,752.0 588.0,751.5 587.0,751.5 586.5,751.0 586.0,750.5 585.0,750.5 584.0,750.5 583.0,750.5 582.0,750.5 581.0,750.5 580.0,750.5 579.0,750.5 578.5,750.0 578.0,749.5 577.5,749.0 578.0,748.5 578.5,748.0 578.5,747.0 579.0,746.5 579.5,746.0 580.0,745.5 581.0,745.5 582.0,745.5 583.0,745.5 584.0,745.5 584.5,746.0 585.0,746.5 586.0,746.5 587.0,746.5 588.0,746.5 589.0,746.5 589.5,747.0 590.0,747.5 591.0,747.5 592.0,747.5 593.0,747.5 594.0,747.5 595.0,747.5 595.5,748.0 596.0,748.5 596.5,749.0 597.0,749.5 598.0,749.5 598.5,750.0 599.0,750.5 599.5,751.0 600.0,751.5 600.5,752.0 601.0,752.5 602.0,752.5 602.5,753.0 603.0,753.5 603.5,754.0 604.0,754.5 604.5,755.0 605.0,755.5 606.0,755.5 606.5,756.0 607.0,756.5 607.5,757.0 608.0,757.5 609.0,757.5 609.5,758.0 610.0,758.5 610.5,759.0 611.0,759.5 611.5,760.0 612.0,760.5 613.0,760.5 613.5,761.0 614.0,761.5 614.5,762.0 615.0,762.5 615.5,763.0 616.0,763.5 617.0,763.5 617.5,764.0 618.0,764.5 618.5,765.0 619.0,765.5 619.5,766.0 620.0,766.5 621.0,766.5 621.5,767.0 622.0,767.5 622.5,768.0 623.0,768.5 623.5,769.0 624.0,769.5 624.5,770.0 624.5,771.0 625.0,771.5 625.5,772.0 626.0,772.5 626.5,773.0 627.0,773.5 627.5,774.0 627.5,775.0 628.0,775.5 628.5,776.0 629.0,776.5 629.5,777.0 630.0,777.5 630.5,778.0 630.5,779.0 631.0,779.5 631.5,780.0 632.0,780.5 632.5,781.0 632.5,782.0 633.0,782.5 633.5,783.0 633.5,784.0 633.5,785.0 633.5,786.0 634.0,786.5 634.5,787.0 634.5,788.0 634.5,789.0 635.0,789.5 635.5,790.0 635.5,791.0 635.5,792.0 635.5,793.0 636.0,793.5 636.5,794.0 636.5,795.0 636.5,796.0 637.0,796.5 637.5,797.0 637.5,798.0 637.5,799.0 638.0,799.5 638.5,800.0 638.5,801.0 638.5,802.0 638.5,803.0 639.0,803.5 639.5,804.0 639.5,805.0 639.5,806.0 640.0,806.5 640.5,807.0 640.5,808.0 640.5,809.0 640.5,810.0 641.0,810.5 641.5,811.0 641.5,812.0 641.5,813.0 641.5,814.0 641.5,815.0 641.5,816.0 641.5,817.0 641.5,818.0 641.0,818.5 640.5,819.0 640.5,820.0 640.5,821.0 640.5,822.0 640.0,822.5 639.5,823.0 639.0,823.5 639.0,823.5" fill="none" stroke="#0080FF" stroke-width="2" />
  <polyline points="415.0,886.5 414.0,886.5 413.0,886.5 412.0,886.5 411.0,886.5 410.0,886.5 409.0,886.5 408.0,886.5 407.0,886.5 406.0,886.5 405.0,886.5 404.0,886.5 403.0,886.5 402.0,886.5 401.0,886.5 400.0,886.5 399.0,886.5 398.0,886.5 397.0,886.5 396.0,886.5 395.0,886.5 394.0,886.5 393.0,886.5 392.0,886.5 391.0,886.5 390.0,886.5 389.0,886.5 388.0,886.5 387.0,886.5 386.0,886.5 385.0,886.5 384.0,886.5 383.0,886.5 382.0,886.5 381.0,886.5 380.0,886.5 379.0,886.5 378.0,886.5 377.0,886.5 376.0,886.5 375.0,886.5 374.0,886.5 373.0,886.5 372.0,886.5 371.0,886.5 370.0,886.5 369.0,886.5 368.0,886.5 367.0,886.5 366.0,886.5 365.0,886.5 364.0,886.5 363.0,886.5 362.0,886.5 361.0,886.5 360.0,886.5 359.0,886.5 358.5,886.0 358.0,885.5 357.5,885.0 357.0,884.5 356.5,884.0 356.5,883.0 356.5,882.0 356.5,881.0 356.5,880.0 356.5,879.0 356.0,878.5 355.5,878.0 355.5,877.0 355.5,876.0 355.5,875.0 355.5,874.0 355.5,873.0 356.0,872.5 356.5,872.0 356.5,871.0 356.5,870.0 356.5,869.0 356.5,868.0 356.5,867.0 357.0,866.5 357.5,866.0 357.5,865.0 357.5,864.0 357.5,863.0 357.5,862.0 358.0,861.5 358.5,861.0 358.5,860.0 358.5,859.0 359.0,858.5 359.5,858.0 359.5,857.0 360.0,856.5 360.5,856.0 361.0,855.5 361.5,855.0 361.5,854.0 362.0,853.5 362.5,853.0 362.5,852.0 363.0,851.5 363.5,851.0 364.0,850.5 364.5,850.0 364.5,849.0 365.0,848.5 365.5,848.0 366.0,847.5 366.5,847.0 366.5,846.0 367.0,845.5 367.5,845.0 367.5,844.0 368.0,843.5 368.5,843.0 369.0,842.5 369.5,842.0 369.5,841.0 370.0,840.5 370.5,840.0 371.0,839.5 371.5,839.0 371.5,838.0 372.0,837.5 372.5,837.0 373.0,836.5 373.5,836.0 373.5,835.0 374.0,834.5 374.5,834.0 374.5,833.0 375.0,832.5 375.5,832.0 376.0,831.5 376.5,831.0 376.5,830.0 377.0,829.5 377.5,829.0 378.0,828.5 379.0,828.5 379.5,828.0 380.0,827.5 380.5,827.0 381.0,826.5 382.0,826.5 382.5,826.0 383.0,825.5 383.5,825.0 384.0,824.5 385.0,824.5 385.5,824.0 386.0,823.5 386.5,823.0 387.0,822.5 388.0,822.5 388.5,822.0 389.0,821.5 389.5,821.0 390.0,820.5 391.0,820.5 391.5,820.0 392.0,819.5 392.5,819.0 393.0,818.5 394.0,818.5 394.5,818.0 395.0,817.5 395.5,817.0 396.0,816.5 397.0,816.5 397.5,816.0 398.0,815.5 398.5,815.0 399.0,814.5 400.0,814.5 400.5,814.0 401.0,813.5 402.0,813.5 403.0,813.5 404.0,813.5 404.5,813.0 405.0,812.5 406.0,812.5 407.0,812.5 408.0,812.5 408.5,812.0 409.0,811.5 410.0,811.5 411.0,811.5 412.0,811.5 413.0,811.5 413.5,811.0 414.0,810.5 415.0,810.5 416.0,810.5 416.5,811.0 417.0,811.5 417.5,812.0 417.5,813.0 417.5,814.0 418.0,814.5 418.5,815.0 418.0,815.5 417.5,816.0 417.0,816.5 416.0,816.5 415.0,816.5 414.0,816.5 413.0,816.5 412.0,816.5 411.0,816.5 410.0,816.5 409.5,817.0 409.0,817.5 408.0,817.5 407.5,818.0 407.0,818.5 406.0,818.5 405.5,819.0 405.0,819.5 404.0,819.5 403.5,820.0 403.0,820.5 402.0,820.5 401.5,821.0 401.0,821.5 400.0,821.5 399.5,822.0 399.0,822.5 398.0,822.5 397.5,823.0 397.0,823.5 396.0,823.5 395.5,824.0 395.0,824.5 394.0,824.5 393.5,825.0 393.0,825.5 392.0,825.5 391.5,826.0 391.0,826.5 390.0,826.5 389.5,827.0 389.0,827.5 388.0,827.5 387.5,828.0 387.0,828.5 386.0,828.5 385.5,829.0 385.0,829.5 384.5,830.0 384.0,830.5 383.5,831.0 383.5,832.0 383.0,832.5 382.5,833.0 382.0,833.5 381.5,834.0 381.0,834.5 380.5,835.0 380.5,836.0 380.0,836.5 379.5,837.0 379.0,837.5 378.5,838.0 378.0,838.5 377.5,839.0 377.5,840.0 377.0,840.5 376.5,841.0 376.0,841.5 375.5,842.0 375.0,842.5 374.5,843.0 374.0,843.5 373.5,844.0 373.5,845.0 373.0,845.5 372.5,846.0 372.0,846.5 371.5,847.0 371.0,847.5 370.5,848.0 370.5,849.0 370.0,849.5 369.5,850.0 369.0,850.5 368.5,851.0 368.0,851.5 367.5,852.0 367.5,853.0 367.0,853.5 366.5,854.0 366.0,854.5 365.5,855.0 365.5,856.0 365.5,857.0 365.0,857.5 364.5,858.0 364.5,859.0 364.5,860.0 364.5,861.0 364.0,861.5 363.5,862.0 363.5,863.0 363.5,864.0 363.5,865.0 363.5,866.0 363.0,866.5 362.5,867.0 362.5,868.0 362.5,869.0 362.5,870.0 362.0,870.5 361.5,871.0 361.5,872.0 361.5,873.0 361.5,874.0 361.5,875.0 361.0,875.5 360.5,876.0 360.5,877.0 360.5,878.0 360.5,879.0 360.0,879.5 359.5,880.0 359.5,881.0 359.5,882.0 360.0,882.5 361.0,882.5 362.0,882.5 363.0,882.5 364.0,882.5 365.0,882.5 366.0,882.5 367.0,882.5 368.0,882.5 369.0,882.5 370.0,882.5 371.0,882.5 372.0,882.5 373.0,882.5 374.0,882.5 375.0,882.5 376.0,882.5 377.0,882.5 378.0,882.5 379.0,882.5 380.0,882.5 381.0,882.5 382.0,882.5 383.0,882.5 384.0,882.5 385.0,882.5 386.0,882.5 387.0,882.5 388.0,882.5 389.0,882.5 390.0,882.5 391.0,882.5 392.0,882.5 393.0,882.5 394.0,882.5 395.0,882.5 396.0,882.5 397.0,882.5 398.0,882.5 399.0,882.5 400.0,882.5 401.0,882.5 402.0,882.5 403.0,882.5 404.0,882.5 405.0,882.5 406.0,882.5 407.0,882.5 408.0,882.5 409.0,882.5 410.0,882.5 411.0,882.5 412.0,882.5 413.0,882.5 414.0,882.5 415.0,882.5 415.5,883.0 416.0,883.5 416.5,884.0 416.5,885.0 416.0,885.5 415.5,886.0 415.0,886.5 415.0,886.5" fill="none" stroke="#FF0080" stroke-width="2" />
  <polyline points="527.0,998.5 526.0,998.5 525.0,998.5 524.0,998.5 523.0,998.5 522.0,998.5 521.0,998.5 520.0,998.5 519.0,998.5 518.0,998.5 517.0,998.5 516.0,998.5 515.0,998.5 514.0,998.5 513.5,998.0 513.0,997.5 512.0,997.5 511.0,997.5 510.0,997.5 509.5,997.0 509.0,996.5 508.0,996.5 507.0,996.5 506.5,996.0 506.0,995.5 505.0,995.5 504.0,995.5 503.5,995.0 503.0,994.5 502.0,994.5 501.0,994.5 500.5,994.0 500.0,993.5 499.0,993.5 498.0,993.5 497.0,993.5 496.5,993.0 496.0,992.5 495.0,992.5 494.0,992.5 493.5,992.0 493.0,991.5 492.0,991.5 491.5,991.0 491.0,990.5 490.5,990.0 490.0,989.5 489.0,989.5 488.5,989.0 488.0,988.5 487.5,988.0 487.0,987.5 486.0,987.5 485.5,987.0 485.0,986.5 484.0,986.5 483.5,986.0 483.0,985.5 482.5,985.0 482.0,984.5 481.0,984.5 480.5,984.0 480.0,983.5 479.5,983.0 479.0,982.5 478.0,982.5 477.5,982.0 477.0,981.5 476.5,981.0 476.0,980.5 475.5,980.0 475.5,979.0 475.0,978.5 474.5,978.0 474.0,977.5 473.5,977.0 473.0,976.5 472.5,976.0 472.0,975.5 471.5,975.0 471.5,974.0 471.0,973.5 470.5,973.0 470.0,972.5 469.5,972.0 469.0,971.5 468.5,971.0 468.0,970.5 467.5,970.0 467.5,969.0 467.0,968.5 466.5,968.0 466.0,967.5 465.5,967.0 465.0,966.5 464.5,966.0 464.0,965.5 463.5,965.0 463.5,964.0 463.0,963.5 462.5,963.0 462.0,962.5 461.5,962.0 461.0,961.5 460.5,961.0 460.0,960.5 459.5,960.0 459.5,959.0 459.0,958.5 458.5,958.0 458.0,957.5 457.5,957.0 457.5,956.0 457.5,955.0 457.0,954.5 456.5,954.0 456.5,953.0 456.5,952.0 456.5,951.0 456.0,950.5 455.5,950.0 455.5,949.0 455.5,948.0 455.5,947.0 455.5,946.0 455.0,945.5 454.5,945.0 454.5,944.0 454.5,943.0 454.5,942.0 454.0,941.5 453.5,941.0 453.5,940.0 454.0,939.5 454.5,939.0 455.0,938.5 456.0,938.5 456.5,938.0 457.0,937.5 457.5,938.0 458.0,938.5 458.5,939.0 458.5,940.0 458.5,941.0 458.5,942.0 459.0,942.5 459.5,943.0 459.5,944.0 459.5,945.0 459.5,946.0 459.5,947.0 459.5,948.0 460.0,948.5 460.5,949.0 460.5,950.0 461.0,950.5 461.5,951.0 461.5,952.0 462.0,952.5 462.5,953.0 462.5,954.0 463.0,954.5 463.5,955.0 463.5,956.0 464.0,956.5 464.5,957.0 464.5,958.0 465.0,958.5 465.5,959.0 466.0,959.5 466.5,960.0 466.5,961.0 467.0,961.5 467.5,962.0 467.5,963.0 468.0,963.5 468.5,964.0 468.5,965.0 469.0,965.5 469.5,966.0 469.5,967.0 470.0,967.5 470.5,968.0 470.5,969.0 471.0,969.5 471.5,970.0 472.0,970.5 472.5,971.0 473.0,971.5 474.0,971.5 474.5,972.0 475.0,972.5 475.5,973.0 476.0,973.5 476.5,974.0 477.0,974.5 477.5,975.0 478.0,975.5 479.0,975.5 479.5,976.0 480.0,976.5 480.5,977.0 481.0,977.5 481.5,978.0 482.0,978.5 483.0,978.5 483.5,979.0 484.0,979.5 484.5,980.0 485.0,980.5 485.5,981.0 486.0,981.5 487.0,981.5 487.5,982.0 488.0,982.5 488.5,983.0 489.0,983.5 489.5,984.0 490.0,984.5 490.5,985.0 491.0,985.5 492.0,985.5 492.5,986.0 493.0,986.5 493.5,987.0 494.0,987.5 495.0,987.5 496.0,987.5 496.5,988.0 497.0,988.5 498.0,988.5 499.0,988.5 500.0,988.5 500.5,989.0 501.0,989.5 502.0,989.5 503.0,989.5 503.5,990.0 504.0,990.5 505.0,990.5 506.0,990.5 506.5,991.0 507.0,991.5 508.0,991.5 509.0,991.5 510.0,991.5 510.5,992.0 511.0,992.5 512.0,992.5 513.0,992.5 513.5,993.0 514.0,993.5 515.0,993.5 516.0,993.5 517.0,993.5 518.0,993.5 519.0,993.5 520.0,993.5 521.0,993.5 522.0,993.5 523.0,993.5 524.0,993.5 524.5,993.0 524.5,992.0 524.5,991.0 524.5,990.0 524.5,989.0 524.5,988.0 524.5,987.0 524.5,986.0 524.5,985.0 524.5,984.0 524.5,983.0 524.5,982.0 524.5,981.0 524.5,980.0 524.5,979.0 524.5,978.0 524.5,977.0 524.5,976.0 524.5,975.0 524.5,974.0 524.5,973.0 524.5,972.0 524.5,971.0 524.5,970.0 524.5,969.0 524.5,968.0 524.5,967.0 524.5,966.0 524.5,965.0 524.5,964.0 524.5,963.0 524.5,962.0 524.5,961.0 524.5,960.0 524.5,959.0 524.5,958.0 524.0,957.5 523.5,957.0 523.5,956.0 523.5,955.0 523.5,954.0 523.5,953.0 523.5,952.0 523.5,951.0 523.5,950.0 523.5,949.0 523.5,948.0 523.5,947.0 523.5,946.0 523.5,945.0 523.5,944.0 523.5,943.0 523.5,942.0 523.5,941.0 524.0,940.5 524.5,940.0 525.0,939.5 526.0,939.5 527.0,939.5 527.5,940.0 528.0,940.5 528.5,941.0 528.5,942.0 528.5,943.0 528.5,944.0 528.5,945.0 528.5,946.0 528.5,947.0 528.5,948.0 528.5,949.0 528.5,950.0 528.5,951.0 528.5,952.0 528.5,953.0 528.5,954.0 528.5,955.0 528.5,956.0 528.5,957.0 528.5,958.0 528.5,959.0 528.5,960.0 528.5,961.0 528.5,962.0 528.5,963.0 528.5,964.0 528.5,965.0 528.5,966.0 528.5,967.0 528.5,968.0 528.5,969.0 528.5,970.0 528.5,971.0 528.5,972.0 528.5,973.0 528.5,974.0 528.5,975.0 528.5,976.0 528.5,977.0 528.5,978.0 528.5,979.0 528.5,980.0 528.5,981.0 528.5,982.0 528.5,983.0 528.5,984.0 528.5,985.0 528.5,986.0 528.5,987.0 528.5,988.0 528.5,989.0 528.5,990.0 528.5,991.0 528.5,992.0 528.5,993.0 528.5,994.0 528.5,995.0 528.5,996.0 528.5,997.0 528.0,997.5 527.5,998.0 527.0,998.5 527.0,998.5" fill="none" stroke="#FF8000" stroke-width="2" />
  <polyline points="643.0,1173.5 642.5,1173.0 642.0,1172.5 641.5,1172.0 641.5,1171.0 641.5,1170.0 641.0,1169.5 640.5,1169.0 640.5,1168.0 640.5,1167.0 640.0,1166.5 639.5,1166.0 639.5,1165.0 639.5,1164.0 639.0,1163.5 638.5,1163.0 638.5,1162.0 638.5,1161.0 638.0,1160.5 637.5,1160.0 637.5,1159.0 637.5,1158.0 637.0,1157.5 636.5,1157.0 636.5,1156.0 636.5,1155.0 636.0,1154.5 635.5,1154.0 635.5,1153.0 635.5,1152.0 635.0,1151.5 634.5,1151.0 634.5,1150.0 634.0,1149.5 633.5,1149.0 633.0,1148.5 632.5,1148.0 632.5,1147.0 632.0,1146.5 631.5,1146.0 631.0,1145.5 630.5,1145.0 630.0,1144.5 629.5,1144.0 629.5,1143.0 629.0,1142.5 628.5,1142.0 628.0,1141.5 627.5,1141.0 627.0,1140.5 626.5,1140.0 626.0,1139.5 625.5,1139.0 625.5,1138.0 625.0,1137.5 624.5,1137.0 624.0,1136.5 623.5,1136.0 623.0,1135.5 622.5,1135.0 622.0,1134.5 621.5,1134.0 621.5,1133.0 621.0,1132.5 620.5,1132.0 620.0,1131.5 619.5,1131.0 619.0,1130.5 618.5,1130.0 618.5,1129.0 618.0,1128.5 617.5,1128.0 617.0,1127.5 616.5,1127.0 616.0,1126.5 615.0,1126.5 614.5,1126.0 614.0,1125.5 613.5,1125.0 613.0,1124.5 612.0,1124.5 611.5,1124.0 611.0,1123.5 610.5,1123.0 610.0,1122.5 609.0,1122.5 608.5,1122.0 608.0,1121.5 607.5,1121.0 607.0,1120.5 606.0,1120.5 605.5,1120.0 605.0,1119.5 604.5,1119.0 604.0,1118.5 603.0,1118.5 602.0,1118.5 601.5,1118.0 601.0,1117.5 600.0,1117.5 599.0,1117.5 598.5,1117.0 598.0,1116.5 597.0,1116.5 596.0,1116.5 595.5,1116.0 595.0,1115.5 594.0,1115.5 593.0,1115.5 592.5,1115.0 592.0,1114.5 591.0,1114.5 590.0,1114.5 589.5,1114.0 589.0,1113.5 588.0,1113.5 587.0,1113.5 586.5,1113.0 586.0,1112.5 585.0,1112.5 584.0,1112.5 583.5,1112.0 583.0,1111.5 582.0,1111.5 581.0,1111.5 580.0,1111.5 579.0,1111.5 578.5,1111.0 578.0,1110.5 577.5,1110.0 578.0,1109.5 578.5,1109.0 578.5,1108.0 579.0,1107.5 579.5,1107.0 580.0,1106.5 581.0,1106.5 581.5,1107.0 582.0,1107.5 583.0,1107.5 584.0,1107.5 584.5,1108.0 585.0,1108.5 586.0,1108.5 587.0,1108.5 588.0,1108.5 588.5,1109.0 589.0,1109.5 590.0,1109.5 591.0,1109.5 591.5,1110.0 592.0,1110.5 593.0,1110.5 594.0,1110.5 594.5,1111.0 595.0,1111.5 596.0,1111.5 597.0,1111.5 597.5,1112.0 598.0,1112.5 599.0,1112.5 600.0,1112.5 600.5,1113.0 601.0,1113.5 602.0,1113.5 603.0,1113.5 604.0,1113.5 604.5,1114.0 605.0,1114.5 606.0,1114.5 607.0,1114.5 607.5,1115.0 608.0,1115.5 609.0,1115.5 610.0,1115.5 610.5,1116.0 611.0,1116.5 611.5,1117.0 612.0,1117.5 612.5,1118.0 613.0,1118.5 613.5,1119.0 614.0,1119.5 614.5,1120.0 615.0,1120.5 615.5,1121.0 616.0,1121.5 616.5,1122.0 617.0,1122.5 617.5,1123.0 618.0,1123.5 618.5,1124.0 619.0,1124.5 620.0,1124.5 620.5,1125.0 621.0,1125.5 621.5,1126.0 622.0,1126.5 622.5,1127.0 623.0,1127.5 623.5,1128.0 624.0,1128.5 624.5,1129.0 625.0,1129.5 625.5,1130.0 626.0,1130.5 626.5,1131.0 627.0,1131.5 627.5,1132.0 628.0,1132.5 628.5,1133.0 629.0,1133.5 629.5,1134.0 629.5,1135.0 630.0,1135.5 630.5,1136.0 630.5,1137.0 631.0,1137.5 631.5,1138.0 632.0,1138.5 632.5,1139.0 632.5,1140.0 633.0,1140.5 633.5,1141.0 633.5,1142.0 634.0,1142.5 634.5,1143.0 635.0,1143.5 635.5,1144.0 635.5,1145.0 636.0,1145.5 636.5,1146.0 637.0,1146.5 637.5,1147.0 637.5,1148.0 638.0,1148.5 638.5,1149.0 638.5,1150.0 639.0,1150.5 639.5,1151.0 640.0,1151.5 640.5,1152.0 640.5,1153.0 641.0,1153.5 641.5,1154.0 641.5,1155.0 642.0,1155.5 642.5,1156.0 642.5,1157.0 642.5,1158.0 642.5,1159.0 643.0,1159.5 643.5,1160.0 643.5,1161.0 643.5,1162.0 643.5,1163.0 643.5,1164.0 643.5,1165.0 643.5,1166.0 644.0,1166.5 644.5,1167.0 644.5,1168.0 644.5,1169.0 644.5,1170.0 644.5,1171.0 644.5,1172.0 644.0,1172.5 643.5,1173.0 643.0,1173.5 643.0,1173.5" fill="none" stroke="#8080FF" stroke-width="2" />
  <polyline points="562.0,1114.5 561.5,1114.0 561.0,1113.5 560.5,1113.0 560.5,1112.0 561.0,1111.5 561.5,1111.0 562.0,1110.5 562.5,1111.0 563.0,1111.5 563.5,1112.0 563.5,1113.0 563.0,1113.5 562.5,1114.0 562.0,1114.5 562.0,1114.5" fill="none" stroke="#80FF80" stroke-width="2" />
  <polyline points="869.0,1220.5 868.5,1220.0 868.0,1219.5 867.0,1219.5 866.5,1219.0 866.0,1218.5 865.0,1218.5 864.5,1218.0 864.0,1217.5 863.0,1217.5 862.5,1217.0 862.0,1216.5 861.0,1216.5 860.5,1216.0 860.0,1215.5 859.0,1215.5 858.5,1215.0 858.0,1214.5 857.0,1214.5 856.5,1214.0 856.0,1213.5 855.0,1213.5 854.5,1213.0 854.0,1212.5 853.0,1212.5 852.5,1212.0 852.0,1211.5 851.0,1211.5 850.5,1211.0 850.0,1210.5 849.0,1210.5 848.5,1210.0 848.0,1209.5 847.0,1209.5 846.5,1209.0 846.0,1208.5 845.5,1208.0 845.0,1207.5 844.5,1207.0 844.0,1206.5 843.0,1206.5 842.5,1206.0 842.0,1205.5 841.5,1205.0 841.0,1204.5 840.5,1204.0 840.0,1203.5 839.5,1203.0 839.0,1202.5 838.5,1202.0 838.0,1201.5 837.0,1201.5 836.5,1201.0 836.0,1200.5 835.5,1200.0 835.0,1199.5 834.5,1199.0 834.0,1198.5 833.5,1198.0 833.5,1197.0 833.0,1196.5 832.5,1196.0 832.0,1195.5 831.5,1195.0 831.5,1194.0 831.0,1193.5 830.5,1193.0 830.0,1192.5 829.5,1192.0 829.5,1191.0 829.0,1190.5 828.5,1190.0 828.0,1189.5 827.5,1189.0 827.5,1188.0 827.0,1187.5 826.5,1187.0 826.0,1186.5 825.5,1186.0 825.5,1185.0 825.0,1184.5 824.5,1184.0 824.0,1183.5 823.5,1183.0 823.5,1182.0 823.0,1181.5 822.5,1181.0 822.0,1180.5 821.5,1180.0 821.5,1179.0 821.0,1178.5 820.5,1178.0 820.5,1177.0 820.0,1176.5 819.5,1176.0 819.5,1175.0 819.5,1174.0 819.5,1173.0 819.0,1172.5 818.5,1172.0 818.5,1171.0 818.5,1170.0 818.0,1169.5 817.5,1169.0 817.5,1168.0 817.5,1167.0 817.5,1166.0 817.0,1165.5 816.5,1165.0 816.5,1164.0 816.5,1163.0 816.0,1162.5 815.5,1162.0 815.5,1161.0 815.5,1160.0 815.5,1159.0 815.0,1158.5 814.5,1158.0 814.5,1157.0 814.5,1156.0 814.5,1155.0 814.5,1154.0 814.5,1153.0 814.5,1152.0 814.5,1151.0 814.5,1150.0 814.5,1149.0 814.5,1148.0 814.5,1147.0 814.5,1146.0 814.5,1145.0 814.5,1144.0 814.5,1143.0 815.0,1142.5 815.5,1142.0 816.0,1141.5 817.0,1141.5 818.0,1141.5 819.0,1141.5 820.0,1141.5 821.0,1141.5 822.0,1141.5 823.0,1141.5 824.0,1141.5 825.0,1141.5 826.0,1141.5 827.0,1141.5 828.0,1141.5 829.0,1141.5 830.0,1141.5 831.0,1141.5 832.0,1141.5 833.0,1141.5 834.0,1141.5 835.0,1141.5 836.0,1141.5 837.0,1141.5 838.0,1141.5 839.0,1141.5 840.0,1141.5 841.0,1141.5 842.0,1141.5 843.0,1141.5 844.0,1141.5 845.0,1141.5 846.0,1141.5 847.0,1141.5 848.0,1141.5 849.0,1141.5 850.0,1141.5 851.0,1141.5 852.0,1141.5 853.0,1141.5 854.0,1141.5 855.0,1141.5 856.0,1141.5 857.0,1141.5 858.0,1141.5 859.0,1141.5 860.0,1141.5 861.0,1141.5 862.0,1141.5 863.0,1141.5 864.0,1141.5 865.0,1141.5 866.0,1141.5 867.0,1141.5 868.0,1141.5 868.5,1142.0 869.0,1142.5 869.5,1143.0 869.5,1144.0 870.0,1144.5 870.5,1145.0 870.0,1145.5 869.5,1146.0 869.0,1146.5 868.0,1146.5 867.0,1146.5 866.0,1146.5 865.0,1146.5 864.0,1146.5 863.0,1146.5 862.0,1146.5 861.0,1146.5 860.0,1146.5 859.0,1146.5 858.0,1146.5 857.0,1146.5 856.0,1146.5 855.0,1146.5 854.0,1146.5 853.0,1146.5 852.0,1146.5 851.0,1146.5 850.0,1146.5 849.0,1146.5 848.0,1146.5 847.0,1146.5 846.0,1146.5 845.0,1146.5 844.0,1146.5 843.0,1146.5 842.0,1146.5 841.0,1146.5 840.0,1146.5 839.0,1146.5 838.0,1146.5 837.0,1146.5 836.0,1146.5 835.0,1146.5 834.0,1146.5 833.0,1146.5 832.0,1146.5 831.0,1146.5 830.0,1146.5 829.0,1146.5 828.0,1146.5 827.0,1146.5 826.0,1146.5 825.0,1146.5 824.0,1146.5 823.0,1146.5 822.0,1146.5 821.0,1146.5 820.0,1146.5 819.5,1147.0 819.5,1148.0 819.5,1149.0 820.0,1149.5 820.5,1150.0 820.5,1151.0 820.5,1152.0 820.5,1153.0 820.5,1154.0 820.5,1155.0 821.0,1155.5 821.5,1156.0 821.5,1157.0 821.5,1158.0 821.5,1159.0 821.5,1160.0 822.0,1160.5 822.5,1161.0 822.5,1162.0 822.5,1163.0 822.5,1164.0 822.5,1165.0 822.5,1166.0 823.0,1166.5 823.5,1167.0 823.5,1168.0 823.5,1169.0 823.5,1170.0 823.5,1171.0 823.5,1172.0 824.0,1172.5 824.5,1173.0 824.5,1174.0 824.5,1175.0 825.0,1175.5 825.5,1176.0 825.5,1177.0 826.0,1177.5 826.5,1178.0 826.5,1179.0 827.0,1179.5 827.5,1180.0 828.0,1180.5 828.5,1181.0 828.5,1182.0 829.0,1182.5 829.5,1183.0 829.5,1184.0 830.0,1184.5 830.5,1185.0 830.5,1186.0 831.0,1186.5 831.5,1187.0 832.0,1187.5 832.5,1188.0 832.5,1189.0 833.0,1189.5 833.5,1190.0 833.5,1191.0 834.0,1191.5 834.5,1192.0 835.0,1192.5 835.5,1193.0 836.0,1193.5 836.5,1194.0 837.0,1194.5 837.5,1195.0 838.0,1195.5 838.5,1196.0 839.0,1196.5 840.0,1196.5 840.5,1197.0 841.0,1197.5 841.5,1198.0 842.0,1198.5 842.5,1199.0 843.0,1199.5 843.5,1200.0 844.0,1200.5 844.5,1201.0 845.0,1201.5 845.5,1202.0 846.0,1202.5 847.0,1202.5 847.5,1203.0 848.0,1203.5 849.0,1203.5 849.5,1204.0 850.0,1204.5 851.0,1204.5 851.5,1205.0 852.0,1205.5 852.5,1206.0 853.0,1206.5 854.0,1206.5 854.5,1207.0 855.0,1207.5 856.0,1207.5 856.5,1208.0 857.0,1208.5 858.0,1208.5 858.5,1209.0 859.0,1209.5 860.0,1209.5 860.5,1210.0 861.0,1210.5 862.0,1210.5 862.5,1211.0 863.0,1211.5 863.5,1212.0 864.0,1212.5 865.0,1212.5 865.5,1213.0 866.0,1213.5 867.0,1213.5 867.5,1214.0 868.0,1214.5 869.0,1214.5 870.0,1214.5 870.5,1215.0 871.0,1215.5 871.5,1216.0 871.0,1216.5 870.5,1217.0 870.5,1218.0 870.5,1219.0 870.0,1219.5 869.5,1220.0 869.0,1220.5 869.0,1220.5" fill="none" stroke="#FF8080" stroke-width="2" />
  <polyline points="644.0,1187.5 643.0,1187.5 642.0,1187.5 641.0,1187.5 640.0,1187.5 639.0,1187.5 638.0,1187.5 637.0,1187.5 636.0,1187.5 635.0,1187.5 634.0,1187.5 633.0,1187.5 632.0,1187.5 631.0,1187.5 630.0,1187.5 629.0,1187.5 628.0,1187.5 627.0,1187.5 626.0,1187.5 625.0,1187.5 624.0,1187.5 623.0,1187.5 622.0,1187.5 621.0,1187.5 620.0,1187.5 619.0,1187.5 618.0,1187.5 617.0,1187.5 616.0,1187.5 615.0,1187.5 614.0,1187.5 613.0,1187.5 612.0,1187.5 611.0,1187.5 610.0,1187.5 609.0,1187.5 608.0,1187.5 607.0,1187.5 606.0,1187.5 605.0,1187.5 604.0,1187.5 603.0,1187.5 602.0,1187.5 601.0,1187.5 600.0,1187.5 599.0,1187.5 598.0,1187.5 597.0,1187.5 596.0,1187.5 595.0,1187.5 594.0,1187.5 593.0,1187.5 592.0,1187.5 591.0,1187.5 590.0,1187.5 589.0,1187.5 588.0,1187.5 587.0,1187.5 586.0,1187.5 585.0,1187.5 584.0,1187.5 583.0,1187.5 582.0,1187.5 581.0,1187.5 580.5,1187.0 580.0,1186.5 579.5,1186.0 579.5,1185.0 579.5,1184.0 580.0,1183.5 580.5,1183.0 581.0,1182.5 582.0,1182.5 583.0,1182.5 584.0,1182.5 585.0,1182.5 586.0,1182.5 587.0,1182.5 588.0,1182.5 589.0,1182.5 590.0,1182.5 591.0,1182.5 592.0,1182.5 593.0,1182.5 594.0,1182.5 595.0,1182.5 596.0,1182.5 597.0,1182.5 598.0,1182.5 599.0,1182.5 600.0,1182.5 601.0,1182.5 602.0,1182.5 603.0,1182.5 604.0,1182.5 605.0,1182.5 606.0,1182.5 607.0,1182.5 608.0,1182.5 609.0,1182.5 610.0,1182.5 611.0,1182.5 612.0,1182.5 613.0,1182.5 614.0,1182.5 615.0,1182.5 616.0,1182.5 617.0,1182.5 618.0,1182.5 619.0,1182.5 620.0,1182.5 621.0,1182.5 622.0,1182.5 623.0,1182.5 624.0,1182.5 625.0,1182.5 626.0,1182.5 627.0,1182.5 628.0,1182.5 629.0,1182.5 630.0,1182.5 631.0,1182.5 632.0,1182.5 633.0,1182.5 634.0,1182.5 635.0,1182.5 636.0,1182.5 637.0,1182.5 638.0,1182.5 639.0,1182.5 640.0,1182.5 640.5,1183.0 641.0,1183.5 641.5,1183.0 641.5,1182.0 641.5,1181.0 641.5,1180.0 641.5,1179.0 642.0,1178.5 642.5,1178.0 642.5,1177.0 642.5,1176.0 642.5,1175.0 643.0,1174.5 643.5,1174.0 644.0,1173.5 644.5,1174.0 645.0,1174.5 645.5,1175.0 645.5,1176.0 645.5,1177.0 645.5,1178.0 645.5,1179.0 645.5,1180.0 645.5,1181.0 646.0,1181.5 646.5,1182.0 646.5,1183.0 646.5,1184.0 646.5,1185.0 646.0,1185.5 645.5,1186.0 645.0,1186.5 644.5,1187.0 644.0,1187.5 644.0,1187.5" fill="none" stroke="#0000FF" stroke-width="2" />
</svg>