<?xml version='1.0' encoding='utf-8'?>
<svg xmlns="http://www.w3.org/2000/svg" version="1.1" width="1024" height="1024" viewBox="0 0 1024 1024">
  <rect x="0" y="0" width="1024" height="1024" fill="#FFFFFF" />
  <polyline points="472.0,225.5 471.5,225.0 471.0,224.5 470.0,224.5 469.5,224.0 469.0,223.5 468.5,223.0 468.5,222.0 469.0,221.5 469.5,221.0 469.5,220.0 469.5,219.0 469.5,218.0 469.5,217.0 470.0,216.5 470.5,216.0 470.5,215.0 470.5,214.0 470.5,213.0 471.0,212.5 471.5,212.0 471.5,211.0 471.5,210.0 471.5,209.0 471.5,208.0 472.0,207.5 472.5,207.0 472.5,206.0 472.5,205.0 473.0,204.5 473.5,204.0 473.5,203.0 474.0,202.5 474.5,202.0 475.0,201.5 475.5,201.0 475.5,200.0 476.0,199.5 476.5,199.0 477.0,198.5 477.5,198.0 477.5,197.0 478.0,196.5 478.5,196.0 479.0,195.5 479.5,195.0 480.0,194.5 480.5,194.0 480.5,193.0 481.0,192.5 481.5,192.0 482.0,191.5 482.5,191.0 482.5,190.0 483.0,189.5 483.5,189.0 484.0,188.5 485.0,188.5 485.5,188.0 486.0,187.5 486.5,187.0 487.0,186.5 488.0,186.5 488.5,186.0 489.0,185.5 489.5,185.0 490.0,184.5 491.0,184.5 491.5,184.0 492.0,183.5 492.5,183.0 493.0,182.5 494.0,182.5 494.5,182.0 495.0,181.5 495.5,181.0 496.0,180.5 497.0,180.5 497.5,180.0 498.0,179.5 499.0,179.5 500.0,179.5 501.0,179.5 502.0,179.5 503.0,179.5 504.0,179.5 505.0,179.5 505.5,179.0 506.0,178.5 507.0,178.5 508.0,178.5 509.0,178.5 510.0,178.5 511.0,178.5 512.0,178.5 512.5,178.0 513.0,177.5 514.0,177.5 515.0,177.5 516.0,177.5 517.0,177.5 518.0,177.5 518.5,178.0 519.0,178.5 519.5,179.0 519.5,180.0 519.5,181.0 519.5,182.0 519.0,182.5 518.5,183.0 518.0,183.5 517.5,183.0 517.0,182.5 516.5,183.0 516.0,183.5 515.0,183.5 514.0,183.5 513.0,183.5 512.0,183.5 511.0,183.5 510.0,183.5 509.0,183.5 508.0,183.5 507.5,184.0 507.0,184.5 506.0,184.5 505.0,184.5 504.0,184.5 503.0,184.5 502.0,184.5 501.0,184.5 500.0,184.5 499.0,184.5 498.5,185.0 498.0,185.5 497.5,186.0 497.0,186.5 496.0,186.5 495.5,187.0 495.0,187.5 494.5,188.0 494.0,188.5 493.5,189.0 493.0,189.5 492.0,189.5 491.5,190.0 491.0,190.5 490.5,191.0 490.0,191.5 489.5,192.0 489.0,192.5 488.0,192.5 487.5,193.0 487.0,193.5 486.5,194.0 486.0,194.5 485.5,195.0 485.0,195.5 484.0,195.5 483.5,196.0 483.0,196.5 482.5,197.0 482.0,197.5 481.5,198.0 481.5,199.0 481.0,199.5 480.5,200.0 480.5,201.0 480.0,201.5 479.5,202.0 479.5,203.0 479.0,203.5 478.5,204.0 478.5,205.0 478.0,205.5 477.5,206.0 477.5,207.0 477.0,207.5 476.5,208.0 476.5,209.0 476.0,209.5 475.5,210.0 475.5,211.0 475.0,211.5 474.5,212.0 474.5,213.0 474.0,213.5 473.5,214.0 473.5,215.0 473.5,216.0 473.5,217.0 473.5,218.0 473.5,219.0 473.5,220.0 473.5,221.0 473.5,222.0 473.5,223.0 473.5,224.0 473.0,224.5 472.5,225.0 472.0,225.5 472.0,225.5" fill="none" stroke="#0000FF" stroke-width="2" />
  <polyline points="519.0,224.5 518.0,224.5 517.5,224.0 517.0,223.5 516.5,223.0 516.5,222.0 516.5,221.0 516.5,220.0 516.5,219.0 516.5,218.0 516.5,217.0 516.5,216.0 516.5,215.0 516.5,214.0 516.5,213.0 516.5,212.0 516.5,211.0 516.5,210.0 516.5,209.0 517.0,208.5 517.5,208.0 517.5,207.0 517.5,206.0 517.5,205.0 517.5,204.0 517.5,203.0 517.5,202.0 517.5,201.0 518.0,200.5 518.5,200.0 519.0,199.5 519.5,200.0 520.0,200.5 520.5,201.0 520.5,202.0 520.5,203.0 520.5,204.0 520.5,205.0 520.5,206.0 520.5,207.0 520.5,208.0 520.5,209.0 520.5,210.0 520.5,211.0 520.5,212.0 520.5,213.0 520.5,214.0 520.5,215.0 520.5,216.0 520.5,217.0 520.5,218.0 520.5,219.0 520.5,220.0 520.5,221.0 520.5,222.0 520.5,223.0 520.0,223.5 519.5,224.0 519.0,224.5 519.0,224.5" fill="none" stroke="#00FF00" stroke-width="2" />
  <polyline points="364.0,296.5 363.0,296.5 362.0,296.5 361.0,296.5 360.0,296.5 359.0,296.5 358.0,296.5 357.0,296.5 356.0,296.5 355.0,296.5 354.0,296.5 353.0,296.5 352.0,296.5 351.0,296.5 350.0,296.5 349.0,296.5 348.0,296.5 347.0,296.5 346.0,296.5 345.0,296.5 344.0,296.5 343.0,296.5 342.0,296.5 341.0,296.5 340.0,296.5 339.0,296.5 338.0,296.5 337.0,296.5 336.0,296.5 335.0,296.5 334.0,296.5 333.0,296.5 332.0,296.5 331.0,296.5 330.0,296.5 329.0,296.5 328.0,296.5 327.0,296.5 326.0,296.5 325.0,296.5 324.0,296.5 323.0,296.5 322.0,296.5 321.0,296.5 320.0,296.5 319.0,296.5 318.0,296.5 317.0,296.5 316.0,296.5 315.0,296.5 314.5,296.0 314.0,295.5 313.5,295.0 313.5,294.0 313.5,293.0 313.5,292.0 313.5,291.0 313.5,290.0 313.5,289.0 313.5,288.0 313.5,287.0 313.5,286.0 314.0,285.5 314.5,285.0 314.5,284.0 315.0,283.5 315.5,283.0 315.5,282.0 315.5,281.0 316.0,280.5 316.5,280.0 316.5,279.0 317.0,278.5 317.5,278.0 317.5,277.0 318.0,276.5 318.5,276.0 318.5,275.0 318.5,274.0 319.0,273.5 319.5,273.0 319.5,272.0 320.0,271.5 320.5,271.0 320.5,270.0 320.5,269.0 321.0,268.5 321.5,268.0 321.5,267.0 322.0,266.5 322.5,266.0 322.5,265.0 323.0,264.5 323.5,264.0 323.5,263.0 324.0,262.5 324.5,262.0 325.0,261.5 325.5,261.0 326.0,260.5 326.5,260.0 327.0,259.5 327.5,259.0 327.5,258.0 328.0,257.5 328.5,257.0 329.0,256.5 329.5,256.0 330.0,255.5 330.5,255.0 331.0,254.5 331.5,254.0 332.0,253.5 333.0,253.5 333.5,253.0 334.0,252.5 334.5,252.0 335.0,251.5 336.0,251.5 336.5,251.0 337.0,250.5 338.0,250.5 338.5,250.0 339.0,249.5 339.5,249.0 340.0,248.5 341.0,248.5 341.5,248.0 342.0,247.5 343.0,247.5 343.5,247.0 344.0,246.5 344.5,246.0 345.0,245.5 346.0,245.5 346.5,245.0 347.0,244.5 348.0,244.5 349.0,244.5 350.0,244.5 351.0,244.5 351.5,244.0 352.0,243.5 353.0,243.5 354.0,243.5 355.0,243.5 355.5,243.0 356.0,242.5 357.0,242.5 358.0,242.5 359.0,242.5 360.0,242.5 360.5,242.0 361.0,241.5 362.0,241.5 363.0,241.5 364.0,241.5 364.5,242.0 365.0,242.5 365.5,243.0 365.5,244.0 366.0,244.5 366.5,245.0 366.5,246.0 366.0,246.5 365.5,247.0 365.0,247.5 364.0,247.5 363.0,247.5 362.0,247.5 361.0,247.5 360.0,247.5 359.0,247.5 358.0,247.5 357.0,247.5 356.0,247.5 355.0,247.5 354.0,247.5 353.5,248.0 353.0,248.5 352.0,248.5 351.5,249.0 351.0,249.5 350.0,249.5 349.5,250.0 349.0,250.5 348.0,250.5 347.5,251.0 347.0,251.5 346.0,251.5 345.5,252.0 345.0,252.5 344.0,252.5 343.5,253.0 343.0,253.5 342.0,253.5 341.5,254.0 341.0,254.5 340.0,254.5 339.5,255.0 339.0,255.5 338.0,255.5 337.5,256.0 337.0,256.5 336.0,256.5 335.5,257.0 335.0,257.5 334.5,258.0 334.0,258.5 333.5,259.0 333.0,259.5 332.5,260.0 332.5,261.0 332.0,261.5 331.5,262.0 331.0,262.5 330.5,263.0 330.0,263.5 329.5,264.0 329.0,264.5 328.5,265.0 328.0,265.5 327.5,266.0 327.5,267.0 327.0,267.5 326.5,268.0 326.0,268.5 325.5,269.0 325.0,269.5 324.5,270.0 324.5,271.0 324.0,271.5 323.5,272.0 323.5,273.0 323.0,273.5 322.5,274.0 322.5,275.0 322.5,276.0 322.0,276.5 321.5,277.0 321.5,278.0 321.5,279.0 321.0,279.5 320.5,280.0 320.5,281.0 320.0,281.5 319.5,282.0 319.5,283.0 319.5,284.0 319.0,284.5 318.5,285.0 318.5,286.0 318.0,286.5 317.5,287.0 317.5,288.0 318.0,288.5 318.5,289.0 318.5,290.0 319.0,290.5 319.5,291.0 319.5,292.0 320.0,292.5 321.0,292.5 322.0,292.5 323.0,292.5 324.0,292.5 325.0,292.5 326.0,292.5 327.0,292.5 328.0,292.5 329.0,292.5 330.0,292.5 331.0,292.5 332.0,292.5 333.0,292.5 334.0,292.5 335.0,292.5 336.0,292.5 337.0,292.5 338.0,292.5 339.0,292.5 340.0,292.5 341.0,292.5 342.0,292.5 343.0,292.5 344.0,292.5 345.0,292.5 346.0,292.5 347.0,292.5 348.0,292.5 349.0,292.5 350.0,292.5 351.0,292.5 352.0,292.5 353.0,292.5 354.0,292.5 355.0,292.5 356.0,292.5 357.0,292.5 358.0,292.5 359.0,292.5 360.0,292.5 361.0,292.5 362.0,292.5 363.0,292.5 364.0,292.5 364.5,293.0 365.0,293.5 365.5,294.0 365.5,295.0 365.0,295.5 364.5,296.0 364.0,296.5 364.0,296.5" fill="none" stroke="#FF0000" stroke-width="2" />
  <polyline points="588.0,296.5 587.0,296.5 586.0,296.5 585.0,296.5 584.0,296.5 583.0,296.5 582.0,296.5 581.0,296.5 580.0,296.5 579.0,296.5 578.0,296.5 577.0,296.5 576.0,296.5 575.0,296.5 574.0,296.5 573.0,296.5 572.0,296.5 571.0,296.5 570.0,296.5 569.0,296.5 568.0,296.5 567.0,296.5 566.0,296.5 565.0,296.5 564.0,296.5 563.0,296.5 562.0,296.5 561.0,296.5 560.0,296.5 559.0,296.5 558.0,296.5 557.0,296.5 556.0,296.5 555.0,296.5 554.0,296.5 553.0,296.5 552.0,296.5 551.0,296.5 550.0,296.5 549.0,296.5 548.0,296.5 547.0,296.5 546.0,296.5 545.0,296.5 544.0,296.5 543.0,296.5 542.0,296.5 541.0,296.5 540.0,296.5 539.5,296.0 539.0,295.5 538.5,295.0 538.5,294.0 539.0,293.5 539.5,293.0 540.0,292.5 541.0,292.5 542.0,292.5 543.0,292.5 544.0,292.5 545.0,292.5 546.0,292.5 547.0,292.5 548.0,292.5 549.0,292.5 550.0,292.5 551.0,292.5 552.0,292.5 553.0,292.5 554.0,292.5 555.0,292.5 556.0,292.5 557.0,292.5 558.0,292.5 559.0,292.5 560.0,292.5 561.0,292.5 562.0,292.5 563.0,292.5 564.0,292.5 565.0,292.5 566.0,292.5 567.0,292.5 568.0,292.5 569.0,292.5 570.0,292.5 571.0,292.5 572.0,292.5 573.0,292.5 574.0,292.5 575.0,292.5 576.0,292.5 577.0,292.5 578.0,292.5 579.0,292.5 580.0,292.5 581.0,292.5 582.0,292.5 583.0,292.5 584.0,292.5 585.0,292.5 585.5,292.0 585.5,291.0 585.0,290.5 584.5,290.0 584.5,289.0 584.5,288.0 584.5,287.0 584.0,286.5 583.5,286.0 583.5,285.0 583.5,284.0 583.5,283.0 583.0,282.5 582.5,282.0 582.5,281.0 582.5,280.0 582.5,279.0 582.0,278.5 581.5,278.0 581.5,277.0 581.5,276.0 581.5,275.0 581.0,274.5 580.5,274.0 580.5,273.0 580.5,272.0 580.0,271.5 579.5,271.0 579.5,270.0 579.0,269.5 578.5,269.0 578.0,268.5 577.5,268.0 577.0,267.5 576.5,267.0 576.5,266.0 576.0,265.5 575.5,265.0 575.0,264.5 574.5,264.0 574.0,263.5 573.5,263.0 573.5,262.0 573.0,261.5 572.5,261.0 572.0,260.5 571.5,260.0 571.0,259.5 570.5,259.0 570.5,258.0 570.0,257.5 569.5,257.0 569.0,256.5 568.0,256.5 567.5,256.0 567.0,255.5 566.5,255.0 566.0,254.5 565.0,254.5 564.5,254.0 564.0,253.5 563.0,253.5 562.5,253.0 562.0,252.5 561.5,252.0 561.0,251.5 560.0,251.5 559.5,251.0 559.0,250.5 558.0,250.5 557.5,250.0 557.0,249.5 556.5,249.0 556.0,248.5 555.0,248.5 554.5,248.0 554.0,247.5 553.0,247.5 552.0,247.5 551.0,247.5 550.0,247.5 549.0,247.5 548.0,247.5 547.0,247.5 546.0,247.5 545.5,247.0 545.0,246.5 544.0,246.5 543.0,246.5 542.0,246.5 541.0,246.5 540.0,246.5 539.0,246.5 538.0,246.5 537.0,246.5 536.5,246.0 536.0,245.5 535.5,245.0 536.0,244.5 536.5,244.0 537.0,243.5 537.5,243.0 538.0,242.5 538.5,242.0 539.0,241.5 540.0,241.5 541.0,241.5 542.0,241.5 543.0,241.5 543.5,242.0 544.0,242.5 545.0,242.5 546.0,242.5 547.0,242.5 548.0,242.5 549.0,242.5 550.0,242.5 550.5,243.0 551.0,243.5 552.0,243.5 553.0,243.5 554.0,243.5 555.0,243.5 556.0,243.5 556.5,244.0 557.0,244.5 557.5,245.0 558.0,245.5 559.0,245.5 559.5,246.0 560.0,246.5 560.5,247.0 561.0,247.5 561.5,248.0 562.0,248.5 563.0,248.5 563.5,249.0 564.0,249.5 564.5,250.0 565.0,250.5 565.5,251.0 566.0,251.5 567.0,251.5 567.5,252.0 568.0,252.5 568.5,253.0 569.0,253.5 569.5,254.0 570.0,254.5 570.5,255.0 571.0,255.5 572.0,255.5 572.5,256.0 573.0,256.5 573.5,257.0 574.0,257.5 574.5,258.0 575.0,258.5 576.0,258.5 576.5,259.0 577.0,259.5 577.5,260.0 578.0,260.5 578.5,261.0 578.5,262.0 579.0,262.5 579.5,263.0 579.5,264.0 580.0,264.5 580.5,265.0 581.0,265.5 581.5,266.0 581.5,267.0 582.0,267.5 582.5,268.0 582.5,269.0 583.0,269.5 583.5,270.0 584.0,270.5 584.5,271.0 584.5,272.0 585.0,272.5 585.5,273.0 585.5,274.0 586.0,274.5 586.5,275.0 586.5,276.0 586.5,277.0 586.5,278.0 587.0,278.5 587.5,279.0 587.5,280.0 587.5,281.0 587.5,282.0 587.5,283.0 587.5,284.0 587.5,285.0 588.0,285.5 588.5,286.0 588.5,287.0 588.5,288.0 588.5,289.0 588.5,290.0 588.5,291.0 588.5,292.0 589.0,292.5 589.5,293.0 589.5,294.0 589.5,295.0 589.0,295.5 588.5,296.0 588.0,296.5 588.0,296.5" fill="none" stroke="#00FFFF" stroke-width="2" />
  <polyline points="385.0,415.5 384.0,415.5 383.0,415.5 382.0,415.5 381.0,415.5 380.0,415.5 379.0,415.5 378.0,415.5 377.0,415.5 376.0,415.5 375.0,415.5 374.0,415.5 373.0,415.5 372.0,415.5 371.0,415.5 370.0,415.5 369.0,415.5 368.0,415.5 367.0,415.5 366.0,415.5 365.0,415.5 364.0,415.5 363.0,415.5 362.0,415.5 361.0,415.5 360.0,415.5 359.0,415.5 358.0,415.5 357.0,415.5 356.0,415.5 355.0,415.5 354.0,415.5 353.0,415.5 352.0,415.5 351.0,415.5 350.0,415.5 349.0,415.5 348.0,415.5 347.0,415.5 346.0,415.5 345.0,415.5 344.0,415.5 343.0,415.5 342.0,415.5 341.0,415.5 340.5,415.0 340.0,414.5 339.5,414.0 339.0,413.5 338.5,413.0 338.5,412.0 338.0,411.5 337.5,411.0 337.5,410.0 337.0,409.5 336.5,409.0 336.5,408.0 336.5,407.0 337.0,406.5 337.5,406.0 337.5,405.0 337.5,404.0 337.5,403.0 338.0,402.5 338.5,402.0 338.5,401.0 338.5,400.0 339.0,399.5 339.5,399.0 339.5,398.0 339.5,397.0 340.0,396.5 340.5,396.0 340.5,395.0 340.5,394.0 340.5,393.0 341.0,392.5 341.5,392.0 341.5,391.0 341.5,390.0 342.0,389.5 342.5,389.0 342.5,388.0 343.0,387.5 343.5,387.0 343.5,386.0 344.0,385.5 344.5,385.0 345.0,384.5 345.5,384.0 345.5,383.0 346.0,382.5 346.5,382.0 347.0,381.5 347.5,381.0 348.0,380.5 348.5,380.0 348.5,379.0 349.0,378.5 349.5,378.0 350.0,377.5 350.5,377.0 350.5,376.0 351.0,375.5 351.5,375.0 352.0,374.5 353.0,374.5 353.5,374.0 354.0,373.5 354.5,373.0 355.0,372.5 356.0,372.5 356.5,372.0 357.0,371.5 357.5,371.0 358.0,370.5 359.0,370.5 359.5,370.0 360.0,369.5 360.5,369.0 361.0,368.5 362.0,368.5 362.5,368.0 363.0,367.5 363.5,367.0 364.0,366.5 365.0,366.5 365.5,366.0 366.0,365.5 366.5,365.0 367.0,364.5 368.0,364.5 368.5,364.0 369.0,363.5 370.0,363.5 371.0,363.5 372.0,363.5 373.0,363.5 374.0,363.5 374.5,363.0 375.0,362.5 376.0,362.5 377.0,362.5 378.0,362.5 379.0,362.5 380.0,362.5 380.5,362.0 381.0,361.5 382.0,361.5 383.0,361.5 384.0,361.5 385.0,361.5 385.5,362.0 386.0,362.5 386.5,363.0 386.5,364.0 387.0,364.5 387.5,365.0 387.0,365.5 386.5,366.0 386.0,366.5 385.0,366.5 384.0,366.5 383.0,366.5 382.0,366.5 381.0,366.5 380.0,366.5 379.0,366.5 378.0,366.5 377.0,366.5 376.0,366.5 375.5,367.0 375.0,367.5 374.0,367.5 373.5,368.0 373.0,368.5 372.0,368.5 371.0,368.5 370.5,369.0 370.0,369.5 369.0,369.5 368.5,370.0 368.0,370.5 367.0,370.5 366.5,371.0 366.0,371.5 365.0,371.5 364.0,371.5 363.5,372.0 363.0,372.5 362.0,372.5 361.5,373.0 361.0,373.5 360.5,374.0 360.0,374.5 359.5,375.0 359.0,375.5 358.5,376.0 358.0,376.5 357.5,377.0 357.0,377.5 356.5,378.0 356.0,378.5 355.0,378.5 354.5,379.0 354.0,379.5 353.5,380.0 353.0,380.5 352.5,381.0 352.0,381.5 351.5,382.0 351.0,382.5 350.5,383.0 350.5,384.0 350.0,384.5 349.5,385.0 349.5,386.0 349.0,386.5 348.5,387.0 348.5,388.0 348.0,388.5 347.5,389.0 347.5,390.0 347.0,390.5 346.5,391.0 346.5,392.0 346.0,392.5 345.5,393.0 345.5,394.0 345.0,394.5 344.5,395.0 344.5,396.0 344.0,396.5 343.5,397.0 343.5,398.0 343.0,398.5 342.5,399.0 342.5,400.0 342.0,400.5 341.5,401.0 341.5,402.0 341.5,403.0 341.5,404.0 341.5,405.0 342.0,405.5 342.5,406.0 342.5,407.0 342.5,408.0 342.5,409.0 342.5,410.0 343.0,410.5 344.0,410.5 345.0,410.5 346.0,410.5 347.0,410.5 348.0,410.5 349.0,410.5 350.0,410.5 351.0,410.5 352.0,410.5 353.0,410.5 354.0,410.5 355.0,410.5 356.0,410.5 357.0,410.5 358.0,410.5 359.0,410.5 360.0,410.5 361.0,410.5 362.0,410.5 363.0,410.5 364.0,410.5 365.0,410.5 366.0,410.5 367.0,410.5 368.0,410.5 369.0,410.5 370.0,410.5 371.0,410.5 372.0,410.5 373.0,410.5 374.0,410.5 375.0,410.5 376.0,410.5 377.0,410.5 378.0,410.5 379.0,410.5 380.0,410.5 381.0,410.5 382.0,410.5 383.0,410.5 384.0,410.5 385.0,410.5 386.0,410.5 386.5,411.0 387.0,411.5 387.5,412.0 387.0,412.5 386.5,413.0 386.5,414.0 386.0,414.5 385.5,415.0 385.0,415.5 385.0,415.5" fill="none" stroke="#FF00FF" stroke-width="2" />
  <polyline points="593.0,438.5 592.0,438.5 591.0,438.5 590.0,438.5 589.0,438.5 588.0,438.5 587.0,438.5 586.0,438.5 585.0,438.5 584.0,438.5 583.0,438.5 582.0,438.5 581.0,438.5 580.0,438.5 579.0,438.5 578.0,438.5 577.0,438.5 576.0,438.5 575.0,438.5 574.0,438.5 573.0,438.5 572.0,438.5 571.0,438.5 570.0,438.5 569.0,438.5 568.0,438.5 567.0,438.5 566.0,438.5 565.0,438.5 564.0,438.5 563.0,438.5 562.0,438.5 561.0,438.5 560.0,438.5 559.0,438.5 558.0,438.5 557.0,438.5 556.0,438.5 555.0,438.5 554.0,438.5 553.0,438.5 552.0,438.5 551.0,438.5 550.0,438.5 549.0,438.5 548.0,438.5 547.0,438.5 546.0,438.5 545.0,438.5 544.0,438.5 543.0,438.5 542.0,438.5 541.5,438.0 541.0,437.5 540.5,437.0 541.0,436.5 541.5,436.0 542.0,435.5 543.0,435.5 544.0,435.5 545.0,435.5 546.0,435.5 546.5,435.0 547.0,434.5 548.0,434.5 549.0,434.5 550.0,434.5 551.0,434.5 552.0,434.5 553.0,434.5 554.0,434.5 555.0,434.5 556.0,434.5 557.0,434.5 558.0,434.5 559.0,434.5 560.0,434.5 561.0,434.5 562.0,434.5 563.0,434.5 564.0,434.5 565.0,434.5 566.0,434.5 567.0,434.5 568.0,434.5 569.0,434.5 569.5,434.0 570.0,433.5 571.0,433.5 572.0,433.5 573.0,433.5 574.0,433.5 575.0,433.5 576.0,433.5 577.0,433.5 578.0,433.5 579.0,433.5 580.0,433.5 581.0,433.5 582.0,433.5 583.0,433.5 584.0,433.5 585.0,433.5 586.0,433.5 587.0,433.5 588.0,433.5 589.0,433.5 590.0,433.5 591.0,433.5 591.5,433.0 591.5,432.0 591.0,431.5 590.5,431.0 590.5,430.0 590.5,429.0 590.0,428.5 589.5,428.0 589.5,427.0 589.5,426.0 589.0,425.5 588.5,425.0 588.5,424.0 588.5,423.0 588.0,422.5 587.5,422.0 587.5,421.0 587.5,420.0 587.5,419.0 587.0,418.5 586.5,418.0 586.5,417.0 586.5,416.0 586.0,415.5 585.5,415.0 585.5,414.0 585.5,413.0 585.0,412.5 584.5,412.0 584.5,411.0 584.5,410.0 584.0,409.5 583.5,409.0 583.5,408.0 583.0,407.5 582.5,407.0 582.0,406.5 581.5,406.0 581.0,405.5 580.5,405.0 580.0,404.5 579.5,404.0 579.5,403.0 579.0,402.5 578.5,402.0 578.0,401.5 577.5,401.0 577.0,400.5 576.5,400.0 576.0,399.5 575.5,399.0 575.0,398.5 574.5,398.0 574.0,397.5 573.5,397.0 573.0,396.5 572.5,396.0 572.5,395.0 572.0,394.5 571.5,394.0 571.0,393.5 570.5,393.0 570.0,392.5 569.5,392.0 569.0,391.5 568.0,391.5 567.5,391.0 567.0,390.5 566.0,390.5 565.0,390.5 564.5,390.0 564.0,389.5 563.0,389.5 562.5,389.0 562.0,388.5 561.0,388.5 560.5,388.0 560.0,387.5 559.0,387.5 558.0,387.5 557.5,387.0 557.0,386.5 556.0,386.5 555.5,386.0 555.0,385.5 554.0,385.5 553.5,385.0 553.0,384.5 552.0,384.5 551.0,384.5 550.5,384.0 550.0,383.5 549.0,383.5 548.5,383.0 548.0,382.5 547.0,382.5 546.0,382.5 545.0,382.5 544.0,382.5 543.0,382.5 542.0,382.5 541.0,382.5 540.0,382.5 539.5,382.0 539.0,381.5 538.5,381.0 538.5,380.0 539.0,379.5 539.5,379.0 540.0,378.5 541.0,378.5 542.0,378.5 543.0,378.5 544.0,378.5 545.0,378.5 545.5,379.0 546.0,379.5 547.0,379.5 548.0,379.5 549.0,379.5 550.0,379.5 551.0,379.5 552.0,379.5 552.5,380.0 553.0,380.5 554.0,380.5 555.0,380.5 556.0,380.5 557.0,380.5 558.0,380.5 559.0,380.5 559.5,381.0 560.0,381.5 561.0,381.5 561.5,382.0 562.0,382.5 562.5,383.0 563.0,383.5 564.0,383.5 564.5,384.0 565.0,384.5 566.0,384.5 566.5,385.0 567.0,385.5 567.5,386.0 568.0,386.5 569.0,386.5 569.5,387.0 570.0,387.5 571.0,387.5 571.5,388.0 572.0,388.5 572.5,389.0 573.0,389.5 574.0,389.5 574.5,390.0 575.0,390.5 575.5,391.0 576.0,391.5 576.5,392.0 577.0,392.5 577.5,393.0 577.5,394.0 578.0,394.5 578.5,395.0 579.0,395.5 579.5,396.0 580.0,396.5 580.5,397.0 581.0,397.5 581.5,398.0 582.0,398.5 582.5,399.0 583.0,399.5 583.5,400.0 583.5,401.0 584.0,401.5 584.5,402.0 585.0,402.5 585.5,403.0 586.0,403.5 586.5,404.0 586.5,405.0 587.0,405.5 587.5,406.0 587.5,407.0 588.0,407.5 588.5,408.0 588.5,409.0 588.5,410.0 589.0,410.5 589.5,411.0 589.5,412.0 590.0,412.5 590.5,413.0 590.5,414.0 591.0,414.5 591.5,415.0 591.5,416.0 591.5,417.0 592.0,417.5 592.5,418.0 592.5,419.0 593.0,419.5 593.5,420.0 593.5,421.0 593.5,422.0 594.0,422.5 594.5,423.0 594.5,424.0 595.0,424.5 595.5,425.0 595.5,426.0 595.5,427.0 595.5,428.0 595.5,429.0 595.5,430.0 595.5,431.0 595.5,432.0 595.0,432.5 594.5,433.0 594.5,434.0 594.5,435.0 594.5,436.0 594.5,437.0 594.0,437.5 593.5,438.0 593.0,438.5 593.0,438.5" fill="none" stroke="#FFFF00" stroke-width="2" />
  <polyline points="340.0,573.5 339.0,573.5 338.0,573.5 337.5,573.0 337.0,572.5 336.5,572.0 336.5,571.0 336.5,570.0 336.0,569.5 335.5,569.0 336.0,568.5 336.5,568.0 337.0,567.5 338.0,567.5 339.0,567.5 340.0,567.5 341.0,567.5 341.5,567.0 342.0,566.5 343.0,566.5 344.0,566.5 345.0,566.5 346.0,566.5 347.0,566.5 348.0,566.5 349.0,566.5 349.5,566.0 350.0,565.5 351.0,565.5 351.5,565.0 352.0,564.5 352.5,564.0 353.0,563.5 354.0,563.5 354.5,563.0 355.0,562.5 356.0,562.5 356.5,562.0 357.0,561.5 357.5,561.0 358.0,560.5 359.0,560.5 359.5,560.0 360.0,559.5 361.0,559.5 361.5,559.0 362.0,558.5 363.0,558.5 363.5,558.0 364.0,557.5 364.5,557.0 365.0,556.5 366.0,556.5 366.5,556.0 367.0,555.5 368.0,555.5 368.5,555.0 369.0,554.5 369.5,554.0 370.0,553.5 371.0,553.5 371.5,553.0 372.0,552.5 372.5,552.0 372.5,551.0 373.0,550.5 373.5,550.0 374.0,549.5 374.5,549.0 374.5,548.0 375.0,547.5 375.5,547.0 375.5,546.0 376.0,545.5 376.5,545.0 377.0,544.5 377.5,544.0 377.5,543.0 378.0,542.5 378.5,542.0 379.0,541.5 379.5,541.0 379.5,540.0 380.0,539.5 380.5,539.0 380.5,538.0 381.0,537.5 381.5,537.0 382.0,536.5 382.5,536.0 382.5,535.0 383.0,534.5 383.5,534.0 383.5,533.0 383.5,532.0 383.5,531.0 383.5,530.0 384.0,529.5 384.5,529.0 384.5,528.0 384.5,527.0 384.5,526.0 384.5,525.0 384.5,524.0 384.5,523.0 384.5,522.0 384.5,521.0 384.5,520.0 385.0,519.5 385.5,519.0 385.5,518.0 385.5,517.0 385.5,516.0 385.5,515.0 385.0,514.5 384.5,515.0 384.0,515.5 383.0,515.5 382.0,515.5 381.0,515.5 380.0,515.5 379.0,515.5 378.0,515.5 377.0,515.5 376.0,515.5 375.0,515.5 374.0,515.5 373.0,515.5 372.0,515.5 371.0,515.5 370.0,515.5 369.0,515.5 368.0,515.5 367.0,515.5 366.0,515.5 365.0,515.5 364.0,515.5 363.0,515.5 362.0,515.5 361.0,515.5 360.0,515.5 359.0,515.5 358.0,515.5 357.0,515.5 356.0,515.5 355.0,515.5 354.0,515.5 353.0,515.5 352.0,515.5 351.0,515.5 350.0,515.5 349.0,515.5 348.0,515.5 347.0,515.5 346.0,515.5 345.0,515.5 344.0,515.5 343.0,515.5 342.0,515.5 341.0,515.5 340.0,515.5 339.0,515.5 338.5,515.0 338.0,514.5 337.5,514.0 337.5,513.0 338.0,512.5 338.5,512.0 339.0,511.5 340.0,511.5 341.0,511.5 342.0,511.5 343.0,511.5 344.0,511.5 345.0,511.5 346.0,511.5 347.0,511.5 348.0,511.5 349.0,511.5 350.0,511.5 351.0,511.5 352.0,511.5 353.0,511.5 354.0,511.5 355.0,511.5 356.0,511.5 357.0,511.5 358.0,511.5 359.0,511.5 360.0,511.5 361.0,511.5 362.0,511.5 363.0,511.5 364.0,511.5 365.0,511.5 366.0,511.5 367.0,511.5 368.0,511.5 369.0,511.5 370.0,511.5 371.0,511.5 372.0,511.5 373.0,511.5 374.0,511.5 375.0,511.5 376.0,511.5 377.0,511.5 378.0,511.5 379.0,511.5 380.0,511.5 381.0,511.5 382.0,511.5 383.0,511.5 384.0,511.5 385.0,511.5 386.0,511.5 387.0,511.5 388.0,511.5 388.5,512.0 389.0,512.5 389.5,513.0 389.5,514.0 389.5,515.0 389.5,516.0 390.0,516.5 390.5,517.0 390.5,518.0 390.5,519.0 390.5,520.0 390.5,521.0 390.5,522.0 390.5,523.0 390.0,523.5 389.5,524.0 389.5,525.0 389.5,526.0 389.5,527.0 389.0,527.5 388.5,528.0 388.5,529.0 388.5,530.0 388.5,531.0 388.0,531.5 387.5,532.0 387.5,533.0 387.5,534.0 387.0,534.5 386.5,535.0 386.5,536.0 386.5,537.0 386.5,538.0 386.0,538.5 385.5,539.0 385.5,540.0 385.0,540.5 384.5,541.0 384.0,541.5 383.5,542.0 383.5,543.0 383.0,543.5 382.5,544.0 382.0,544.5 381.5,545.0 381.0,545.5 380.5,546.0 380.0,546.5 379.5,547.0 379.5,548.0 379.0,548.5 378.5,549.0 378.0,549.5 377.5,550.0 377.0,550.5 376.5,551.0 376.0,551.5 375.5,552.0 375.0,552.5 374.5,553.0 374.5,554.0 374.0,554.5 373.5,555.0 373.0,555.5 372.5,556.0 372.0,556.5 371.5,557.0 371.0,557.5 370.5,558.0 370.5,559.0 370.0,559.5 369.5,560.0 369.0,560.5 368.5,561.0 368.0,561.5 367.0,561.5 366.5,562.0 366.0,562.5 365.0,562.5 364.5,563.0 364.0,563.5 363.5,564.0 363.0,564.5 362.0,564.5 361.5,565.0 361.0,565.5 360.0,565.5 359.5,566.0 359.0,566.5 358.0,566.5 357.5,567.0 357.0,567.5 356.5,568.0 356.0,568.5 355.0,568.5 354.5,569.0 354.0,569.5 353.0,569.5 352.5,570.0 352.0,570.5 351.0,570.5 350.0,570.5 349.0,570.5 348.5,571.0 348.0,571.5 347.0,571.5 346.0,571.5 345.0,571.5 344.5,572.0 344.0,572.5 343.0,572.5 342.0,572.5 341.0,572.5 340.5,573.0 340.0,573.5 340.0,573.5" fill="none" stroke="#0080FF" stroke-width="2" />
  <polyline points="473.0,625.5 472.0,625.5 471.0,625.5 470.0,625.5 469.0,625.5 468.0,625.5 467.5,625.0 467.0,624.5 466.5,624.0 466.0,623.5 465.5,623.0 465.0,622.5 464.5,622.0 465.0,621.5 465.5,621.0 466.0,620.5 467.0,620.5 468.0,620.5 469.0,620.5 470.0,620.5 471.0,620.5 472.0,620.5 473.0,620.5 474.0,620.5 475.0,620.5 476.0,620.5 477.0,620.5 477.5,620.0 478.0,619.5 479.0,619.5 480.0,619.5 480.5,619.0 481.0,618.5 482.0,618.5 482.5,618.0 483.0,617.5 484.0,617.5 485.0,617.5 485.5,617.0 486.0,616.5 487.0,616.5 487.5,616.0 488.0,615.5 489.0,615.5 490.0,615.5 490.5,615.0 491.0,614.5 491.5,614.0 492.0,613.5 492.5,613.0 493.0,612.5 494.0,612.5 494.5,612.0 495.0,611.5 495.5,611.0 496.0,610.5 496.5,610.0 497.0,609.5 497.5,609.0 498.0,608.5 498.5,608.0 499.0,607.5 499.5,607.0 500.0,606.5 501.0,606.5 501.5,606.0 502.0,605.5 502.5,605.0 503.0,604.5 503.5,604.0 504.0,603.5 504.5,603.0 504.5,602.0 505.0,601.5 505.5,601.0 505.5,600.0 506.0,599.5 506.5,599.0 506.5,598.0 507.0,597.5 507.5,597.0 507.5,596.0 508.0,595.5 508.5,595.0 508.5,594.0 508.5,593.0 508.5,592.0 509.0,591.5 509.5,591.0 509.5,590.0 509.5,589.0 509.5,588.0 509.5,587.0 509.5,586.0 510.0,585.5 510.5,585.0 510.5,584.0 510.5,583.0 510.5,582.0 510.5,581.0 510.5,580.0 511.0,579.5 511.5,579.0 511.5,578.0 511.5,577.0 511.0,576.5 510.0,576.5 509.0,576.5 508.0,576.5 507.0,576.5 506.0,576.5 505.0,576.5 504.0,576.5 503.0,576.5 502.0,576.5 501.0,576.5 500.0,576.5 499.0,576.5 498.0,576.5 497.0,576.5 496.0,576.5 495.0,576.5 494.0,576.5 493.0,576.5 492.0,576.5 491.0,576.5 490.0,576.5 489.0,576.5 488.0,576.5 487.0,576.5 486.0,576.5 485.0,576.5 484.0,576.5 483.0,576.5 482.0,576.5 481.0,576.5 480.0,576.5 479.0,576.5 478.0,576.5 477.0,576.5 476.0,576.5 475.0,576.5 474.0,576.5 473.0,576.5 472.0,576.5 471.0,576.5 470.0,576.5 469.0,576.5 468.0,576.5 467.0,576.5 466.5,576.0 466.0,575.5 465.5,575.0 466.0,574.5 466.5,574.0 466.5,573.0 466.5,572.0 467.0,571.5 467.5,571.0 468.0,570.5 469.0,570.5 470.0,570.5 471.0,570.5 472.0,570.5 473.0,570.5 474.0,570.5 475.0,570.5 476.0,570.5 477.0,570.5 478.0,570.5 479.0,570.5 480.0,570.5 481.0,570.5 482.0,570.5 483.0,570.5 484.0,570.5 485.0,570.5 486.0,570.5 487.0,570.5 488.0,570.5 489.0,570.5 490.0,570.5 491.0,570.5 492.0,570.5 493.0,570.5 494.0,570.5 495.0,570.5 496.0,570.5 497.0,570.5 498.0,570.5 499.0,570.5 500.0,570.5 501.0,570.5 502.0,570.5 503.0,570.5 504.0,570.5 505.0,570.5 506.0,570.5 507.0,570.5 508.0,570.5 509.0,570.5 510.0,570.5 511.0,570.5 512.0,570.5 512.5,571.0 513.0,571.5 513.5,572.0 514.0,572.5 514.5,573.0 514.5,574.0 515.0,574.5 515.5,575.0 515.5,576.0 516.0,576.5 516.5,577.0 516.5,578.0 516.5,579.0 516.5,580.0 516.0,580.5 515.5,581.0 515.5,582.0 515.5,583.0 515.5,584.0 515.5,585.0 515.0,585.5 514.5,586.0 514.5,587.0 514.5,588.0 514.5,589.0 514.0,589.5 513.5,590.0 513.5,591.0 513.5,592.0 513.5,593.0 513.5,594.0 513.0,594.5 512.5,595.0 512.5,596.0 512.5,597.0 512.0,597.5 511.5,598.0 511.5,599.0 511.0,599.5 510.5,600.0 510.5,601.0 510.0,601.5 509.5,602.0 509.0,602.5 508.5,603.0 508.5,604.0 508.0,604.5 507.5,605.0 507.5,606.0 507.0,606.5 506.5,607.0 506.0,607.5 505.5,608.0 505.0,608.5 504.0,608.5 503.5,609.0 503.0,609.5 502.5,610.0 502.0,610.5 501.5,611.0 501.0,611.5 500.0,611.5 499.5,612.0 499.0,612.5 498.5,613.0 498.0,613.5 497.5,614.0 497.0,614.5 496.5,615.0 496.0,615.5 495.0,615.5 494.5,616.0 494.0,616.5 493.5,617.0 493.0,617.5 492.5,618.0 492.0,618.5 491.0,618.5 490.5,619.0 490.0,619.5 489.5,620.0 489.0,620.5 488.5,621.0 488.0,621.5 487.0,621.5 486.5,622.0 486.0,622.5 485.5,623.0 485.0,623.5 484.0,623.5 483.0,623.5 482.0,623.5 481.0,623.5 480.0,623.5 479.5,624.0 479.0,624.5 478.0,624.5 477.0,624.5 476.0,624.5 475.0,624.5 474.0,624.5 473.5,625.0 473.0,625.5 473.0,625.5" fill="none" stroke="#FF0080" stroke-width="2" />
  <polyline points="856.0,652.5 855.0,652.5 854.5,652.0 854.0,651.5 853.5,651.0 853.0,650.5 852.5,650.0 852.5,649.0 853.0,648.5 853.5,648.0 854.0,647.5 855.0,647.5 855.5,647.0 856.0,646.5 857.0,646.5 857.5,646.0 858.0,645.5 858.5,645.0 859.0,644.5 860.0,644.5 860.5,644.0 861.0,643.5 862.0,643.5 862.5,643.0 863.0,642.5 864.0,642.5 864.5,642.0 865.0,641.5 865.5,641.0 866.0,640.5 866.5,640.0 866.5,639.0 867.0,638.5 867.5,638.0 868.0,637.5 868.5,637.0 869.0,636.5 869.5,636.0 869.5,635.0 870.0,634.5 870.5,634.0 871.0,633.5 871.5,633.0 872.0,632.5 872.5,632.0 872.5,631.0 873.0,630.5 873.5,630.0 874.0,629.5 874.5,629.0 875.0,628.5 875.5,628.0 875.5,627.0 876.0,626.5 876.5,626.0 877.0,625.5 877.5,625.0 877.5,624.0 877.5,623.0 877.5,622.0 878.0,621.5 878.5,621.0 878.5,620.0 878.5,619.0 878.5,618.0 878.5,617.0 878.5,616.0 879.0,615.5 879.5,615.0 879.5,614.0 879.5,613.0 879.5,612.0 879.5,611.0 879.5,610.0 880.0,609.5 880.5,609.0 880.5,608.0 880.5,607.0 880.0,606.5 879.0,606.5 878.0,606.5 877.0,606.5 876.0,606.5 875.0,606.5 874.0,606.5 873.0,606.5 872.0,606.5 871.0,606.5 870.0,606.5 869.0,606.5 868.0,606.5 867.0,606.5 866.0,606.5 865.0,606.5 864.0,606.5 863.0,606.5 862.0,606.5 861.0,606.5 860.5,606.0 860.0,605.5 859.5,605.0 860.0,604.5 860.5,604.0 860.5,603.0 861.0,602.5 861.5,602.0 862.0,601.5 863.0,601.5 864.0,601.5 865.0,601.5 866.0,601.5 867.0,601.5 868.0,601.5 869.0,601.5 870.0,601.5 871.0,601.5 872.0,601.5 873.0,601.5 874.0,601.5 875.0,601.5 876.0,601.5 877.0,601.5 878.0,601.5 879.0,601.5 880.0,601.5 881.0,601.5 882.0,601.5 882.5,602.0 883.0,602.5 883.5,603.0 883.5,604.0 883.5,605.0 884.0,605.5 884.5,606.0 884.5,607.0 884.5,608.0 884.5,609.0 885.0,609.5 885.5,610.0 885.5,611.0 885.5,612.0 885.0,612.5 884.5,613.0 884.5,614.0 884.5,615.0 884.0,615.5 883.5,616.0 883.5,617.0 883.0,617.5 882.5,618.0 882.5,619.0 882.5,620.0 882.0,620.5 881.5,621.0 881.5,622.0 881.5,623.0 881.0,623.5 880.5,624.0 880.5,625.0 880.5,626.0 880.0,626.5 879.5,627.0 879.5,628.0 879.5,629.0 879.0,629.5 878.5,630.0 878.5,631.0 878.0,631.5 877.5,632.0 877.5,633.0 877.5,634.0 877.0,634.5 876.5,635.0 876.5,636.0 876.0,636.5 875.5,637.0 875.0,637.5 874.0,637.5 873.5,638.0 873.0,638.5 872.5,639.0 872.0,639.5 871.5,640.0 871.0,640.5 870.5,641.0 870.0,641.5 869.0,641.5 868.5,642.0 868.0,642.5 867.5,643.0 867.0,643.5 866.5,644.0 866.0,644.5 865.5,645.0 865.0,645.5 864.0,645.5 863.5,646.0 863.0,646.5 862.5,647.0 862.0,647.5 861.5,648.0 861.0,648.5 860.0,648.5 859.5,649.0 859.0,649.5 858.5,650.0 858.0,650.5 857.5,651.0 857.0,651.5 856.5,652.0 856.0,652.5 856.0,652.5" fill="none" stroke="#FF8000" stroke-width="2" />
  <polyline points="323.0,629.5 322.5,629.0 322.0,628.5 321.5,628.0 321.5,627.0 321.5,626.0 321.5,625.0 322.0,624.5 322.5,624.0 322.5,623.0 322.5,622.0 323.0,621.5 323.5,621.0 324.0,620.5 325.0,620.5 325.5,621.0 326.0,621.5 326.5,622.0 326.0,622.5 325.5,623.0 325.5,624.0 325.5,625.0 325.0,625.5 324.5,626.0 324.5,627.0 324.5,628.0 324.0,628.5 323.5,629.0 323.0,629.5 323.0,629.5" fill="none" stroke="#8080FF" stroke-width="2" />
  <polyline points="322.0,632.5 321.5,632.0 321.0,631.5 320.5,631.0 321.0,630.5 321.5,630.0 322.0,629.5 322.5,630.0 323.0,630.5 323.5,631.0 323.0,631.5 322.5,632.0 322.0,632.5 322.0,632.5" fill="none" stroke="#80FF80" stroke-width="2" />
  <polyline points="338.0,672.5 337.0,672.5 336.0,672.5 335.0,672.5 334.0,672.5 333.0,672.5 332.5,672.0 332.0,671.5 331.5,671.0 331.0,670.5 330.5,670.0 330.0,669.5 329.5,669.0 329.0,668.5 328.5,668.0 328.5,667.0 328.0,666.5 327.5,666.0 327.0,665.5 326.5,665.0 326.0,664.5 325.5,664.0 325.0,663.5 324.5,663.0 324.5,662.0 324.0,661.5 323.5,661.0 323.5,660.0 323.0,659.5 322.5,659.0 322.5,658.0 322.5,657.0 322.0,656.5 321.5,656.0 321.5,655.0 321.5,654.0 321.0,653.5 320.5,653.0 320.5,652.0 320.0,651.5 319.5,651.0 319.5,650.0 319.5,649.0 319.0,648.5 318.5,648.0 318.5,647.0 318.5,646.0 318.5,645.0 318.5,644.0 319.0,643.5 319.5,643.0 319.5,642.0 319.5,641.0 319.5,640.0 319.5,639.0 320.0,638.5 320.5,638.0 321.0,637.5 321.5,638.0 322.0,638.5 322.5,639.0 322.5,640.0 322.5,641.0 322.5,642.0 323.0,642.5 323.5,643.0 323.5,644.0 323.5,645.0 323.5,646.0 323.5,647.0 324.0,647.5 324.5,648.0 324.5,649.0 324.5,650.0 324.5,651.0 324.5,652.0 325.0,652.5 325.5,653.0 325.5,654.0 325.5,655.0 325.5,656.0 326.0,656.5 326.5,657.0 326.5,658.0 326.5,659.0 327.0,659.5 327.5,660.0 328.0,660.5 328.5,661.0 329.0,661.5 329.5,662.0 330.0,662.5 330.5,663.0 331.0,663.5 331.5,664.0 332.0,664.5 332.5,665.0 333.0,665.5 333.5,666.0 334.0,666.5 334.5,667.0 335.0,667.5 335.5,668.0 336.0,668.5 336.5,668.0 337.0,667.5 337.5,667.0 338.0,666.5 338.5,666.0 339.0,665.5 339.5,665.0 340.0,664.5 340.5,664.0 341.0,663.5 341.5,663.0 342.0,662.5 342.5,662.0 343.0,661.5 343.5,661.0 344.0,660.5 344.5,660.0 344.5,659.0 345.0,658.5 345.5,658.0 346.0,657.5 346.5,657.0 347.0,656.5 347.5,656.0 348.0,655.5 348.5,655.0 349.0,654.5 349.5,654.0 350.0,653.5 350.5,653.0 351.0,652.5 351.5,652.0 352.0,651.5 352.5,651.0 353.0,650.5 353.5,650.0 354.0,649.5 354.5,649.0 355.0,648.5 355.5,648.0 356.0,647.5 356.5,647.0 357.0,646.5 357.5,646.0 358.0,645.5 358.5,645.0 359.0,644.5 359.5,644.0 360.0,643.5 360.5,643.0 360.5,642.0 361.0,641.5 361.5,641.0 362.0,640.5 362.5,640.0 363.0,639.5 363.5,639.0 364.0,638.5 364.5,639.0 365.0,639.5 365.5,640.0 365.5,641.0 365.5,642.0 366.0,642.5 366.5,643.0 366.5,644.0 366.0,644.5 365.5,645.0 365.0,645.5 364.0,645.5 363.0,645.5 362.5,646.0 362.0,646.5 361.5,647.0 361.0,647.5 360.5,648.0 360.0,648.5 359.5,649.0 359.0,649.5 358.5,650.0 358.0,650.5 357.5,651.0 357.0,651.5 356.5,652.0 356.5,653.0 356.0,653.5 355.5,654.0 355.0,654.5 354.5,655.0 354.0,655.5 353.5,656.0 353.0,656.5 352.5,657.0 352.0,657.5 351.5,658.0 351.0,658.5 350.5,659.0 350.0,659.5 349.5,660.0 349.0,660.5 348.5,661.0 348.0,661.5 347.5,662.0 347.0,662.5 346.5,663.0 346.0,663.5 345.5,664.0 345.0,664.5 344.5,665.0 344.0,665.5 343.5,666.0 343.5,667.0 343.0,667.5 342.5,668.0 342.0,668.5 341.5,669.0 341.0,669.5 340.5,670.0 340.0,670.5 339.5,671.0 339.0,671.5 338.5,672.0 338.0,672.5 338.0,672.5" fill="none" stroke="#FF8080" stroke-width="2" />
  <polyline points="401.0,692.5 400.0,692.5 399.0,692.5 398.0,692.5 397.0,692.5 396.0,692.5 395.5,692.0 395.0,691.5 394.5,691.0 394.5,690.0 394.0,689.5 393.5,689.0 393.5,688.0 393.0,687.5 392.5,687.0 392.5,686.0 392.0,685.5 391.5,685.0 391.5,684.0 391.5,683.0 391.5,682.0 391.5,681.0 391.5,680.0 391.5,679.0 391.5,678.0 391.5,677.0 391.5,676.0 391.5,675.0 391.5,674.0 391.5,673.0 391.5,672.0 391.5,671.0 391.5,670.0 391.5,669.0 391.5,668.0 391.5,667.0 391.5,666.0 391.5,665.0 392.0,664.5 392.5,664.0 392.5,663.0 392.5,662.0 392.5,661.0 392.5,660.0 392.5,659.0 392.5,658.0 392.5,657.0 392.5,656.0 392.5,655.0 392.5,654.0 392.5,653.0 392.5,652.0 392.5,651.0 392.5,650.0 392.5,649.0 392.5,648.0 392.5,647.0 393.0,646.5 393.5,646.0 394.0,645.5 394.5,646.0 395.0,646.5 395.5,647.0 395.5,648.0 395.5,649.0 395.5,650.0 395.5,651.0 395.5,652.0 395.5,653.0 395.5,654.0 395.5,655.0 395.5,656.0 395.5,657.0 395.5,658.0 395.5,659.0 396.0,659.5 396.5,660.0 396.5,661.0 396.5,662.0 396.5,663.0 396.5,664.0 396.5,665.0 396.5,666.0 396.5,667.0 396.5,668.0 396.5,669.0 396.5,670.0 396.5,671.0 396.5,672.0 396.5,673.0 396.5,674.0 396.5,675.0 396.5,676.0 396.5,677.0 396.5,678.0 396.5,679.0 396.5,680.0 396.5,681.0 396.5,682.0 396.5,683.0 396.5,684.0 396.5,685.0 396.5,686.0 396.5,687.0 397.0,687.5 398.0,687.5 399.0,687.5 400.0,687.5 401.0,687.5 402.0,687.5 403.0,687.5 404.0,687.5 405.0,687.5 406.0,687.5 406.5,687.0 407.0,686.5 408.0,686.5 409.0,686.5 410.0,686.5 410.5,686.0 411.0,685.5 412.0,685.5 413.0,685.5 414.0,685.5 415.0,685.5 415.5,685.0 416.0,684.5 417.0,684.5 417.5,684.0 418.0,683.5 418.5,683.0 419.0,682.5 420.0,682.5 420.5,682.0 421.0,681.5 421.5,681.0 422.0,680.5 423.0,680.5 423.5,680.0 424.0,679.5 425.0,679.5 425.5,679.0 426.0,678.5 426.5,678.0 427.0,677.5 428.0,677.5 428.5,677.0 429.0,676.5 429.5,676.0 430.0,675.5 431.0,675.5 431.5,675.0 431.5,674.0 432.0,673.5 432.5,673.0 432.5,672.0 433.0,671.5 433.5,671.0 433.5,670.0 434.0,669.5 434.5,669.0 434.5,668.0 435.0,667.5 435.5,667.0 435.5,666.0 436.0,665.5 436.5,665.0 436.5,664.0 436.5,663.0 437.0,662.5 437.5,662.0 437.5,661.0 438.0,660.5 438.5,660.0 438.5,659.0 439.0,658.5 439.5,658.0 439.5,657.0 440.0,656.5 440.5,656.0 440.5,655.0 441.0,654.5 441.5,654.0 441.5,653.0 441.5,652.0 441.5,651.0 441.5,650.0 441.5,649.0 441.5,648.0 441.5,647.0 441.5,646.0 442.0,645.5 442.5,645.0 443.0,644.5 444.0,644.5 444.5,645.0 445.0,645.5 445.5,646.0 445.5,647.0 445.5,648.0 445.0,648.5 444.5,649.0 444.5,650.0 444.5,651.0 444.5,652.0 444.5,653.0 444.5,654.0 444.5,655.0 444.0,655.5 443.5,656.0 443.5,657.0 443.5,658.0 443.5,659.0 443.5,660.0 443.5,661.0 443.0,661.5 442.5,662.0 442.5,663.0 442.5,664.0 442.5,665.0 442.0,665.5 441.5,666.0 441.0,666.5 440.5,667.0 440.5,668.0 440.0,668.5 439.5,669.0 439.0,669.5 438.5,670.0 438.0,670.5 437.5,671.0 437.0,671.5 436.5,672.0 436.5,673.0 436.0,673.5 435.5,674.0 435.0,674.5 434.5,675.0 434.0,675.5 433.5,676.0 433.5,677.0 433.0,677.5 432.5,678.0 432.0,678.5 431.5,679.0 431.0,679.5 430.5,680.0 430.0,680.5 429.5,681.0 429.5,682.0 429.0,682.5 428.5,683.0 428.0,683.5 427.5,684.0 427.0,684.5 426.0,684.5 425.5,685.0 425.0,685.5 424.0,685.5 423.5,686.0 423.0,686.5 422.5,687.0 422.0,687.5 421.0,687.5 420.5,688.0 420.0,688.5 419.0,688.5 418.5,689.0 418.0,689.5 417.0,689.5 416.5,690.0 416.0,690.5 415.0,690.5 414.0,690.5 413.0,690.5 412.0,690.5 411.0,690.5 410.0,690.5 409.5,691.0 409.0,691.5 408.0,691.5 407.0,691.5 406.0,691.5 405.0,691.5 404.0,691.5 403.0,691.5 402.0,691.5 401.5,692.0 401.0,692.5 401.0,692.5" fill="none" stroke="#0000FF" stroke-width="2" />
</svg>