<?xml version='1.0' encoding='utf-8'?>
<svg xmlns="http://www.w3.org/2000/svg" version="1.1" width="1024" height="1536" viewBox="0 0 1024 1536">
  <rect x="0" y="0" width="1024" height="1536" fill="#FFFFFF" />
  <polyline points="442.0,247.5 441.0,247.5 440.0,247.5 439.0,247.5 438.0,247.5 437.0,247.5 436.0,247.5 435.0,247.5 434.0,247.5 433.0,247.5 432.0,247.5 431.0,247.5 430.0,247.5 429.0,247.5 428.0,247.5 427.0,247.5 426.0,247.5 425.0,247.5 424.0,247.5 423.0,247.5 422.0,247.5 421.0,247.5 420.0,247.5 419.0,247.5 418.0,247.5 417.0,247.5 416.0,247.5 415.0,247.5 414.0,247.5 413.0,247.5 412.0,247.5 411.0,247.5 410.0,247.5 409.0,247.5 408.0,247.5 407.0,247.5 406.0,247.5 405.0,247.5 404.0,247.5 403.0,247.5 402.0,247.5 401.0,247.5 400.0,247.5 399.0,247.5 398.0,247.5 397.0,247.5 396.0,247.5 395.0,247.5 394.0,247.5 393.0,247.5 392.0,247.5 391.0,247.5 390.0,247.5 389.0,247.5 388.0,247.5 387.0,247.5 386.0,247.5 385.0,247.5 384.5,247.0 384.0,246.5 383.5,246.0 383.5,245.0 383.5,244.0 384.0,243.5 384.5,243.0 384.5,242.0 384.5,241.0 384.5,240.0 384.5,239.0 384.5,238.0 385.0,237.5 385.5,237.0 385.5,236.0 385.5,235.0 385.5,234.0 385.5,233.0 385.5,232.0 386.0,231.5 386.5,231.0 386.5,230.0 386.5,229.0 386.5,228.0 386.5,227.0 386.5,226.0 387.0,225.5 387.5,225.0 387.5,224.0 387.5,223.0 387.5,222.0 388.0,221.5 388.5,221.0 388.5,220.0 389.0,219.5 389.5,219.0 389.5,218.0 390.0,217.5 390.5,217.0 391.0,216.5 391.5,216.0 391.5,215.0 392.0,214.5 392.5,214.0 392.5,213.0 393.0,212.5 393.5,212.0 394.0,211.5 394.5,211.0 394.5,210.0 395.0,209.5 395.5,209.0 396.0,208.5 396.5,208.0 396.5,207.0 397.0,206.5 397.5,206.0 397.5,205.0 398.0,204.5 398.5,204.0 399.0,203.5 399.5,203.0 400.0,202.5 401.0,202.5 401.5,202.0 402.0,201.5 402.5,201.0 403.0,200.5 403.5,200.0 404.0,199.5 404.5,199.0 405.0,198.5 406.0,198.5 406.5,198.0 407.0,197.5 407.5,197.0 408.0,196.5 408.5,196.0 409.0,195.5 409.5,195.0 410.0,194.5 411.0,194.5 411.5,194.0 412.0,193.5 412.5,193.0 413.0,192.5 413.5,192.0 414.0,191.5 415.0,191.5 415.5,191.0 416.0,190.5 416.5,190.0 417.0,189.5 417.5,189.0 418.0,188.5 418.5,188.0 419.0,187.5 420.0,187.5 420.5,187.0 421.0,186.5 421.5,186.0 422.0,185.5 423.0,185.5 424.0,185.5 425.0,185.5 425.5,185.0 426.0,184.5 427.0,184.5 428.0,184.5 429.0,184.5 430.0,184.5 430.5,184.0 431.0,183.5 432.0,183.5 433.0,183.5 434.0,183.5 434.5,183.0 435.0,182.5 436.0,182.5 437.0,182.5 438.0,182.5 439.0,182.5 439.5,182.0 440.0,181.5 441.0,181.5 442.0,181.5 442.5,182.0 443.0,182.5 443.5,183.0 443.5,184.0 443.5,185.0 444.0,185.5 444.5,186.0 444.0,186.5 443.5,187.0 443.0,187.5 442.0,187.5 441.0,187.5 440.0,187.5 439.0,187.5 438.0,187.5 437.0,187.5 436.5,188.0 436.0,188.5 435.0,188.5 434.5,189.0 434.0,189.5 433.0,189.5 432.0,189.5 431.5,190.0 431.0,190.5 430.0,190.5 429.5,191.0 429.0,191.5 428.0,191.5 427.0,191.5 426.5,192.0 426.0,192.5 425.0,192.5 424.5,193.0 424.0,193.5 423.0,193.5 422.0,193.5 421.5,194.0 421.0,194.5 420.0,194.5 419.5,195.0 419.0,195.5 418.0,195.5 417.0,195.5 416.5,196.0 416.0,196.5 415.5,197.0 415.0,197.5 414.5,198.0 414.0,198.5 413.5,199.0 413.0,199.5 412.5,200.0 412.0,200.5 411.5,201.0 411.0,201.5 410.5,202.0 410.0,202.5 409.5,203.0 409.0,203.5 408.5,204.0 408.0,204.5 407.0,204.5 406.5,205.0 406.0,205.5 405.5,206.0 405.0,206.5 404.5,207.0 404.0,207.5 403.5,208.0 403.0,208.5 402.5,209.0 402.0,209.5 401.5,210.0 401.0,210.5 400.5,211.0 400.0,211.5 399.5,212.0 399.5,213.0 399.0,213.5 398.5,214.0 398.5,215.0 398.0,215.5 397.5,216.0 397.5,217.0 397.0,217.5 396.5,218.0 396.5,219.0 396.0,219.5 395.5,220.0 395.5,221.0 395.0,221.5 394.5,222.0 394.5,223.0 394.0,223.5 393.5,224.0 393.5,225.0 393.0,225.5 392.5,226.0 392.5,227.0 392.0,227.5 391.5,228.0 391.5,229.0 391.0,229.5 390.5,230.0 390.5,231.0 390.0,231.5 389.5,232.0 389.5,233.0 389.5,234.0 389.5,235.0 389.5,236.0 389.5,237.0 390.0,237.5 390.5,238.0 390.5,239.0 390.5,240.0 390.5,241.0 390.5,242.0 390.5,243.0 391.0,243.5 392.0,243.5 393.0,243.5 394.0,243.5 395.0,243.5 396.0,243.5 397.0,243.5 398.0,243.5 399.0,243.5 400.0,243.5 401.0,243.5 402.0,243.5 403.0,243.5 404.0,243.5 405.0,243.5 406.0,243.5 407.0,243.5 408.0,243.5 409.0,243.5 410.0,243.5 411.0,243.5 412.0,243.5 413.0,243.5 414.0,243.5 415.0,243.5 416.0,243.5 417.0,243.5 418.0,243.5 419.0,243.5 420.0,243.5 421.0,243.5 422.0,243.5 423.0,243.5 424.0,243.5 425.0,243.5 425.5,244.0 426.0,244.5 427.0,244.5 428.0,244.5 429.0,244.5 430.0,244.5 431.0,244.5 432.0,244.5 433.0,244.5 434.0,244.5 435.0,244.5 436.0,244.5 437.0,244.5 438.0,244.5 439.0,244.5 440.0,244.5 441.0,244.5 442.0,244.5 442.5,245.0 443.0,245.5 443.5,246.0 443.0,246.5 442.5,247.0 442.0,247.5 442.0,247.5" fill="none" stroke="#0000FF" stroke-width="2" />
  <polyline points="459.0,187.5 458.5,187.0 458.0,186.5 457.5,186.0 458.0,185.5 458.5,185.0 459.0,184.5 459.5,185.0 460.0,185.5 460.5,186.0 460.0,186.5 459.5,187.0 459.0,187.5 459.0,187.5" fill="none" stroke="#00FF00" stroke-width="2" />
  <polyline points="617.0,398.5 616.0,398.5 615.0,398.5 614.0,398.5 613.0,398.5 612.0,398.5 611.0,398.5 610.0,398.5 609.0,398.5 608.0,398.5 607.0,398.5 606.0,398.5 605.0,398.5 604.0,398.5 603.0,398.5 602.0,398.5 601.0,398.5 600.0,398.5 599.0,398.5 598.0,398.5 597.0,398.5 596.0,398.5 595.0,398.5 594.0,398.5 593.0,398.5 592.0,398.5 591.0,398.5 590.0,398.5 589.0,398.5 588.0,398.5 587.0,398.5 586.0,398.5 585.0,398.5 584.0,398.5 583.0,398.5 582.0,398.5 581.0,398.5 580.0,398.5 579.0,398.5 578.0,398.5 577.0,398.5 576.0,398.5 575.0,398.5 574.0,398.5 573.0,398.5 572.0,398.5 571.0,398.5 570.0,398.5 569.0,398.5 568.0,398.5 567.0,398.5 566.0,398.5 565.0,398.5 564.0,398.5 563.0,398.5 562.0,398.5 561.5,398.0 561.0,397.5 560.5,397.0 560.5,396.0 560.5,395.0 561.0,394.5 561.5,394.0 562.0,393.5 563.0,393.5 564.0,393.5 565.0,393.5 566.0,393.5 567.0,393.5 568.0,393.5 569.0,393.5 570.0,393.5 571.0,393.5 572.0,393.5 573.0,393.5 574.0,393.5 575.0,393.5 576.0,393.5 577.0,393.5 578.0,393.5 579.0,393.5 580.0,393.5 581.0,393.5 582.0,393.5 583.0,393.5 584.0,393.5 585.0,393.5 586.0,393.5 587.0,393.5 588.0,393.5 589.0,393.5 590.0,393.5 591.0,393.5 592.0,393.5 593.0,393.5 594.0,393.5 595.0,393.5 596.0,393.5 597.0,393.5 598.0,393.5 599.0,393.5 600.0,393.5 601.0,393.5 602.0,393.5 603.0,393.5 604.0,393.5 605.0,393.5 606.0,393.5 607.0,393.5 608.0,393.5 609.0,393.5 610.0,393.5 611.0,393.5 612.0,393.5 612.5,393.0 612.5,392.0 612.5,391.0 612.5,390.0 612.5,389.0 612.5,388.0 612.5,387.0 612.5,386.0 612.5,385.0 612.5,384.0 612.5,383.0 612.0,382.5 611.5,382.0 611.5,381.0 611.0,380.5 610.5,380.0 610.5,379.0 610.5,378.0 610.0,377.5 609.5,377.0 609.5,376.0 609.0,375.5 608.5,375.0 608.5,374.0 608.5,373.0 608.0,372.5 607.5,372.0 607.5,371.0 607.0,370.5 606.5,370.0 606.5,369.0 606.5,368.0 606.0,367.5 605.5,367.0 605.5,366.0 605.0,365.5 604.5,365.0 604.5,364.0 604.0,363.5 603.5,363.0 603.0,362.5 602.5,362.0 602.5,361.0 602.0,360.5 601.5,360.0 601.0,359.5 600.5,359.0 600.0,358.5 599.5,358.0 599.0,357.5 598.5,357.0 598.0,356.5 597.5,356.0 597.5,355.0 597.0,354.5 596.5,354.0 596.0,353.5 595.5,353.0 595.0,352.5 594.5,352.0 594.0,351.5 593.5,351.0 593.5,350.0 593.0,349.5 592.5,349.0 592.0,348.5 591.5,348.0 591.0,347.5 590.0,347.5 589.5,347.0 589.0,346.5 588.0,346.5 587.5,346.0 587.0,345.5 586.0,345.5 585.5,345.0 585.0,344.5 584.0,344.5 583.5,344.0 583.0,343.5 582.0,343.5 581.5,343.0 581.0,342.5 580.0,342.5 579.5,342.0 579.0,341.5 578.0,341.5 577.5,341.0 577.0,340.5 576.0,340.5 575.5,340.0 575.0,339.5 574.0,339.5 573.5,339.0 573.0,338.5 572.0,338.5 571.5,338.0 571.0,337.5 570.0,337.5 569.5,337.0 569.0,336.5 568.0,336.5 567.0,336.5 566.0,336.5 565.0,336.5 564.0,336.5 563.0,336.5 562.0,336.5 561.0,336.5 560.0,336.5 559.5,336.0 559.0,335.5 558.5,335.0 559.0,334.5 559.5,334.0 559.5,333.0 559.5,332.0 560.0,331.5 560.5,331.0 561.0,330.5 562.0,330.5 562.5,331.0 563.0,331.5 564.0,331.5 565.0,331.5 565.5,332.0 566.0,332.5 567.0,332.5 568.0,332.5 569.0,332.5 569.5,333.0 570.0,333.5 571.0,333.5 572.0,333.5 572.5,334.0 573.0,334.5 574.0,334.5 575.0,334.5 575.5,335.0 576.0,335.5 577.0,335.5 578.0,335.5 578.5,336.0 579.0,336.5 580.0,336.5 581.0,336.5 582.0,336.5 582.5,337.0 583.0,337.5 584.0,337.5 585.0,337.5 585.5,338.0 586.0,338.5 587.0,338.5 588.0,338.5 588.5,339.0 589.0,339.5 589.5,340.0 590.0,340.5 590.5,341.0 591.0,341.5 591.5,342.0 592.0,342.5 592.5,343.0 593.0,343.5 593.5,344.0 594.0,344.5 594.5,345.0 595.0,345.5 596.0,345.5 596.5,346.0 597.0,346.5 597.5,347.0 598.0,347.5 598.5,348.0 599.0,348.5 599.5,349.0 600.0,349.5 600.5,350.0 601.0,350.5 601.5,351.0 602.0,351.5 602.5,352.0 603.0,352.5 603.5,353.0 603.5,354.0 604.0,354.5 604.5,355.0 605.0,355.5 605.5,356.0 605.5,357.0 606.0,357.5 606.5,358.0 607.0,358.5 607.5,359.0 607.5,360.0 608.0,360.5 608.5,361.0 608.5,362.0 609.0,362.5 609.5,363.0 610.0,363.5 610.5,364.0 610.5,365.0 611.0,365.5 611.5,366.0 612.0,366.5 612.5,367.0 612.5,368.0 613.0,368.5 613.5,369.0 613.5,370.0 613.5,371.0 614.0,371.5 614.5,372.0 614.5,373.0 614.5,374.0 614.5,375.0 614.5,376.0 614.5,377.0 615.0,377.5 615.5,378.0 615.5,379.0 615.5,380.0 615.5,381.0 615.5,382.0 615.5,383.0 616.0,383.5 616.5,384.0 616.5,385.0 616.5,386.0 616.5,387.0 616.5,388.0 616.5,389.0 617.0,389.5 617.5,390.0 617.5,391.0 617.5,392.0 617.5,393.0 617.5,394.0 617.5,395.0 618.0,395.5 618.5,396.0 618.5,397.0 618.0,397.5 617.5,398.0 617.0,398.5 617.0,398.5" fill="none" stroke="#FF0000" stroke-width="2" />
  <polyline points="398.0,430.5 397.0,430.5 396.0,430.5 395.0,430.5 394.0,430.5 393.0,430.5 392.0,430.5 391.0,430.5 390.0,430.5 389.0,430.5 388.0,430.5 387.0,430.5 386.0,430.5 385.0,430.5 384.0,430.5 383.0,430.5 382.0,430.5 381.0,430.5 380.0,430.5 379.0,430.5 378.0,430.5 377.0,430.5 376.0,430.5 375.0,430.5 374.0,430.5 373.0,430.5 372.0,430.5 371.0,430.5 370.0,430.5 369.0,430.5 368.0,430.5 367.0,430.5 366.0,430.5 365.0,430.5 364.0,430.5 363.0,430.5 362.0,430.5 361.0,430.5 360.0,430.5 359.0,430.5 358.0,430.5 357.0,430.5 356.0,430.5 355.0,430.5 354.0,430.5 353.0,430.5 352.0,430.5 351.0,430.5 350.0,430.5 349.0,430.5 348.0,430.5 347.0,430.5 346.0,430.5 345.0,430.5 344.5,430.0 344.0,429.5 343.5,429.0 343.5,428.0 343.5,427.0 343.5,426.0 343.5,425.0 343.5,424.0 343.5,423.0 343.0,422.5 342.5,422.0 342.5,421.0 342.5,420.0 342.5,419.0 342.5,418.0 342.5,417.0 342.5,416.0 342.5,415.0 342.5,414.0 342.5,413.0 343.0,412.5 343.5,412.0 343.5,411.0 344.0,410.5 344.5,410.0 344.5,409.0 344.5,408.0 345.0,407.5 345.5,407.0 345.5,406.0 346.0,405.5 346.5,405.0 346.5,404.0 346.5,403.0 347.0,402.5 347.5,402.0 347.5,401.0 348.0,400.5 348.5,400.0 348.5,399.0 348.5,398.0 349.0,397.5 349.5,397.0 349.5,396.0 350.0,395.5 350.5,395.0 350.5,394.0 351.0,393.5 351.5,393.0 352.0,392.5 352.5,392.0 353.0,391.5 353.5,391.0 354.0,390.5 354.5,390.0 354.5,389.0 355.0,388.5 355.5,388.0 356.0,387.5 356.5,387.0 357.0,386.5 357.5,386.0 358.0,385.5 358.5,385.0 359.0,384.5 359.5,384.0 360.0,383.5 360.5,383.0 361.0,382.5 361.5,382.0 362.0,381.5 362.5,381.0 362.5,380.0 363.0,379.5 363.5,379.0 364.0,378.5 364.5,378.0 365.0,377.5 365.5,377.0 366.0,376.5 366.5,376.0 367.0,375.5 368.0,375.5 368.5,375.0 369.0,374.5 370.0,374.5 370.5,374.0 371.0,373.5 371.5,373.0 372.0,372.5 373.0,372.5 373.5,372.0 374.0,371.5 375.0,371.5 375.5,371.0 376.0,370.5 377.0,370.5 377.5,370.0 378.0,369.5 379.0,369.5 379.5,369.0 380.0,368.5 380.5,368.0 381.0,367.5 382.0,367.5 382.5,367.0 383.0,366.5 384.0,366.5 384.5,366.0 385.0,365.5 386.0,365.5 387.0,365.5 388.0,365.5 389.0,365.5 389.5,365.0 390.0,364.5 391.0,364.5 392.0,364.5 393.0,364.5 394.0,364.5 395.0,364.5 395.5,364.0 396.0,363.5 397.0,363.5 398.0,363.5 399.0,363.5 399.5,364.0 400.0,364.5 400.5,365.0 400.5,366.0 400.5,367.0 401.0,367.5 401.5,368.0 402.0,368.5 402.5,369.0 402.0,369.5 401.5,370.0 401.0,370.5 400.0,370.5 399.0,370.5 398.0,370.5 397.0,370.5 396.0,370.5 395.5,371.0 395.0,371.5 394.0,371.5 393.0,371.5 392.0,371.5 391.0,371.5 390.0,371.5 389.0,371.5 388.0,371.5 387.5,372.0 387.0,372.5 386.0,372.5 385.5,373.0 385.0,373.5 384.0,373.5 383.5,374.0 383.0,374.5 382.0,374.5 381.5,375.0 381.0,375.5 380.0,375.5 379.5,376.0 379.0,376.5 378.5,377.0 378.0,377.5 377.0,377.5 376.5,378.0 376.0,378.5 375.0,378.5 374.5,379.0 374.0,379.5 373.0,379.5 372.5,380.0 372.0,380.5 371.0,380.5 370.5,381.0 370.0,381.5 369.5,382.0 369.0,382.5 368.5,383.0 368.0,383.5 367.5,384.0 367.0,384.5 366.5,385.0 366.0,385.5 365.5,386.0 365.0,386.5 364.5,387.0 364.0,387.5 363.5,388.0 363.0,388.5 362.5,389.0 362.5,390.0 362.0,390.5 361.5,391.0 361.0,391.5 360.5,392.0 360.0,392.5 359.5,393.0 359.0,393.5 358.5,394.0 358.0,394.5 357.5,395.0 357.0,395.5 356.5,396.0 356.0,396.5 355.5,397.0 355.0,397.5 354.5,398.0 354.5,399.0 354.0,399.5 353.5,400.0 353.5,401.0 353.5,402.0 353.0,402.5 352.5,403.0 352.5,404.0 352.0,404.5 351.5,405.0 351.5,406.0 351.5,407.0 351.0,407.5 350.5,408.0 350.5,409.0 350.5,410.0 350.0,410.5 349.5,411.0 349.5,412.0 349.0,412.5 348.5,413.0 348.5,414.0 348.5,415.0 348.0,415.5 347.5,416.0 347.5,417.0 347.5,418.0 347.5,419.0 347.5,420.0 347.5,421.0 347.5,422.0 347.5,423.0 347.5,424.0 347.5,425.0 348.0,425.5 349.0,425.5 350.0,425.5 351.0,425.5 352.0,425.5 353.0,425.5 354.0,425.5 354.5,426.0 355.0,426.5 356.0,426.5 357.0,426.5 358.0,426.5 359.0,426.5 360.0,426.5 361.0,426.5 362.0,426.5 363.0,426.5 364.0,426.5 365.0,426.5 366.0,426.5 367.0,426.5 368.0,426.5 369.0,426.5 370.0,426.5 371.0,426.5 372.0,426.5 373.0,426.5 374.0,426.5 375.0,426.5 376.0,426.5 377.0,426.5 378.0,426.5 379.0,426.5 380.0,426.5 381.0,426.5 382.0,426.5 383.0,426.5 384.0,426.5 385.0,426.5 386.0,426.5 387.0,426.5 388.0,426.5 389.0,426.5 390.0,426.5 391.0,426.5 392.0,426.5 393.0,426.5 394.0,426.5 395.0,426.5 396.0,426.5 397.0,426.5 398.0,426.5 399.0,426.5 399.5,427.0 400.0,427.5 400.5,428.0 400.0,428.5 399.5,429.0 399.0,429.5 398.5,430.0 398.0,430.5 398.0,430.5" fill="none" stroke="#00FFFF" stroke-width="2" />
  <polyline points="615.0,686.5 614.0,686.5 613.0,686.5 612.0,686.5 611.0,686.5 610.0,686.5 609.0,686.5 608.0,686.5 607.0,686.5 606.0,686.5 605.0,686.5 604.0,686.5 603.0,686.5 602.0,686.5 601.0,686.5 600.0,686.5 599.0,686.5 598.0,686.5 597.0,686.5 596.0,686.5 595.0,686.5 594.0,686.5 593.0,686.5 592.0,686.5 591.0,686.5 590.0,686.5 589.0,686.5 588.0,686.5 587.0,686.5 586.0,686.5 585.0,686.5 584.0,686.5 583.0,686.5 582.0,686.5 581.0,686.5 580.0,686.5 579.0,686.5 578.0,686.5 577.0,686.5 576.0,686.5 575.0,686.5 574.0,686.5 573.0,686.5 572.0,686.5 571.0,686.5 570.0,686.5 569.0,686.5 568.0,686.5 567.0,686.5 566.0,686.5 565.0,686.5 564.0,686.5 563.0,686.5 562.0,686.5 561.5,686.0 561.0,685.5 560.5,685.0 560.5,684.0 561.0,683.5 561.5,683.0 562.0,682.5 563.0,682.5 564.0,682.5 565.0,682.5 566.0,682.5 567.0,682.5 568.0,682.5 569.0,682.5 570.0,682.5 571.0,682.5 572.0,682.5 573.0,682.5 574.0,682.5 575.0,682.5 576.0,682.5 577.0,682.5 578.0,682.5 579.0,682.5 580.0,682.5 581.0,682.5 582.0,682.5 583.0,682.5 584.0,682.5 585.0,682.5 586.0,682.5 587.0,682.5 588.0,682.5 589.0,682.5 590.0,682.5 591.0,682.5 592.0,682.5 593.0,682.5 594.0,682.5 595.0,682.5 596.0,682.5 597.0,682.5 598.0,682.5 599.0,682.5 600.0,682.5 601.0,682.5 602.0,682.5 603.0,682.5 604.0,682.5 604.5,682.0 605.0,681.5 606.0,681.5 607.0,681.5 608.0,681.5 609.0,681.5 610.0,681.5 611.0,681.5 612.0,681.5 612.5,681.0 612.5,680.0 613.0,679.5 613.5,679.0 613.5,678.0 613.5,677.0 613.0,676.5 612.5,676.0 612.5,675.0 612.5,674.0 612.0,673.5 611.5,673.0 611.5,672.0 611.5,671.0 611.0,670.5 610.5,670.0 610.5,669.0 610.5,668.0 610.0,667.5 609.5,667.0 609.5,666.0 609.5,665.0 609.5,664.0 609.0,663.5 608.5,663.0 608.5,662.0 608.5,661.0 608.0,660.5 607.5,660.0 607.5,659.0 607.5,658.0 607.0,657.5 606.5,657.0 606.5,656.0 606.5,655.0 606.0,654.5 605.5,654.0 605.5,653.0 605.0,652.5 604.5,652.0 604.0,651.5 603.5,651.0 603.0,650.5 602.5,650.0 602.5,649.0 602.0,648.5 601.5,648.0 601.0,647.5 600.5,647.0 600.0,646.5 599.5,646.0 599.0,645.5 598.5,645.0 598.0,644.5 597.5,644.0 597.5,643.0 597.0,642.5 596.5,642.0 596.0,641.5 595.5,641.0 595.0,640.5 594.5,640.0 594.0,639.5 593.5,639.0 593.0,638.5 592.5,638.0 592.5,637.0 592.0,636.5 591.5,636.0 591.0,635.5 590.5,635.0 590.0,634.5 589.0,634.5 588.5,634.0 588.0,633.5 587.0,633.5 586.5,633.0 586.0,632.5 585.0,632.5 584.5,632.0 584.0,631.5 583.0,631.5 582.5,631.0 582.0,630.5 581.5,630.0 581.0,629.5 580.0,629.5 579.5,629.0 579.0,628.5 578.0,628.5 577.5,628.0 577.0,627.5 576.0,627.5 575.5,627.0 575.0,626.5 574.0,626.5 573.5,626.0 573.0,625.5 572.0,625.5 571.0,625.5 570.0,625.5 569.0,625.5 568.0,625.5 567.0,625.5 566.0,625.5 565.0,625.5 564.0,625.5 563.0,625.5 562.0,625.5 561.0,625.5 560.0,625.5 559.5,625.0 559.0,624.5 558.5,624.0 558.5,623.0 559.0,622.5 559.5,622.0 559.5,621.0 559.5,620.0 560.0,619.5 560.5,619.0 561.0,618.5 562.0,618.5 563.0,618.5 564.0,618.5 564.5,619.0 565.0,619.5 566.0,619.5 567.0,619.5 568.0,619.5 569.0,619.5 569.5,620.0 570.0,620.5 571.0,620.5 572.0,620.5 573.0,620.5 574.0,620.5 574.5,621.0 575.0,621.5 576.0,621.5 577.0,621.5 578.0,621.5 579.0,621.5 579.5,622.0 580.0,622.5 581.0,622.5 581.5,623.0 582.0,623.5 582.5,624.0 583.0,624.5 584.0,624.5 584.5,625.0 585.0,625.5 586.0,625.5 586.5,626.0 587.0,626.5 587.5,627.0 588.0,627.5 589.0,627.5 589.5,628.0 590.0,628.5 591.0,628.5 591.5,629.0 592.0,629.5 592.5,630.0 593.0,630.5 594.0,630.5 594.5,631.0 595.0,631.5 595.5,632.0 596.0,632.5 596.5,633.0 596.5,634.0 597.0,634.5 597.5,635.0 598.0,635.5 598.5,636.0 599.0,636.5 599.5,637.0 599.5,638.0 600.0,638.5 600.5,639.0 601.0,639.5 601.5,640.0 602.0,640.5 602.5,641.0 602.5,642.0 603.0,642.5 603.5,643.0 604.0,643.5 604.5,644.0 605.0,644.5 605.5,645.0 605.5,646.0 606.0,646.5 606.5,647.0 607.0,647.5 607.5,648.0 608.0,648.5 608.5,649.0 608.5,650.0 609.0,650.5 609.5,651.0 610.0,651.5 610.5,652.0 611.0,652.5 611.5,653.0 611.5,654.0 612.0,654.5 612.5,655.0 613.0,655.5 613.5,656.0 613.5,657.0 614.0,657.5 614.5,658.0 614.5,659.0 614.5,660.0 614.5,661.0 615.0,661.5 615.5,662.0 615.5,663.0 615.5,664.0 615.5,665.0 616.0,665.5 616.5,666.0 616.5,667.0 616.5,668.0 616.5,669.0 617.0,669.5 617.5,670.0 617.5,671.0 617.5,672.0 617.5,673.0 618.0,673.5 618.5,674.0 618.5,675.0 618.5,676.0 618.5,677.0 618.5,678.0 618.0,678.5 617.5,679.0 617.5,680.0 617.5,681.0 617.5,682.0 617.5,683.0 617.5,684.0 617.0,684.5 616.5,685.0 616.0,685.5 615.5,686.0 615.0,686.5 615.0,686.5" fill="none" stroke="#FF00FF" stroke-width="2" />
  <polyline points="615.0,909.5 614.0,909.5 613.0,909.5 612.0,909.5 611.0,909.5 610.0,909.5 609.0,909.5 608.0,909.5 607.0,909.5 606.0,909.5 605.0,909.5 604.0,909.5 603.0,909.5 602.0,909.5 601.0,909.5 600.0,909.5 599.0,909.5 598.0,909.5 597.0,909.5 596.0,909.5 595.0,909.5 594.0,909.5 593.0,909.5 592.0,909.5 591.0,909.5 590.0,909.5 589.0,909.5 588.0,909.5 587.0,909.5 586.0,909.5 585.0,909.5 584.0,909.5 583.0,909.5 582.0,909.5 581.0,909.5 580.0,909.5 579.0,909.5 578.0,909.5 577.0,909.5 576.0,909.5 575.0,909.5 574.0,909.5 573.0,909.5 572.0,909.5 571.0,909.5 570.0,909.5 569.0,909.5 568.0,909.5 567.0,909.5 566.0,909.5 565.0,909.5 564.0,909.5 563.0,909.5 562.0,909.5 561.0,909.5 560.5,909.0 560.0,908.5 559.5,908.0 559.5,907.0 559.5,906.0 559.0,905.5 558.5,905.0 559.0,904.5 559.5,904.0 560.0,903.5 561.0,903.5 562.0,903.5 563.0,903.5 564.0,903.5 565.0,903.5 566.0,903.5 567.0,903.5 568.0,903.5 569.0,903.5 570.0,903.5 571.0,903.5 572.0,903.5 573.0,903.5 574.0,903.5 575.0,903.5 576.0,903.5 577.0,903.5 578.0,903.5 579.0,903.5 580.0,903.5 581.0,903.5 582.0,903.5 583.0,903.5 584.0,903.5 585.0,903.5 586.0,903.5 587.0,903.5 588.0,903.5 589.0,903.5 590.0,903.5 591.0,903.5 592.0,903.5 593.0,903.5 594.0,903.5 595.0,903.5 596.0,903.5 597.0,903.5 598.0,903.5 599.0,903.5 600.0,903.5 601.0,903.5 602.0,903.5 603.0,903.5 604.0,903.5 605.0,903.5 606.0,903.5 607.0,903.5 608.0,903.5 609.0,903.5 610.0,903.5 611.0,903.5 612.0,903.5 613.0,903.5 613.5,903.0 613.5,902.0 613.0,901.5 612.5,901.0 612.5,900.0 612.5,899.0 612.5,898.0 612.0,897.5 611.5,897.0 611.5,896.0 611.5,895.0 611.0,894.5 610.5,894.0 610.5,893.0 610.5,892.0 610.5,891.0 610.0,890.5 609.5,890.0 609.5,889.0 609.5,888.0 609.0,887.5 608.5,887.0 608.5,886.0 608.5,885.0 608.5,884.0 608.0,883.5 607.5,883.0 607.5,882.0 607.5,881.0 607.0,880.5 606.5,880.0 606.5,879.0 606.5,878.0 606.5,877.0 606.0,876.5 605.5,876.0 605.5,875.0 605.0,874.5 604.5,874.0 604.0,873.5 603.5,873.0 603.5,872.0 603.0,871.5 602.5,871.0 602.0,870.5 601.5,870.0 601.0,869.5 600.5,869.0 600.0,868.5 599.5,868.0 599.0,867.5 598.5,867.0 598.5,866.0 598.0,865.5 597.5,865.0 597.0,864.5 596.5,864.0 596.0,863.5 595.5,863.0 595.0,862.5 594.5,862.0 594.0,861.5 593.5,861.0 593.5,860.0 593.0,859.5 592.5,859.0 592.0,858.5 591.5,858.0 591.0,857.5 590.0,857.5 589.5,857.0 589.0,856.5 588.0,856.5 587.5,856.0 587.0,855.5 586.0,855.5 585.5,855.0 585.0,854.5 584.0,854.5 583.5,854.0 583.0,853.5 582.0,853.5 581.5,853.0 581.0,852.5 580.5,852.0 580.0,851.5 579.0,851.5 578.5,851.0 578.0,850.5 577.0,850.5 576.5,850.0 576.0,849.5 575.0,849.5 574.5,849.0 574.0,848.5 573.0,848.5 572.5,848.0 572.0,847.5 571.0,847.5 570.0,847.5 569.0,847.5 568.0,847.5 567.0,847.5 566.0,847.5 565.0,847.5 564.5,847.0 564.0,846.5 563.0,846.5 562.0,846.5 561.0,846.5 560.0,846.5 559.0,846.5 558.5,846.0 558.0,845.5 557.5,845.0 558.0,844.5 558.5,844.0 559.0,843.5 559.5,843.0 559.5,842.0 560.0,841.5 560.5,841.0 561.0,840.5 562.0,840.5 563.0,840.5 564.0,840.5 565.0,840.5 565.5,841.0 566.0,841.5 567.0,841.5 568.0,841.5 569.0,841.5 570.0,841.5 571.0,841.5 571.5,842.0 572.0,842.5 573.0,842.5 574.0,842.5 575.0,842.5 576.0,842.5 577.0,842.5 577.5,843.0 578.0,843.5 579.0,843.5 579.5,844.0 580.0,844.5 580.5,845.0 581.0,845.5 582.0,845.5 582.5,846.0 583.0,846.5 584.0,846.5 584.5,847.0 585.0,847.5 585.5,848.0 586.0,848.5 587.0,848.5 587.5,849.0 588.0,849.5 588.5,850.0 589.0,850.5 590.0,850.5 590.5,851.0 591.0,851.5 592.0,851.5 592.5,852.0 593.0,852.5 593.5,853.0 594.0,853.5 595.0,853.5 595.5,854.0 596.0,854.5 596.5,855.0 597.0,855.5 597.5,856.0 597.5,857.0 598.0,857.5 598.5,858.0 599.0,858.5 599.5,859.0 600.0,859.5 600.5,860.0 601.0,860.5 601.5,861.0 602.0,861.5 602.5,862.0 602.5,863.0 603.0,863.5 603.5,864.0 604.0,864.5 604.5,865.0 605.0,865.5 605.5,866.0 606.0,866.5 606.5,867.0 607.0,867.5 607.5,868.0 607.5,869.0 608.0,869.5 608.5,870.0 609.0,870.5 609.5,871.0 609.5,872.0 610.0,872.5 610.5,873.0 610.5,874.0 610.5,875.0 611.0,875.5 611.5,876.0 611.5,877.0 611.5,878.0 612.0,878.5 612.5,879.0 612.5,880.0 612.5,881.0 613.0,881.5 613.5,882.0 613.5,883.0 613.5,884.0 614.0,884.5 614.5,885.0 614.5,886.0 614.5,887.0 615.0,887.5 615.5,888.0 615.5,889.0 615.5,890.0 616.0,890.5 616.5,891.0 616.5,892.0 616.5,893.0 617.0,893.5 617.5,894.0 617.5,895.0 617.5,896.0 618.0,896.5 618.5,897.0 618.5,898.0 618.5,899.0 618.5,900.0 618.5,901.0 618.5,902.0 618.5,903.0 618.5,904.0 618.5,905.0 618.5,906.0 618.0,906.5 617.5,907.0 617.0,907.5 616.5,908.0 616.0,908.5 615.5,909.0 615.0,909.5 615.0,909.5" fill="none" stroke="#FFFF00" stroke-width="2" />
  <polyline points="401.0,918.5 400.5,918.0 400.0,917.5 399.0,917.5 398.0,917.5 397.5,917.0 397.0,916.5 396.0,916.5 395.5,916.0 395.0,915.5 394.0,915.5 393.0,915.5 392.5,915.0 392.0,914.5 391.0,914.5 390.5,914.0 390.0,913.5 389.0,913.5 388.0,913.5 387.5,913.0 387.0,912.5 386.0,912.5 385.5,912.0 385.0,911.5 384.0,911.5 383.0,911.5 382.5,911.0 382.0,910.5 381.0,910.5 380.5,910.0 380.0,909.5 379.0,909.5 378.0,909.5 377.5,909.0 377.0,908.5 376.0,908.5 375.5,908.0 375.0,907.5 374.5,907.0 374.0,906.5 373.5,906.0 373.0,905.5 372.5,905.0 372.0,904.5 371.0,904.5 370.5,904.0 370.0,903.5 369.5,903.0 369.0,902.5 368.5,902.0 368.0,901.5 367.5,901.0 367.0,900.5 366.5,900.0 366.0,899.5 365.5,899.0 365.0,898.5 364.0,898.5 363.5,898.0 363.0,897.5 362.5,897.0 362.0,896.5 361.5,896.0 361.0,895.5 360.5,895.0 360.0,894.5 359.5,894.0 359.5,893.0 359.0,892.5 358.5,892.0 358.5,891.0 358.0,890.5 357.5,890.0 357.5,889.0 357.0,888.5 356.5,888.0 356.5,887.0 356.0,886.5 355.5,886.0 355.5,885.0 355.0,884.5 354.5,884.0 354.5,883.0 354.0,882.5 353.5,882.0 353.5,881.0 353.0,880.5 352.5,880.0 352.5,879.0 352.0,878.5 351.5,878.0 351.5,877.0 351.0,876.5 350.5,876.0 350.5,875.0 350.0,874.5 349.5,874.0 349.5,873.0 349.0,872.5 348.5,872.0 348.5,871.0 348.5,870.0 348.5,869.0 348.5,868.0 348.0,867.5 347.5,867.0 347.5,866.0 347.5,865.0 347.5,864.0 347.5,863.0 347.5,862.0 347.5,861.0 347.5,860.0 347.0,859.5 346.5,859.0 346.5,858.0 346.5,857.0 346.5,856.0 346.5,855.0 347.0,854.5 347.5,854.0 347.5,853.0 348.0,852.5 348.5,852.0 349.0,851.5 349.5,851.0 350.0,850.5 351.0,850.5 352.0,850.5 353.0,850.5 354.0,850.5 355.0,850.5 356.0,850.5 357.0,850.5 358.0,850.5 359.0,850.5 360.0,850.5 361.0,850.5 362.0,850.5 363.0,850.5 364.0,850.5 365.0,850.5 366.0,850.5 367.0,850.5 368.0,850.5 369.0,850.5 370.0,850.5 371.0,850.5 372.0,850.5 373.0,850.5 374.0,850.5 375.0,850.5 376.0,850.5 377.0,850.5 378.0,850.5 379.0,850.5 380.0,850.5 381.0,850.5 382.0,850.5 383.0,850.5 384.0,850.5 385.0,850.5 386.0,850.5 387.0,850.5 388.0,850.5 389.0,850.5 390.0,850.5 391.0,850.5 392.0,850.5 393.0,850.5 394.0,850.5 395.0,850.5 396.0,850.5 397.0,850.5 398.0,850.5 399.0,850.5 400.0,850.5 401.0,850.5 401.5,851.0 402.0,851.5 402.5,852.0 402.5,853.0 403.0,853.5 403.5,854.0 403.0,854.5 402.5,855.0 402.0,855.5 401.0,855.5 400.0,855.5 399.0,855.5 398.0,855.5 397.0,855.5 396.0,855.5 395.0,855.5 394.0,855.5 393.0,855.5 392.0,855.5 391.0,855.5 390.0,855.5 389.0,855.5 388.0,855.5 387.0,855.5 386.0,855.5 385.0,855.5 384.0,855.5 383.0,855.5 382.0,855.5 381.0,855.5 380.0,855.5 379.0,855.5 378.0,855.5 377.0,855.5 376.0,855.5 375.0,855.5 374.0,855.5 373.0,855.5 372.0,855.5 371.0,855.5 370.0,855.5 369.0,855.5 368.0,855.5 367.0,855.5 366.0,855.5 365.0,855.5 364.0,855.5 363.0,855.5 362.0,855.5 361.0,855.5 360.0,855.5 359.0,855.5 358.0,855.5 357.0,855.5 356.0,855.5 355.0,855.5 354.0,855.5 353.5,856.0 353.5,857.0 353.5,858.0 353.5,859.0 353.0,859.5 352.5,860.0 352.5,861.0 352.5,862.0 352.5,863.0 353.0,863.5 353.5,864.0 353.5,865.0 353.5,866.0 354.0,866.5 354.5,867.0 354.5,868.0 354.5,869.0 355.0,869.5 355.5,870.0 355.5,871.0 355.5,872.0 356.0,872.5 356.5,873.0 356.5,874.0 357.0,874.5 357.5,875.0 357.5,876.0 357.5,877.0 358.0,877.5 358.5,878.0 358.5,879.0 358.5,880.0 359.0,880.5 359.5,881.0 359.5,882.0 359.5,883.0 360.0,883.5 360.5,884.0 360.5,885.0 361.0,885.5 361.5,886.0 362.0,886.5 362.5,887.0 363.0,887.5 363.5,888.0 364.0,888.5 364.5,889.0 365.0,889.5 365.5,890.0 366.0,890.5 366.5,891.0 367.0,891.5 367.5,892.0 368.0,892.5 368.5,893.0 368.5,894.0 369.0,894.5 369.5,895.0 370.0,895.5 370.5,896.0 371.0,896.5 371.5,897.0 372.0,897.5 372.5,898.0 373.0,898.5 373.5,899.0 374.0,899.5 374.5,900.0 375.0,900.5 375.5,901.0 376.0,901.5 377.0,901.5 377.5,902.0 378.0,902.5 379.0,902.5 379.5,903.0 380.0,903.5 381.0,903.5 382.0,903.5 382.5,904.0 383.0,904.5 384.0,904.5 384.5,905.0 385.0,905.5 386.0,905.5 386.5,906.0 387.0,906.5 388.0,906.5 388.5,907.0 389.0,907.5 390.0,907.5 390.5,908.0 391.0,908.5 392.0,908.5 392.5,909.0 393.0,909.5 394.0,909.5 395.0,909.5 395.5,910.0 396.0,910.5 397.0,910.5 397.5,911.0 398.0,911.5 399.0,911.5 399.5,912.0 400.0,912.5 401.0,912.5 402.0,912.5 402.5,913.0 403.0,913.5 403.5,914.0 403.0,914.5 402.5,915.0 402.5,916.0 402.5,917.0 402.0,917.5 401.5,918.0 401.0,918.5 401.0,918.5" fill="none" stroke="#0080FF" stroke-width="2" />
  <polyline points="449.0,1062.5 448.0,1062.5 447.0,1062.5 446.0,1062.5 445.0,1062.5 444.0,1062.5 443.0,1062.5 442.0,1062.5 441.0,1062.5 440.0,1062.5 439.0,1062.5 438.0,1062.5 437.0,1062.5 436.0,1062.5 435.0,1062.5 434.0,1062.5 433.0,1062.5 432.5,1062.0 432.0,1061.5 431.5,1061.0 431.0,1060.5 430.5,1060.0 430.5,1059.0 430.5,1058.0 430.5,1057.0 430.5,1056.0 430.5,1055.0 430.5,1054.0 430.5,1053.0 430.5,1052.0 430.5,1051.0 430.5,1050.0 430.5,1049.0 430.5,1048.0 430.5,1047.0 430.5,1046.0 430.5,1045.0 430.5,1044.0 430.5,1043.0 430.5,1042.0 430.5,1041.0 430.5,1040.0 430.5,1039.0 430.5,1038.0 430.5,1037.0 430.5,1036.0 430.5,1035.0 430.5,1034.0 430.5,1033.0 430.5,1032.0 431.0,1031.5 431.5,1031.0 431.5,1030.0 431.5,1029.0 431.5,1028.0 431.5,1027.0 431.5,1026.0 431.5,1025.0 431.5,1024.0 431.5,1023.0 431.5,1022.0 431.5,1021.0 431.5,1020.0 431.5,1019.0 431.5,1018.0 431.5,1017.0 431.5,1016.0 431.5,1015.0 431.5,1014.0 431.5,1013.0 431.5,1012.0 431.5,1011.0 431.5,1010.0 431.5,1009.0 431.5,1008.0 431.5,1007.0 431.5,1006.0 431.5,1005.0 432.0,1004.5 432.5,1004.0 433.0,1003.5 434.0,1003.5 435.0,1003.5 435.5,1004.0 436.0,1004.5 436.5,1005.0 436.5,1006.0 436.5,1007.0 436.5,1008.0 436.5,1009.0 436.5,1010.0 436.5,1011.0 436.5,1012.0 436.5,1013.0 436.5,1014.0 436.5,1015.0 436.5,1016.0 436.5,1017.0 436.5,1018.0 436.5,1019.0 436.5,1020.0 436.5,1021.0 436.5,1022.0 436.5,1023.0 436.5,1024.0 436.5,1025.0 436.5,1026.0 436.5,1027.0 436.5,1028.0 436.5,1029.0 436.5,1030.0 436.5,1031.0 436.5,1032.0 436.5,1033.0 436.5,1034.0 436.5,1035.0 436.5,1036.0 436.5,1037.0 436.5,1038.0 436.5,1039.0 436.5,1040.0 436.5,1041.0 436.5,1042.0 436.5,1043.0 436.5,1044.0 436.5,1045.0 436.5,1046.0 436.5,1047.0 436.5,1048.0 436.5,1049.0 436.5,1050.0 436.5,1051.0 436.5,1052.0 436.5,1053.0 436.5,1054.0 436.5,1055.0 436.5,1056.0 437.0,1056.5 438.0,1056.5 439.0,1056.5 440.0,1056.5 441.0,1056.5 442.0,1056.5 443.0,1056.5 444.0,1056.5 445.0,1056.5 446.0,1056.5 447.0,1056.5 448.0,1056.5 449.0,1056.5 450.0,1056.5 450.5,1056.0 451.0,1055.5 452.0,1055.5 452.5,1055.0 453.0,1054.5 454.0,1054.5 455.0,1054.5 455.5,1054.0 456.0,1053.5 457.0,1053.5 457.5,1053.0 458.0,1052.5 459.0,1052.5 460.0,1052.5 460.5,1052.0 461.0,1051.5 462.0,1051.5 462.5,1051.0 463.0,1050.5 464.0,1050.5 464.5,1050.0 465.0,1049.5 466.0,1049.5 467.0,1049.5 467.5,1049.0 468.0,1048.5 469.0,1048.5 469.5,1048.0 470.0,1047.5 471.0,1047.5 472.0,1047.5 472.5,1047.0 473.0,1046.5 474.0,1046.5 474.5,1046.0 475.0,1045.5 475.5,1045.0 476.0,1044.5 476.5,1044.0 477.0,1043.5 477.5,1043.0 478.0,1042.5 478.5,1042.0 479.0,1041.5 479.5,1041.0 480.0,1040.5 480.5,1040.0 481.0,1039.5 481.5,1039.0 482.0,1038.5 482.5,1038.0 483.0,1037.5 483.5,1037.0 484.0,1036.5 484.5,1036.0 485.0,1035.5 485.5,1035.0 486.0,1034.5 486.5,1034.0 487.0,1033.5 487.5,1033.0 488.0,1032.5 488.5,1032.0 488.5,1031.0 489.0,1030.5 489.5,1030.0 489.5,1029.0 490.0,1028.5 490.5,1028.0 490.5,1027.0 491.0,1026.5 491.5,1026.0 491.5,1025.0 492.0,1024.5 492.5,1024.0 492.5,1023.0 493.0,1022.5 493.5,1022.0 493.5,1021.0 494.0,1020.5 494.5,1020.0 494.5,1019.0 495.0,1018.5 495.5,1018.0 495.5,1017.0 495.5,1016.0 495.5,1015.0 496.0,1014.5 496.5,1014.0 496.5,1013.0 496.5,1012.0 496.5,1011.0 496.5,1010.0 496.5,1009.0 497.0,1008.5 497.5,1008.0 497.5,1007.0 497.5,1006.0 497.5,1005.0 497.5,1004.0 497.5,1003.0 497.5,1002.0 498.0,1001.5 498.5,1001.0 499.0,1000.5 499.5,1001.0 500.0,1001.5 500.5,1002.0 501.0,1002.5 502.0,1002.5 503.0,1002.5 503.5,1003.0 504.0,1003.5 504.5,1004.0 504.5,1005.0 504.0,1005.5 503.5,1006.0 503.5,1007.0 503.5,1008.0 503.5,1009.0 503.5,1010.0 503.0,1010.5 502.5,1011.0 502.5,1012.0 502.5,1013.0 502.5,1014.0 502.0,1014.5 501.5,1015.0 501.5,1016.0 501.5,1017.0 501.5,1018.0 501.0,1018.5 500.5,1019.0 500.5,1020.0 500.0,1020.5 499.5,1021.0 499.5,1022.0 499.0,1022.5 498.5,1023.0 498.5,1024.0 498.0,1024.5 497.5,1025.0 497.5,1026.0 497.0,1026.5 496.5,1027.0 496.5,1028.0 496.0,1028.5 495.5,1029.0 495.5,1030.0 495.0,1030.5 494.5,1031.0 494.5,1032.0 494.0,1032.5 493.5,1033.0 493.5,1034.0 493.0,1034.5 492.5,1035.0 492.5,1036.0 492.0,1036.5 491.5,1037.0 491.0,1037.5 490.5,1038.0 490.0,1038.5 489.5,1039.0 489.0,1039.5 488.5,1040.0 488.0,1040.5 487.5,1041.0 487.0,1041.5 486.0,1041.5 485.5,1042.0 485.0,1042.5 484.5,1043.0 484.0,1043.5 483.5,1044.0 483.0,1044.5 482.5,1045.0 482.0,1045.5 481.5,1046.0 481.0,1046.5 480.5,1047.0 480.0,1047.5 479.5,1048.0 479.0,1048.5 478.5,1049.0 478.0,1049.5 477.0,1049.5 476.5,1050.0 476.0,1050.5 475.5,1051.0 475.0,1051.5 474.5,1052.0 474.0,1052.5 473.5,1053.0 473.0,1053.5 472.5,1054.0 472.0,1054.5 471.0,1054.5 470.0,1054.5 469.5,1055.0 469.0,1055.5 468.0,1055.5 467.0,1055.5 466.5,1056.0 466.0,1056.5 465.0,1056.5 464.0,1056.5 463.5,1057.0 463.0,1057.5 462.0,1057.5 461.0,1057.5 460.5,1058.0 460.0,1058.5 459.0,1058.5 458.5,1059.0 458.0,1059.5 457.0,1059.5 456.0,1059.5 455.5,1060.0 455.0,1060.5 454.0,1060.5 453.0,1060.5 452.5,1061.0 452.0,1061.5 451.0,1061.5 450.0,1061.5 449.5,1062.0 449.0,1062.5 449.0,1062.5" fill="none" stroke="#FF0080" stroke-width="2" />
  <polyline points="567.0,1196.5 566.0,1196.5 565.5,1196.0 565.0,1195.5 564.5,1195.0 565.0,1194.5 565.5,1194.0 565.0,1193.5 564.5,1193.0 564.5,1192.0 564.5,1191.0 564.0,1190.5 563.5,1190.0 564.0,1189.5 564.5,1189.0 565.0,1188.5 566.0,1188.5 567.0,1188.5 568.0,1188.5 569.0,1188.5 570.0,1188.5 570.5,1188.0 571.0,1187.5 572.0,1187.5 572.5,1187.0 573.0,1186.5 574.0,1186.5 574.5,1186.0 575.0,1185.5 576.0,1185.5 576.5,1185.0 577.0,1184.5 578.0,1184.5 578.5,1184.0 579.0,1183.5 579.5,1183.0 580.0,1182.5 581.0,1182.5 581.5,1182.0 582.0,1181.5 583.0,1181.5 583.5,1181.0 584.0,1180.5 585.0,1180.5 585.5,1180.0 586.0,1179.5 587.0,1179.5 587.5,1179.0 588.0,1178.5 589.0,1178.5 589.5,1178.0 590.0,1177.5 590.5,1177.0 591.0,1176.5 591.5,1176.0 591.5,1175.0 592.0,1174.5 592.5,1174.0 593.0,1173.5 593.5,1173.0 594.0,1172.5 594.5,1172.0 595.0,1171.5 595.5,1171.0 595.5,1170.0 596.0,1169.5 596.5,1169.0 597.0,1168.5 597.5,1168.0 598.0,1167.5 598.5,1167.0 599.0,1166.5 599.5,1166.0 599.5,1165.0 600.0,1164.5 600.5,1164.0 601.0,1163.5 601.5,1163.0 602.0,1162.5 602.5,1162.0 603.0,1161.5 603.5,1161.0 603.5,1160.0 604.0,1159.5 604.5,1159.0 605.0,1158.5 605.5,1158.0 605.5,1157.0 605.5,1156.0 606.0,1155.5 606.5,1155.0 606.5,1154.0 606.5,1153.0 606.5,1152.0 606.5,1151.0 607.0,1150.5 607.5,1150.0 607.5,1149.0 607.5,1148.0 607.5,1147.0 607.5,1146.0 607.5,1145.0 608.0,1144.5 608.5,1144.0 608.5,1143.0 608.5,1142.0 608.5,1141.0 608.5,1140.0 609.0,1139.5 609.5,1139.0 609.5,1138.0 609.5,1137.0 609.0,1136.5 608.0,1136.5 607.0,1136.5 606.0,1136.5 605.0,1136.5 604.0,1136.5 603.0,1136.5 602.0,1136.5 601.0,1136.5 600.0,1136.5 599.0,1136.5 598.0,1136.5 597.0,1136.5 596.0,1136.5 595.0,1136.5 594.0,1136.5 593.0,1136.5 592.0,1136.5 591.0,1136.5 590.0,1136.5 589.0,1136.5 588.0,1136.5 587.5,1136.0 587.0,1135.5 586.0,1135.5 585.0,1135.5 584.0,1135.5 583.0,1135.5 582.0,1135.5 581.0,1135.5 580.0,1135.5 579.0,1135.5 578.0,1135.5 577.0,1135.5 576.0,1135.5 575.0,1135.5 574.0,1135.5 573.0,1135.5 572.0,1135.5 571.0,1135.5 570.0,1135.5 569.0,1135.5 568.0,1135.5 567.0,1135.5 566.0,1135.5 565.0,1135.5 564.5,1135.0 564.0,1134.5 563.0,1134.5 562.0,1134.5 561.0,1134.5 560.5,1134.0 560.0,1133.5 559.5,1133.0 560.0,1132.5 560.5,1132.0 560.5,1131.0 561.0,1130.5 561.5,1130.0 562.0,1129.5 563.0,1129.5 564.0,1129.5 565.0,1129.5 566.0,1129.5 567.0,1129.5 568.0,1129.5 569.0,1129.5 570.0,1129.5 571.0,1129.5 572.0,1129.5 573.0,1129.5 574.0,1129.5 575.0,1129.5 576.0,1129.5 577.0,1129.5 578.0,1129.5 579.0,1129.5 580.0,1129.5 581.0,1129.5 582.0,1129.5 583.0,1129.5 584.0,1129.5 585.0,1129.5 586.0,1129.5 587.0,1129.5 588.0,1129.5 589.0,1129.5 590.0,1129.5 591.0,1129.5 592.0,1129.5 593.0,1129.5 594.0,1129.5 595.0,1129.5 596.0,1129.5 597.0,1129.5 598.0,1129.5 599.0,1129.5 600.0,1129.5 601.0,1129.5 602.0,1129.5 603.0,1129.5 604.0,1129.5 605.0,1129.5 606.0,1129.5 607.0,1129.5 608.0,1129.5 609.0,1129.5 610.0,1129.5 611.0,1129.5 611.5,1130.0 612.0,1130.5 613.0,1130.5 613.5,1131.0 614.0,1131.5 614.5,1132.0 615.0,1132.5 615.5,1133.0 615.5,1134.0 615.5,1135.0 615.5,1136.0 615.0,1136.5 614.5,1137.0 614.5,1138.0 614.5,1139.0 614.5,1140.0 614.5,1141.0 614.5,1142.0 614.5,1143.0 614.5,1144.0 614.0,1144.5 613.5,1145.0 613.5,1146.0 613.5,1147.0 613.5,1148.0 613.5,1149.0 613.5,1150.0 613.5,1151.0 613.5,1152.0 613.0,1152.5 612.5,1153.0 612.5,1154.0 612.5,1155.0 612.5,1156.0 612.0,1156.5 611.5,1157.0 611.5,1158.0 611.0,1158.5 610.5,1159.0 610.5,1160.0 610.0,1160.5 609.5,1161.0 609.0,1161.5 608.5,1162.0 608.5,1163.0 608.0,1163.5 607.5,1164.0 607.5,1165.0 607.0,1165.5 606.5,1166.0 606.5,1167.0 606.0,1167.5 605.5,1168.0 605.0,1168.5 604.5,1169.0 604.5,1170.0 604.0,1170.5 603.5,1171.0 603.5,1172.0 603.0,1172.5 602.5,1173.0 602.0,1173.5 601.5,1174.0 601.0,1174.5 600.5,1175.0 600.0,1175.5 599.5,1176.0 599.0,1176.5 598.5,1177.0 598.0,1177.5 597.5,1178.0 597.0,1178.5 596.5,1179.0 596.0,1179.5 595.5,1180.0 595.0,1180.5 594.0,1180.5 593.5,1181.0 593.0,1181.5 592.5,1182.0 592.0,1182.5 591.5,1183.0 591.0,1183.5 590.5,1184.0 590.0,1184.5 589.5,1185.0 589.0,1185.5 588.5,1186.0 588.0,1186.5 587.5,1187.0 587.0,1187.5 586.0,1187.5 585.5,1188.0 585.0,1188.5 584.0,1188.5 583.5,1189.0 583.0,1189.5 582.0,1189.5 581.0,1189.5 580.5,1190.0 580.0,1190.5 579.0,1190.5 578.5,1191.0 578.0,1191.5 577.0,1191.5 576.5,1192.0 576.0,1192.5 575.0,1192.5 574.5,1193.0 574.0,1193.5 573.0,1193.5 572.0,1193.5 571.5,1194.0 571.0,1194.5 570.0,1194.5 569.5,1195.0 569.0,1195.5 568.0,1195.5 567.5,1196.0 567.0,1196.5 567.0,1196.5" fill="none" stroke="#FF8000" stroke-width="2" />
  <polyline points="406.0,1199.5 405.0,1199.5 404.0,1199.5 403.0,1199.5 402.0,1199.5 401.0,1199.5 400.0,1199.5 399.0,1199.5 398.0,1199.5 397.0,1199.5 396.0,1199.5 395.0,1199.5 394.0,1199.5 393.0,1199.5 392.0,1199.5 391.0,1199.5 390.0,1199.5 389.0,1199.5 388.0,1199.5 387.0,1199.5 386.0,1199.5 385.0,1199.5 384.0,1199.5 383.0,1199.5 382.0,1199.5 381.0,1199.5 380.0,1199.5 379.5,1199.0 379.0,1198.5 378.5,1198.0 378.5,1197.0 378.5,1196.0 378.0,1195.5 377.5,1195.0 378.0,1194.5 378.5,1194.0 379.0,1193.5 380.0,1193.5 381.0,1193.5 382.0,1193.5 383.0,1193.5 384.0,1193.5 385.0,1193.5 386.0,1193.5 387.0,1193.5 388.0,1193.5 389.0,1193.5 390.0,1193.5 391.0,1193.5 392.0,1193.5 393.0,1193.5 394.0,1193.5 395.0,1193.5 396.0,1193.5 397.0,1193.5 398.0,1193.5 399.0,1193.5 400.0,1193.5 401.0,1193.5 402.0,1193.5 403.0,1193.5 404.0,1193.5 405.0,1193.5 406.0,1193.5 407.0,1193.5 408.0,1193.5 409.0,1193.5 410.0,1193.5 411.0,1193.5 412.0,1193.5 413.0,1193.5 414.0,1193.5 415.0,1193.5 416.0,1193.5 417.0,1193.5 418.0,1193.5 419.0,1193.5 420.0,1193.5 421.0,1193.5 422.0,1193.5 423.0,1193.5 424.0,1193.5 425.0,1193.5 426.0,1193.5 427.0,1193.5 428.0,1193.5 428.5,1193.0 428.5,1192.0 428.5,1191.0 428.5,1190.0 428.5,1189.0 428.5,1188.0 428.5,1187.0 428.5,1186.0 428.5,1185.0 428.5,1184.0 428.5,1183.0 428.5,1182.0 428.0,1181.5 427.5,1181.0 427.5,1180.0 427.0,1179.5 426.5,1179.0 426.5,1178.0 426.0,1177.5 425.5,1177.0 425.5,1176.0 425.5,1175.0 425.0,1174.5 424.5,1174.0 424.5,1173.0 424.0,1172.5 423.5,1172.0 423.5,1171.0 423.5,1170.0 423.0,1169.5 422.5,1169.0 422.5,1168.0 422.0,1167.5 421.5,1167.0 421.5,1166.0 421.0,1165.5 420.5,1165.0 420.5,1164.0 420.0,1163.5 419.5,1163.0 419.0,1162.5 418.5,1162.0 418.5,1161.0 418.0,1160.5 417.5,1160.0 417.0,1159.5 416.5,1159.0 416.0,1158.5 415.5,1158.0 415.0,1157.5 414.5,1157.0 414.5,1156.0 414.0,1155.5 413.5,1155.0 413.0,1154.5 412.5,1154.0 412.0,1153.5 411.5,1153.0 411.5,1152.0 411.0,1151.5 410.5,1151.0 410.0,1150.5 409.5,1150.0 409.0,1149.5 408.0,1149.5 407.5,1149.0 407.0,1148.5 406.5,1148.0 406.0,1147.5 405.0,1147.5 404.5,1147.0 404.0,1146.5 403.0,1146.5 402.5,1146.0 402.0,1145.5 401.5,1145.0 401.0,1144.5 400.0,1144.5 399.5,1144.0 399.0,1143.5 398.0,1143.5 397.5,1143.0 397.0,1142.5 396.5,1142.0 396.0,1141.5 395.0,1141.5 394.5,1141.0 394.0,1140.5 393.0,1140.5 392.0,1140.5 391.0,1140.5 390.0,1140.5 389.0,1140.5 388.0,1140.5 387.0,1140.5 386.5,1140.0 386.0,1139.5 385.0,1139.5 384.0,1139.5 383.0,1139.5 382.0,1139.5 381.0,1139.5 380.0,1139.5 379.0,1139.5 378.5,1139.0 378.0,1138.5 377.5,1138.0 377.5,1137.0 378.0,1136.5 378.5,1136.0 378.5,1135.0 378.5,1134.0 379.0,1133.5 379.5,1133.0 380.0,1132.5 381.0,1132.5 382.0,1132.5 383.0,1132.5 383.5,1133.0 384.0,1133.5 385.0,1133.5 386.0,1133.5 387.0,1133.5 388.0,1133.5 388.5,1134.0 389.0,1134.5 390.0,1134.5 391.0,1134.5 392.0,1134.5 392.5,1135.0 393.0,1135.5 394.0,1135.5 395.0,1135.5 396.0,1135.5 397.0,1135.5 397.5,1136.0 398.0,1136.5 398.5,1137.0 399.0,1137.5 400.0,1137.5 400.5,1138.0 401.0,1138.5 401.5,1139.0 402.0,1139.5 402.5,1140.0 403.0,1140.5 404.0,1140.5 404.5,1141.0 405.0,1141.5 405.5,1142.0 406.0,1142.5 406.5,1143.0 407.0,1143.5 408.0,1143.5 408.5,1144.0 409.0,1144.5 409.5,1145.0 410.0,1145.5 410.5,1146.0 411.0,1146.5 412.0,1146.5 412.5,1147.0 413.0,1147.5 413.5,1148.0 414.0,1148.5 414.5,1149.0 415.0,1149.5 416.0,1149.5 416.5,1150.0 417.0,1150.5 417.5,1151.0 418.0,1151.5 418.5,1152.0 418.5,1153.0 419.0,1153.5 419.5,1154.0 419.5,1155.0 420.0,1155.5 420.5,1156.0 421.0,1156.5 421.5,1157.0 421.5,1158.0 422.0,1158.5 422.5,1159.0 422.5,1160.0 423.0,1160.5 423.5,1161.0 424.0,1161.5 424.5,1162.0 424.5,1163.0 425.0,1163.5 425.5,1164.0 426.0,1164.5 426.5,1165.0 426.5,1166.0 427.0,1166.5 427.5,1167.0 427.5,1168.0 428.0,1168.5 428.5,1169.0 429.0,1169.5 429.5,1170.0 429.5,1171.0 430.0,1171.5 430.5,1172.0 430.5,1173.0 431.0,1173.5 431.5,1174.0 431.5,1175.0 431.5,1176.0 431.5,1177.0 432.0,1177.5 432.5,1178.0 432.5,1179.0 432.5,1180.0 432.5,1181.0 432.5,1182.0 432.5,1183.0 432.5,1184.0 432.5,1185.0 433.0,1185.5 433.5,1186.0 433.5,1187.0 433.5,1188.0 433.5,1189.0 433.5,1190.0 433.5,1191.0 433.5,1192.0 433.5,1193.0 434.0,1193.5 434.5,1194.0 434.5,1195.0 434.5,1196.0 434.5,1197.0 434.0,1197.5 433.5,1198.0 433.0,1198.5 432.0,1198.5 431.0,1198.5 430.0,1198.5 429.0,1198.5 428.0,1198.5 427.0,1198.5 426.0,1198.5 425.0,1198.5 424.0,1198.5 423.0,1198.5 422.0,1198.5 421.0,1198.5 420.0,1198.5 419.0,1198.5 418.0,1198.5 417.0,1198.5 416.0,1198.5 415.0,1198.5 414.0,1198.5 413.0,1198.5 412.0,1198.5 411.0,1198.5 410.0,1198.5 409.0,1198.5 408.0,1198.5 407.0,1198.5 406.5,1199.0 406.0,1199.5 406.0,1199.5" fill="none" stroke="#8080FF" stroke-width="2" />
  <polyline points="866.0,1237.5 865.0,1237.5 864.0,1237.5 863.0,1237.5 862.0,1237.5 861.0,1237.5 860.0,1237.5 859.0,1237.5 858.0,1237.5 857.0,1237.5 856.0,1237.5 855.0,1237.5 854.0,1237.5 853.0,1237.5 852.0,1237.5 851.0,1237.5 850.0,1237.5 849.5,1237.0 849.0,1236.5 848.0,1236.5 847.0,1236.5 846.0,1236.5 845.0,1236.5 844.0,1236.5 843.0,1236.5 842.0,1236.5 841.0,1236.5 840.0,1236.5 839.0,1236.5 838.0,1236.5 837.0,1236.5 836.0,1236.5 835.0,1236.5 834.0,1236.5 833.5,1236.0 833.0,1235.5 832.5,1235.0 832.5,1234.0 832.5,1233.0 832.5,1232.0 832.5,1231.0 832.5,1230.0 832.5,1229.0 832.5,1228.0 833.0,1227.5 833.5,1227.0 833.5,1226.0 833.5,1225.0 833.5,1224.0 833.5,1223.0 833.5,1222.0 833.5,1221.0 833.5,1220.0 833.5,1219.0 834.0,1218.5 834.5,1218.0 834.5,1217.0 834.5,1216.0 835.0,1215.5 835.5,1215.0 835.5,1214.0 835.5,1213.0 836.0,1212.5 836.5,1212.0 836.5,1211.0 837.0,1210.5 837.5,1210.0 837.5,1209.0 837.5,1208.0 838.0,1207.5 838.5,1207.0 838.5,1206.0 839.0,1205.5 839.5,1205.0 840.0,1204.5 840.5,1204.0 841.0,1203.5 841.5,1203.0 841.5,1202.0 842.0,1201.5 842.5,1201.0 843.0,1200.5 843.5,1200.0 844.0,1199.5 844.5,1199.0 845.0,1198.5 845.5,1198.0 846.0,1197.5 846.5,1197.0 847.0,1196.5 847.5,1196.0 847.5,1195.0 848.0,1194.5 848.5,1194.0 849.0,1193.5 849.5,1193.0 850.0,1192.5 850.5,1192.0 851.0,1191.5 851.5,1191.0 852.0,1190.5 852.5,1190.0 853.0,1189.5 853.5,1189.0 854.0,1188.5 854.5,1188.0 854.5,1187.0 855.0,1186.5 855.5,1186.0 856.0,1185.5 856.5,1185.0 857.0,1184.5 857.5,1184.0 858.0,1183.5 859.0,1183.5 859.5,1183.0 860.0,1182.5 861.0,1182.5 861.5,1182.0 862.0,1181.5 863.0,1181.5 863.5,1181.0 864.0,1180.5 865.0,1180.5 866.0,1180.5 866.5,1180.0 867.0,1179.5 868.0,1179.5 868.5,1179.0 869.0,1178.5 869.5,1179.0 870.0,1179.5 870.5,1180.0 870.5,1181.0 871.0,1181.5 871.5,1182.0 872.0,1182.5 872.5,1183.0 872.0,1183.5 871.5,1184.0 871.0,1184.5 870.0,1184.5 869.5,1185.0 869.0,1185.5 868.0,1185.5 867.0,1185.5 866.5,1186.0 866.0,1186.5 865.0,1186.5 864.0,1186.5 863.5,1187.0 863.0,1187.5 862.5,1188.0 862.0,1188.5 861.5,1189.0 861.0,1189.5 860.5,1190.0 860.0,1190.5 859.5,1191.0 859.0,1191.5 858.5,1192.0 858.0,1192.5 857.5,1193.0 857.0,1193.5 856.5,1194.0 856.0,1194.5 855.0,1194.5 854.5,1195.0 854.0,1195.5 853.5,1196.0 853.0,1196.5 852.5,1197.0 852.0,1197.5 851.5,1198.0 851.0,1198.5 850.5,1199.0 850.0,1199.5 849.5,1200.0 849.0,1200.5 848.5,1201.0 848.0,1201.5 847.5,1202.0 847.5,1203.0 847.0,1203.5 846.5,1204.0 846.5,1205.0 846.0,1205.5 845.5,1206.0 845.5,1207.0 845.0,1207.5 844.5,1208.0 844.5,1209.0 844.5,1210.0 844.0,1210.5 843.5,1211.0 843.5,1212.0 843.0,1212.5 842.5,1213.0 842.5,1214.0 842.0,1214.5 841.5,1215.0 841.5,1216.0 841.0,1216.5 840.5,1217.0 840.5,1218.0 840.5,1219.0 840.0,1219.5 839.5,1220.0 839.5,1221.0 839.0,1221.5 838.5,1222.0 838.5,1223.0 838.0,1223.5 837.5,1224.0 837.5,1225.0 837.5,1226.0 837.5,1227.0 838.0,1227.5 838.5,1228.0 838.5,1229.0 838.5,1230.0 838.5,1231.0 839.0,1231.5 840.0,1231.5 841.0,1231.5 842.0,1231.5 843.0,1231.5 844.0,1231.5 845.0,1231.5 846.0,1231.5 847.0,1231.5 848.0,1231.5 849.0,1231.5 850.0,1231.5 851.0,1231.5 852.0,1231.5 853.0,1231.5 854.0,1231.5 855.0,1231.5 856.0,1231.5 857.0,1231.5 858.0,1231.5 859.0,1231.5 860.0,1231.5 861.0,1231.5 862.0,1231.5 863.0,1231.5 864.0,1231.5 865.0,1231.5 866.0,1231.5 867.0,1231.5 867.5,1232.0 868.0,1232.5 868.5,1233.0 868.0,1233.5 867.5,1234.0 867.5,1235.0 867.5,1236.0 867.0,1236.5 866.5,1237.0 866.0,1237.5 866.0,1237.5" fill="none" stroke="#80FF80" stroke-width="2" />
</svg>