<?xml version='1.0' encoding='utf-8'?>
<svg xmlns="http://www.w3.org/2000/svg" width="3000" height="3000">
  
  <rect width="3000" height="3000" fill="black" />

  
  <g stroke-width="2.0" fill="none" opacity="0.8">
    <line x1="700.0" y1="1565.8" x2="421.9" y2="1565.8" stroke="rgb(0,157,0)" /><line x1="2090.2" y1="2220.0" x2="2090.2" y2="2270.6" stroke="rgb(0,157,0)" /><line x1="1850.8" y1="1150.0" x2="1850.8" y2="1231.0" stroke="rgb(0,157,0)" /><line x1="421.9" y1="289.5" x2="421.9" y2="441.5" stroke="rgb(0,157,0)" /><line x1="1850.8" y1="189.5" x2="1850.8" y2="289.5" stroke="rgb(0,157,0)" /><line x1="1850.8" y1="289.5" x2="1850.8" y2="320.0" stroke="rgb(0,157,0)" /><line x1="1102.5" y1="959.8" x2="980.7" y2="959.8" stroke="rgb(0,157,0)" /><line x1="1351.4" y1="708.8" x2="1351.4" y2="742.1" stroke="rgb(0,157,0)" /><line x1="1402.3" y1="289.5" x2="1351.4" y2="289.5" stroke="rgb(0,157,0)" /><line x1="1783.3" y1="289.5" x2="1850.8" y2="289.5" stroke="rgb(0,157,0)" /><line x1="1850.8" y1="1407.9" x2="1850.8" y2="1474.9" stroke="rgb(0,157,0)" /><line x1="860.2" y1="2243.6" x2="797.4" y2="2243.6" stroke="rgb(0,157,0)" /><line x1="2656.2" y1="214.5" x2="2597.6" y2="214.5" stroke="rgb(0,157,0)" /><line x1="1850.8" y1="557.0" x2="1850.8" y2="590.9" stroke="rgb(0,157,0)" /><line x1="2740.6" y1="2243.6" x2="2774.1" y2="2243.6" stroke="rgb(0,157,0)" /><line x1="1997.1" y1="214.5" x2="2036.7" y2="214.5" stroke="rgb(0,157,0)" /><line x1="829.0" y1="289.5" x2="860.2" y2="289.5" stroke="rgb(0,157,0)" /><line x1="1402.3" y1="1819.3" x2="1402.3" y2="1761.1" stroke="rgb(0,157,0)" /><line x1="1850.8" y1="959.8" x2="1850.8" y2="1021.0" stroke="rgb(0,157,0)" /><line x1="1351.4" y1="959.8" x2="1310.5" y2="959.8" stroke="rgb(0,157,0)" /><line x1="2090.2" y1="1819.3" x2="2090.2" y2="1761.1" stroke="rgb(0,157,0)" /><line x1="829.0" y1="959.8" x2="889.1" y2="959.8" stroke="rgb(0,157,0)" /><line x1="1850.8" y1="742.1" x2="1850.8" y2="708.8" stroke="rgb(0,157,0)" /><line x1="1351.4" y1="959.8" x2="1351.4" y2="899.7" stroke="rgb(0,157,0)" /><line x1="2958.7" y1="214.5" x2="2897.7" y2="214.5" stroke="rgb(0,157,0)" /><line x1="1598.5" y1="1407.9" x2="1598.5" y2="1460.0" stroke="rgb(0,157,0)" /><line x1="1598.5" y1="691.0" x2="1598.5" y2="742.1" stroke="rgb(0,157,0)" /><line x1="1351.4" y1="2243.6" x2="1402.3" y2="2243.6" stroke="rgb(0,157,0)" /><line x1="1761.3" y1="708.8" x2="1726.5" y2="691.0" stroke="rgb(0,157,0)" /><line x1="470.1" y1="289.5" x2="421.9" y2="289.5" stroke="rgb(0,157,0)" /><line x1="587.6" y1="959.8" x2="829.0" y2="959.8" stroke="rgb(0,0,219)" /><line x1="1351.4" y1="457.8" x2="1351.4" y2="708.8" stroke="rgb(0,0,219)" /><line x1="700.0" y1="1565.8" x2="1598.5" y2="1565.8" stroke="rgb(0,0,219)" /><line x1="421.9" y1="2028.4" x2="421.9" y2="2119.7" stroke="rgb(0,0,219)" /><line x1="421.9" y1="829.0" x2="421.9" y2="899.7" stroke="rgb(0,0,219)" /><line x1="2018.2" y1="1489.7" x2="2981.4" y2="1489.7" stroke="rgb(0,0,219)" /><line x1="1598.5" y1="708.8" x2="1351.4" y2="708.8" stroke="rgb(0,0,219)" /><line x1="1351.4" y1="959.8" x2="1598.5" y2="959.8" stroke="rgb(0,0,219)" /><line x1="2774.1" y1="214.5" x2="2897.7" y2="214.5" stroke="rgb(0,0,219)" /><line x1="1598.5" y1="1565.8" x2="1598.5" y2="1460.0" stroke="rgb(0,0,219)" /><line x1="1850.8" y1="320.0" x2="1850.8" y2="441.5" stroke="rgb(0,0,219)" /><line x1="1351.4" y1="371.0" x2="1351.4" y2="289.5" stroke="rgb(0,0,219)" /><line x1="1310.5" y1="959.8" x2="1222.2" y2="959.8" stroke="rgb(0,0,219)" /><line x1="889.1" y1="959.8" x2="980.7" y2="959.8" stroke="rgb(0,0,219)" /><line x1="2090.2" y1="1890.0" x2="2090.2" y2="2220.0" stroke="rgb(0,0,219)" /><line x1="1997.1" y1="2243.6" x2="1402.3" y2="2243.6" stroke="rgb(0,0,108)" /><line x1="2958.7" y1="1021.0" x2="1850.8" y2="1021.0" stroke="rgb(0,0,108)" /><line x1="421.9" y1="829.0" x2="421.9" y2="441.5" stroke="rgb(0,0,108)" /><line x1="1598.5" y1="959.8" x2="1598.5" y2="1231.0" stroke="rgb(0,0,108)" /><line x1="2090.2" y1="1489.7" x2="2090.2" y2="1565.8" stroke="rgb(0,0,108)" /><line x1="660.3" y1="1565.8" x2="660.3" y2="959.8" stroke="rgb(0,0,108)" /><line x1="1402.3" y1="2243.6" x2="1402.3" y2="1819.3" stroke="rgb(0,0,108)" /><line x1="1850.8" y1="1819.3" x2="2090.2" y2="1819.3" stroke="rgb(0,0,108)" /><line x1="860.2" y1="289.5" x2="1351.4" y2="289.5" stroke="rgb(0,0,108)" /><line x1="1850.8" y1="1021.0" x2="1850.8" y2="1150.0" stroke="rgb(0,0,108)" /><line x1="2597.6" y1="214.5" x2="2180.0" y2="214.5" stroke="rgb(0,0,108)" /><line x1="1850.8" y1="557.0" x2="1850.8" y2="441.5" stroke="rgb(0,0,108)" /><line x1="1402.3" y1="1819.3" x2="1598.5" y2="1819.3" stroke="rgb(0,0,108)" /><line x1="2740.6" y1="2243.6" x2="2090.2" y2="2243.6" stroke="rgb(0,0,108)" /><line x1="2090.2" y1="2243.6" x2="2018.2" y2="2243.6" stroke="rgb(0,0,108)" /><line x1="2981.4" y1="2243.6" x2="2774.1" y2="2243.6" stroke="rgb(0,0,108)" /><line x1="2774.1" y1="214.5" x2="2656.2" y2="214.5" stroke="rgb(0,0,108)" /><line x1="1351.4" y1="457.8" x2="1351.4" y2="371.0" stroke="rgb(0,0,108)" /><line x1="470.1" y1="2243.6" x2="797.4" y2="2243.6" stroke="rgb(0,0,108)" /><line x1="1850.8" y1="214.5" x2="1997.1" y2="214.5" stroke="rgb(0,0,108)" /><line x1="2036.7" y1="214.5" x2="2150.1" y2="214.5" stroke="rgb(0,0,108)" /><line x1="2090.2" y1="1890.0" x2="2090.2" y2="1819.3" stroke="rgb(0,0,108)" /><line x1="1402.3" y1="289.5" x2="1783.3" y2="289.5" stroke="rgb(0,0,108)" /><line x1="1102.5" y1="959.8" x2="1222.2" y2="959.8" stroke="rgb(0,0,108)" /><line x1="470.1" y1="959.8" x2="587.6" y2="959.8" stroke="rgb(0,0,108)" /><line x1="1850.8" y1="708.8" x2="1850.8" y2="590.9" stroke="rgb(0,0,108)" /><line x1="829.0" y1="289.5" x2="470.1" y2="289.5" stroke="rgb(0,0,108)" /><line x1="421.9" y1="2119.7" x2="470.1" y2="2243.6" stroke="rgb(0,0,108)" /><line x1="421.9" y1="2028.4" x2="421.9" y2="1565.8" stroke="rgb(0,0,108)" /><line x1="470.1" y1="959.8" x2="421.9" y2="899.7" stroke="rgb(0,0,108)" /><line x1="1761.3" y1="708.8" x2="1850.8" y2="708.8" stroke="rgb(0,0,108)" /><line x1="860.2" y1="2243.6" x2="1351.4" y2="2243.6" stroke="rgb(0,0,108)" /><line x1="2018.2" y1="1489.7" x2="1850.8" y2="1489.7" stroke="rgb(0,0,108)" /><line x1="2090.2" y1="1761.1" x2="2090.2" y2="1565.8" stroke="rgb(155,0,0)" /><line x1="1598.5" y1="1819.3" x2="1850.8" y2="1819.3" stroke="rgb(155,0,0)" /><line x1="1850.8" y1="1407.9" x2="1850.8" y2="1231.0" stroke="rgb(155,0,0)" /><line x1="1850.8" y1="959.8" x2="1850.8" y2="742.1" stroke="rgb(155,0,0)" /><line x1="1402.3" y1="1565.8" x2="1402.3" y2="1761.1" stroke="rgb(155,0,0)" /><line x1="1598.5" y1="1407.9" x2="1598.5" y2="1231.0" stroke="rgb(155,0,0)" /><line x1="1351.4" y1="899.7" x2="1351.4" y2="742.1" stroke="rgb(155,0,0)" /><line x1="1726.5" y1="691.0" x2="1598.5" y2="691.0" stroke="rgb(155,0,0)" /></g>

  
  <g opacity="1.0">
    <circle cx="1850.8" cy="189.5" r="4.0" fill="rgb(0,157,0)" />
    <circle cx="2597.6" cy="214.5" r="4.0" fill="rgb(0,157,0)" />
    <circle cx="2150.1" cy="214.5" r="4.0" fill="rgb(0,157,0)" />
    <circle cx="2656.2" cy="214.5" r="4.0" fill="rgb(0,157,0)" />
    <circle cx="2897.7" cy="214.5" r="4.0" fill="rgb(0,157,0)" />
    <circle cx="2180.0" cy="214.5" r="4.0" fill="rgb(0,157,0)" />
    <circle cx="2958.7" cy="214.5" r="4.0" fill="rgb(0,157,0)" />
    <circle cx="1997.1" cy="214.5" r="4.0" fill="rgb(0,157,0)" />
    <circle cx="2036.7" cy="214.5" r="4.0" fill="rgb(0,157,0)" />
    <circle cx="1850.8" cy="289.5" r="4.0" fill="rgb(0,157,0)" />
    <circle cx="1402.3" cy="289.5" r="4.0" fill="rgb(0,157,0)" />
    <circle cx="470.1" cy="289.5" r="4.0" fill="rgb(0,157,0)" />
    <circle cx="860.2" cy="289.5" r="4.0" fill="rgb(0,157,0)" />
    <circle cx="1783.3" cy="289.5" r="4.0" fill="rgb(0,157,0)" />
    <circle cx="829.0" cy="289.5" r="4.0" fill="rgb(0,157,0)" />
    <circle cx="421.9" cy="289.5" r="4.0" fill="rgb(0,157,0)" />
    <circle cx="1351.4" cy="289.5" r="4.0" fill="rgb(0,157,0)" />
    <circle cx="1850.8" cy="320.0" r="4.0" fill="rgb(0,157,0)" />
    <circle cx="421.9" cy="441.5" r="4.0" fill="rgb(0,157,0)" />
    <circle cx="1850.8" cy="557.0" r="4.0" fill="rgb(0,157,0)" />
    <circle cx="1850.8" cy="590.9" r="4.0" fill="rgb(0,157,0)" />
    <circle cx="1598.5" cy="691.0" r="4.0" fill="rgb(0,157,0)" />
    <circle cx="1726.5" cy="691.0" r="4.0" fill="rgb(0,157,0)" />
    <circle cx="1351.4" cy="708.8" r="4.0" fill="rgb(0,157,0)" />
    <circle cx="1761.3" cy="708.8" r="4.0" fill="rgb(0,157,0)" />
    <circle cx="1850.8" cy="708.8" r="4.0" fill="rgb(0,157,0)" />
    <circle cx="1598.5" cy="742.1" r="4.0" fill="rgb(0,157,0)" />
    <circle cx="1351.4" cy="742.1" r="4.0" fill="rgb(0,157,0)" />
    <circle cx="1850.8" cy="742.1" r="4.0" fill="rgb(0,157,0)" />
    <circle cx="1351.4" cy="899.7" r="4.0" fill="rgb(0,157,0)" />
    <circle cx="1850.8" cy="959.8" r="4.0" fill="rgb(0,157,0)" />
    <circle cx="1351.4" cy="959.8" r="4.0" fill="rgb(0,157,0)" />
    <circle cx="889.1" cy="959.8" r="4.0" fill="rgb(0,157,0)" />
    <circle cx="829.0" cy="959.8" r="4.0" fill="rgb(0,157,0)" />
    <circle cx="980.7" cy="959.8" r="4.0" fill="rgb(0,157,0)" />
    <circle cx="1102.5" cy="959.8" r="4.0" fill="rgb(0,157,0)" />
    <circle cx="1310.5" cy="959.8" r="4.0" fill="rgb(0,157,0)" />
    <circle cx="1850.8" cy="1021.0" r="4.0" fill="rgb(0,157,0)" />
    <circle cx="1850.8" cy="1150.0" r="4.0" fill="rgb(0,157,0)" />
    <circle cx="1850.8" cy="1231.0" r="4.0" fill="rgb(0,157,0)" />
    <circle cx="1598.5" cy="1231.0" r="4.0" fill="rgb(155,0,0)" />
    <circle cx="1850.8" cy="1407.9" r="4.0" fill="rgb(0,157,0)" />
    <circle cx="1598.5" cy="1407.9" r="4.0" fill="rgb(0,157,0)" />
    <circle cx="1598.5" cy="1460.0" r="4.0" fill="rgb(0,157,0)" />
    <circle cx="1850.8" cy="1474.9" r="4.0" fill="rgb(0,157,0)" />
    <circle cx="1850.8" cy="1489.7" r="4.0" fill="rgb(0,157,0)" />
    <circle cx="2090.2" cy="1565.8" r="4.0" fill="rgb(155,0,0)" />
    <circle cx="421.9" cy="1565.8" r="4.0" fill="rgb(0,157,0)" />
    <circle cx="700.0" cy="1565.8" r="4.0" fill="rgb(0,157,0)" />
    <circle cx="1402.3" cy="1565.8" r="4.0" fill="rgb(155,0,0)" />
    <circle cx="2090.2" cy="1761.1" r="4.0" fill="rgb(0,157,0)" />
    <circle cx="1402.3" cy="1761.1" r="4.0" fill="rgb(0,157,0)" />
    <circle cx="1850.8" cy="1819.3" r="4.0" fill="rgb(155,0,0)" />
    <circle cx="1402.3" cy="1819.3" r="4.0" fill="rgb(0,157,0)" />
    <circle cx="1598.5" cy="1819.3" r="4.0" fill="rgb(155,0,0)" />
    <circle cx="2090.2" cy="1819.3" r="4.0" fill="rgb(0,157,0)" />
    <circle cx="2090.2" cy="2220.0" r="4.0" fill="rgb(0,157,0)" />
    <circle cx="1402.3" cy="2243.6" r="4.0" fill="rgb(0,157,0)" />
    <circle cx="2018.2" cy="2243.6" r="4.0" fill="rgb(0,157,0)" />
    <circle cx="1351.4" cy="2243.6" r="4.0" fill="rgb(0,157,0)" />
    <circle cx="1997.1" cy="2243.6" r="4.0" fill="rgb(0,157,0)" />
    <circle cx="797.4" cy="2243.6" r="4.0" fill="rgb(0,157,0)" />
    <circle cx="2774.1" cy="2243.6" r="4.0" fill="rgb(0,157,0)" />
    <circle cx="860.2" cy="2243.6" r="4.0" fill="rgb(0,157,0)" />
    <circle cx="2740.6" cy="2243.6" r="4.0" fill="rgb(0,157,0)" />
    <circle cx="2090.2" cy="2270.6" r="4.0" fill="rgb(0,157,0)" />
  </g>

</svg>