<?xml version="1.0" encoding="utf-8"?>
<svg width="3000" height="3000" xmlns="http://www.w3.org/2000/svg">
  <!-- Sfondo nero -->
  <rect width="3000" height="3000" fill="black"/>

  <!-- Connessioni tra punti significativi -->
  <g stroke-width="2.0" fill="none" opacity="0.8">
    <line x1="1386.3" y1="1612.9" x2="1404.6" y2="1576.9" stroke="rgb(155,0,0)" />
    <line x1="1385.5" y1="1560.0" x2="700.0" y2="1560.0" stroke="rgb(0,0,219)" />
    <line x1="1338.3" y1="2244.1" x2="1399.0" y2="2239.0" stroke="rgb(155,0,0)" />
    <line x1="1821.7" y1="1809.3" x2="1781.2" y2="1829.7" stroke="rgb(155,0,0)" />
    <line x1="417.8" y1="2028.4" x2="417.3" y2="2119.7" stroke="rgb(0,0,219)" />
    <line x1="1761.3" y1="708.6" x2="1726.5" y2="690.0" stroke="rgb(155,0,0)" />
    <line x1="2075.9" y1="1737.9" x2="2102.5" y2="1744.7" stroke="rgb(155,0,0)" />
    <line x1="1598.5" y1="1571.0" x2="1597.1" y2="1552.4" stroke="rgb(0,0,108)" />
    <line x1="700.0" y1="1560.0" x2="1385.5" y2="1560.0" stroke="rgb(0,0,219)" />
    <line x1="417.0" y1="829.0" x2="417.5" y2="891.5" stroke="rgb(0,0,219)" />
    <line x1="656.2" y1="973.9" x2="587.6" y2="955.1" stroke="rgb(0,0,219)" />
    <line x1="859.7" y1="287.4" x2="1312.0" y2="287.2" stroke="rgb(0,0,108)" />
    <line x1="1040.0" y1="959.6" x2="980.7" y2="959.4" stroke="rgb(0,0,108)" />
    <line x1="1602.8" y1="976.6" x2="1603.1" y2="1190.2" stroke="rgb(0,0,108)" />
    <line x1="1451.0" y1="2244.6" x2="1996.3" y2="2244.1" stroke="rgb(0,0,108)" />
    <line x1="1401.1" y1="287.0" x2="1350.0" y2="305.5" stroke="rgb(0,0,219)" />
    <line x1="1785.5" y1="287.5" x2="1840.0" y2="278.5" stroke="rgb(0,0,219)" />
    <line x1="1386.3" y1="1612.9" x2="1385.5" y2="1757.7" stroke="rgb(155,0,0)" />
    <line x1="1850.0" y1="978.5" x2="1855.6" y2="1029.8" stroke="rgb(0,0,108)" />
    <line x1="2597.6" y1="214.6" x2="2180.0" y2="215.0" stroke="rgb(0,0,108)" />
    <line x1="551.2" y1="1559.6" x2="489.8" y2="1559.5" stroke="rgb(0,0,108)" />
    <line x1="1619.5" y1="956.8" x2="1602.8" y2="976.6" stroke="rgb(155,0,0)" />
    <line x1="1588.2" y1="1249.4" x2="1598.1" y2="1229.0" stroke="rgb(155,0,0)" />
    <line x1="2210.0" y1="1017.0" x2="2960.5" y2="1018.6" stroke="rgb(0,0,108)" />
    <line x1="683.2" y1="959.6" x2="828.1" y2="959.4" stroke="rgb(0,0,219)" />
    <line x1="1849.0" y1="557.0" x2="1848.7" y2="442.9" stroke="rgb(0,0,108)" />
    <line x1="1414.9" y1="1814.8" x2="1600.0" y2="1817.0" stroke="rgb(0,0,108)" />
    <line x1="1861.5" y1="768.5" x2="1866.5" y2="790.0" stroke="rgb(155,0,0)" />
    <line x1="2101.5" y1="2240.0" x2="2740.6" y2="2244.6" stroke="rgb(0,0,108)" />
    <line x1="2982.8" y1="2245.0" x2="2769.3" y2="2244.3" stroke="rgb(0,0,108)" />
    <line x1="1865.1" y1="909.8" x2="1866.5" y2="790.0" stroke="rgb(155,0,0)" />
    <line x1="1588.0" y1="1401.1" x2="1588.2" y2="1249.4" stroke="rgb(155,0,0)" />
    <line x1="1849.0" y1="1474.9" x2="1848.5" y2="1420.0" stroke="rgb(0,0,219)" />
    <line x1="1620.2" y1="1241.7" x2="1610.5" y2="1230.0" stroke="rgb(155,0,0)" />
    <line x1="860.6" y1="2244.6" x2="797.4" y2="2244.3" stroke="rgb(0,0,219)" />
    <line x1="2778.8" y1="215.1" x2="2656.2" y2="214.7" stroke="rgb(0,0,108)" />
    <line x1="658.4" y1="1516.4" x2="666.3" y2="1557.1" stroke="rgb(0,0,108)" />
    <line x1="1840.0" y1="278.5" x2="1850.0" y2="320.0" stroke="rgb(0,0,108)" />
    <line x1="2020.0" y1="1490.0" x2="2074.5" y2="1490.0" stroke="rgb(0,0,219)" />
    <line x1="1855.6" y1="1029.8" x2="1850.0" y2="1150.0" stroke="rgb(0,0,108)" />
    <line x1="1366.1" y1="898.6" x2="1352.1" y2="918.7" stroke="rgb(155,0,0)" />
    <line x1="1857.7" y1="942.6" x2="1850.0" y2="978.5" stroke="rgb(155,0,0)" />
    <line x1="2079.3" y1="2244.4" x2="2016.5" y2="2243.9" stroke="rgb(0,0,108)" />
    <line x1="1350.0" y1="457.8" x2="1352.6" y2="371.0" stroke="rgb(0,0,108)" />
    <line x1="2089.4" y1="1508.3" x2="2111.5" y2="1490.0" stroke="rgb(0,0,108)" />
    <line x1="1781.2" y1="1829.7" x2="1679.8" y2="1829.6" stroke="rgb(155,0,0)" />
    <line x1="439.0" y1="1560.0" x2="489.8" y2="1559.5" stroke="rgb(0,0,219)" />
    <line x1="1345.7" y1="951.0" x2="1309.0" y2="959.5" stroke="rgb(0,0,108)" />
    <line x1="1588.0" y1="1401.1" x2="1597.7" y2="1421.7" stroke="rgb(155,0,0)" />
    <line x1="1385.5" y1="1757.7" x2="1386.3" y2="1612.9" stroke="rgb(155,0,0)" />
    <line x1="2656.2" y1="214.7" x2="2597.6" y2="214.6" stroke="rgb(0,0,219)" />
    <line x1="1398.7" y1="1781.3" x2="1414.9" y2="1814.8" stroke="rgb(0,0,108)" />
    <line x1="1850.0" y1="1150.0" x2="1850.0" y2="1180.0" stroke="rgb(0,0,219)" />
    <line x1="1849.0" y1="557.0" x2="1848.7" y2="590.9" stroke="rgb(0,0,219)" />
    <line x1="2101.2" y1="1568.4" x2="2089.4" y2="1545.6" stroke="rgb(155,0,0)" />
    <line x1="470.3" y1="2244.2" x2="797.4" y2="2244.3" stroke="rgb(0,0,108)" />
    <line x1="1877.8" y1="210.2" x2="1997.9" y2="215.2" stroke="rgb(0,0,108)" />
    <line x1="1588.5" y1="690.0" x2="1575.0" y2="709.2" stroke="rgb(155,0,0)" />
    <line x1="1575.0" y1="709.2" x2="1370.0" y2="708.5" stroke="rgb(0,0,219)" />
    <line x1="1679.8" y1="1829.6" x2="1781.2" y2="1829.7" stroke="rgb(155,0,0)" />
    <line x1="1679.8" y1="1829.6" x2="1600.0" y2="1817.0" stroke="rgb(155,0,0)" />
    <line x1="980.7" y1="959.4" x2="1040.0" y2="959.6" stroke="rgb(0,0,108)" />
    <line x1="1451.0" y1="2244.6" x2="1399.0" y2="2239.0" stroke="rgb(0,0,108)" />
    <line x1="2033.3" y1="215.3" x2="2150.1" y2="214.7" stroke="rgb(0,0,108)" />
    <line x1="1367.7" y1="968.1" x2="1578.5" y2="968.1" stroke="rgb(0,0,219)" />
    <line x1="1602.8" y1="976.6" x2="1578.5" y2="968.1" stroke="rgb(0,0,108)" />
    <line x1="2088.1" y1="1823.4" x2="2089.0" y2="1890.0" stroke="rgb(0,0,108)" />
    <line x1="1345.7" y1="951.0" x2="1367.7" y2="968.1" stroke="rgb(0,0,108)" />
    <line x1="828.1" y1="959.4" x2="889.1" y2="959.0" stroke="rgb(0,0,108)" />
    <line x1="1996.3" y1="2244.1" x2="2016.5" y2="2243.9" stroke="rgb(0,0,219)" />
    <line x1="1611.4" y1="1582.4" x2="1598.5" y2="1571.0" stroke="rgb(155,0,0)" />
    <line x1="1403.0" y1="2200.0" x2="1399.0" y2="2239.0" stroke="rgb(0,0,108)" />
    <line x1="420.0" y1="349.0" x2="423.2" y2="409.6" stroke="rgb(0,0,108)" />
    <line x1="607.8" y1="1559.5" x2="551.2" y2="1559.6" stroke="rgb(0,0,219)" />
    <line x1="1404.6" y1="1576.9" x2="1385.5" y2="1560.0" stroke="rgb(0,0,108)" />
    <line x1="1401.1" y1="287.0" x2="1785.5" y2="287.5" stroke="rgb(0,0,108)" />
    <line x1="1102.5" y1="959.5" x2="1222.2" y2="959.2" stroke="rgb(0,0,108)" />
    <line x1="1821.7" y1="1809.3" x2="1860.0" y2="1815.0" stroke="rgb(0,0,108)" />
    <line x1="2088.1" y1="1823.4" x2="2089.3" y2="1775.7" stroke="rgb(0,0,108)" />
    <line x1="1350.0" y1="305.5" x2="1401.1" y2="287.0" stroke="rgb(0,0,219)" />
    <line x1="2150.1" y1="214.7" x2="2180.0" y2="215.0" stroke="rgb(0,0,219)" />
    <line x1="2778.8" y1="215.1" x2="2897.7" y2="214.7" stroke="rgb(0,0,219)" />
    <line x1="666.3" y1="1557.1" x2="700.0" y2="1560.0" stroke="rgb(0,0,108)" />
    <line x1="417.5" y1="891.5" x2="417.0" y2="829.0" stroke="rgb(0,0,219)" />
    <line x1="1597.1" y1="1552.4" x2="1602.5" y2="1460.0" stroke="rgb(0,0,219)" />
    <line x1="470.7" y1="955.1" x2="587.6" y2="955.1" stroke="rgb(0,0,108)" />
    <line x1="1845.5" y1="708.8" x2="1849.0" y2="740.0" stroke="rgb(0,0,108)" />
    <line x1="829.9" y1="287.8" x2="469.4" y2="287.3" stroke="rgb(0,0,108)" />
    <line x1="1578.5" y1="968.1" x2="1367.7" y2="968.1" stroke="rgb(0,0,219)" />
    <line x1="2107.0" y1="1710.0" x2="2102.5" y2="1744.7" stroke="rgb(155,0,0)" />
    <line x1="489.8" y1="1559.5" x2="439.0" y2="1560.0" stroke="rgb(0,0,219)" />
    <line x1="419.4" y1="474.0" x2="417.0" y2="829.0" stroke="rgb(0,0,108)" />
    <line x1="2101.5" y1="2240.0" x2="2079.3" y2="2244.4" stroke="rgb(0,0,108)" />
    <line x1="2089.3" y1="1775.7" x2="2088.1" y2="1823.4" stroke="rgb(0,0,108)" />
    <line x1="1598.1" y1="1229.0" x2="1610.5" y2="1230.0" stroke="rgb(0,0,108)" />
    <line x1="417.3" y1="2119.7" x2="470.3" y2="2244.2" stroke="rgb(0,0,108)" />
    <line x1="1865.7" y1="1357.7" x2="1853.3" y2="1396.9" stroke="rgb(155,0,0)" />
    <line x1="1848.7" y1="590.9" x2="1845.5" y2="708.8" stroke="rgb(0,0,108)" />
    <line x1="417.8" y1="2028.4" x2="420.0" y2="1583.5" stroke="rgb(0,0,108)" />
    <line x1="1350.0" y1="693.0" x2="1370.0" y2="708.5" stroke="rgb(0,0,219)" />
    <line x1="889.1" y1="959.0" x2="828.1" y2="959.4" stroke="rgb(0,0,108)" />
    <line x1="470.7" y1="955.1" x2="417.5" y2="891.5" stroke="rgb(0,0,108)" />
    <line x1="1420.0" y1="1769.5" x2="1398.7" y2="1781.3" stroke="rgb(155,0,0)" />
    <line x1="656.2" y1="973.9" x2="658.4" y2="1516.4" stroke="rgb(0,0,108)" />
    <line x1="417.3" y1="2119.7" x2="417.8" y2="2028.4" stroke="rgb(0,0,219)" />
    <line x1="607.8" y1="1559.5" x2="666.3" y2="1557.1" stroke="rgb(0,0,108)" />
    <line x1="1399.0" y1="2239.0" x2="1451.0" y2="2244.6" stroke="rgb(0,0,108)" />
    <line x1="2101.2" y1="1568.4" x2="2069.8" y2="1577.6" stroke="rgb(155,0,0)" />
    <line x1="1781.2" y1="1829.7" x2="1821.7" y2="1809.3" stroke="rgb(155,0,0)" />
    <line x1="1848.7" y1="442.9" x2="1849.0" y2="557.0" stroke="rgb(0,0,108)" />
    <line x1="469.4" y1="287.3" x2="427.3" y2="297.3" stroke="rgb(155,0,0)" />
    <line x1="1829.0" y1="1385.6" x2="1853.3" y2="1396.9" stroke="rgb(155,0,0)" />
    <line x1="2150.1" y1="214.7" x2="2033.3" y2="215.3" stroke="rgb(0,0,108)" />
    <line x1="2897.7" y1="214.7" x2="2778.8" y2="215.1" stroke="rgb(0,0,219)" />
    <line x1="1597.7" y1="1421.7" x2="1611.3" y2="1421.3" stroke="rgb(0,0,108)" />
    <line x1="1332.5" y1="880.0" x2="1334.3" y2="755.2" stroke="rgb(155,0,0)" />
    <line x1="1040.0" y1="959.6" x2="1102.5" y2="959.5" stroke="rgb(0,0,219)" />
    <line x1="2740.6" y1="2244.6" x2="2769.3" y2="2244.3" stroke="rgb(0,0,219)" />
    <line x1="420.0" y1="349.0" x2="427.3" y2="297.3" stroke="rgb(0,0,219)" />
    <line x1="587.6" y1="955.1" x2="470.7" y2="955.1" stroke="rgb(0,0,108)" />
    <line x1="1345.7" y1="951.0" x2="1352.1" y2="918.7" stroke="rgb(0,0,108)" />
    <line x1="1850.0" y1="320.0" x2="1848.7" y2="442.9" stroke="rgb(0,0,219)" />
    <line x1="2069.2" y1="2270.6" x2="2079.3" y2="2244.4" stroke="rgb(155,0,0)" />
    <line x1="1350.0" y1="693.0" x2="1350.0" y2="457.8" stroke="rgb(0,0,219)" />
    <line x1="1312.0" y1="287.2" x2="1350.0" y2="305.5" stroke="rgb(0,0,108)" />
    <line x1="1352.6" y1="371.0" x2="1350.0" y2="457.8" stroke="rgb(0,0,108)" />
    <line x1="1865.7" y1="1357.7" x2="1866.5" y2="1240.0" stroke="rgb(155,0,0)" />
    <line x1="2956.9" y1="215.1" x2="2897.7" y2="214.7" stroke="rgb(0,0,108)" />
    <line x1="2101.5" y1="2240.0" x2="2089.0" y2="2220.0" stroke="rgb(0,0,108)" />
    <line x1="797.4" y1="2244.3" x2="860.6" y2="2244.6" stroke="rgb(0,0,219)" />
    <line x1="1877.8" y1="210.2" x2="1849.0" y2="245.6" stroke="rgb(0,0,108)" />
    <line x1="489.8" y1="1559.5" x2="551.2" y2="1559.6" stroke="rgb(0,0,108)" />
    <line x1="1598.1" y1="1229.0" x2="1603.1" y2="1190.2" stroke="rgb(0,0,108)" />
    <line x1="423.2" y1="409.6" x2="422.9" y2="440.1" stroke="rgb(0,0,219)" />
    <line x1="1102.5" y1="959.5" x2="1040.0" y2="959.6" stroke="rgb(0,0,219)" />
    <line x1="2180.0" y1="215.0" x2="2597.6" y2="214.6" stroke="rgb(0,0,108)" />
    <line x1="1761.3" y1="708.6" x2="1845.5" y2="708.8" stroke="rgb(0,0,108)" />
    <line x1="1361.0" y1="749.0" x2="1349.0" y2="735.8" stroke="rgb(155,0,0)" />
    <line x1="860.6" y1="2244.6" x2="1338.3" y2="2244.1" stroke="rgb(0,0,108)" />
    <line x1="797.4" y1="2244.3" x2="470.3" y2="2244.2" stroke="rgb(0,0,108)" />
    <line x1="1312.0" y1="287.2" x2="859.7" y2="287.4" stroke="rgb(0,0,108)" />
    <line x1="683.2" y1="959.6" x2="656.2" y2="973.9" stroke="rgb(0,0,219)" />
    <line x1="417.5" y1="891.5" x2="470.7" y2="955.1" stroke="rgb(0,0,108)" />
    <line x1="420.0" y1="1583.5" x2="417.8" y2="2028.4" stroke="rgb(0,0,108)" />
    <line x1="1849.8" y1="1207.6" x2="1850.0" y2="1180.0" stroke="rgb(0,0,108)" />
    <line x1="1866.5" y1="1240.0" x2="1865.7" y2="1357.7" stroke="rgb(155,0,0)" />
    <line x1="1570.0" y1="1560.0" x2="1424.0" y2="1560.0" stroke="rgb(0,0,219)" />
    <line x1="1861.5" y1="768.5" x2="1849.0" y2="740.0" stroke="rgb(155,0,0)" />
    <line x1="1855.6" y1="1029.8" x2="1850.0" y2="978.5" stroke="rgb(0,0,108)" />
    <line x1="1829.3" y1="1219.3" x2="1849.8" y2="1207.6" stroke="rgb(155,0,0)" />
    <line x1="2074.5" y1="1490.0" x2="2020.0" y2="1490.0" stroke="rgb(0,0,219)" />
    <line x1="1808.8" y1="1796.7" x2="1821.7" y2="1809.3" stroke="rgb(155,0,0)" />
    <line x1="1332.5" y1="880.0" x2="1352.1" y2="918.7" stroke="rgb(155,0,0)" />
    <line x1="1850.0" y1="1150.0" x2="1855.6" y2="1029.8" stroke="rgb(0,0,108)" />
    <line x1="1838.8" y1="934.4" x2="1857.7" y2="942.6" stroke="rgb(155,0,0)" />
    <line x1="2101.2" y1="1568.4" x2="2107.0" y2="1590.0" stroke="rgb(155,0,0)" />
    <line x1="1726.5" y1="690.0" x2="1588.5" y2="690.0" stroke="rgb(155,0,0)" />
    <line x1="1370.0" y1="708.5" x2="1575.0" y2="709.2" stroke="rgb(0,0,219)" />
    <line x1="1352.6" y1="371.0" x2="1350.0" y2="305.5" stroke="rgb(0,0,219)" />
    <line x1="1404.6" y1="1576.9" x2="1386.3" y2="1612.9" stroke="rgb(155,0,0)" />
    <line x1="1849.0" y1="245.6" x2="1877.8" y2="210.2" stroke="rgb(0,0,108)" />
    <line x1="1865.1" y1="909.8" x2="1857.7" y2="942.6" stroke="rgb(155,0,0)" />
    <line x1="2210.0" y1="1017.0" x2="1884.3" y2="1018.7" stroke="rgb(0,0,108)" />
    <line x1="1370.0" y1="708.5" x2="1349.0" y2="735.8" stroke="rgb(0,0,219)" />
    <line x1="2089.4" y1="1508.3" x2="2074.5" y2="1490.0" stroke="rgb(0,0,108)" />
    <line x1="417.0" y1="829.0" x2="419.4" y2="474.0" stroke="rgb(0,0,108)" />
    <line x1="1309.0" y1="959.5" x2="1222.2" y2="959.2" stroke="rgb(0,0,219)" />
    <line x1="1997.9" y1="215.2" x2="1877.8" y2="210.2" stroke="rgb(0,0,108)" />
    <line x1="469.4" y1="287.3" x2="829.9" y2="287.8" stroke="rgb(0,0,108)" />
    <line x1="1853.3" y1="1396.9" x2="1848.5" y2="1420.0" stroke="rgb(0,0,108)" />
    <line x1="1597.7" y1="1421.7" x2="1602.5" y2="1460.0" stroke="rgb(0,0,108)" />
    <line x1="1884.3" y1="1018.7" x2="1855.6" y2="1029.8" stroke="rgb(0,0,108)" />
    <line x1="2020.0" y1="1490.0" x2="1868.2" y2="1488.6" stroke="rgb(0,0,108)" />
    <line x1="2040.0" y1="1815.0" x2="1860.0" y2="1815.0" stroke="rgb(0,0,108)" />
    <line x1="1334.3" y1="755.2" x2="1332.5" y2="880.0" stroke="rgb(155,0,0)" />
    <line x1="1997.9" y1="215.2" x2="2033.3" y2="215.3" stroke="rgb(0,0,219)" />
    <line x1="1399.0" y1="2239.0" x2="1338.3" y2="2244.1" stroke="rgb(155,0,0)" />
    <line x1="658.4" y1="1516.4" x2="656.2" y2="973.9" stroke="rgb(0,0,108)" />
    <line x1="2897.7" y1="214.7" x2="2956.9" y2="215.1" stroke="rgb(0,0,108)" />
    <line x1="2089.0" y1="1890.0" x2="2088.1" y2="1823.4" stroke="rgb(0,0,108)" />
    <line x1="1848.5" y1="1420.0" x2="1849.0" y2="1474.9" stroke="rgb(0,0,219)" />
    <line x1="1600.0" y1="1817.0" x2="1414.9" y2="1814.8" stroke="rgb(0,0,108)" />
    <line x1="2960.5" y1="1018.6" x2="2210.0" y2="1017.0" stroke="rgb(0,0,108)" />
    <line x1="1588.5" y1="690.0" x2="1726.5" y2="690.0" stroke="rgb(155,0,0)" />
    <line x1="419.4" y1="474.0" x2="422.9" y2="440.1" stroke="rgb(0,0,108)" />
    <line x1="1618.5" y1="1409.0" x2="1611.3" y2="1421.3" stroke="rgb(155,0,0)" />
    <line x1="2089.4" y1="1508.3" x2="2089.4" y2="1545.6" stroke="rgb(0,0,108)" />
    <line x1="1588.2" y1="1249.4" x2="1588.0" y2="1401.1" stroke="rgb(155,0,0)" />
    <line x1="587.6" y1="955.1" x2="656.2" y2="973.9" stroke="rgb(0,0,219)" />
    <line x1="1785.5" y1="287.5" x2="1401.1" y2="287.0" stroke="rgb(0,0,108)" />
    <line x1="551.2" y1="1559.6" x2="607.8" y2="1559.5" stroke="rgb(0,0,219)" />
    <line x1="1850.0" y1="320.0" x2="1840.0" y2="278.5" stroke="rgb(0,0,108)" />
    <line x1="1866.5" y1="1240.0" x2="1849.8" y2="1207.6" stroke="rgb(155,0,0)" />
    <line x1="420.0" y1="1583.5" x2="439.0" y2="1560.0" stroke="rgb(0,0,108)" />
    <line x1="828.1" y1="959.4" x2="683.2" y2="959.6" stroke="rgb(0,0,219)" />
    <line x1="1868.2" y1="1488.6" x2="2020.0" y2="1490.0" stroke="rgb(0,0,108)" />
    <line x1="1861.5" y1="768.5" x2="1836.1" y2="776.0" stroke="rgb(155,0,0)" />
    <line x1="1350.0" y1="305.5" x2="1312.0" y2="287.2" stroke="rgb(0,0,108)" />
    <line x1="2016.5" y1="2243.9" x2="2079.3" y2="2244.4" stroke="rgb(0,0,108)" />
    <line x1="1726.5" y1="690.0" x2="1761.3" y2="708.6" stroke="rgb(155,0,0)" />
    <line x1="829.9" y1="287.8" x2="859.7" y2="287.4" stroke="rgb(0,0,219)" />
    <line x1="1845.5" y1="708.8" x2="1848.7" y2="590.9" stroke="rgb(0,0,108)" />
    <line x1="2656.2" y1="214.7" x2="2778.8" y2="215.1" stroke="rgb(0,0,108)" />
    <line x1="1404.7" y1="1842.1" x2="1403.0" y2="2200.0" stroke="rgb(0,0,108)" />
    <line x1="1338.3" y1="2244.1" x2="860.6" y2="2244.6" stroke="rgb(0,0,108)" />
    <line x1="2107.0" y1="1710.0" x2="2107.0" y2="1590.0" stroke="rgb(155,0,0)" />
    <line x1="2102.5" y1="1744.7" x2="2089.3" y2="1775.7" stroke="rgb(155,0,0)" />
    <line x1="1600.0" y1="1817.0" x2="1679.8" y2="1829.6" stroke="rgb(155,0,0)" />
    <line x1="427.3" y1="297.3" x2="469.4" y2="287.3" stroke="rgb(155,0,0)" />
    <line x1="1849.0" y1="245.6" x2="1840.0" y2="278.5" stroke="rgb(0,0,219)" />
    <line x1="1570.0" y1="1560.0" x2="1597.1" y2="1552.4" stroke="rgb(0,0,219)" />
    <line x1="889.1" y1="959.0" x2="980.7" y2="959.4" stroke="rgb(0,0,219)" />
    <line x1="1868.2" y1="1488.6" x2="1849.0" y2="1474.9" stroke="rgb(0,0,108)" />
    <line x1="1334.3" y1="755.2" x2="1349.0" y2="735.8" stroke="rgb(155,0,0)" />
    <line x1="1414.9" y1="1814.8" x2="1404.7" y2="1842.1" stroke="rgb(0,0,108)" />
    <line x1="1352.1" y1="918.7" x2="1332.5" y2="880.0" stroke="rgb(155,0,0)" />
    <line x1="1866.5" y1="790.0" x2="1865.1" y2="909.8" stroke="rgb(155,0,0)" />
    <line x1="2111.5" y1="1490.0" x2="2980.0" y2="1490.0" stroke="rgb(0,0,219)" />
    <line x1="2089.0" y1="1890.0" x2="2089.0" y2="2220.0" stroke="rgb(0,0,219)" />
    <line x1="1385.5" y1="1757.7" x2="1398.7" y2="1781.3" stroke="rgb(155,0,0)" />
    <line x1="1222.2" y1="959.2" x2="1309.0" y2="959.5" stroke="rgb(0,0,219)" />
    <line x1="2040.0" y1="1815.0" x2="2088.1" y2="1823.4" stroke="rgb(0,0,108)" />
    <line x1="1222.2" y1="959.2" x2="1102.5" y2="959.5" stroke="rgb(0,0,108)" />
    <line x1="1602.5" y1="1460.0" x2="1597.1" y2="1552.4" stroke="rgb(0,0,219)" />
    <line x1="1404.6" y1="1576.9" x2="1424.0" y2="1560.0" stroke="rgb(0,0,108)" />
    <line x1="1588.2" y1="730.5" x2="1575.0" y2="709.2" stroke="rgb(155,0,0)" />
    <line x1="1829.2" y1="1506.6" x2="1849.0" y2="1474.9" stroke="rgb(155,0,0)" />
    <line x1="666.3" y1="1557.1" x2="607.8" y2="1559.5" stroke="rgb(0,0,108)" />
    <line x1="1403.0" y1="2200.0" x2="1404.7" y2="1842.1" stroke="rgb(0,0,108)" />
    <line x1="2107.0" y1="1590.0" x2="2107.0" y2="1710.0" stroke="rgb(155,0,0)" />
    <line x1="1884.3" y1="1018.7" x2="2210.0" y2="1017.0" stroke="rgb(0,0,108)" />
    <line x1="2089.0" y1="2220.0" x2="2089.0" y2="1890.0" stroke="rgb(0,0,219)" />
    <line x1="2769.3" y1="2244.3" x2="2982.8" y2="2245.0" stroke="rgb(0,0,108)" />
    <line x1="1424.0" y1="1560.0" x2="1570.0" y2="1560.0" stroke="rgb(0,0,219)" />
    <line x1="1350.0" y1="305.5" x2="1352.6" y2="371.0" stroke="rgb(0,0,219)" />
    <line x1="1996.3" y1="2244.1" x2="1451.0" y2="2244.6" stroke="rgb(0,0,108)" />
    <line x1="423.2" y1="409.6" x2="420.0" y2="349.0" stroke="rgb(0,0,108)" />
    <line x1="1350.0" y1="457.8" x2="1350.0" y2="693.0" stroke="rgb(0,0,219)" />
    <line x1="1603.1" y1="1190.2" x2="1602.8" y2="976.6" stroke="rgb(0,0,108)" />
    <line x1="2740.6" y1="2244.6" x2="2101.5" y2="2240.0" stroke="rgb(0,0,108)" />
    <line x1="1860.0" y1="1815.0" x2="2040.0" y2="1815.0" stroke="rgb(0,0,108)" />
    <line x1="1873.8" y1="189.5" x2="1877.8" y2="210.2" stroke="rgb(155,0,0)" />
    <line x1="470.3" y1="2244.2" x2="417.3" y2="2119.7" stroke="rgb(0,0,108)" />
    <line x1="427.3" y1="297.3" x2="420.0" y2="349.0" stroke="rgb(0,0,219)" />
    <line x1="1845.5" y1="708.8" x2="1761.3" y2="708.6" stroke="rgb(0,0,108)" />
    <line x1="980.7" y1="959.4" x2="889.1" y2="959.0" stroke="rgb(0,0,219)" />
    <line x1="2597.6" y1="214.6" x2="2656.2" y2="214.7" stroke="rgb(0,0,219)" />
    <line x1="1848.7" y1="442.9" x2="1850.0" y2="320.0" stroke="rgb(0,0,219)" />
    <line x1="2980.0" y1="1490.0" x2="2111.5" y2="1490.0" stroke="rgb(0,0,219)" />
  </g>

  <!-- Punti significativi -->
  <g opacity="1.0">
    <circle cx="1598.1" cy="1229.0" r="4.0" fill="rgb(0,0,108)" />
    <circle cx="1610.5" cy="1230.0" r="4.0" fill="rgb(0,0,108)" />
    <circle cx="1399.0" cy="2239.0" r="4.0" fill="rgb(0,0,108)" />
    <circle cx="1597.7" cy="1421.7" r="4.0" fill="rgb(0,0,108)" />
    <circle cx="1611.3" cy="1421.3" r="4.0" fill="rgb(0,0,108)" />
    <circle cx="2088.1" cy="1823.4" r="4.0" fill="rgb(0,0,108)" />
    <circle cx="1598.5" cy="1571.0" r="4.0" fill="rgb(0,0,108)" />
    <circle cx="1597.1" cy="1552.4" r="4.0" fill="rgb(0,0,219)" />
    <circle cx="1350.0" cy="305.5" r="4.0" fill="rgb(0,0,219)" />
    <circle cx="1877.8" cy="210.2" r="4.0" fill="rgb(0,0,108)" />
    <circle cx="1840.0" cy="278.5" r="4.0" fill="rgb(0,0,219)" />
    <circle cx="1850.0" cy="320.0" r="4.0" fill="rgb(0,0,108)" />
    <circle cx="2101.5" cy="2240.0" r="4.0" fill="rgb(0,0,108)" />
    <circle cx="2079.3" cy="2244.4" r="4.0" fill="rgb(0,0,108)" />
    <circle cx="1845.5" cy="708.8" r="4.0" fill="rgb(0,0,108)" />
    <circle cx="2089.0" cy="2220.0" r="4.0" fill="rgb(0,0,108)" />
    <circle cx="1868.2" cy="1488.6" r="4.0" fill="rgb(0,0,108)" />
    <circle cx="1849.0" cy="1474.9" r="4.0" fill="rgb(0,0,219)" />
    <circle cx="2089.4" cy="1508.3" r="4.0" fill="rgb(0,0,108)" />
    <circle cx="2074.5" cy="1490.0" r="4.0" fill="rgb(0,0,108)" />
    <circle cx="1853.3" cy="1396.9" r="4.0" fill="rgb(155,0,0)" />
    <circle cx="1848.5" cy="1420.0" r="4.0" fill="rgb(0,0,108)" />
    <circle cx="1785.5" cy="287.5" r="4.0" fill="rgb(0,0,108)" />
    <circle cx="1350.0" cy="457.8" r="4.0" fill="rgb(0,0,108)" />
    <circle cx="1855.6" cy="1029.8" r="4.0" fill="rgb(0,0,108)" />
    <circle cx="420.0" cy="1583.5" r="4.0" fill="rgb(0,0,108)" />
    <circle cx="1404.6" cy="1576.9" r="4.0" fill="rgb(0,0,108)" />
    <circle cx="1385.5" cy="1560.0" r="4.0" fill="rgb(0,0,108)" />
    <circle cx="1312.0" cy="287.2" r="4.0" fill="rgb(0,0,108)" />
    <circle cx="1424.0" cy="1560.0" r="4.0" fill="rgb(0,0,108)" />
    <circle cx="417.5" cy="891.5" r="4.0" fill="rgb(0,0,108)" />
    <circle cx="1602.8" cy="976.6" r="4.0" fill="rgb(0,0,108)" />
    <circle cx="1578.5" cy="968.1" r="4.0" fill="rgb(0,0,108)" />
    <circle cx="2033.3" cy="215.3" r="4.0" fill="rgb(0,0,108)" />
    <circle cx="1850.0" cy="978.5" r="4.0" fill="rgb(0,0,108)" />
    <circle cx="419.4" cy="474.0" r="4.0" fill="rgb(0,0,108)" />
    <circle cx="1884.3" cy="1018.7" r="4.0" fill="rgb(0,0,108)" />
    <circle cx="1848.7" cy="442.9" r="4.0" fill="rgb(0,0,108)" />
    <circle cx="666.3" cy="1557.1" r="4.0" fill="rgb(0,0,108)" />
    <circle cx="2778.8" cy="215.1" r="4.0" fill="rgb(0,0,108)" />
    <circle cx="470.7" cy="955.1" r="4.0" fill="rgb(0,0,108)" />
    <circle cx="587.6" cy="955.1" r="4.0" fill="rgb(0,0,108)" />
    <circle cx="1401.1" cy="287.0" r="4.0" fill="rgb(0,0,108)" />
    <circle cx="1849.8" cy="1207.6" r="4.0" fill="rgb(155,0,0)" />
    <circle cx="1850.0" cy="1180.0" r="4.0" fill="rgb(0,0,108)" />
    <circle cx="1352.6" cy="371.0" r="4.0" fill="rgb(0,0,108)" />
    <circle cx="2210.0" cy="1017.0" r="4.0" fill="rgb(0,0,108)" />
    <circle cx="1040.0" cy="959.6" r="4.0" fill="rgb(0,0,108)" />
    <circle cx="1451.0" cy="2244.6" r="4.0" fill="rgb(0,0,108)" />
    <circle cx="1345.7" cy="951.0" r="4.0" fill="rgb(0,0,108)" />
    <circle cx="1367.7" cy="968.1" r="4.0" fill="rgb(0,0,108)" />
    <circle cx="1603.1" cy="1190.2" r="4.0" fill="rgb(0,0,108)" />
    <circle cx="658.4" cy="1516.4" r="4.0" fill="rgb(0,0,108)" />
    <circle cx="417.0" cy="829.0" r="4.0" fill="rgb(0,0,108)" />
    <circle cx="2180.0" cy="215.0" r="4.0" fill="rgb(0,0,108)" />
    <circle cx="2597.6" cy="214.6" r="4.0" fill="rgb(0,0,108)" />
    <circle cx="1850.0" cy="1150.0" r="4.0" fill="rgb(0,0,108)" />
    <circle cx="1849.0" cy="557.0" r="4.0" fill="rgb(0,0,108)" />
    <circle cx="489.8" cy="1559.5" r="4.0" fill="rgb(0,0,108)" />
    <circle cx="2111.5" cy="1490.0" r="4.0" fill="rgb(0,0,108)" />
    <circle cx="1338.3" cy="2244.1" r="4.0" fill="rgb(0,0,108)" />
    <circle cx="1849.0" cy="245.6" r="4.0" fill="rgb(0,0,108)" />
    <circle cx="1761.3" cy="708.6" r="4.0" fill="rgb(0,0,108)" />
    <circle cx="797.4" cy="2244.3" r="4.0" fill="rgb(0,0,108)" />
    <circle cx="1404.7" cy="1842.1" r="4.0" fill="rgb(0,0,108)" />
    <circle cx="1414.9" cy="1814.8" r="4.0" fill="rgb(0,0,108)" />
    <circle cx="2740.6" cy="2244.6" r="4.0" fill="rgb(0,0,108)" />
    <circle cx="2089.3" cy="1775.7" r="4.0" fill="rgb(0,0,108)" />
    <circle cx="417.8" cy="2028.4" r="4.0" fill="rgb(0,0,108)" />
    <circle cx="2897.7" cy="214.7" r="4.0" fill="rgb(0,0,108)" />
    <circle cx="1102.5" cy="959.5" r="4.0" fill="rgb(0,0,108)" />
    <circle cx="2769.3" cy="2244.3" r="4.0" fill="rgb(0,0,108)" />
    <circle cx="2150.1" cy="214.7" r="4.0" fill="rgb(0,0,108)" />
    <circle cx="2956.9" cy="215.1" r="4.0" fill="rgb(0,0,108)" />
    <circle cx="423.2" cy="409.6" r="4.0" fill="rgb(0,0,108)" />
    <circle cx="1860.0" cy="1815.0" r="4.0" fill="rgb(0,0,108)" />
    <circle cx="2040.0" cy="1815.0" r="4.0" fill="rgb(0,0,108)" />
    <circle cx="1403.0" cy="2200.0" r="4.0" fill="rgb(0,0,108)" />
    <circle cx="439.0" cy="1560.0" r="4.0" fill="rgb(0,0,108)" />
    <circle cx="1997.9" cy="215.2" r="4.0" fill="rgb(0,0,108)" />
    <circle cx="889.1" cy="959.0" r="4.0" fill="rgb(0,0,108)" />
    <circle cx="828.1" cy="959.4" r="4.0" fill="rgb(0,0,108)" />
    <circle cx="420.0" cy="349.0" r="4.0" fill="rgb(0,0,108)" />
    <circle cx="470.3" cy="2244.2" r="4.0" fill="rgb(0,0,108)" />
    <circle cx="859.7" cy="287.4" r="4.0" fill="rgb(0,0,108)" />
    <circle cx="2016.5" cy="2243.9" r="4.0" fill="rgb(0,0,108)" />
    <circle cx="1849.0" cy="740.0" r="4.0" fill="rgb(0,0,108)" />
    <circle cx="469.4" cy="287.3" r="4.0" fill="rgb(0,0,108)" />
    <circle cx="1848.7" cy="590.9" r="4.0" fill="rgb(0,0,108)" />
    <circle cx="980.7" cy="959.4" r="4.0" fill="rgb(0,0,108)" />
    <circle cx="2656.2" cy="214.7" r="4.0" fill="rgb(0,0,108)" />
    <circle cx="1222.2" cy="959.2" r="4.0" fill="rgb(0,0,108)" />
    <circle cx="607.8" cy="1559.5" r="4.0" fill="rgb(0,0,108)" />
    <circle cx="2020.0" cy="1490.0" r="4.0" fill="rgb(0,0,108)" />
    <circle cx="417.3" cy="2119.7" r="4.0" fill="rgb(0,0,108)" />
    <circle cx="2960.5" cy="1018.6" r="4.0" fill="rgb(0,0,108)" />
    <circle cx="829.9" cy="287.8" r="4.0" fill="rgb(0,0,108)" />
    <circle cx="860.6" cy="2244.6" r="4.0" fill="rgb(0,0,108)" />
    <circle cx="551.2" cy="1559.6" r="4.0" fill="rgb(0,0,108)" />
    <circle cx="1352.1" cy="918.7" r="4.0" fill="rgb(155,0,0)" />
    <circle cx="2089.0" cy="1890.0" r="4.0" fill="rgb(0,0,108)" />
    <circle cx="1600.0" cy="1817.0" r="4.0" fill="rgb(0,0,108)" />
    <circle cx="700.0" cy="1560.0" r="4.0" fill="rgb(0,0,108)" />
    <circle cx="422.9" cy="440.1" r="4.0" fill="rgb(0,0,108)" />
    <circle cx="2982.8" cy="2245.0" r="4.0" fill="rgb(0,0,108)" />
    <circle cx="1996.3" cy="2244.1" r="4.0" fill="rgb(0,0,108)" />
    <circle cx="1398.7" cy="1781.3" r="4.0" fill="rgb(155,0,0)" />
    <circle cx="2089.4" cy="1545.6" r="4.0" fill="rgb(0,0,108)" />
    <circle cx="656.2" cy="973.9" r="4.0" fill="rgb(0,0,219)" />
    <circle cx="1309.0" cy="959.5" r="4.0" fill="rgb(0,0,108)" />
    <circle cx="1602.5" cy="1460.0" r="4.0" fill="rgb(0,0,108)" />
    <circle cx="1821.7" cy="1809.3" r="4.0" fill="rgb(155,0,0)" />
    <circle cx="1618.5" cy="1409.0" r="4.0" fill="rgb(155,0,0)" />
    <circle cx="1620.2" cy="1241.7" r="4.0" fill="rgb(155,0,0)" />
    <circle cx="1611.4" cy="1582.4" r="4.0" fill="rgb(155,0,0)" />
    <circle cx="1361.0" cy="749.0" r="4.0" fill="rgb(155,0,0)" />
    <circle cx="1349.0" cy="735.8" r="4.0" fill="rgb(155,0,0)" />
    <circle cx="1808.8" cy="1796.7" r="4.0" fill="rgb(155,0,0)" />
    <circle cx="1838.8" cy="934.4" r="4.0" fill="rgb(155,0,0)" />
    <circle cx="1857.7" cy="942.6" r="4.0" fill="rgb(155,0,0)" />
    <circle cx="1873.8" cy="189.5" r="4.0" fill="rgb(155,0,0)" />
    <circle cx="1588.5" cy="690.0" r="4.0" fill="rgb(155,0,0)" />
    <circle cx="1861.5" cy="768.5" r="4.0" fill="rgb(155,0,0)" />
    <circle cx="1866.5" cy="790.0" r="4.0" fill="rgb(155,0,0)" />
    <circle cx="2101.2" cy="1568.4" r="4.0" fill="rgb(155,0,0)" />
    <circle cx="2107.0" cy="1590.0" r="4.0" fill="rgb(155,0,0)" />
    <circle cx="1588.2" cy="1249.4" r="4.0" fill="rgb(155,0,0)" />
    <circle cx="1588.0" cy="1401.1" r="4.0" fill="rgb(155,0,0)" />
    <circle cx="1575.0" cy="709.2" r="4.0" fill="rgb(155,0,0)" />
    <circle cx="1829.3" cy="1219.3" r="4.0" fill="rgb(155,0,0)" />
    <circle cx="1334.3" cy="755.2" r="4.0" fill="rgb(155,0,0)" />
    <circle cx="1420.0" cy="1769.5" r="4.0" fill="rgb(155,0,0)" />
    <circle cx="1366.1" cy="898.6" r="4.0" fill="rgb(155,0,0)" />
    <circle cx="1332.5" cy="880.0" r="4.0" fill="rgb(155,0,0)" />
    <circle cx="1588.2" cy="730.5" r="4.0" fill="rgb(155,0,0)" />
    <circle cx="1619.5" cy="956.8" r="4.0" fill="rgb(155,0,0)" />
    <circle cx="1386.3" cy="1612.9" r="4.0" fill="rgb(155,0,0)" />
    <circle cx="1726.5" cy="690.0" r="4.0" fill="rgb(155,0,0)" />
    <circle cx="1836.1" cy="776.0" r="4.0" fill="rgb(155,0,0)" />
    <circle cx="1829.0" cy="1385.6" r="4.0" fill="rgb(155,0,0)" />
    <circle cx="1385.5" cy="1757.7" r="4.0" fill="rgb(155,0,0)" />
    <circle cx="2075.9" cy="1737.9" r="4.0" fill="rgb(155,0,0)" />
    <circle cx="2102.5" cy="1744.7" r="4.0" fill="rgb(155,0,0)" />
    <circle cx="1865.7" cy="1357.7" r="4.0" fill="rgb(155,0,0)" />
    <circle cx="2069.2" cy="2270.6" r="4.0" fill="rgb(155,0,0)" />
    <circle cx="1781.2" cy="1829.7" r="4.0" fill="rgb(155,0,0)" />
    <circle cx="1866.5" cy="1240.0" r="4.0" fill="rgb(155,0,0)" />
    <circle cx="1679.8" cy="1829.6" r="4.0" fill="rgb(155,0,0)" />
    <circle cx="2107.0" cy="1710.0" r="4.0" fill="rgb(155,0,0)" />
    <circle cx="1865.1" cy="909.8" r="4.0" fill="rgb(155,0,0)" />
    <circle cx="2069.8" cy="1577.6" r="4.0" fill="rgb(155,0,0)" />
    <circle cx="1829.2" cy="1506.6" r="4.0" fill="rgb(155,0,0)" />
    <circle cx="427.3" cy="297.3" r="4.0" fill="rgb(155,0,0)" />
    <circle cx="683.2" cy="959.6" r="4.0" fill="rgb(0,0,219)" />
    <circle cx="1370.0" cy="708.5" r="4.0" fill="rgb(0,0,219)" />
    <circle cx="1350.0" cy="693.0" r="4.0" fill="rgb(0,0,219)" />
    <circle cx="1570.0" cy="1560.0" r="4.0" fill="rgb(0,0,219)" />
    <circle cx="2980.0" cy="1490.0" r="4.0" fill="rgb(0,0,219)" />
  </g>

</svg>