<?xml version='1.0' encoding='utf-8'?>
<svg width="3000" height="3000" xmlns="http://www.w3.org/2000/svg">
    <g stroke="rgb(155,0,0)" stroke-width="1.5" opacity="0.8">
        <line x1="1348.75" y1="2078.25" x2="1360.0" y2="2071.0" />
        <line x1="1360.0" y1="2071.0" x2="1366.1052631578948" y2="2058.6315789473683" />
        <line x1="1909.0" y1="1670.25" x2="1901.0" y2="1658.5" />
        <line x1="1339.5" y1="1359.5" x2="1351.7777777777778" y2="1351.888888888889" />
        <line x1="1571.3333333333333" y1="2136.25" x2="1557.9" y2="2127.2" />
        <line x1="1547.0" y1="2140.75" x2="1557.9" y2="2127.2" />
        <line x1="1339.3333333333333" y1="1169.3333333333333" x2="1356.1818181818182" y2="1163.8636363636363" />
        <line x1="959.0" y1="1330.0" x2="975.225" y2="1321.45" />
        <line x1="1571.3333333333333" y1="2136.25" x2="1574.25" y2="2154.375" />
        <line x1="2450.0" y1="1223.0" x2="2464.1428571428573" y2="1235.095238095238" />
        <line x1="2501.0" y1="1096.375" x2="2487.904761904762" y2="1082.8095238095239" />
        <line x1="1380.0" y1="2309.5" x2="1370.982456140351" y2="2327.0877192982457" />
        <line x1="1578.5833333333333" y1="1727.3333333333333" x2="1571.0" y2="1709.0" />
        <line x1="1078.4" y1="2283.0" x2="1093.0" y2="2296.8333333333335" />
        <line x1="1103.25" y1="2279.5" x2="1093.0" y2="2296.8333333333335" />
        <line x1="1168.1666666666667" y1="1579.6666666666667" x2="1154.875" y2="1594.9166666666667" />
        <line x1="1368.8" y1="1182.6" x2="1380.6" y2="1199.4" />
        <line x1="1349.0" y1="2046.6" x2="1366.1052631578948" y2="2058.6315789473683" />
        <line x1="1159.0" y1="1110.0" x2="1180.0" y2="1110.0" />
        <line x1="2501.0" y1="1096.375" x2="2500.0" y2="1117.5" />
        <line x1="1075.6129032258063" y1="2261.8064516129034" x2="1078.4" y2="2283.0" />
        <line x1="958.75" y1="1488.75" x2="977.3191489361702" y2="1499.6382978723404" />
        <line x1="1056.375" y1="1127.5" x2="1077.9166666666667" y2="1126.4166666666667" />
        <line x1="1918.6" y1="1599.8" x2="1904.6296296296296" y2="1616.2962962962963" />
        <line x1="1297.4285714285713" y1="1138.2857142857142" x2="1315.15" y2="1125.7" />
        <line x1="1197.8" y1="2047.7" x2="1183.3030303030303" y2="2064.6666666666665" />
        <line x1="1160.5" y1="1140.0" x2="1142.5555555555557" y2="1126.5" />
        <line x1="1356.1818181818182" y1="1163.8636363636363" x2="1368.8" y2="1182.6" />
        <line x1="997.3333333333334" y1="1128.6666666666667" x2="1020.0" y2="1128.0" />
        <line x1="1161.25" y1="1788.75" x2="1139.0" y2="1793.5" />
        <line x1="1137.0" y1="1910.0" x2="1138.5" y2="1933.0" />
        <line x1="1159.0" y1="1110.0" x2="1142.5555555555557" y2="1126.5" />
        <line x1="1270.0" y1="1110.0" x2="1293.5" y2="1110.0" />
        <line x1="1520.5" y1="2334.8478260869565" x2="1538.1304347826087" y2="2318.478260869565" />
        <line x1="938.75" y1="1136.75" x2="962.7777777777778" y2="1133.9259259259259" />
        <line x1="938.75" y1="1136.75" x2="946.7647058823529" y2="1160.235294117647" />
        <line x1="2506.222222222222" y1="1180.4444444444443" x2="2506.1875" y2="1205.375" />
        <line x1="875.1428571428571" y1="2121.904761904762" x2="857.7222222222222" y2="2103.8888888888887" />
        <line x1="1568.6666666666667" y1="2288.6666666666665" x2="1553.5714285714287" y2="2308.785714285714" />
        <line x1="1406.2" y1="2337.6" x2="1431.7083333333333" y2="2337.5" />
        <line x1="1164.4565217391305" y1="1936.304347826087" x2="1138.5" y2="1933.0" />
        <line x1="1076.3529411764705" y1="2141.470588235294" x2="1075.3125" y2="2167.8125" />
        <line x1="2500.0" y1="1117.5" x2="2500.0" y2="1144.0" />
        <line x1="1139.0" y1="1793.5" x2="1137.0" y2="1820.0" />
        <line x1="1164.4565217391305" y1="1936.304347826087" x2="1152.6944444444443" y2="1960.1666666666667" />
        <line x1="1103.4" y1="2136.4" x2="1089.0" y2="2114.0" />
        <line x1="1293.5" y1="1110.0" x2="1315.15" y2="1125.7" />
        <line x1="985.3" y1="1352.5" x2="985.1481481481482" y2="1379.4814814814815" />
        <line x1="1574.6363636363637" y1="1885.3636363636363" x2="1560.0" y2="1908.25" />
        <line x1="1547.2" y1="1883.9333333333334" x2="1574.6363636363637" y2="1885.3636363636363" />
        <line x1="1103.4" y1="2136.4" x2="1076.3529411764705" y2="2141.470588235294" />
        <line x1="984.7333333333333" y1="1440.4" x2="985.8421052631579" y2="1468.157894736842" />
        <line x1="1573.6190476190477" y1="2191.0476190476193" x2="1573.7857142857142" y2="2219.1428571428573" />
        <line x1="1431.7083333333333" y1="2337.5" x2="1460.4761904761904" y2="2337.4285714285716" />
        <line x1="1491.4545454545455" y1="2337.7727272727275" x2="1520.5" y2="2334.8478260869565" />
        <line x1="1578.2222222222222" y1="1820.2222222222222" x2="1577.9333333333334" y2="1849.5333333333333" />
        <line x1="1076.0" y1="2232.0" x2="1075.6129032258063" y2="2261.8064516129034" />
        <line x1="1180.0" y1="1110.0" x2="1210.0" y2="1110.0" />
        <line x1="1210.0" y1="1110.0" x2="1240.0" y2="1110.0" />
        <line x1="1240.0" y1="1110.0" x2="1270.0" y2="1110.0" />
        <line x1="1137.0" y1="1820.0" x2="1137.0" y2="1850.0" />
        <line x1="1137.0" y1="1850.0" x2="1137.0" y2="1880.0" />
        <line x1="1137.0" y1="1880.0" x2="1137.0" y2="1910.0" />
        <line x1="1578.5714285714287" y1="1759.0" x2="1578.125" y2="1789.0" />
        <line x1="985.05" y1="1409.95" x2="984.7333333333333" y2="1440.4" />
        <line x1="985.1481481481482" y1="1379.4814814814815" x2="985.05" y2="1409.95" />
        <line x1="977.3191489361702" y1="1499.6382978723404" x2="972.0" y2="1530.0" />
        <line x1="1075.5172413793102" y1="2201.0344827586205" x2="1076.0" y2="2232.0" />
        <line x1="1460.4761904761904" y1="2337.4285714285716" x2="1491.4545454545455" y2="2337.7727272727275" />
        <line x1="1578.125" y1="1789.0" x2="1578.2222222222222" y2="1820.2222222222222" />
        <line x1="1161.25" y1="1788.75" x2="1149.0" y2="1760.0" />
        <line x1="1573.7857142857142" y1="2219.1428571428573" x2="1573.6315789473683" y2="2250.7894736842104" />
        <line x1="1578.5833333333333" y1="1727.3333333333333" x2="1578.5714285714287" y2="1759.0" />
        <line x1="2450.0" y1="1079.0" x2="2480.0" y2="1068.0" />
        <line x1="985.8421052631579" y1="1468.157894736842" x2="977.3191489361702" y2="1499.6382978723404" />
        <line x1="975.225" y1="1321.45" x2="985.3" y2="1352.5" />
        <line x1="1075.3125" y1="2167.8125" x2="1075.5172413793102" y2="2201.0344827586205" />
        <line x1="1539.5" y1="1720.0" x2="1571.0" y2="1709.0" />
        <line x1="2506.1875" y1="1205.375" x2="2500.633333333333" y2="1239.1" />
        <line x1="997.3333333333334" y1="1128.6666666666667" x2="962.7777777777778" y2="1133.9259259259259" />
        <line x1="946.7647058823529" y1="1160.235294117647" x2="946.7619047619048" y2="1195.2380952380952" />
        <line x1="1577.9333333333334" y1="1849.5333333333333" x2="1574.6363636363637" y2="1885.3636363636363" />
        <line x1="1020.0" y1="1128.0" x2="1056.375" y2="1127.5" />
        <line x1="1574.25" y1="2154.375" x2="1573.6190476190477" y2="2191.0476190476193" />
        <line x1="1406.2" y1="2337.6" x2="1370.982456140351" y2="2327.0877192982457" />
        <line x1="2500.0" y1="1144.0" x2="2506.222222222222" y2="1180.4444444444443" />
        <line x1="1356.1818181818182" y1="1163.8636363636363" x2="1346.7" y2="1127.68" />
        <line x1="1573.6315789473683" y1="2250.7894736842104" x2="1568.6666666666667" y2="2288.6666666666665" />
        <line x1="975.225" y1="1321.45" x2="968.75" y2="1281.25" />
    </g>
    <g stroke="rgb(0,157,0)" stroke-width="1.5" opacity="0.8">
        <line x1="369.3333333333333" y1="589.0" x2="381.5" y2="582.2857142857143" />
        <line x1="900.6666666666666" y1="1179.3333333333333" x2="907.8571428571429" y2="1191.2857142857142" />
        <line x1="1410.0" y1="1279.0" x2="1409.3333333333333" y2="1293.0" />
        <line x1="246.57142857142858" y1="707.5714285714286" x2="240.66666666666666" y2="720.6666666666666" />
        <line x1="419.0" y1="539.0" x2="412.962962962963" y2="552.4074074074074" />
        <line x1="728.1666666666666" y1="1668.1666666666667" x2="721.0" y2="1681.5" />
        <line x1="390.0" y1="2769.5" x2="397.84615384615387" y2="2782.5384615384614" />
        <line x1="482.5833333333333" y1="1687.9166666666667" x2="469.0" y2="1681.0" />
        <line x1="2506.714285714286" y1="327.42857142857144" x2="2500.0" y2="341.5" />
        <line x1="530.0" y1="1869.5" x2="523.7142857142857" y2="1883.857142857143" />
        <line x1="360.5" y1="2739.5" x2="346.0" y2="2731.5" />
        <line x1="1358.8275862068965" y1="1336.2758620689656" x2="1351.7777777777778" y2="1351.888888888889" />
        <line x1="2472.714285714286" y1="1342.7142857142858" x2="2456.8333333333335" y2="1349.1666666666667" />
        <line x1="228.52941176470588" y1="733.1764705882352" x2="240.66666666666666" y2="720.6666666666666" />
        <line x1="2490.0" y1="356.0" x2="2500.0" y2="341.5" />
        <line x1="456.44444444444446" y1="1668.2222222222222" x2="469.0" y2="1681.0" />
        <line x1="952.1818181818181" y1="1226.0" x2="957.8571428571429" y2="1243.4285714285713" />
        <line x1="369.3333333333333" y1="589.0" x2="358.19444444444446" y2="603.5833333333334" />
        <line x1="2482.030303030303" y1="382.8181818181818" x2="2479.3333333333335" y2="401.0" />
        <line x1="476.0" y1="2849.0" x2="458.7142857142857" y2="2842.1428571428573" />
        <line x1="333.38461538461536" y1="2717.6153846153848" x2="346.0" y2="2731.5" />
        <line x1="1887.6153846153845" y1="1626.7692307692307" x2="1886.4117647058824" y2="1645.5294117647059" />
        <line x1="725.5" y1="380.0" x2="744.5" y2="380.0" />
        <line x1="559.5" y1="1839.5" x2="574.3846153846154" y2="1827.5384615384614" />
        <line x1="2486.4666666666667" y1="1321.7333333333333" x2="2504.285714285714" y2="1328.7142857142858" />
        <line x1="1481.75" y1="1338.25" x2="1496.3333333333333" y2="1350.6666666666667" />
        <line x1="287.875" y1="2675.625" x2="303.53846153846155" y2="2686.6923076923076" />
        <line x1="677.6428571428571" y1="1717.5714285714287" x2="666.9047619047619" y2="1733.5714285714287" />
        <line x1="1886.4117647058824" y1="1645.5294117647059" x2="1901.0" y2="1658.5" />
        <line x1="476.0" y1="2849.0" x2="482.2" y2="2867.8" />
        <line x1="243.0" y1="2629.0" x2="258.0" y2="2642.0" />
        <line x1="578.8333333333334" y1="388.3333333333333" x2="566.96875" y2="404.25" />
        <line x1="1409.3333333333333" y1="1293.0" x2="1420.5" y2="1309.5" />
        <line x1="507.10526315789474" y1="1894.8947368421052" x2="523.7142857142857" y2="1883.857142857143" />
        <line x1="1385.090909090909" y1="1218.8636363636363" x2="1380.6" y2="1199.4" />
        <line x1="1887.6153846153845" y1="1626.7692307692307" x2="1904.6296296296296" y2="1616.2962962962963" />
        <line x1="2810.0" y1="1146.25" x2="2810.0" y2="1166.25" />
        <line x1="1455.642857142857" y1="1327.7857142857142" x2="1436.5714285714287" y2="1321.5714285714287" />
        <line x1="1420.5" y1="1309.5" x2="1436.5714285714287" y2="1321.5714285714287" />
        <line x1="258.0" y1="2642.0" x2="271.125" y2="2657.25" />
        <line x1="936.375" y1="1213.4375" x2="952.1818181818181" y2="1226.0" />
        <line x1="339.3333333333333" y1="619.0" x2="326.7931034482759" y2="634.8275862068965" />
        <line x1="360.5" y1="2739.5" x2="373.0" y2="2755.4736842105262" />
        <line x1="486.46153846153845" y1="477.38461538461536" x2="474.0" y2="493.4166666666667" />
        <line x1="853.1379310344828" y1="2083.896551724138" x2="857.7222222222222" y2="2103.8888888888887" />
        <line x1="586.2222222222222" y1="1800.2222222222222" x2="604.7142857142857" y2="1791.2857142857142" />
        <line x1="728.1666666666666" y1="1668.1666666666667" x2="744.6521739130435" y2="1655.7826086956522" />
        <line x1="277.42857142857144" y1="677.8571428571429" x2="294.3103448275862" y2="666.0" />
        <line x1="788.6666666666666" y1="1608.6666666666667" x2="775.448275862069" y2="1624.5172413793102" />
        <line x1="482.5833333333333" y1="1687.9166666666667" x2="496.72727272727275" y2="1703.0" />
        <line x1="930.0" y1="1607.0" x2="950.3333333333334" y2="1610.8333333333333" />
        <line x1="397.6363636363636" y1="566.3636363636364" x2="412.962962962963" y2="552.4074074074074" />
        <line x1="526.6666666666666" y1="1733.1666666666667" x2="543.0555555555555" y2="1745.9444444444443" />
        <line x1="1107.1666666666667" y1="1620.6666666666667" x2="1127.0" y2="1626.9117647058824" />
        <line x1="213.42857142857142" y1="2596.714285714286" x2="228.0" y2="2611.625" />
        <line x1="454.0" y1="2094.1428571428573" x2="474.77777777777777" y2="2092.222222222222" />
        <line x1="530.0" y1="1869.5" x2="546.9375" y2="1857.3125" />
        <line x1="543.0555555555555" y1="1745.9444444444443" x2="556.875" y2="1761.625" />
        <line x1="428.14285714285717" y1="2812.4285714285716" x2="444.0625" y2="2826.0" />
        <line x1="936.375" y1="1213.4375" x2="946.7619047619048" y2="1195.2380952380952" />
        <line x1="2786.1428571428573" y1="1328.7142857142858" x2="2779.0" y2="1348.4285714285713" />
        <line x1="277.42857142857144" y1="677.8571428571429" x2="264.2" y2="694.15" />
        <line x1="1596.5" y1="2850.0" x2="1581.5384615384614" y2="2864.846153846154" />
        <line x1="1138.0" y1="1607.5714285714287" x2="1154.875" y2="1594.9166666666667" />
        <line x1="512.5833333333334" y1="1717.3333333333333" x2="526.6666666666666" y2="1733.1666666666667" />
        <line x1="414.0833333333333" y1="2796.5" x2="428.14285714285717" y2="2812.4285714285716" />
        <line x1="303.53846153846155" y1="2686.6923076923076" x2="317.2142857142857" y2="2703.0714285714284" />
        <line x1="496.72727272727275" y1="1703.0" x2="512.5833333333334" y2="1717.3333333333333" />
        <line x1="788.6666666666666" y1="1608.6666666666667" x2="810.0" y2="1607.0" />
        <line x1="397.84615384615387" y1="2782.5384615384614" x2="414.0833333333333" y2="2796.5" />
        <line x1="486.46153846153845" y1="477.38461538461536" x2="502.6363636363636" y2="463.3181818181818" />
        <line x1="548.0" y1="417.0" x2="534.35" y2="433.75" />
        <line x1="2813.4285714285716" y1="934.1428571428571" x2="2810.0" y2="955.5" />
        <line x1="2327.4444444444443" y1="2108.5555555555557" x2="2326.75" y2="2130.1875" />
        <line x1="758.0" y1="1638.6666666666667" x2="744.6521739130435" y2="1655.7826086956522" />
        <line x1="517.1666666666666" y1="447.1666666666667" x2="502.6363636363636" y2="463.3181818181818" />
        <line x1="317.2142857142857" y1="2703.0714285714284" x2="333.38461538461536" y2="2717.6153846153848" />
        <line x1="703.8518518518518" y1="1694.9259259259259" x2="721.0" y2="1681.5" />
        <line x1="559.5" y1="1839.5" x2="546.9375" y2="1857.3125" />
        <line x1="444.0625" y1="2826.0" x2="458.7142857142857" y2="2842.1428571428573" />
        <line x1="517.1666666666666" y1="447.1666666666667" x2="534.35" y2="433.75" />
        <line x1="2478.1666666666665" y1="1251.8333333333333" x2="2464.1428571428573" y2="1235.095238095238" />
        <line x1="1725.25" y1="2850.0" x2="1747.25" y2="2850.0" />
        <line x1="373.0" y1="2755.4736842105262" x2="390.0" y2="2769.5" />
        <line x1="246.57142857142858" y1="707.5714285714286" x2="264.2" y2="694.15" />
        <line x1="2786.1428571428573" y1="1328.7142857142858" x2="2804.690476190476" y2="1316.5" />
        <line x1="1138.0" y1="1607.5714285714287" x2="1127.0" y2="1626.9117647058824" />
        <line x1="556.875" y1="1761.625" x2="573.4444444444445" y2="1776.5555555555557" />
        <line x1="758.0" y1="1638.6666666666667" x2="775.448275862069" y2="1624.5172413793102" />
        <line x1="456.09090909090907" y1="507.0" x2="474.0" y2="493.4166666666667" />
        <line x1="1974.1333333333334" y1="2848.866666666667" x2="1996.6363636363637" y2="2848.7272727272725" />
        <line x1="419.0" y1="539.0" x2="437.80434782608694" y2="526.5" />
        <line x1="197.5625" y1="2542.1875" x2="197.8" y2="2564.8" />
        <line x1="307.8" y1="647.8" x2="294.3103448275862" y2="666.0" />
        <line x1="397.6363636363636" y1="566.3636363636364" x2="381.5" y2="582.2857142857143" />
        <line x1="2537.5" y1="319.5" x2="2560.25" y2="319.5" />
        <line x1="548.0" y1="417.0" x2="566.96875" y2="404.25" />
        <line x1="1338.3703703703704" y1="381.81481481481484" x2="1350.0" y2="401.5" />
        <line x1="228.0" y1="2611.625" x2="243.0" y2="2629.0" />
        <line x1="307.8" y1="647.8" x2="326.7931034482759" y2="634.8275862068965" />
        <line x1="647.6363636363636" y1="1747.0" x2="666.9047619047619" y2="1733.5714285714287" />
        <line x1="2476.6739130434785" y1="892.6521739130435" x2="2477.0" y2="916.1538461538462" />
        <line x1="2182.782608695652" y1="387.04347826086956" x2="2206.4615384615386" y2="386.8076923076923" />
        <line x1="2323.9285714285716" y1="2762.5714285714284" x2="2320.0" y2="2786.0" />
        <line x1="215.1" y1="2097.6" x2="238.33333333333334" y2="2092.5925925925926" />
        <line x1="226.41176470588235" y1="1210.8235294117646" x2="227.71428571428572" y2="1234.5714285714287" />
        <line x1="507.10526315789474" y1="1894.8947368421052" x2="497.0" y2="1916.4285714285713" />
        <line x1="1496.3333333333333" y1="1350.6666666666667" x2="1520.0714285714287" y2="1353.6666666666667" />
        <line x1="1822.8947368421052" y1="387.2105263157895" x2="1847.0454545454545" y2="386.95454545454544" />
        <line x1="1414.888888888889" y1="2846.5555555555557" x2="1439.1" y2="2846.7" />
        <line x1="227.0" y1="1275.8" x2="227.2" y2="1300.1" />
        <line x1="339.3333333333333" y1="619.0" x2="358.19444444444446" y2="603.5833333333334" />
        <line x1="1370.5" y1="388.0" x2="1350.0" y2="401.5" />
        <line x1="1658.5" y1="2850.0" x2="1683.25" y2="2850.0" />
        <line x1="1108.1666666666667" y1="814.0" x2="1107.095238095238" y2="789.2380952380952" />
        <line x1="2319.3333333333335" y1="2826.5" x2="2304.5" y2="2846.375" />
        <line x1="271.125" y1="2657.25" x2="287.875" y2="2675.625" />
        <line x1="1108.857142857143" y1="911.8571428571429" x2="1108.6153846153845" y2="936.7692307692307" />
        <line x1="1137.0" y1="380.0" x2="1162.0" y2="380.0" />
        <line x1="1580.0" y1="2097.0" x2="1560.0" y2="2082.0" />
        <line x1="227.2" y1="1300.1" x2="228.0" y2="1325.1666666666667" />
        <line x1="2810.0" y1="1055.75" x2="2810.0" y2="1080.8333333333333" />
        <line x1="2486.4666666666667" y1="1321.7333333333333" x2="2472.714285714286" y2="1342.7142857142858" />
        <line x1="1109.8823529411766" y1="2847.470588235294" x2="1115.2777777777778" y2="2872.0" />
        <line x1="630.7777777777778" y1="2848.5185185185187" x2="656.0" y2="2848.625" />
        <line x1="2477.5" y1="714.6666666666666" x2="2477.842105263158" y2="739.8947368421053" />
        <line x1="839.5588235294117" y1="386.8235294117647" x2="864.8" y2="387.3333333333333" />
        <line x1="1669.942857142857" y1="387.0" x2="1695.3333333333333" y2="386.8888888888889" />
        <line x1="225.64705882352942" y1="1423.9411764705883" x2="225.51162790697674" y2="1449.4186046511627" />
        <line x1="2810.0" y1="1291.5" x2="2804.690476190476" y2="1316.5" />
        <line x1="1162.0" y1="380.0" x2="1187.75" y2="380.0" />
        <line x1="1084.125" y1="2846.75" x2="1109.8823529411766" y2="2847.470588235294" />
        <line x1="2784.8571428571427" y1="1562.6666666666667" x2="2784.722222222222" y2="1588.4444444444443" />
        <line x1="1279.5" y1="380.0" x2="1305.0526315789473" y2="383.42105263157896" />
        <line x1="2478.1666666666665" y1="1251.8333333333333" x2="2500.633333333333" y2="1239.1" />
        <line x1="228.75" y1="1178.25" x2="252.05" y2="1167.05" />
        <line x1="495.3636363636364" y1="2009.8636363636363" x2="495.27777777777777" y2="2035.7222222222222" />
        <line x1="225.5625" y1="791.75" x2="225.52941176470588" y2="817.6470588235294" />
        <line x1="1881.8333333333333" y1="2850.0" x2="1907.75" y2="2850.0" />
        <line x1="933.5" y1="388.125" x2="959.4615384615385" y2="387.9230769230769" />
        <line x1="2479.4285714285716" y1="533.1428571428571" x2="2479.4444444444443" y2="559.1111111111111" />
        <line x1="1911.0" y1="386.6764705882353" x2="1937.0416666666667" y2="387.25" />
        <line x1="957.8571428571429" y1="1243.4285714285713" x2="970.5" y2="1266.25" />
        <line x1="358.89473684210526" y1="2095.8947368421054" x2="385.0" y2="2096.6153846153848" />
        <line x1="2808.3529411764707" y1="722.7058823529412" x2="2808.764705882353" y2="748.8823529411765" />
        <line x1="1050.8125" y1="388.0" x2="1077.0" y2="388.6666666666667" />
        <line x1="430.25" y1="1667.6666666666667" x2="456.44444444444446" y2="1668.2222222222222" />
        <line x1="1613.1666666666667" y1="386.6666666666667" x2="1639.4285714285713" y2="386.89285714285717" />
        <line x1="198.28571428571428" y1="2393.4285714285716" x2="197.64285714285714" y2="2419.714285714286" />
        <line x1="1051.4761904761904" y1="1607.7619047619048" x2="1077.8181818181818" y2="1607.8181818181818" />
        <line x1="2784.4615384615386" y1="1384.6153846153845" x2="2784.7727272727275" y2="1411.0" />
        <line x1="2787.4210526315787" y1="1774.1052631578948" x2="2787.3" y2="1800.5333333333333" />
        <line x1="2690.7" y1="319.6" x2="2717.1428571428573" y2="319.42857142857144" />
        <line x1="2325.0" y1="2670.0" x2="2320.0" y2="2696.0" />
        <line x1="665.5" y1="380.0" x2="692.0" y2="380.0" />
        <line x1="2386.5" y1="2100.0" x2="2413.0" y2="2100.0" />
        <line x1="2803.1" y1="336.5" x2="2808.8" y2="362.4" />
        <line x1="900.6666666666666" y1="1179.3333333333333" x2="876.0" y2="1169.5" />
        <line x1="372.85714285714283" y1="1666.0" x2="399.4848484848485" y2="1666.878787878788" />
        <line x1="2181.0714285714284" y1="2848.8571428571427" x2="2207.733333333333" y2="2848.4666666666667" />
        <line x1="1138.0" y1="1656.25" x2="1151.0" y2="1679.6" />
        <line x1="456.09090909090907" y1="507.0" x2="437.80434782608694" y2="526.5" />
        <line x1="2515.5" y1="2100.0" x2="2542.25" y2="2100.0" />
        <line x1="1232.7894736842106" y1="2846.4736842105262" x2="1259.5384615384614" y2="2847.0" />
        <line x1="2421.3947368421054" y1="386.8157894736842" x2="2448.2" y2="385.6" />
        <line x1="1351.7142857142858" y1="2845.190476190476" x2="1378.5" y2="2846.9444444444443" />
        <line x1="1460.44" y1="387.2" x2="1487.2857142857142" y2="386.92857142857144" />
        <line x1="1433.6" y1="386.56666666666666" x2="1460.44" y2="387.2" />
        <line x1="580.7142857142857" y1="2087.6428571428573" x2="607.5384615384615" y2="2086.4615384615386" />
        <line x1="573.4444444444445" y1="1776.5555555555557" x2="586.2222222222222" y2="1800.2222222222222" />
        <line x1="1519.21875" y1="386.875" x2="1546.1333333333334" y2="387.23333333333335" />
        <line x1="2327.181818181818" y1="2643.0454545454545" x2="2325.0" y2="2670.0" />
        <line x1="2808.6190476190477" y1="480.95238095238096" x2="2808.714285714286" y2="508.0" />
        <line x1="2325.0" y1="2160.0" x2="2327.181818181818" y2="2187.0" />
        <line x1="2779.3076923076924" y1="323.53846153846155" x2="2803.1" y2="336.5" />
        <line x1="2327.4444444444443" y1="2108.5555555555557" x2="2354.5" y2="2110.0" />
        <line x1="509.9" y1="2848.35" x2="537.0" y2="2848.8333333333335" />
        <line x1="225.33333333333334" y1="1597.6969696969697" x2="225.0" y2="1624.8333333333333" />
        <line x1="2787.0" y1="1831.2857142857142" x2="2787.6428571428573" y2="1858.4285714285713" />
        <line x1="691.1578947368421" y1="2848.8947368421054" x2="718.3333333333334" y2="2848.1666666666665" />
        <line x1="1588.2" y1="1635.4" x2="1566.125" y2="1651.3333333333333" />
        <line x1="2445.0" y1="2100.0" x2="2472.25" y2="2100.0" />
        <line x1="1102.0" y1="402.8125" x2="1104.0" y2="430.0" />
        <line x1="537.0" y1="2848.8333333333335" x2="564.2857142857143" y2="2848.8571428571427" />
        <line x1="2784.0" y1="1440.8461538461538" x2="2784.4210526315787" y2="1468.157894736842" />
        <line x1="841.1111111111111" y1="2848.6111111111113" x2="868.4545454545455" y2="2848.5454545454545" />
        <line x1="225.3913043478261" y1="1570.3478260869565" x2="225.33333333333334" y2="1597.6969696969697" />
        <line x1="1566.2727272727273" y1="1617.6363636363637" x2="1562.4444444444443" y2="1590.5185185185185" />
        <line x1="2470.0" y1="1042.5" x2="2480.0" y2="1068.0" />
        <line x1="215.1" y1="2097.6" x2="199.33333333333334" y2="2120.0" />
        <line x1="227.71428571428572" y1="1150.857142857143" x2="228.75" y2="1178.25" />
        <line x1="991.4" y1="388.0" x2="1018.8666666666667" y2="387.73333333333335" />
        <line x1="2060.8" y1="2848.6" x2="2088.3125" y2="2848.6875" />
        <line x1="2360.6153846153848" y1="386.7692307692308" x2="2388.1363636363635" y2="386.90909090909093" />
        <line x1="2002.7058823529412" y1="386.94117647058823" x2="2030.2592592592594" y2="386.55555555555554" />
        <line x1="2787.375" y1="2010.0625" x2="2787.64" y2="2037.64" />
        <line x1="1171.1904761904761" y1="2846.7619047619046" x2="1198.7826086956522" y2="2847.1739130434785" />
        <line x1="2153.4666666666667" y1="2848.6" x2="2181.0714285714284" y2="2848.8571428571427" />
        <line x1="2808.2" y1="662.4" x2="2808.809523809524" y2="690.0" />
        <line x1="2808.8" y1="780.0" x2="2809.0" y2="807.625" />
        <line x1="989.2857142857143" y1="1607.4285714285713" x2="1016.9090909090909" y2="1607.909090909091" />
        <line x1="784.8571428571429" y1="2848.1428571428573" x2="812.5" y2="2848.3571428571427" />
        <line x1="2808.8" y1="362.4" x2="2808.5" y2="390.04545454545456" />
        <line x1="225.05555555555554" y1="1123.3333333333333" x2="227.71428571428572" y2="1150.857142857143" />
        <line x1="1548.68" y1="1354.88" x2="1576.3333333333333" y2="1354.095238095238" />
        <line x1="2810.0" y1="1231.0" x2="2813.1111111111113" y2="1258.5185185185185" />
        <line x1="624.4333333333333" y1="1771.8333333333333" x2="604.7142857142857" y2="1791.2857142857142" />
        <line x1="2643.0" y1="2100.0" x2="2670.75" y2="2100.0" />
        <line x1="238.33333333333334" y1="2092.5925925925926" x2="228.75" y2="2066.5" />
        <line x1="2808.5625" y1="570.4375" x2="2808.6" y2="598.2666666666667" />
        <line x1="1439.1" y1="2846.7" x2="1466.9333333333334" y2="2846.9333333333334" />
        <line x1="2327.5454545454545" y1="2250.3636363636365" x2="2328.181818181818" y2="2278.2727272727275" />
        <line x1="2542.25" y1="2100.0" x2="2570.1666666666665" y2="2100.0" />
        <line x1="1109.8823529411766" y1="2847.470588235294" x2="1137.8" y2="2846.8" />
        <line x1="2784.4" y1="1680.6666666666667" x2="2784.777777777778" y2="1708.5925925925926" />
        <line x1="1113.037037037037" y1="1089.851851851852" x2="1108.5438596491229" y2="1117.438596491228" />
        <line x1="2490.0" y1="356.0" x2="2482.030303030303" y2="382.8181818181818" />
        <line x1="1559.4074074074074" y1="2847.5925925925926" x2="1581.5384615384614" y2="2864.846153846154" />
        <line x1="1455.642857142857" y1="1327.7857142857142" x2="1481.75" y2="1338.25" />
        <line x1="2808.6" y1="598.2666666666667" x2="2808.6666666666665" y2="626.4444444444445" />
        <line x1="1566.2727272727273" y1="1617.6363636363637" x2="1588.2" y2="1635.4" />
        <line x1="1291.7272727272727" y1="2847.4545454545455" x2="1319.9583333333333" y2="2846.75" />
        <line x1="199.33333333333334" y1="2120.0" x2="197.2" y2="2148.2" />
        <line x1="2241.923076923077" y1="386.8974358974359" x2="2270.2727272727275" y2="387.09090909090907" />
        <line x1="2327.4" y1="2311.0" x2="2327.0714285714284" y2="2339.3571428571427" />
        <line x1="495.6896551724138" y1="1981.4827586206898" x2="495.3636363636364" y2="2009.8636363636363" />
        <line x1="2786.5" y1="1920.8636363636363" x2="2787.375" y2="1949.25" />
        <line x1="197.85714285714286" y1="2330.285714285714" x2="197.8235294117647" y2="2358.705882352941" />
        <line x1="225.9090909090909" y1="939.939393939394" x2="225.68421052631578" y2="968.3684210526316" />
        <line x1="1108.6153846153845" y1="936.7692307692307" x2="1108.5" y2="965.3" />
        <line x1="2239.9615384615386" y1="2848.4615384615386" x2="2268.5" y2="2849.0555555555557" />
        <line x1="989.2857142857143" y1="1607.4285714285713" x2="968.4444444444445" y2="1587.888888888889" />
        <line x1="1731.125" y1="386.78125" x2="1759.71875" y2="387.125" />
        <line x1="812.5" y1="2848.3571428571427" x2="841.1111111111111" y2="2848.6111111111113" />
        <line x1="225.4375" y1="999.125" x2="225.73684210526315" y2="1027.7368421052631" />
        <line x1="1548.68" y1="1354.88" x2="1520.0714285714287" y2="1353.6666666666667" />
        <line x1="198.0625" y1="2450.0625" x2="197.85714285714286" y2="2478.714285714286" />
        <line x1="225.06896551724137" y1="880.7241379310345" x2="225.69565217391303" y2="909.3913043478261" />
        <line x1="281.1818181818182" y1="1664.7727272727273" x2="309.8709677419355" y2="1664.6451612903227" />
        <line x1="1077.0" y1="388.6666666666667" x2="1102.0" y2="402.8125" />
        <line x1="1496.2777777777778" y1="2846.5555555555557" x2="1525.0" y2="2847.0" />
        <line x1="2326.9375" y1="2401.75" x2="2326.8709677419356" y2="2430.483870967742" />
        <line x1="225.36363636363637" y1="763.0" x2="225.5625" y2="791.75" />
        <line x1="197.8235294117647" y1="2301.529411764706" x2="197.85714285714286" y2="2330.285714285714" />
        <line x1="2784.6666666666665" y1="1533.888888888889" x2="2784.8571428571427" y2="1562.6666666666667" />
        <line x1="2327.1428571428573" y1="2221.5714285714284" x2="2327.5454545454545" y2="2250.3636363636365" />
        <line x1="2331.75" y1="386.65" x2="2360.6153846153848" y2="386.7692307692308" />
        <line x1="2808.5" y1="390.04545454545456" x2="2808.48" y2="418.92" />
        <line x1="2327.181818181818" y1="2519.5454545454545" x2="2327.09375" y2="2548.46875" />
        <line x1="1559.4074074074074" y1="2847.5925925925926" x2="1558.6363636363637" y2="2818.6363636363635" />
        <line x1="1882.032258064516" y1="387.19354838709677" x2="1911.0" y2="386.6764705882353" />
        <line x1="2326.8709677419356" y1="2430.483870967742" x2="2326.967741935484" y2="2459.483870967742" />
        <line x1="2590.1666666666665" y1="319.3333333333333" x2="2619.1666666666665" y2="319.5833333333333" />
        <line x1="2479.4444444444443" y1="559.1111111111111" x2="2479.4285714285716" y2="588.1428571428571" />
        <line x1="298.8965517241379" y1="2096.9310344827586" x2="327.94736842105266" y2="2097.0526315789475" />
        <line x1="853.1379310344828" y1="2083.896551724138" x2="868.8" y2="2059.4" />
        <line x1="990.2142857142857" y1="2848.785714285714" x2="1019.2941176470588" y2="2848.5882352941176" />
        <line x1="2326.1111111111113" y1="2372.6666666666665" x2="2326.9375" y2="2401.75" />
        <line x1="930.96" y1="2848.76" x2="960.0769230769231" y2="2848.5384615384614" />
        <line x1="2326.967741935484" y1="2459.483870967742" x2="2327.1" y2="2488.633333333333" />
        <line x1="224.97142857142856" y1="1511.3142857142857" x2="225.1304347826087" y2="1540.4782608695652" />
        <line x1="2787.64" y1="2037.64" x2="2786.909090909091" y2="2066.818181818182" />
        <line x1="810.3548387096774" y1="386.7096774193548" x2="839.5588235294117" y2="386.8235294117647" />
        <line x1="950.3333333333334" y1="1610.8333333333333" x2="968.4444444444445" y2="1587.888888888889" />
        <line x1="781.0526315789474" y1="386.6842105263158" x2="810.3548387096774" y2="386.7096774193548" />
        <line x1="2784.608695652174" y1="1619.695652173913" x2="2784.608695652174" y2="1649.0" />
        <line x1="1566.125" y1="1651.3333333333333" x2="1560.0" y2="1680.0" />
        <line x1="2060.1153846153848" y1="387.11538461538464" x2="2089.448275862069" y2="387.2758620689655" />
        <line x1="1466.9333333333334" y1="2846.9333333333334" x2="1496.2777777777778" y2="2846.5555555555557" />
        <line x1="2787.375" y1="1949.25" x2="2787.1" y2="1978.6" />
        <line x1="494.0" y1="2070.0" x2="474.77777777777777" y2="2092.222222222222" />
        <line x1="520.8571428571429" y1="2087.714285714286" x2="550.25" y2="2086.25" />
        <line x1="1358.8275862068965" y1="1336.2758620689656" x2="1335.0" y2="1319.0" />
        <line x1="197.2" y1="2148.2" x2="197.64285714285714" y2="2177.6428571428573" />
        <line x1="225.51162790697674" y1="1449.4186046511627" x2="225.6" y2="1478.88" />
        <line x1="1187.75" y1="380.0" x2="1217.25" y2="380.0" />
        <line x1="901.421052631579" y1="2848.5263157894738" x2="930.96" y2="2848.76" />
        <line x1="2478.0" y1="800.0" x2="2477.0833333333335" y2="829.5277777777778" />
        <line x1="495.3235294117647" y1="1951.9411764705883" x2="495.6896551724138" y2="1981.4827586206898" />
        <line x1="2270.2727272727275" y1="387.09090909090907" x2="2299.8571428571427" y2="387.07142857142856" />
        <line x1="2327.0689655172414" y1="2580.9310344827586" x2="2326.8387096774195" y2="2610.6129032258063" />
        <line x1="2808.48" y1="418.92" x2="2808.6666666666665" y2="448.6111111111111" />
        <line x1="638.7058823529412" y1="2086.529411764706" x2="668.375" y2="2088.0" />
        <line x1="1747.25" y1="2850.0" x2="1777.0" y2="2850.0" />
        <line x1="586.2222222222222" y1="1800.2222222222222" x2="574.3846153846154" y2="1827.5384615384614" />
        <line x1="2123.6666666666665" y1="2848.0833333333335" x2="2153.4666666666667" y2="2848.6" />
        <line x1="2810.0" y1="904.5" x2="2813.4285714285716" y2="934.1428571428571" />
        <line x1="2808.375" y1="540.5833333333334" x2="2808.5625" y2="570.4375" />
        <line x1="2784.7727272727275" y1="1411.0" x2="2784.0" y2="1440.8461538461538" />
        <line x1="2030.2592592592594" y1="386.55555555555554" x2="2060.1153846153848" y2="387.11538461538464" />
        <line x1="2326.75" y1="2130.1875" x2="2325.0" y2="2160.0" />
        <line x1="225.1304347826087" y1="1540.4782608695652" x2="225.3913043478261" y2="1570.3478260869565" />
        <line x1="2560.25" y1="319.5" x2="2590.1666666666665" y2="319.3333333333333" />
        <line x1="228.52941176470588" y1="733.1764705882352" x2="225.36363636363637" y2="763.0" />
        <line x1="2484.0" y1="440.0" x2="2484.0" y2="470.0" />
        <line x1="2484.0" y1="470.0" x2="2484.0" y2="500.0" />
        <line x1="2479.0" y1="620.0" x2="2479.0" y2="650.0" />
        <line x1="2479.0" y1="650.0" x2="2479.0" y2="680.0" />
        <line x1="2478.0" y1="770.0" x2="2478.0" y2="800.0" />
        <line x1="1107.0" y1="850.0" x2="1107.0" y2="880.0" />
        <line x1="2475.0" y1="950.0" x2="2475.0" y2="980.0" />
        <line x1="2475.0" y1="980.0" x2="2475.0" y2="1010.0" />
        <line x1="1110.0" y1="1000.0" x2="1110.0" y2="1030.0" />
        <line x1="1110.0" y1="1030.0" x2="1110.0" y2="1060.0" />
        <line x1="2540.0" y1="1334.0" x2="2570.0" y2="1334.0" />
        <line x1="2570.0" y1="1334.0" x2="2600.0" y2="1334.0" />
        <line x1="2600.0" y1="1334.0" x2="2630.0" y2="1334.0" />
        <line x1="2630.0" y1="1334.0" x2="2660.0" y2="1334.0" />
        <line x1="2660.0" y1="1334.0" x2="2690.0" y2="1334.0" />
        <line x1="2690.0" y1="1334.0" x2="2720.0" y2="1334.0" />
        <line x1="2720.0" y1="1334.0" x2="2750.0" y2="1334.0" />
        <line x1="810.0" y1="1607.0" x2="840.0" y2="1607.0" />
        <line x1="840.0" y1="1607.0" x2="870.0" y2="1607.0" />
        <line x1="870.0" y1="1607.0" x2="900.0" y2="1607.0" />
        <line x1="900.0" y1="1607.0" x2="930.0" y2="1607.0" />
        <line x1="1620.0" y1="1636.0" x2="1650.0" y2="1636.0" />
        <line x1="1650.0" y1="1636.0" x2="1680.0" y2="1636.0" />
        <line x1="1680.0" y1="1636.0" x2="1710.0" y2="1636.0" />
        <line x1="1710.0" y1="1636.0" x2="1740.0" y2="1636.0" />
        <line x1="1740.0" y1="1636.0" x2="1770.0" y2="1636.0" />
        <line x1="1770.0" y1="1636.0" x2="1800.0" y2="1636.0" />
        <line x1="1800.0" y1="1636.0" x2="1830.0" y2="1636.0" />
        <line x1="700.0" y1="2088.0" x2="730.0" y2="2088.0" />
        <line x1="730.0" y1="2088.0" x2="760.0" y2="2088.0" />
        <line x1="760.0" y1="2088.0" x2="790.0" y2="2088.0" />
        <line x1="790.0" y1="2088.0" x2="820.0" y2="2088.0" />
        <line x1="1580.0" y1="2097.0" x2="1610.0" y2="2097.0" />
        <line x1="1610.0" y1="2097.0" x2="1640.0" y2="2097.0" />
        <line x1="1640.0" y1="2097.0" x2="1670.0" y2="2097.0" />
        <line x1="1670.0" y1="2097.0" x2="1700.0" y2="2097.0" />
        <line x1="1700.0" y1="2097.0" x2="1730.0" y2="2097.0" />
        <line x1="1816.25" y1="2850.0" x2="1846.25" y2="2850.0" />
        <line x1="1110.0" y1="1060.0" x2="1113.037037037037" y2="1089.851851851852" />
        <line x1="196.73333333333332" y1="2240.266666666667" x2="198.0" y2="2270.25" />
        <line x1="2810.0" y1="840.25" x2="2810.0" y2="870.3333333333334" />
        <line x1="2477.842105263158" y1="739.8947368421053" x2="2478.0" y2="770.0" />
        <line x1="960.0769230769231" y1="2848.5384615384614" x2="990.2142857142857" y2="2848.785714285714" />
        <line x1="2477.0833333333335" y1="829.5277777777778" x2="2477.0833333333335" y2="859.6944444444445" />
        <line x1="1583.0" y1="386.72222222222223" x2="1613.1666666666667" y2="386.6666666666667" />
        <line x1="268.69565217391306" y1="2096.8695652173915" x2="298.8965517241379" y2="2096.9310344827586" />
        <line x1="2749.3636363636365" y1="319.45454545454544" x2="2779.3076923076924" y2="323.53846153846155" />
        <line x1="1759.71875" y1="387.125" x2="1790.0" y2="386.6190476190476" />
        <line x1="2741.0" y1="2100.0" x2="2756.625" y2="2126.0" />
        <line x1="197.64285714285714" y1="2419.714285714286" x2="198.0625" y2="2450.0625" />
        <line x1="1338.3703703703704" y1="381.81481481481484" x2="1328.2" y2="353.2" />
        <line x1="309.8709677419355" y1="1664.6451612903227" x2="340.30434782608694" y2="1664.9565217391305" />
        <line x1="198.16666666666666" y1="2511.75" x2="197.5625" y2="2542.1875" />
        <line x1="227.0" y1="1393.5172413793102" x2="225.64705882352942" y2="1423.9411764705883" />
        <line x1="550.25" y1="2086.25" x2="580.7142857142857" y2="2087.6428571428573" />
        <line x1="1639.4285714285713" y1="386.89285714285717" x2="1669.942857142857" y2="387.0" />
        <line x1="225.69565217391303" y1="909.3913043478261" x2="225.9090909090909" y2="939.939393939394" />
        <line x1="2089.448275862069" y1="387.2758620689655" x2="2120.0" y2="387.030303030303" />
        <line x1="238.33333333333334" y1="2092.5925925925926" x2="268.69565217391306" y2="2096.8695652173915" />
        <line x1="1385.090909090909" y1="1218.8636363636363" x2="1394.9444444444443" y2="1247.9444444444443" />
        <line x1="2327.4444444444443" y1="2108.5555555555557" x2="2299.655172413793" y2="2095.4827586206898" />
        <line x1="1248.75" y1="380.0" x2="1279.5" y2="380.0" />
        <line x1="1596.5" y1="2850.0" x2="1627.25" y2="2850.0" />
        <line x1="2787.3" y1="1800.5333333333333" x2="2787.0" y2="1831.2857142857142" />
        <line x1="225.68421052631578" y1="968.3684210526316" x2="225.4375" y2="999.125" />
        <line x1="399.4848484848485" y1="1666.878787878788" x2="430.25" y2="1667.6666666666667" />
        <line x1="197.9" y1="2209.5" x2="196.73333333333332" y2="2240.266666666667" />
        <line x1="1053.2941176470588" y1="2848.764705882353" x2="1084.125" y2="2846.75" />
        <line x1="2327.1" y1="2488.633333333333" x2="2327.181818181818" y2="2519.5454545454545" />
        <line x1="2787.6428571428573" y1="1858.4285714285713" x2="2787.2" y2="1889.35" />
        <line x1="327.94736842105266" y1="2097.0526315789475" x2="358.89473684210526" y2="2095.8947368421054" />
        <line x1="2808.764705882353" y1="748.8823529411765" x2="2808.8" y2="780.0" />
        <line x1="1937.0416666666667" y1="387.25" x2="1968.1904761904761" y2="387.42857142857144" />
        <line x1="607.5384615384615" y1="2086.4615384615386" x2="638.7058823529412" y2="2086.529411764706" />
        <line x1="2151.5625" y1="386.75" x2="2182.782608695652" y2="387.04347826086956" />
        <line x1="2810.0" y1="989.5" x2="2810.0" y2="1020.75" />
        <line x1="1627.25" y1="2850.0" x2="1658.5" y2="2850.0" />
        <line x1="2784.722222222222" y1="1588.4444444444443" x2="2784.608695652174" y2="1619.695652173913" />
        <line x1="198.0" y1="2270.25" x2="197.8235294117647" y2="2301.529411764706" />
        <line x1="225.44444444444446" y1="1059.5185185185185" x2="224.8125" y2="1090.8125" />
        <line x1="1127.0" y1="1626.9117647058824" x2="1138.0" y2="1656.25" />
        <line x1="1996.6363636363637" y1="2848.7272727272725" x2="2028.0" y2="2848.3333333333335" />
        <line x1="1402.148148148148" y1="386.85185185185185" x2="1433.6" y2="386.56666666666666" />
        <line x1="2787.1" y1="1978.6" x2="2787.375" y2="2010.0625" />
        <line x1="599.2857142857143" y1="2848.714285714286" x2="630.7777777777778" y2="2848.5185185185187" />
        <line x1="1217.25" y1="380.0" x2="1248.75" y2="380.0" />
        <line x1="2787.2" y1="1889.35" x2="2786.5" y2="1920.8636363636363" />
        <line x1="225.7" y1="849.2" x2="225.06896551724137" y2="880.7241379310345" />
        <line x1="225.52941176470588" y1="817.6470588235294" x2="225.7" y2="849.2" />
        <line x1="2120.0" y1="387.030303030303" x2="2151.5625" y2="386.75" />
        <line x1="1730.0" y1="2097.0" x2="1761.5714285714287" y2="2097.285714285714" />
        <line x1="668.375" y1="2088.0" x2="700.0" y2="2088.0" />
        <line x1="2784.608695652174" y1="1649.0" x2="2784.4" y2="1680.6666666666667" />
        <line x1="1370.5" y1="388.0" x2="1402.148148148148" y2="386.85185185185185" />
        <line x1="225.73684210526315" y1="1027.7368421052631" x2="225.44444444444446" y2="1059.5185185185185" />
        <line x1="2537.5" y1="319.5" x2="2506.714285714286" y2="327.42857142857144" />
        <line x1="1319.9583333333333" y1="2846.75" x2="1351.7142857142858" y2="2845.190476190476" />
        <line x1="1588.2" y1="1635.4" x2="1620.0" y2="1636.0" />
        <line x1="2784.035714285714" y1="1502.0714285714287" x2="2784.6666666666665" y2="1533.888888888889" />
        <line x1="2810.0" y1="1199.1666666666667" x2="2810.0" y2="1231.0" />
        <line x1="197.64285714285714" y1="2177.6428571428573" x2="197.9" y2="2209.5" />
        <line x1="2479.4285714285716" y1="588.1428571428571" x2="2479.0" y2="620.0" />
        <line x1="2299.8571428571427" y1="387.07142857142856" x2="2331.75" y2="386.65" />
        <line x1="1107.0" y1="880.0" x2="1108.857142857143" y2="911.8571428571429" />
        <line x1="1487.2857142857142" y1="386.92857142857144" x2="1519.21875" y2="386.875" />
        <line x1="959.4615384615385" y1="387.9230769230769" x2="991.4" y2="388.0" />
        <line x1="1018.8666666666667" y1="387.73333333333335" x2="1050.8125" y2="388.0" />
        <line x1="2413.0" y1="2100.0" x2="2445.0" y2="2100.0" />
        <line x1="1077.8181818181818" y1="1607.8181818181818" x2="1107.1666666666667" y2="1620.6666666666667" />
        <line x1="494.0" y1="2070.0" x2="520.8571428571429" y2="2087.714285714286" />
        <line x1="1259.5384615384614" y1="2847.0" x2="1291.7272727272727" y2="2847.4545454545455" />
        <line x1="2774.0227272727275" y1="2098.8863636363635" x2="2756.625" y2="2126.0" />
        <line x1="2717.1428571428573" y1="319.42857142857144" x2="2749.3636363636365" y2="319.45454545454544" />
        <line x1="2207.733333333333" y1="2848.4666666666667" x2="2239.9615384615386" y2="2848.4615384615386" />
        <line x1="2670.75" y1="2100.0" x2="2703.0" y2="2100.0" />
        <line x1="1907.75" y1="2850.0" x2="1940.0" y2="2850.0" />
        <line x1="2808.6666666666665" y1="448.6111111111111" x2="2808.6190476190477" y2="480.95238095238096" />
        <line x1="226.5" y1="1361.142857142857" x2="227.0" y2="1393.5172413793102" />
        <line x1="2786.7272727272725" y1="1741.7272727272727" x2="2787.4210526315787" y2="1774.1052631578948" />
        <line x1="2750.0" y1="1334.0" x2="2779.0" y2="1348.4285714285713" />
        <line x1="718.3333333333334" y1="2848.1666666666665" x2="750.75" y2="2848.6666666666665" />
        <line x1="2326.8387096774195" y1="2610.6129032258063" x2="2327.181818181818" y2="2643.0454545454545" />
        <line x1="225.6" y1="1478.88" x2="224.97142857142856" y2="1511.3142857142857" />
        <line x1="2327.09375" y1="2548.46875" x2="2327.0689655172414" y2="2580.9310344827586" />
        <line x1="2810.0" y1="1113.75" x2="2810.0" y2="1146.25" />
        <line x1="224.8125" y1="1090.8125" x2="225.05555555555554" y2="1123.3333333333333" />
        <line x1="340.30434782608694" y1="1664.9565217391305" x2="372.85714285714283" y2="1666.0" />
        <line x1="2808.714285714286" y1="508.0" x2="2808.375" y2="540.5833333333334" />
        <line x1="2809.0" y1="807.625" x2="2810.0" y2="840.25" />
        <line x1="228.75" y1="1178.25" x2="226.41176470588235" y2="1210.8235294117646" />
        <line x1="2808.809523809524" y1="690.0" x2="2808.3529411764707" y2="722.7058823529412" />
        <line x1="2328.181818181818" y1="2278.2727272727275" x2="2327.4" y2="2311.0" />
        <line x1="2028.0" y1="2848.3333333333335" x2="2060.8" y2="2848.6" />
        <line x1="2323.3333333333335" y1="2729.75" x2="2323.9285714285716" y2="2762.5714285714284" />
        <line x1="2610.1666666666665" y1="2100.0" x2="2643.0" y2="2100.0" />
        <line x1="1358.8275862068965" y1="1336.2758620689656" x2="1390.888888888889" y2="1329.1851851851852" />
        <line x1="1149.36" y1="2056.42" x2="1116.5" y2="2057.5" />
        <line x1="2475.0" y1="1010.0" x2="2470.0" y2="1042.5" />
        <line x1="1790.0" y1="386.6190476190476" x2="1822.8947368421052" y2="387.2105263157895" />
        <line x1="2810.0" y1="1080.8333333333333" x2="2810.0" y2="1113.75" />
        <line x1="2810.0" y1="1166.25" x2="2810.0" y2="1199.1666666666667" />
        <line x1="2477.0833333333335" y1="859.6944444444445" x2="2476.6739130434785" y2="892.6521739130435" />
        <line x1="868.4545454545455" y1="2848.5454545454545" x2="901.421052631579" y2="2848.5263157894738" />
        <line x1="197.85714285714286" y1="2478.714285714286" x2="198.16666666666666" y2="2511.75" />
        <line x1="2813.1111111111113" y1="1258.5185185185185" x2="2810.0" y2="1291.5" />
        <line x1="2784.777777777778" y1="1708.5925925925926" x2="2786.7272727272725" y2="1741.7272727272727" />
        <line x1="2388.1363636363635" y1="386.90909090909093" x2="2421.3947368421054" y2="386.8157894736842" />
        <line x1="2327.0714285714284" y1="2339.3571428571427" x2="2326.1111111111113" y2="2372.6666666666665" />
        <line x1="1305.0526315789473" y1="383.42105263157896" x2="1338.3703703703704" y2="381.81481481481484" />
        <line x1="1137.8" y1="2846.8" x2="1171.1904761904761" y2="2846.7619047619046" />
        <line x1="820.0" y1="2088.0" x2="853.1379310344828" y2="2083.896551724138" />
        <line x1="2484.0" y1="500.0" x2="2479.4285714285716" y2="533.1428571428571" />
        <line x1="692.0" y1="380.0" x2="725.5" y2="380.0" />
        <line x1="2386.5" y1="2100.0" x2="2354.5" y2="2110.0" />
        <line x1="420.46666666666664" y1="2095.8" x2="454.0" y2="2094.1428571428573" />
        <line x1="2657.090909090909" y1="319.45454545454544" x2="2690.7" y2="319.6" />
        <line x1="620.0" y1="380.0" x2="598.75" y2="353.75" />
        <line x1="2478.1666666666665" y1="1251.8333333333333" x2="2485.625" y2="1284.8125" />
        <line x1="509.9" y1="2848.35" x2="482.2" y2="2867.8" />
        <line x1="2477.0" y1="916.1538461538462" x2="2475.0" y2="950.0" />
        <line x1="2320.0" y1="2696.0" x2="2323.3333333333335" y2="2729.75" />
        <line x1="2784.4210526315787" y1="1468.157894736842" x2="2784.035714285714" y2="1502.0714285714287" />
        <line x1="2448.2" y1="385.6" x2="2482.030303030303" y2="382.8181818181818" />
        <line x1="647.6363636363636" y1="1747.0" x2="624.4333333333333" y2="1771.8333333333333" />
        <line x1="2810.0" y1="955.5" x2="2810.0" y2="989.5" />
        <line x1="1019.2941176470588" y1="2848.5882352941176" x2="1053.2941176470588" y2="2848.764705882353" />
        <line x1="1350.0" y1="401.5" x2="1349.5" y2="435.5" />
        <line x1="1198.7826086956522" y1="2847.1739130434785" x2="1232.7894736842106" y2="2846.4736842105262" />
        <line x1="750.75" y1="2848.6666666666665" x2="784.8571428571429" y2="2848.1428571428573" />
        <line x1="1940.0" y1="2850.0" x2="1974.1333333333334" y2="2848.866666666667" />
        <line x1="2810.0" y1="870.3333333333334" x2="2810.0" y2="904.5" />
        <line x1="495.27777777777777" y1="2035.7222222222222" x2="494.0" y2="2070.0" />
        <line x1="899.2" y1="386.7" x2="933.5" y2="388.125" />
        <line x1="864.8" y1="387.3333333333333" x2="899.2" y2="386.7" />
        <line x1="1525.0" y1="2847.0" x2="1559.4074074074074" y2="2847.5925925925926" />
        <line x1="1394.9444444444443" y1="1247.9444444444443" x2="1410.0" y2="1279.0" />
        <line x1="1968.1904761904761" y1="387.42857142857144" x2="2002.7058823529412" y2="386.94117647058823" />
        <line x1="2786.909090909091" y1="2066.818181818182" x2="2774.0227272727275" y2="2098.8863636363635" />
        <line x1="1016.9090909090909" y1="1607.909090909091" x2="1051.4761904761904" y2="1607.7619047619048" />
        <line x1="2327.181818181818" y1="2187.0" x2="2327.1428571428573" y2="2221.5714285714284" />
        <line x1="703.8518518518518" y1="1694.9259259259259" x2="677.6428571428571" y2="1717.5714285714287" />
        <line x1="2479.0" y1="680.0" x2="2477.5" y2="714.6666666666666" />
        <line x1="197.8235294117647" y1="2358.705882352941" x2="198.28571428571428" y2="2393.4285714285716" />
        <line x1="1108.5" y1="965.3" x2="1110.0" y2="1000.0" />
        <line x1="1149.36" y1="2056.42" x2="1183.3030303030303" y2="2064.6666666666665" />
        <line x1="1847.0454545454545" y1="386.95454545454544" x2="1882.032258064516" y2="387.19354838709677" />
        <line x1="2810.0" y1="1020.75" x2="2810.0" y2="1055.75" />
        <line x1="564.2857142857143" y1="2848.8571428571427" x2="599.2857142857143" y2="2848.714285714286" />
        <line x1="656.0" y1="2848.625" x2="691.1578947368421" y2="2848.8947368421054" />
        <line x1="2088.3125" y1="2848.6875" x2="2123.6666666666665" y2="2848.0833333333335" />
        <line x1="2206.4615384615386" y1="386.8076923076923" x2="2241.923076923077" y2="386.8974358974359" />
        <line x1="385.0" y1="2096.6153846153848" x2="420.46666666666664" y2="2095.8" />
        <line x1="197.8" y1="2564.8" x2="213.42857142857142" y2="2596.714285714286" />
        <line x1="497.0" y1="1916.4285714285713" x2="495.3235294117647" y2="1951.9411764705883" />
        <line x1="1420.5" y1="1309.5" x2="1390.888888888889" y2="1329.1851851851852" />
        <line x1="1846.25" y1="2850.0" x2="1881.8333333333333" y2="2850.0" />
        <line x1="1695.3333333333333" y1="386.8888888888889" x2="1731.125" y2="386.78125" />
        <line x1="1149.36" y1="2056.42" x2="1149.5" y2="2020.5" />
        <line x1="2808.6666666666665" y1="626.4444444444445" x2="2808.2" y2="662.4" />
        <line x1="228.0" y1="1325.1666666666667" x2="226.5" y2="1361.142857142857" />
        <line x1="1108.1666666666667" y1="814.0" x2="1107.0" y2="850.0" />
        <line x1="2268.5" y1="2849.0555555555557" x2="2304.5" y2="2846.375" />
        <line x1="2504.285714285714" y1="1328.7142857142858" x2="2540.0" y2="1334.0" />
        <line x1="907.8571428571429" y1="1191.2857142857142" x2="936.375" y2="1213.4375" />
        <line x1="1378.5" y1="2846.9444444444443" x2="1414.888888888889" y2="2846.5555555555557" />
        <line x1="2779.0" y1="1348.4285714285713" x2="2784.4615384615386" y2="1384.6153846153845" />
        <line x1="1546.1333333333334" y1="387.23333333333335" x2="1583.0" y2="386.72222222222223" />
        <line x1="2485.625" y1="1284.8125" x2="2486.4666666666667" y2="1321.7333333333333" />
        <line x1="744.5" y1="380.0" x2="781.0526315789474" y2="386.6842105263158" />
        <line x1="1580.0" y1="2097.0" x2="1557.9" y2="2127.2" />
        <line x1="225.0" y1="1624.8333333333333" x2="243.42857142857142" y2="1657.5714285714287" />
        <line x1="2619.1666666666665" y1="319.5833333333333" x2="2657.090909090909" y2="319.45454545454544" />
        <line x1="2703.0" y1="2100.0" x2="2741.0" y2="2100.0" />
        <line x1="1084.125" y1="2846.75" x2="1095.0" y2="2810.0" />
        <line x1="243.42857142857142" y1="1657.5714285714287" x2="281.1818181818182" y2="1664.7727272727273" />
        <line x1="1777.0" y1="2850.0" x2="1816.25" y2="2850.0" />
        <line x1="2479.3333333333335" y1="401.0" x2="2484.0" y2="440.0" />
        <line x1="578.8333333333334" y1="388.3333333333333" x2="598.75" y2="353.75" />
        <line x1="2570.1666666666665" y1="2100.0" x2="2610.1666666666665" y2="2100.0" />
        <line x1="2320.0" y1="2786.0" x2="2319.3333333333335" y2="2826.5" />
        <line x1="227.71428571428572" y1="1234.5714285714287" x2="227.0" y2="1275.8" />
        <line x1="1137.0" y1="380.0" x2="1102.0" y2="402.8125" />
        <line x1="1683.25" y1="2850.0" x2="1725.25" y2="2850.0" />
        <line x1="2472.25" y1="2100.0" x2="2515.5" y2="2100.0" />
        <line x1="620.0" y1="380.0" x2="665.5" y2="380.0" />
    </g>
    <g stroke="rgb(0,0,156)" stroke-width="1.5" opacity="0.8">
        <line x1="970.5" y1="1266.25" x2="968.75" y2="1281.25" />
        <line x1="2480.0" y1="1068.0" x2="2487.904761904762" y2="1082.8095238095239" />
        <line x1="1538.1304347826087" y1="2318.478260869565" x2="1553.5714285714287" y2="2308.785714285714" />
        <line x1="899.5" y1="2049.5" x2="919.1" y2="2049.1" />
        <line x1="1000.2727272727273" y1="2049.181818181818" x2="1020.0" y2="2049.5" />
        <line x1="1088.8048780487804" y1="2055.2926829268295" x2="1093.9444444444443" y2="2074.8333333333335" />
        <line x1="1151.0" y1="1679.6" x2="1149.0" y2="1700.0" />
        <line x1="1349.3333333333333" y1="1047.3333333333333" x2="1349.5384615384614" y2="1068.2307692307693" />
        <line x1="1558.6666666666667" y1="2699.2051282051284" x2="1559.0" y2="2721.1666666666665" />
        <line x1="1404.25" y1="2060.0" x2="1426.25" y2="2060.0" />
        <line x1="1554.388888888889" y1="2060.314814814815" x2="1560.0" y2="2082.0" />
        <line x1="1105.6279069767443" y1="521.0930232558139" x2="1106.5" y2="544.5714285714286" />
        <line x1="1559.1666666666667" y1="2586.3333333333335" x2="1558.6538461538462" y2="2610.6923076923076" />
        <line x1="551.9268292682926" y1="1166.1951219512196" x2="576.4736842105264" y2="1166.157894736842" />
        <line x1="1558.5625" y1="2344.25" x2="1558.6129032258063" y2="2368.8709677419356" />
        <line x1="1130.8222222222223" y1="2324.288888888889" x2="1155.578947368421" y2="2323.7894736842104" />
        <line x1="1093.8775510204082" y1="2539.6938775510203" x2="1094.5882352941176" y2="2564.529411764706" />
        <line x1="851.1538461538462" y1="1168.923076923077" x2="876.0" y2="1169.5" />
        <line x1="1064.5" y1="2049.277777777778" x2="1088.8048780487804" y2="2055.2926829268295" />
        <line x1="1349.4285714285713" y1="711.1428571428571" x2="1349.5625" y2="736.1875" />
        <line x1="490.81081081081084" y1="1166.1081081081081" x2="515.875" y2="1167.0" />
        <line x1="2124.909090909091" y1="2095.409090909091" x2="2150.5087719298244" y2="2094.7368421052633" />
        <line x1="1558.3823529411766" y1="2762.3823529411766" x2="1558.7142857142858" y2="2788.0714285714284" />
        <line x1="1104.4375" y1="463.0" x2="1104.52" y2="488.76" />
        <line x1="2209.8958333333335" y1="2094.875" x2="2235.7916666666665" y2="2094.9166666666665" />
        <line x1="1558.9565217391305" y1="2464.086956521739" x2="1560.0" y2="2490.0" />
        <line x1="972.0" y1="1530.0" x2="968.8666666666667" y2="1556.2666666666667" />
        <line x1="1493.5" y1="2060.0" x2="1520.0" y2="2060.0" />
        <line x1="1349.3333333333333" y1="923.0" x2="1349.6" y2="949.65" />
        <line x1="1558.8" y1="2672.5" x2="1558.6666666666667" y2="2699.2051282051284" />
        <line x1="919.1" y1="2049.1" x2="946.0" y2="2049.4666666666667" />
        <line x1="1560.0" y1="1477.0" x2="1560.0" y2="1504.0" />
        <line x1="1349.5" y1="831.25" x2="1349.3333333333333" y2="858.3333333333334" />
        <line x1="1107.409090909091" y1="642.1818181818181" x2="1107.3148148148148" y2="669.2777777777778" />
        <line x1="1349.5555555555557" y1="503.22222222222223" x2="1349.4285714285713" y2="530.4285714285714" />
        <line x1="1560.0" y1="1504.0" x2="1560.0" y2="1531.5" />
        <line x1="279.8888888888889" y1="1166.4722222222222" x2="307.4117647058824" y2="1166.1176470588234" />
        <line x1="372.8666666666667" y1="1167.0" x2="400.4074074074074" y2="1166.1851851851852" />
        <line x1="1088.8048780487804" y1="2055.2926829268295" x2="1116.5" y2="2057.5" />
        <line x1="1093.9130434782608" y1="2451.2608695652175" x2="1093.9444444444443" y2="2479.0555555555557" />
        <line x1="1349.5" y1="563.0" x2="1349.5" y2="590.8333333333334" />
        <line x1="252.05" y1="1167.05" x2="279.8888888888889" y2="1166.4722222222222" />
        <line x1="1349.5" y1="590.8333333333334" x2="1349.5" y2="618.75" />
        <line x1="400.4074074074074" y1="1166.1851851851852" x2="428.51724137931035" y2="1166.0" />
        <line x1="1761.5714285714287" y1="2097.285714285714" x2="1789.6875" y2="2097.78125" />
        <line x1="1349.4444444444443" y1="1099.4444444444443" x2="1346.7" y2="1127.68" />
        <line x1="1576.3333333333333" y1="1354.095238095238" x2="1564.0" y2="1380.0" />
        <line x1="1558.6538461538462" y1="2610.6923076923076" x2="1558.5757575757575" y2="2639.4545454545455" />
        <line x1="1560.0" y1="1531.5" x2="1562.3658536585365" y2="1560.2682926829268" />
        <line x1="1280.6415094339623" y1="2324.490566037736" x2="1309.5777777777778" y2="2323.822222222222" />
        <line x1="2150.5087719298244" y1="2094.7368421052633" x2="2179.476923076923" y2="2094.876923076923" />
        <line x1="1349.5" y1="802.1666666666666" x2="1349.5" y2="831.25" />
        <line x1="1349.5" y1="618.75" x2="1349.4285714285713" y2="647.8571428571429" />
        <line x1="461.56410256410254" y1="1166.5897435897436" x2="490.81081081081084" y2="1166.1081081081081" />
        <line x1="1108.0" y1="760.0" x2="1107.095238095238" y2="789.2380952380952" />
        <line x1="1094.3958333333333" y1="2510.3333333333335" x2="1093.8775510204082" y2="2539.6938775510203" />
        <line x1="1880.5641025641025" y1="2097.769230769231" x2="1909.95" y2="2097.075" />
        <line x1="1349.6" y1="949.65" x2="1349.4375" y2="979.125" />
        <line x1="1190.340909090909" y1="2324.0227272727275" x2="1219.8653846153845" y2="2324.3076923076924" />
        <line x1="1558.6129032258063" y1="2368.8709677419356" x2="1558.68" y2="2398.4" />
        <line x1="1820.421052631579" y1="2097.5789473684213" x2="1850.0" y2="2097.809523809524" />
        <line x1="1152.6944444444443" y1="1960.1666666666667" x2="1149.5555555555557" y2="1989.611111111111" />
        <line x1="1107.0" y1="580.0" x2="1107.0" y2="610.0" />
        <line x1="1108.0" y1="730.0" x2="1108.0" y2="760.0" />
        <line x1="610.0" y1="1168.0" x2="640.0" y2="1168.0" />
        <line x1="640.0" y1="1168.0" x2="670.0" y2="1168.0" />
        <line x1="670.0" y1="1168.0" x2="700.0" y2="1168.0" />
        <line x1="700.0" y1="1168.0" x2="730.0" y2="1168.0" />
        <line x1="730.0" y1="1168.0" x2="760.0" y2="1168.0" />
        <line x1="760.0" y1="1168.0" x2="790.0" y2="1168.0" />
        <line x1="790.0" y1="1168.0" x2="820.0" y2="1168.0" />
        <line x1="1610.0" y1="1352.5" x2="1640.0" y2="1352.5" />
        <line x1="1640.0" y1="1352.5" x2="1670.0" y2="1352.5" />
        <line x1="1670.0" y1="1352.5" x2="1700.0" y2="1352.5" />
        <line x1="1700.0" y1="1352.5" x2="1730.0" y2="1352.5" />
        <line x1="1730.0" y1="1352.5" x2="1760.0" y2="1352.5" />
        <line x1="1760.0" y1="1352.5" x2="1790.0" y2="1352.5" />
        <line x1="1790.0" y1="1352.5" x2="1820.0" y2="1352.5" />
        <line x1="1820.0" y1="1352.5" x2="1850.0" y2="1352.5" />
        <line x1="1850.0" y1="1352.5" x2="1880.0" y2="1352.5" />
        <line x1="1880.0" y1="1352.5" x2="1910.0" y2="1352.5" />
        <line x1="1910.0" y1="1352.5" x2="1940.0" y2="1352.5" />
        <line x1="1940.0" y1="1352.5" x2="1970.0" y2="1352.5" />
        <line x1="1970.0" y1="1352.5" x2="2000.0" y2="1352.5" />
        <line x1="2000.0" y1="1352.5" x2="2030.0" y2="1352.5" />
        <line x1="2030.0" y1="1352.5" x2="2060.0" y2="1352.5" />
        <line x1="2060.0" y1="1352.5" x2="2090.0" y2="1352.5" />
        <line x1="2090.0" y1="1352.5" x2="2120.0" y2="1352.5" />
        <line x1="2120.0" y1="1352.5" x2="2150.0" y2="1352.5" />
        <line x1="2150.0" y1="1352.5" x2="2180.0" y2="1352.5" />
        <line x1="2180.0" y1="1352.5" x2="2210.0" y2="1352.5" />
        <line x1="2210.0" y1="1352.5" x2="2240.0" y2="1352.5" />
        <line x1="2240.0" y1="1352.5" x2="2270.0" y2="1352.5" />
        <line x1="2270.0" y1="1352.5" x2="2300.0" y2="1352.5" />
        <line x1="2300.0" y1="1352.5" x2="2330.0" y2="1352.5" />
        <line x1="2330.0" y1="1352.5" x2="2360.0" y2="1352.5" />
        <line x1="2360.0" y1="1352.5" x2="2390.0" y2="1352.5" />
        <line x1="2390.0" y1="1352.5" x2="2420.0" y2="1352.5" />
        <line x1="1564.0" y1="1380.0" x2="1564.0" y2="1410.0" />
        <line x1="1564.0" y1="1410.0" x2="1564.0" y2="1440.0" />
        <line x1="1149.0" y1="1700.0" x2="1149.0" y2="1730.0" />
        <line x1="1149.0" y1="1730.0" x2="1149.0" y2="1760.0" />
        <line x1="1560.0" y1="1970.0" x2="1560.0" y2="2000.0" />
        <line x1="1560.0" y1="2000.0" x2="1560.0" y2="2030.0" />
        <line x1="1940.0" y1="2096.5" x2="1970.0" y2="2096.5" />
        <line x1="1970.0" y1="2096.5" x2="2000.0" y2="2096.5" />
        <line x1="2000.0" y1="2096.5" x2="2030.0" y2="2096.5" />
        <line x1="2030.0" y1="2096.5" x2="2060.0" y2="2096.5" />
        <line x1="2060.0" y1="2096.5" x2="2090.0" y2="2096.5" />
        <line x1="1093.0" y1="2360.0" x2="1093.0" y2="2390.0" />
        <line x1="1093.0" y1="2390.0" x2="1093.0" y2="2420.0" />
        <line x1="1560.0" y1="2490.0" x2="1560.0" y2="2520.0" />
        <line x1="1560.0" y1="2520.0" x2="1560.0" y2="2550.0" />
        <line x1="1095.0" y1="2600.0" x2="1095.0" y2="2630.0" />
        <line x1="1095.0" y1="2630.0" x2="1095.0" y2="2660.0" />
        <line x1="1095.0" y1="2660.0" x2="1095.0" y2="2690.0" />
        <line x1="1095.0" y1="2690.0" x2="1095.0" y2="2720.0" />
        <line x1="1095.0" y1="2720.0" x2="1095.0" y2="2750.0" />
        <line x1="1095.0" y1="2750.0" x2="1095.0" y2="2780.0" />
        <line x1="1095.0" y1="2780.0" x2="1095.0" y2="2810.0" />
        <line x1="1909.95" y1="2097.075" x2="1940.0" y2="2096.5" />
        <line x1="1340.953488372093" y1="2324.1162790697676" x2="1370.982456140351" y2="2327.0877192982457" />
        <line x1="1107.3148148148148" y1="669.2777777777778" x2="1107.4634146341464" y2="699.4878048780488" />
        <line x1="1560.0" y1="1939.75" x2="1560.0" y2="1970.0" />
        <line x1="1562.3658536585365" y1="1560.2682926829268" x2="1562.4444444444443" y2="1590.5185185185185" />
        <line x1="1219.8653846153845" y1="2324.3076923076924" x2="1250.1702127659576" y2="2324.2127659574467" />
        <line x1="2179.476923076923" y1="2094.876923076923" x2="2209.8958333333335" y2="2094.875" />
        <line x1="1250.1702127659576" y1="2324.2127659574467" x2="1280.6415094339623" y2="2324.490566037736" />
        <line x1="1107.4634146341464" y1="699.4878048780488" x2="1108.0" y2="730.0" />
        <line x1="1850.0" y1="2097.809523809524" x2="1880.5641025641025" y2="2097.769230769231" />
        <line x1="1558.7142857142858" y1="2788.0714285714284" x2="1558.6363636363637" y2="2818.6363636363635" />
        <line x1="2269.019230769231" y1="2094.980769230769" x2="2299.655172413793" y2="2095.4827586206898" />
        <line x1="1789.6875" y1="2097.78125" x2="1820.421052631579" y2="2097.5789473684213" />
        <line x1="1560.0" y1="2030.0" x2="1554.388888888889" y2="2060.314814814815" />
        <line x1="1149.5555555555557" y1="1989.611111111111" x2="1149.5" y2="2020.5" />
        <line x1="1426.25" y1="2060.0" x2="1457.25" y2="2060.0" />
        <line x1="1560.0" y1="1680.0" x2="1571.0" y2="1709.0" />
        <line x1="1349.4285714285713" y1="647.8571428571429" x2="1349.3333333333333" y2="679.0" />
        <line x1="820.0" y1="1168.0" x2="851.1538461538462" y2="1168.923076923077" />
        <line x1="1349.5384615384614" y1="1068.2307692307693" x2="1349.4444444444443" y2="1099.4444444444443" />
        <line x1="1093.0" y1="2420.0" x2="1093.9130434782608" y2="2451.2608695652175" />
        <line x1="1093.9444444444443" y1="2479.0555555555557" x2="1094.3958333333333" y2="2510.3333333333335" />
        <line x1="1093.0" y1="2296.8333333333335" x2="1095.5869565217392" y2="2328.0652173913045" />
        <line x1="1309.5777777777778" y1="2323.822222222222" x2="1340.953488372093" y2="2324.1162790697676" />
        <line x1="1560.0" y1="1908.25" x2="1560.0" y2="1939.75" />
        <line x1="1315.15" y1="1125.7" x2="1346.7" y2="1127.68" />
        <line x1="1349.5384615384614" y1="891.3846153846154" x2="1349.3333333333333" y2="923.0" />
        <line x1="968.8666666666667" y1="1556.2666666666667" x2="968.4444444444445" y2="1587.888888888889" />
        <line x1="1558.8484848484848" y1="2432.242424242424" x2="1558.9565217391305" y2="2464.086956521739" />
        <line x1="1077.9166666666667" y1="1126.4166666666667" x2="1108.5438596491229" y2="1117.438596491228" />
        <line x1="1095.5869565217392" y1="2328.0652173913045" x2="1093.0" y2="2360.0" />
        <line x1="1349.3333333333333" y1="679.0" x2="1349.4285714285713" y2="711.1428571428571" />
        <line x1="1107.0" y1="610.0" x2="1107.409090909091" y2="642.1818181818181" />
        <line x1="899.5" y1="2049.5" x2="868.8" y2="2059.4" />
        <line x1="1104.52" y1="488.76" x2="1105.6279069767443" y2="521.0930232558139" />
        <line x1="1353.0" y1="770.0" x2="1349.5" y2="802.1666666666666" />
        <line x1="1349.4285714285713" y1="530.4285714285714" x2="1349.5" y2="563.0" />
        <line x1="307.4117647058824" y1="1166.1176470588234" x2="340.0" y2="1166.7" />
        <line x1="1349.4375" y1="979.125" x2="1349.4444444444443" y2="1011.7777777777778" />
        <line x1="1349.4375" y1="470.4375" x2="1349.5555555555557" y2="503.22222222222223" />
        <line x1="340.0" y1="1166.7" x2="372.8666666666667" y2="1167.0" />
        <line x1="1538.1304347826087" y1="2318.478260869565" x2="1558.5625" y2="2344.25" />
        <line x1="1104.0" y1="430.0" x2="1104.4375" y2="463.0" />
        <line x1="1558.5757575757575" y1="2639.4545454545455" x2="1558.8" y2="2672.5" />
        <line x1="1349.3333333333333" y1="858.3333333333334" x2="1349.5384615384614" y2="891.3846153846154" />
        <line x1="428.51724137931035" y1="1166.0" x2="461.56410256410254" y2="1166.5897435897436" />
        <line x1="2235.7916666666665" y1="2094.9166666666665" x2="2269.019230769231" y2="2094.980769230769" />
        <line x1="576.4736842105264" y1="1166.157894736842" x2="610.0" y2="1168.0" />
        <line x1="1576.3333333333333" y1="1354.095238095238" x2="1610.0" y2="1352.5" />
        <line x1="1558.68" y1="2398.4" x2="1558.8484848484848" y2="2432.242424242424" />
        <line x1="1349.5625" y1="736.1875" x2="1353.0" y2="770.0" />
        <line x1="1520.0" y1="2060.0" x2="1554.388888888889" y2="2060.314814814815" />
        <line x1="1155.578947368421" y1="2323.7894736842104" x2="1190.340909090909" y2="2324.0227272727275" />
        <line x1="2090.0" y1="2096.5" x2="2124.909090909091" y2="2095.409090909091" />
        <line x1="1349.5" y1="435.5" x2="1349.4375" y2="470.4375" />
        <line x1="1108.5438596491229" y1="1117.438596491228" x2="1142.5555555555557" y2="1126.5" />
        <line x1="1106.5" y1="544.5714285714286" x2="1107.0" y2="580.0" />
        <line x1="1130.8222222222223" y1="2324.288888888889" x2="1095.5869565217392" y2="2328.0652173913045" />
        <line x1="1094.5882352941176" y1="2564.529411764706" x2="1095.0" y2="2600.0" />
        <line x1="1349.4444444444443" y1="1011.7777777777778" x2="1349.3333333333333" y2="1047.3333333333333" />
        <line x1="515.875" y1="1167.0" x2="551.9268292682926" y2="1166.1951219512196" />
        <line x1="1457.25" y1="2060.0" x2="1493.5" y2="2060.0" />
        <line x1="1560.0" y1="2550.0" x2="1559.1666666666667" y2="2586.3333333333335" />
        <line x1="2456.8333333333335" y1="1349.1666666666667" x2="2420.0" y2="1352.5" />
        <line x1="1564.0" y1="1440.0" x2="1560.0" y2="1477.0" />
        <line x1="1366.1052631578948" y1="2058.6315789473683" x2="1404.25" y2="2060.0" />
        <line x1="1093.9444444444443" y1="2074.8333333333335" x2="1089.0" y2="2114.0" />
        <line x1="1559.0" y1="2721.1666666666665" x2="1558.3823529411766" y2="2762.3823529411766" />
        <line x1="1020.0" y1="2049.5" x2="1064.5" y2="2049.277777777778" />
        <line x1="946.0" y1="2049.4666666666667" x2="1000.2727272727273" y2="2049.181818181818" />
        <line x1="1830.0" y1="1636.0" x2="1886.4117647058824" y2="1645.5294117647059" />
    </g>
</svg>