<?xml version='1.0' encoding='utf-8'?>
<svg xmlns="http://www.w3.org/2000/svg" version="1.1" width="1024" height="1536" viewBox="0 0 1024 1536"><rect x="0" y="0" width="1024" height="1536" fill="#FFFFFF" /><polyline points="394,298 443,297 444,295 443,248 383,247 387,222 398,204 421,186 443,181 443,108 253,108 178,181 295,297 394,298" fill="none" stroke="#0000FF" stroke-width="2" /><polyline points="450,1056 474,1046 487,1033 495,1018 500,985 543,984 544,904 613,903 605,875 591,858 572,848 542,844 543,683 604,682 612,681 613,678 605,653 590,635 573,626 546,624 542,619 543,394 612,393 612,384 604,364 591,348 569,337 542,335 542,108 462,108 461,186 459,188 437,188 417,196 400,212 390,233 391,243 461,245 462,313 460,315 418,315 418,368 388,372 371,381 355,398 348,417 348,425 355,426 416,426 416,526 414,528 321,528 320,598 240,678 240,799 392,799 419,802 420,854 418,856 354,856 353,862 361,885 376,901 400,912 418,912 420,915 419,985 437,987 437,1056 450,1056" fill="none" stroke="#00FF00" stroke-width="2" /><polyline points="797,417 914,416 913,109 561,108 560,330 589,339 603,352 614,369 619,398 561,399 560,416 797,417" fill="none" stroke="#FF0000" stroke-width="2" /><polyline points="368,494 400,493 399,431 343,431 342,414 350,394 366,376 384,366 400,363 399,316 287,314 165,193 83,275 83,493 368,494" fill="none" stroke="#00FFFF" stroke-width="2" /><polyline points="884,714 914,713 916,702 942,667 942,560 914,526 913,434 560,435 560,618 580,622 595,631 614,656 619,676 617,687 561,687 561,713 884,714" fill="none" stroke="#FF00FF" stroke-width="2" /><polyline points="913,1075 913,731 560,732 560,840 578,843 596,854 610,871 619,898 619,906 616,909 560,910 561,1075 913,1075" fill="none" stroke="#FFFF00" stroke-width="2" /><polyline points="292,1091 309,1090 402,993 402,919 375,908 360,895 348,871 346,856 349,850 402,850 402,835 85,834 83,1090 292,1091" fill="none" stroke="#0080FF" stroke-width="2" /><polyline points="540,1396 543,1371 543,1192 570,1188 589,1178 605,1158 609,1137 542,1134 542,1003 505,1003 502,1017 492,1037 473,1054 447,1063 433,1063 430,1060 431,1004 415,1003 379,1041 379,1132 398,1136 418,1151 432,1174 435,1198 379,1200 379,1362 412,1395 540,1396" fill="none" stroke="#FF0080" stroke-width="2" /><polyline points="934,1413 975,1412 976,1086 973,1080 947,1082 948,1107 946,1108 899,1109 900,1179 884,1180 864,1187 848,1202 838,1225 839,1231 899,1231 899,1412 934,1413" fill="none" stroke="#FF8000" stroke-width="2" /><polyline points="866,1396 867,1238 832,1236 833,1220 838,1206 857,1184 870,1178 866,1175 866,1093 560,1094 561,1129 610,1129 616,1132 613,1156 603,1173 588,1187 559,1200 561,1395 866,1396" fill="none" stroke="#8080FF" stroke-width="2" /><polyline points="346,1322 362,1321 362,1194 428,1193 428,1183 420,1164 409,1150 394,1141 363,1137 361,1107 214,1107 213,1321 346,1322" fill="none" stroke="#80FF80" stroke-width="2" /></svg>