<?xml version='1.0' encoding='utf-8'?>
<svg xmlns="http://www.w3.org/2000/svg" version="1.1" width="1024" height="1536" viewBox="0 0 1024 1536"><rect x="0" y="0" width="1024" height="1536" fill="#FFFFFF" /><polyline points="225,400 314,399 319,374 329,359 342,348 370,338 380,338 383,342 383,399 389,399 389,115 126,116 126,399 225,400" fill="none" stroke="#0000FF" stroke-width="2" /><polyline points="448,352 487,351 492,331 506,311 529,297 548,293 554,293 556,297 556,351 571,351 570,115 405,117 406,351 448,352" fill="none" stroke="#00FF00" stroke-width="2" /><polyline points="857,509 896,507 895,116 589,116 588,413 611,418 632,434 646,459 649,481 645,483 589,482 587,509 857,509" fill="none" stroke="#FF0000" stroke-width="2" /><polyline points="473,1034 473,966 476,962 486,963 488,884 571,884 573,883 571,871 575,866 646,866 641,843 626,821 607,810 574,807 571,805 573,748 645,748 639,723 625,703 599,690 573,690 571,688 570,478 640,477 642,469 631,443 616,428 598,420 570,418 571,368 553,367 550,365 550,300 526,305 505,322 495,341 494,364 491,367 406,369 406,430 429,435 450,452 461,471 464,499 463,501 406,502 406,858 402,862 378,863 356,874 342,890 334,914 335,919 404,920 406,962 418,964 420,990 429,1011 444,1025 473,1034" fill="none" stroke="#00FFFF" stroke-width="2" /><polyline points="336,543 389,542 389,497 393,494 458,494 454,471 438,448 418,438 391,436 389,416 377,414 376,345 356,348 334,363 323,381 321,411 318,415 126,417 127,542 336,543" fill="none" stroke="#FF00FF" stroke-width="2" /><polyline points="690,776 895,774 895,525 588,526 588,683 612,688 626,696 643,717 651,742 650,754 589,754 588,775 690,776" fill="none" stroke="#FFFF00" stroke-width="2" /><polyline points="386,963 389,962 389,926 332,926 328,920 331,899 343,878 363,862 389,855 389,560 127,559 126,963 386,963" fill="none" stroke="#0080FF" stroke-width="2" /><polyline points="772,1321 774,1251 896,1252 895,792 589,792 589,801 611,805 623,811 638,826 650,849 652,870 651,872 589,872 588,898 585,901 503,901 503,1252 717,1251 719,1278 727,1298 743,1313 757,1319 772,1321" fill="none" stroke="#FF0080" stroke-width="2" /><polyline points="470,1253 486,1252 486,980 479,980 478,1040 456,1037 435,1026 420,1009 413,979 125,981 127,1252 470,1253" fill="none" stroke="#FF8000" stroke-width="2" /><polyline points="887,1420 905,1419 905,1287 779,1287 777,1328 758,1326 738,1317 723,1303 715,1285 271,1288 272,1419 887,1420" fill="none" stroke="#8080FF" stroke-width="2" /></svg>