<?xml version='1.0' encoding='utf-8'?>
<svg xmlns="http://www.w3.org/2000/svg" width="1024" height="1536">
  
  <rect width="1024" height="1536" fill="black" />

  
  <g stroke-width="2.0" fill="none" opacity="0.8">
    <line x1="988.0" y1="1088.6" x2="988.0" y2="1412.3" stroke="#00ff00" /><line x1="933.0" y1="97.6" x2="933.0" y2="1088.6" stroke="#00ff00" /><line x1="879.0" y1="1412.3" x2="879.0" y2="1235.9" stroke="#00ff00" /><line x1="202.9" y1="1328.1" x2="202.9" y2="1088.6" stroke="#00ff00" /><line x1="71.2" y1="513.9" x2="407.5" y2="513.9" stroke="#00ff00" /><line x1="988.0" y1="1088.6" x2="879.0" y2="1088.6" stroke="#00ff00" /><line x1="879.0" y1="1171.0" x2="879.0" y2="1088.6" stroke="#00ff00" /><line x1="71.2" y1="830.6" x2="407.5" y2="830.6" stroke="#00ff00" /><line x1="988.0" y1="1412.3" x2="407.5" y2="1412.3" stroke="#00ff00" /><line x1="366.8" y1="1328.1" x2="366.8" y2="1365.2" stroke="#00ff00" /><line x1="249.9" y1="97.6" x2="933.0" y2="97.6" stroke="#00ff00" /><line x1="71.2" y1="1088.6" x2="202.9" y2="1088.6" stroke="#00ff00" /><line x1="301.8" y1="590.8" x2="301.8" y2="513.9" stroke="#00ff00" /><line x1="71.2" y1="830.6" x2="71.2" y2="1088.6" stroke="#00ff00" /><line x1="553.1" y1="1396.2" x2="553.1" y2="1412.3" stroke="#00ff00" /><line x1="157.0" y1="181.2" x2="167.4" y2="181.2" stroke="#00ff00" /><line x1="249.9" y1="97.6" x2="229.7" y2="116.0" stroke="#00ff00" /><line x1="167.4" y1="181.2" x2="202.9" y2="154.8" stroke="#00ff00" /><line x1="366.8" y1="1088.6" x2="301.8" y2="1088.6" stroke="#00ff00" /><line x1="366.8" y1="1039.4" x2="366.8" y2="1088.6" stroke="#00ff00" /><line x1="407.5" y1="1412.3" x2="366.8" y2="1365.2" stroke="#00ff00" /><line x1="229.7" y1="116.0" x2="202.9" y2="154.8" stroke="#00ff00" /><line x1="229.7" y1="682.8" x2="301.8" y2="590.8" stroke="#00ff00" /><line x1="157.0" y1="181.2" x2="71.2" y2="256.1" stroke="#00ff00" /><line x1="229.7" y1="682.8" x2="229.7" y2="830.6" stroke="#00ff00" /><line x1="202.9" y1="1328.1" x2="366.8" y2="1328.1" stroke="#00ff00" /><line x1="71.2" y1="513.9" x2="71.2" y2="256.1" stroke="#00ff00" /><line x1="553.1" y1="425.8" x2="933.0" y2="425.8" stroke="#0000ff" /><line x1="553.1" y1="722.1" x2="933.0" y2="722.1" stroke="#0000ff" /><line x1="553.1" y1="910.6" x2="553.1" y2="1127.8" stroke="#0000ff" /><line x1="553.1" y1="602.5" x2="553.1" y2="380.6" stroke="#0000ff" /><line x1="879.0" y1="1088.6" x2="553.1" y2="1088.6" stroke="#0000ff" /><line x1="451.8" y1="181.2" x2="451.8" y2="97.6" stroke="#0000ff" /><line x1="301.8" y1="306.3" x2="451.8" y2="306.3" stroke="#0000ff" /><line x1="451.8" y1="306.3" x2="451.8" y2="256.1" stroke="#0000ff" /><line x1="202.9" y1="1088.6" x2="301.8" y2="1088.6" stroke="#0000ff" /><line x1="407.5" y1="910.6" x2="407.5" y2="997.5" stroke="#0000ff" /><line x1="407.5" y1="306.3" x2="407.5" y2="380.6" stroke="#0000ff" /><line x1="553.1" y1="329.9" x2="553.1" y2="97.6" stroke="#0000ff" /><line x1="366.8" y1="1202.4" x2="366.8" y2="1328.1" stroke="#0000ff" /><line x1="553.1" y1="1396.2" x2="553.1" y2="1202.4" stroke="#0000ff" /><line x1="553.1" y1="997.5" x2="503.3" y2="997.5" stroke="#0000ff" /><line x1="202.9" y1="230.1" x2="202.9" y2="203.0" stroke="#0000ff" /><line x1="553.1" y1="830.6" x2="553.1" y2="682.8" stroke="#0000ff" /><line x1="229.7" y1="256.1" x2="202.9" y2="230.1" stroke="#0000ff" /><line x1="249.9" y1="256.1" x2="229.7" y2="256.1" stroke="#0000ff" /><line x1="390.0" y1="997.5" x2="430.9" y2="997.5" stroke="#0000ff" /><line x1="390.0" y1="997.5" x2="366.8" y2="1026.2" stroke="#0000ff" /><line x1="366.8" y1="1026.2" x2="366.8" y2="1039.4" stroke="#0000ff" /><line x1="301.8" y1="306.3" x2="274.8" y2="288.8" stroke="#0000ff" /><line x1="366.8" y1="1127.8" x2="366.8" y2="1088.6" stroke="#0000ff" /><line x1="167.4" y1="181.2" x2="202.9" y2="203.0" stroke="#0000ff" /><line x1="249.9" y1="256.1" x2="274.8" y2="288.8" stroke="#0000ff" /><line x1="407.5" y1="513.9" x2="407.5" y2="425.8" stroke="#0000ff" /><line x1="451.8" y1="256.1" x2="451.8" y2="181.2" stroke="#ff0000" /><line x1="366.8" y1="1202.4" x2="366.8" y2="1127.8" stroke="#ff0000" /><line x1="407.5" y1="910.6" x2="407.5" y2="802.0" stroke="#ff0000" /><line x1="553.1" y1="329.9" x2="553.1" y2="380.6" stroke="#ff0000" /><line x1="553.1" y1="602.5" x2="553.1" y2="682.8" stroke="#ff0000" /><line x1="553.1" y1="97.6" x2="553.1" y2="83.0" stroke="#ff0000" /><line x1="407.5" y1="380.6" x2="407.5" y2="425.8" stroke="#ff0000" /><line x1="879.0" y1="1235.9" x2="879.0" y2="1171.0" stroke="#ff0000" /><line x1="553.1" y1="1127.8" x2="553.1" y2="1202.4" stroke="#ff0000" /><line x1="553.1" y1="830.6" x2="553.1" y2="910.6" stroke="#ff0000" /><line x1="430.9" y1="997.5" x2="503.3" y2="997.5" stroke="#ff0000" /></g>

  
  <g opacity="1.0">
    <circle cx="553.1" cy="83.0" r="4.0" fill="#ff0000" />
    <circle cx="553.1" cy="97.6" r="4.0" fill="#0000ff" />
    <circle cx="249.9" cy="97.6" r="4.0" fill="#00ff00" />
    <circle cx="451.8" cy="97.6" r="4.0" fill="#00ff00" />
    <circle cx="933.0" cy="97.6" r="4.0" fill="#00ff00" />
    <circle cx="229.7" cy="116.0" r="4.0" fill="#00ff00" />
    <circle cx="202.9" cy="154.8" r="4.0" fill="#00ff00" />
    <circle cx="167.4" cy="181.2" r="4.0" fill="#0000ff" />
    <circle cx="451.8" cy="181.2" r="4.0" fill="#ff0000" />
    <circle cx="157.0" cy="181.2" r="4.0" fill="#00ff00" />
    <circle cx="202.9" cy="203.0" r="4.0" fill="#0000ff" />
    <circle cx="202.9" cy="230.1" r="4.0" fill="#0000ff" />
    <circle cx="229.7" cy="256.1" r="4.0" fill="#0000ff" />
    <circle cx="451.8" cy="256.1" r="4.0" fill="#0000ff" />
    <circle cx="249.9" cy="256.1" r="4.0" fill="#0000ff" />
    <circle cx="71.2" cy="256.1" r="4.0" fill="#00ff00" />
    <circle cx="274.8" cy="288.8" r="4.0" fill="#0000ff" />
    <circle cx="451.8" cy="306.3" r="4.0" fill="#ff0000" />
    <circle cx="301.8" cy="306.3" r="4.0" fill="#0000ff" />
    <circle cx="407.5" cy="306.3" r="4.0" fill="#0000ff" />
    <circle cx="553.1" cy="329.9" r="4.0" fill="#ff0000" />
    <circle cx="407.5" cy="380.6" r="4.0" fill="#ff0000" />
    <circle cx="553.1" cy="380.6" r="4.0" fill="#0000ff" />
    <circle cx="553.1" cy="425.8" r="4.0" fill="#0000ff" />
    <circle cx="933.0" cy="425.8" r="4.0" fill="#00ff00" />
    <circle cx="407.5" cy="425.8" r="4.0" fill="#0000ff" />
    <circle cx="71.2" cy="513.9" r="4.0" fill="#00ff00" />
    <circle cx="407.5" cy="513.9" r="4.0" fill="#ff0000" />
    <circle cx="301.8" cy="513.9" r="4.0" fill="#00ff00" />
    <circle cx="301.8" cy="590.8" r="4.0" fill="#00ff00" />
    <circle cx="553.1" cy="602.5" r="4.0" fill="#ff0000" />
    <circle cx="229.7" cy="682.8" r="4.0" fill="#00ff00" />
    <circle cx="553.1" cy="682.8" r="4.0" fill="#0000ff" />
    <circle cx="933.0" cy="722.1" r="4.0" fill="#00ff00" />
    <circle cx="553.1" cy="722.1" r="4.0" fill="#0000ff" />
    <circle cx="407.5" cy="802.0" r="4.0" fill="#ff0000" />
    <circle cx="229.7" cy="830.6" r="4.0" fill="#00ff00" />
    <circle cx="407.5" cy="830.6" r="4.0" fill="#ff0000" />
    <circle cx="71.2" cy="830.6" r="4.0" fill="#00ff00" />
    <circle cx="553.1" cy="830.6" r="4.0" fill="#ff0000" />
    <circle cx="407.5" cy="910.6" r="4.0" fill="#0000ff" />
    <circle cx="553.1" cy="910.6" r="4.0" fill="#0000ff" />
    <circle cx="503.3" cy="997.5" r="4.0" fill="#ff0000" />
    <circle cx="407.5" cy="997.5" r="4.0" fill="#0000ff" />
    <circle cx="430.9" cy="997.5" r="4.0" fill="#ff0000" />
    <circle cx="553.1" cy="997.5" r="4.0" fill="#0000ff" />
    <circle cx="390.0" cy="997.5" r="4.0" fill="#0000ff" />
    <circle cx="366.8" cy="1026.2" r="4.0" fill="#0000ff" />
    <circle cx="366.8" cy="1039.4" r="4.0" fill="#00ff00" />
    <circle cx="933.0" cy="1088.6" r="4.0" fill="#ff0000" />
    <circle cx="553.1" cy="1088.6" r="4.0" fill="#0000ff" />
    <circle cx="366.8" cy="1088.6" r="4.0" fill="#0000ff" />
    <circle cx="988.0" cy="1088.6" r="4.0" fill="#00ff00" />
    <circle cx="879.0" cy="1088.6" r="4.0" fill="#00ff00" />
    <circle cx="71.2" cy="1088.6" r="4.0" fill="#00ff00" />
    <circle cx="301.8" cy="1088.6" r="4.0" fill="#0000ff" />
    <circle cx="202.9" cy="1088.6" r="4.0" fill="#00ff00" />
    <circle cx="366.8" cy="1127.8" r="4.0" fill="#ff0000" />
    <circle cx="553.1" cy="1127.8" r="4.0" fill="#ff0000" />
    <circle cx="879.0" cy="1171.0" r="4.0" fill="#ff0000" />
    <circle cx="366.8" cy="1202.4" r="4.0" fill="#0000ff" />
    <circle cx="553.1" cy="1202.4" r="4.0" fill="#0000ff" />
    <circle cx="879.0" cy="1235.9" r="4.0" fill="#00ff00" />
    <circle cx="366.8" cy="1328.1" r="4.0" fill="#00ff00" />
    <circle cx="202.9" cy="1328.1" r="4.0" fill="#00ff00" />
    <circle cx="366.8" cy="1365.2" r="4.0" fill="#00ff00" />
    <circle cx="553.1" cy="1396.2" r="4.0" fill="#00ff00" />
    <circle cx="879.0" cy="1412.3" r="4.0" fill="#00ff00" />
    <circle cx="553.1" cy="1412.3" r="4.0" fill="#ff0000" />
    <circle cx="407.5" cy="1412.3" r="4.0" fill="#00ff00" />
    <circle cx="988.0" cy="1412.3" r="4.0" fill="#00ff00" />
    </g>

</svg>