<?xml version='1.0' encoding='utf-8'?>
<svg xmlns="http://www.w3.org/2000/svg" width="3000" height="3000">
  
  <rect width="3000" height="3000" fill="black" />

  
  <g stroke-width="2.0" fill="none" opacity="0.8">
    <line x1="1563.6" y1="1630.8" x2="1908.3" y2="1630.8" stroke="rgb(0,157,0)" /><line x1="966.0" y1="1222.1" x2="966.0" y2="1281.2" stroke="rgb(0,157,0)" /><line x1="2474.2" y1="1072.5" x2="2474.2" y2="386.6" stroke="rgb(0,157,0)" /><line x1="491.7" y1="1630.8" x2="226.6" y2="1630.8" stroke="rgb(0,157,0)" /><line x1="226.6" y1="2080.4" x2="491.7" y2="2080.4" stroke="rgb(0,157,0)" /><line x1="491.7" y1="2080.4" x2="866.1" y2="2080.4" stroke="rgb(0,157,0)" /><line x1="2783.5" y1="2080.4" x2="2783.5" y2="1338.3" stroke="rgb(0,157,0)" /><line x1="2268.5" y1="2847.8" x2="491.7" y2="2847.8" stroke="rgb(0,157,0)" /><line x1="2809.7" y1="357.8" x2="2809.7" y2="1222.1" stroke="rgb(0,157,0)" /><line x1="2326.5" y1="2080.4" x2="2326.5" y2="2643.0" stroke="rgb(0,157,0)" /><line x1="1116.1" y1="1122.1" x2="1116.1" y2="795.7" stroke="rgb(0,157,0)" /><line x1="2783.5" y1="1338.3" x2="2474.2" y2="1338.3" stroke="rgb(0,157,0)" /><line x1="1116.1" y1="1630.8" x2="784.9" y2="1630.8" stroke="rgb(0,157,0)" /><line x1="226.6" y1="1630.8" x2="226.6" y2="763.0" stroke="rgb(0,157,0)" /><line x1="2783.5" y1="2080.4" x2="2326.5" y2="2080.4" stroke="rgb(0,157,0)" /><line x1="620.0" y1="386.6" x2="2474.2" y2="386.6" stroke="rgb(0,157,0)" /><line x1="491.7" y1="1912.3" x2="491.7" y2="2080.4" stroke="rgb(0,157,0)" /><line x1="2538.8" y1="319.5" x2="2746.8" y2="319.5" stroke="rgb(0,157,0)" /><line x1="1563.6" y1="1338.3" x2="1420.5" y2="1338.3" stroke="rgb(0,157,0)" /><line x1="1420.5" y1="1338.3" x2="1350.7" y2="1338.3" stroke="rgb(0,157,0)" /><line x1="2474.2" y1="1222.1" x2="2474.2" y2="1338.3" stroke="rgb(0,157,0)" /><line x1="491.7" y1="1630.8" x2="586.2" y2="1796.8" stroke="rgb(0,157,0)" /><line x1="2746.8" y1="319.5" x2="2809.7" y2="357.8" stroke="rgb(0,157,0)" /><line x1="226.6" y1="763.0" x2="620.0" y2="386.6" stroke="rgb(0,157,0)" /><line x1="197.5" y1="2149.0" x2="226.6" y2="2080.4" stroke="rgb(0,157,0)" /><line x1="586.2" y1="1796.8" x2="784.9" y2="1630.8" stroke="rgb(0,157,0)" /><line x1="197.5" y1="2564.8" x2="226.6" y2="2596.7" stroke="rgb(0,157,0)" /><line x1="1563.6" y1="2080.4" x2="1761.6" y2="2080.4" stroke="rgb(0,157,0)" /><line x1="226.6" y1="2596.7" x2="491.7" y2="2847.8" stroke="rgb(0,157,0)" /><line x1="866.1" y1="1169.6" x2="966.0" y2="1222.1" stroke="rgb(0,157,0)" /><line x1="2326.5" y1="2643.0" x2="2268.5" y2="2847.8" stroke="rgb(0,157,0)" /><line x1="586.2" y1="1796.8" x2="491.7" y2="1912.3" stroke="rgb(0,157,0)" /><line x1="2474.2" y1="386.6" x2="2538.8" y2="319.5" stroke="rgb(0,157,0)" /><line x1="1350.7" y1="1222.1" x2="1420.5" y2="1338.3" stroke="rgb(0,157,0)" /><line x1="197.5" y1="2564.8" x2="197.5" y2="2149.0" stroke="rgb(0,157,0)" /><line x1="2783.5" y1="1338.3" x2="2809.7" y2="1222.1" stroke="rgb(0,157,0)" /><line x1="1116.1" y1="2025.2" x2="1116.1" y2="1960.2" stroke="rgb(0,157,0)" /><line x1="1563.6" y1="1718.8" x2="1563.6" y2="1912.3" stroke="rgb(155,0,0)" /><line x1="1563.6" y1="2323.3" x2="1350.7" y2="2323.3" stroke="rgb(155,0,0)" /><line x1="1350.7" y1="1122.1" x2="1116.1" y2="1122.1" stroke="rgb(155,0,0)" /><line x1="1563.6" y1="2080.4" x2="1563.6" y2="2323.3" stroke="rgb(155,0,0)" /><line x1="966.0" y1="1281.2" x2="966.0" y2="1530.0" stroke="rgb(155,0,0)" /><line x1="1116.1" y1="1960.2" x2="1116.1" y2="1760.0" stroke="rgb(155,0,0)" /><line x1="1116.1" y1="2080.4" x2="1116.1" y2="2279.5" stroke="rgb(155,0,0)" /><line x1="1350.7" y1="1122.1" x2="1350.7" y2="1222.1" stroke="rgb(155,0,0)" /><line x1="966.0" y1="1222.1" x2="1116.1" y2="1122.1" stroke="rgb(155,0,0)" /><line x1="2474.2" y1="1072.5" x2="2474.2" y2="1222.1" stroke="rgb(155,0,0)" /><line x1="226.6" y1="1169.6" x2="866.1" y2="1169.6" stroke="rgb(0,0,156)" /><line x1="1563.6" y1="2847.8" x2="1563.6" y2="2323.3" stroke="rgb(0,0,156)" /><line x1="1350.7" y1="386.6" x2="1350.7" y2="1122.1" stroke="rgb(0,0,156)" /><line x1="2326.5" y1="2080.4" x2="1761.6" y2="2080.4" stroke="rgb(0,0,156)" /><line x1="1116.1" y1="386.6" x2="1116.1" y2="795.7" stroke="rgb(0,0,156)" /><line x1="1116.1" y1="2847.8" x2="1116.1" y2="2323.3" stroke="rgb(0,0,156)" /><line x1="1116.1" y1="2323.3" x2="1116.1" y2="2279.5" stroke="rgb(0,0,156)" /><line x1="1116.1" y1="2080.4" x2="1116.1" y2="2025.2" stroke="rgb(0,0,156)" /><line x1="1183.3" y1="2080.4" x2="1116.1" y2="2080.4" stroke="rgb(0,0,156)" /><line x1="1116.1" y1="2080.4" x2="866.1" y2="2080.4" stroke="rgb(0,0,156)" /><line x1="1563.6" y1="1338.3" x2="2474.2" y2="1338.3" stroke="rgb(0,0,156)" /><line x1="1563.6" y1="1338.3" x2="1563.6" y2="1718.8" stroke="rgb(0,0,156)" /><line x1="1563.6" y1="1912.3" x2="1563.6" y2="2080.4" stroke="rgb(0,0,156)" /><line x1="1116.1" y1="2323.3" x2="1350.7" y2="2323.3" stroke="rgb(0,0,156)" /><line x1="966.0" y1="1530.0" x2="966.0" y2="1630.8" stroke="rgb(0,0,156)" /><line x1="1563.6" y1="2080.4" x2="1350.7" y2="2080.4" stroke="rgb(0,0,156)" /><line x1="1116.1" y1="1760.0" x2="1116.1" y2="1630.8" stroke="rgb(0,0,156)" /></g>

  
  <g opacity="1.0">
    <circle cx="2538.8" cy="319.5" r="4.0" fill="rgb(0,157,0)" />
    <circle cx="2746.8" cy="319.5" r="4.0" fill="rgb(0,157,0)" />
    <circle cx="2809.7" cy="357.8" r="4.0" fill="rgb(0,157,0)" />
    <circle cx="620.0" cy="386.6" r="4.0" fill="rgb(0,157,0)" />
    <circle cx="1116.1" cy="386.6" r="4.0" fill="rgb(0,0,156)" />
    <circle cx="1350.7" cy="386.6" r="4.0" fill="rgb(0,0,156)" />
    <circle cx="2474.2" cy="386.6" r="4.0" fill="rgb(0,157,0)" />
    <circle cx="226.6" cy="763.0" r="4.0" fill="rgb(0,157,0)" />
    <circle cx="1116.1" cy="795.7" r="4.0" fill="rgb(0,0,156)" />
    <circle cx="2474.2" cy="1072.5" r="4.0" fill="rgb(0,157,0)" />
    <circle cx="1350.7" cy="1122.1" r="4.0" fill="rgb(0,0,156)" />
    <circle cx="1116.1" cy="1122.1" r="4.0" fill="rgb(0,157,0)" />
    <circle cx="866.1" cy="1169.6" r="4.0" fill="rgb(0,0,156)" />
    <circle cx="226.6" cy="1169.6" r="4.0" fill="rgb(0,0,156)" />
    <circle cx="966.0" cy="1222.1" r="4.0" fill="rgb(0,157,0)" />
    <circle cx="1350.7" cy="1222.1" r="4.0" fill="rgb(0,157,0)" />
    <circle cx="2474.2" cy="1222.1" r="4.0" fill="rgb(0,157,0)" />
    <circle cx="2809.7" cy="1222.1" r="4.0" fill="rgb(0,157,0)" />
    <circle cx="966.0" cy="1281.2" r="4.0" fill="rgb(0,157,0)" />
    <circle cx="1420.5" cy="1338.3" r="4.0" fill="rgb(0,157,0)" />
    <circle cx="1350.7" cy="1338.3" r="4.0" fill="rgb(0,157,0)" />
    <circle cx="2474.2" cy="1338.3" r="4.0" fill="rgb(0,0,156)" />
    <circle cx="2783.5" cy="1338.3" r="4.0" fill="rgb(0,157,0)" />
    <circle cx="1563.6" cy="1338.3" r="4.0" fill="rgb(0,0,156)" />
    <circle cx="966.0" cy="1530.0" r="4.0" fill="rgb(0,0,156)" />
    <circle cx="1116.1" cy="1630.8" r="4.0" fill="rgb(0,0,156)" />
    <circle cx="966.0" cy="1630.8" r="4.0" fill="rgb(0,0,156)" />
    <circle cx="1563.6" cy="1630.8" r="4.0" fill="rgb(0,157,0)" />
    <circle cx="1908.3" cy="1630.8" r="4.0" fill="rgb(0,157,0)" />
    <circle cx="784.9" cy="1630.8" r="4.0" fill="rgb(0,157,0)" />
    <circle cx="226.6" cy="1630.8" r="4.0" fill="rgb(0,157,0)" />
    <circle cx="491.7" cy="1630.8" r="4.0" fill="rgb(0,157,0)" />
    <circle cx="1563.6" cy="1718.8" r="4.0" fill="rgb(0,0,156)" />
    <circle cx="1116.1" cy="1760.0" r="4.0" fill="rgb(0,0,156)" />
    <circle cx="586.2" cy="1796.8" r="4.0" fill="rgb(0,157,0)" />
    <circle cx="1563.6" cy="1912.3" r="4.0" fill="rgb(0,0,156)" />
    <circle cx="491.7" cy="1912.3" r="4.0" fill="rgb(0,157,0)" />
    <circle cx="1116.1" cy="1960.2" r="4.0" fill="rgb(0,157,0)" />
    <circle cx="1116.1" cy="2025.2" r="4.0" fill="rgb(0,0,156)" />
    <circle cx="1350.7" cy="2080.4" r="4.0" fill="rgb(0,0,156)" />
    <circle cx="1116.1" cy="2080.4" r="4.0" fill="rgb(0,0,156)" />
    <circle cx="866.1" cy="2080.4" r="4.0" fill="rgb(0,0,156)" />
    <circle cx="1563.6" cy="2080.4" r="4.0" fill="rgb(0,0,156)" />
    <circle cx="1183.3" cy="2080.4" r="4.0" fill="rgb(0,0,156)" />
    <circle cx="226.6" cy="2080.4" r="4.0" fill="rgb(0,157,0)" />
    <circle cx="2783.5" cy="2080.4" r="4.0" fill="rgb(0,157,0)" />
    <circle cx="491.7" cy="2080.4" r="4.0" fill="rgb(0,157,0)" />
    <circle cx="1761.6" cy="2080.4" r="4.0" fill="rgb(0,0,156)" />
    <circle cx="2326.5" cy="2080.4" r="4.0" fill="rgb(0,0,156)" />
    <circle cx="197.5" cy="2149.0" r="4.0" fill="rgb(0,157,0)" />
    <circle cx="1116.1" cy="2279.5" r="4.0" fill="rgb(0,0,156)" />
    <circle cx="1116.1" cy="2323.3" r="4.0" fill="rgb(0,0,156)" />
    <circle cx="1563.6" cy="2323.3" r="4.0" fill="rgb(0,0,156)" />
    <circle cx="1350.7" cy="2323.3" r="4.0" fill="rgb(0,0,156)" />
    <circle cx="197.5" cy="2564.8" r="4.0" fill="rgb(0,157,0)" />
    <circle cx="226.6" cy="2596.7" r="4.0" fill="rgb(0,157,0)" />
    <circle cx="2326.5" cy="2643.0" r="4.0" fill="rgb(0,157,0)" />
    <circle cx="1116.1" cy="2847.8" r="4.0" fill="rgb(0,0,156)" />
    <circle cx="1563.6" cy="2847.8" r="4.0" fill="rgb(0,0,156)" />
    <circle cx="491.7" cy="2847.8" r="4.0" fill="rgb(0,157,0)" />
    <circle cx="2268.5" cy="2847.8" r="4.0" fill="rgb(0,157,0)" />
    </g>

</svg>