<?xml version='1.0' encoding='utf-8'?>
<svg xmlns="http://www.w3.org/2000/svg" version="1.1" width="1024" height="1024" viewBox="0 0 1024 1024">
<rect x="0" y="0" width="1024" height="1024" fill="#FFFFFF" />
<path d="M 780.0,302.0 L 784.0,270.0 L 782.0,61.0 L 539.0,59.0 L 538.0,240.0 L 538.8,298.0 L 780.0,302.0 Z" stroke="#0000FF" stroke-width="2" fill="none" />
<path d="M 365.0,317.0 L 365.0,298.0 L 365.0,240.0 L 366.0,61.0 L 164.0,60.0 L 78.0,145.0 L 78.0,298.0 L 300.0,297.0 L 304.0,317.0 L 365.0,317.0 Z" stroke="#00FF00" stroke-width="2" fill="none" />
<path d="M 525.0,225.0 L 524.0,62.0 L 380.0,61.0 L 379.0,224.0 L 467.0,224.0 L 521.0,224.0 Z" stroke="#FF0000" stroke-width="2" fill="none" />
<path d="M 441.0,643.0 L 441.0,634.0 L 453.0,632.0 L 454.0,622.0 L 463.0,621.2 L 463.0,577.0 L 454.0,573.0 L 454.0,557.0 L 526.0,554.0 L 524.0,436.0 L 537.0,435.4 L 537.0,382.5 L 526.0,382.0 L 525.0,326.0 L 459.0,325.0 L 459.0,314.0 L 525.0,313.0 L 526.0,292.0 L 535.0,292.0 L 535.0,245.9 L 527.0,245.0 L 516.0,235.0 L 516.2,227.0 L 473.4,227.0 L 473.0,237.0 L 379.0,237.0 L 377.0,246.0 L 368.0,246.8 L 368.0,292.0 L 378.0,292.0 L 379.0,313.0 L 408.0,313.0 L 410.0,325.0 L 399.0,327.0 L 399.0,365.0 L 390.0,365.8 L 390.0,410.9 L 398.0,411.0 L 399.0,484.0 L 337.0,486.0 L 338.0,510.0 L 337.0,575.0 L 337.0,608.0 L 328.0,618.0 L 322.0,636.0 L 366.1,636.0 L 396.0,633.0 L 396.2,643.0 Z" stroke="#00FFFF" stroke-width="2" fill="none" />
<path d="M 939.0,555.0 L 940.0,315.0 L 539.0,316.0 L 539.0,377.0 L 540.9,440.0 L 540.0,452.0 L 615.0,451.0 L 653.0,452.0 L 655.0,477.0 L 540.0,478.0 L 540.0,555.0 L 939.0,555.0 Z" stroke="#FF00FF" stroke-width="2" fill="none" />
<path d="M 364.0,464.0 L 386.0,446.0 L 386.0,417.0 L 386.0,360.0 L 386.0,329.0 L 292.0,330.0 L 286.0,322.0 L 179.0,324.0 L 179.0,368.0 L 275.0,463.0 L 364.0,464.0 Z" stroke="#FFFF00" stroke-width="2" fill="none" />
<path d="M 284.0,618.0 L 296.0,616.0 L 324.0,588.0 L 326.0,569.0 L 334.0,568.0 L 334.0,515.9 L 326.0,516.0 L 323.0,486.0 L 265.0,487.0 L 202.0,425.0 L 161.0,464.0 L 87.0,466.0 L 88.0,618.0 L 284.0,618.0 Z" stroke="#0080FF" stroke-width="2" fill="none" />
<path d="M 816.0,882.0 L 834.0,881.0 L 833.0,653.0 L 851.0,648.5 L 851.0,607.0 L 835.0,607.0 L 833.0,568.0 L 517.8,569.7 L 467.7,627.0 L 468.0,881.0 L 816.0,882.0 Z" stroke="#FF0080" stroke-width="2" fill="none" />
<path d="M 948.0,903.0 L 949.0,581.0 L 862.0,581.0 L 861.0,600.0 L 854.0,654.0 L 861.0,903.0 L 948.0,903.0 Z" stroke="#FF8000" stroke-width="2" fill="none" />
<path d="M 201.0,883.0 L 361.0,882.0 L 370.0,880.0 L 369.0,644.0 L 319.7,636.0 L 322.0,621.0 L 312.0,631.0 L 298.0,632.0 L 87.0,633.0 L 87.0,770.0 L 201.0,883.0 Z" stroke="#8080FF" stroke-width="2" fill="none" />
<path d="M 453.0,882.0 L 454.0,646.0 L 390.0,645.6 L 382.0,882.0 L 453.0,882.0 Z" stroke="#80FF80" stroke-width="2" fill="none" />
</svg>