<?xml version='1.0' encoding='utf-8'?>
<svg xmlns="http://www.w3.org/2000/svg" version="1.1" width="1024" height="1536" viewBox="0 0 1024 1536">
<rect x="0" y="0" width="1024" height="1536" fill="#FFFFFF" />
<path d="M 394.0,298.0 L 443.0,297.0 L 443.0,249.0 L 443.0,180.0 L 443.0,108.0 L 253.0,108.0 L 178.0,181.0 L 295.0,297.0 L 394.0,298.0 Z" stroke="#0000FF" stroke-width="2" fill="none" />
<path d="M 497.9,999.0 L 500.0,985.0 L 543.0,984.0 L 544.0,904.0 L 556.0,903.8 L 556.0,845.9 L 542.0,844.0 L 543.0,683.0 L 557.0,682.8 L 557.0,624.8 L 546.0,624.0 L 543.0,394.0 L 557.0,393.8 L 557.0,336.1 L 542.0,335.0 L 542.0,108.0 L 462.0,108.0 L 461.0,186.0 L 446.0,188.0 L 446.0,244.6 L 461.0,245.0 L 462.0,313.0 L 418.0,315.0 L 418.0,368.0 L 404.0,369.9 L 404.0,426.0 L 416.0,426.0 L 416.0,526.0 L 321.0,528.0 L 320.0,598.0 L 240.0,678.0 L 240.0,799.0 L 392.0,799.0 L 419.0,802.0 L 420.0,854.0 L 405.0,856.0 L 405.0,912.0 L 418.0,912.0 L 419.0,985.0 L 437.0,987.0 L 437.0,999.0 Z" stroke="#00FF00" stroke-width="2" fill="none" />
<path d="M 797.0,417.0 L 914.0,416.0 L 913.0,109.0 L 561.0,108.0 L 560.0,329.0 L 560.9,400.0 L 560.0,416.0 L 797.0,417.0 Z" stroke="#FF0000" stroke-width="2" fill="none" />
<path d="M 368.0,494.0 L 400.0,493.0 L 399.0,432.0 L 400.0,362.0 L 399.0,316.0 L 287.0,314.0 L 165.0,193.0 L 83.0,275.0 L 83.0,493.0 L 368.0,494.0 Z" stroke="#00FFFF" stroke-width="2" fill="none" />
<path d="M 884.0,714.0 L 914.0,713.0 L 916.0,702.0 L 942.0,667.0 L 942.0,560.0 L 914.0,526.0 L 913.0,434.0 L 560.0,435.0 L 560.0,617.0 L 561.0,688.0 L 561.0,713.0 L 884.0,714.0 Z" stroke="#FF00FF" stroke-width="2" fill="none" />
<path d="M 913.0,1075.0 L 913.0,731.0 L 560.0,732.0 L 560.0,839.0 L 560.0,911.0 L 561.0,1075.0 L 913.0,1075.0 Z" stroke="#FFFF00" stroke-width="2" fill="none" />
<path d="M 292.0,1091.0 L 309.0,1090.0 L 402.0,993.0 L 402.0,920.0 L 402.0,849.0 L 402.0,835.0 L 85.0,834.0 L 83.0,1090.0 L 292.0,1091.0 Z" stroke="#0080FF" stroke-width="2" fill="none" />
<path d="M 540.0,1396.0 L 543.0,1371.0 L 543.0,1192.0 L 558.0,1189.8 L 558.0,1134.7 L 542.0,1134.0 L 542.0,1003.0 L 506.0,1003.0 L 429.0,1003.9 L 415.0,1003.0 L 379.0,1041.0 L 379.0,1131.0 L 379.0,1201.0 L 379.0,1362.0 L 412.0,1395.0 L 540.0,1396.0 Z" stroke="#FF0080" stroke-width="2" fill="none" />
<path d="M 934.0,1413.0 L 975.0,1412.0 L 976.0,1086.0 L 947.0,1082.0 L 948.0,1107.0 L 899.0,1109.0 L 900.0,1179.0 L 884.0,1180.0 L 874.0,1183.5 L 874.0,1231.0 L 899.0,1231.0 L 899.0,1412.0 L 934.0,1413.0 Z" stroke="#FF8000" stroke-width="2" fill="none" />
<path d="M 866.0,1396.0 L 867.0,1239.0 L 868.7,1177.0 L 866.0,1093.0 L 560.0,1094.0 L 561.0,1128.0 L 563.5,1198.0 L 561.0,1395.0 L 866.0,1396.0 Z" stroke="#8080FF" stroke-width="2" fill="none" />
<path d="M 346.0,1322.0 L 362.0,1321.0 L 362.0,1194.0 L 376.0,1193.8 L 376.0,1138.7 L 363.0,1137.0 L 361.0,1107.0 L 214.0,1107.0 L 213.0,1321.0 L 346.0,1322.0 Z" stroke="#80FF80" stroke-width="2" fill="none" />
</svg>