<?xml version='1.0' encoding='utf-8'?>
<svg xmlns="http://www.w3.org/2000/svg" version="1.1" width="1536" height="1024" viewBox="0 0 1536 1024">
<rect x="0" y="0" width="1536" height="1024" fill="#FFFFFF" />
<path d="M 573.0,348.0 L 589.0,347.0 L 589.3,264.0 L 589.0,75.0 L 188.0,76.0 L 189.0,347.0 L 573.0,348.0 Z" stroke="#0000FF" stroke-width="2" fill="none" />
<path d="M 848.0,241.0 L 882.0,240.0 L 882.0,75.0 L 607.0,76.0 L 608.0,240.0 L 696.0,240.0 L 775.0,240.0 L 848.0,241.0 Z" stroke="#00FF00" stroke-width="2" fill="none" />
<path d="M 1249.0,378.0 L 1320.0,377.0 L 1321.0,75.0 L 900.0,76.0 L 900.0,274.0 L 899.1,357.0 L 901.0,377.0 L 1249.0,378.0 Z" stroke="#FF0000" stroke-width="2" fill="none" />
<path d="M 738.4,726.0 L 738.0,712.0 L 778.0,710.0 L 779.0,688.0 L 786.0,692.0 L 794.0,691.6 L 794.0,625.7 L 783.0,626.0 L 779.0,502.0 L 794.0,500.4 L 794.0,432.8 L 779.0,433.0 L 779.0,380.0 L 882.0,377.0 L 882.0,350.0 L 895.0,349.0 L 895.0,282.5 L 884.0,283.0 L 881.0,258.0 L 770.0,258.0 L 767.0,243.0 L 704.0,243.0 L 704.0,255.0 L 608.0,258.0 L 608.0,269.0 L 592.0,272.4 L 592.0,334.4 L 606.0,334.0 L 608.0,347.0 L 688.0,347.0 L 692.0,422.0 L 678.0,423.4 L 678.0,492.8 L 692.0,493.0 L 693.0,616.0 L 668.0,620.0 L 586.0,619.0 L 584.0,641.0 L 570.0,641.8 L 570.0,700.2 L 584.0,700.0 L 585.0,711.0 L 593.0,712.0 L 678.0,711.0 L 679.7,726.0 Z" stroke="#00FFFF" stroke-width="2" fill="none" />
<path d="M 592.0,602.0 L 675.0,601.0 L 675.0,499.0 L 675.0,416.0 L 675.0,366.0 L 291.0,367.0 L 291.0,601.0 L 592.0,602.0 Z" stroke="#FF00FF" stroke-width="2" fill="none" />
<path d="M 1321.0,579.0 L 1320.0,396.0 L 797.0,397.0 L 798.0,427.0 L 797.0,508.0 L 798.0,579.0 L 1321.0,579.0 Z" stroke="#FFFF00" stroke-width="2" fill="none" />
<path d="M 1299.0,922.0 L 1321.0,921.0 L 1321.0,727.0 L 1322.0,652.0 L 1320.0,597.0 L 797.0,598.0 L 798.0,618.0 L 797.0,699.0 L 799.0,922.0 L 1299.0,922.0 Z" stroke="#0080FF" stroke-width="2" fill="none" />
<path d="M 1387.0,923.0 L 1422.0,922.0 L 1421.0,622.0 L 1419.0,602.0 L 1353.0,603.0 L 1352.0,655.0 L 1326.0,657.0 L 1326.0,718.6 L 1343.0,718.0 L 1353.0,721.0 L 1352.0,922.0 L 1387.0,923.0 Z" stroke="#FF0080" stroke-width="2" fill="none" />
<path d="M 518.0,891.0 L 567.0,890.0 L 567.0,708.0 L 566.0,636.0 L 566.0,625.0 L 188.0,626.0 L 190.0,891.0 L 518.0,891.0 Z" stroke="#FF8000" stroke-width="2" fill="none" />
<path d="M 630.0,891.0 L 779.0,890.0 L 779.0,729.0 L 746.0,729.9 L 673.0,729.0 L 585.0,731.0 L 586.0,890.0 L 630.0,891.0 Z" stroke="#8080FF" stroke-width="2" fill="none" />
</svg>