<?xml version='1.0' encoding='utf-8'?>
<svg xmlns="http://www.w3.org/2000/svg" version="1.1" width="1024" height="1536" viewBox="0 0 1024 1536">
<rect x="0" y="0" width="1024" height="1536" fill="#FFFFFF" />
<path d="M 225.0,400.0 L 313.0,399.0 L 384.0,399.0 L 389.0,115.0 L 126.0,116.0 L 126.0,399.0 L 225.0,400.0 Z" stroke="#0000FF" stroke-width="2" fill="none" />
<path d="M 448.0,352.0 L 486.0,351.0 L 557.0,351.0 L 571.0,351.0 L 570.0,115.0 L 405.0,117.0 L 406.0,351.0 L 448.0,352.0 Z" stroke="#00FF00" stroke-width="2" fill="none" />
<path d="M 857.0,509.0 L 896.0,507.0 L 895.0,116.0 L 589.0,116.0 L 588.0,412.0 L 588.9,484.0 L 587.0,509.0 L 857.0,509.0 Z" stroke="#FF0000" stroke-width="2" fill="none" />
<path d="M 473.0,977.0 L 473.0,966.0 L 486.0,963.0 L 488.0,884.0 L 571.0,884.0 L 571.0,871.0 L 585.0,866.0 L 585.0,808.0 L 574.0,807.0 L 573.0,748.0 L 585.0,748.0 L 585.0,690.0 L 573.0,690.0 L 570.0,478.0 L 584.0,477.8 L 584.0,419.0 L 570.0,418.0 L 571.0,368.0 L 553.0,367.0 L 550.0,355.0 L 494.4,355.0 L 494.0,364.0 L 406.0,369.0 L 406.0,429.0 L 406.0,503.0 L 406.0,858.0 L 392.0,862.4 L 392.0,919.8 L 404.0,920.0 L 406.0,962.0 L 418.0,964.0 L 419.0,977.0 Z" stroke="#00FFFF" stroke-width="2" fill="none" />
<path d="M 336.0,543.0 L 389.0,542.0 L 389.0,497.0 L 402.0,494.0 L 402.0,436.8 L 391.0,436.0 L 389.0,416.0 L 377.0,414.0 L 376.8,403.0 L 321.5,403.0 L 321.0,411.0 L 126.0,417.0 L 127.0,542.0 L 336.0,543.0 Z" stroke="#FF00FF" stroke-width="2" fill="none" />
<path d="M 690.0,776.0 L 895.0,774.0 L 895.0,525.0 L 588.0,526.0 L 588.0,682.0 L 589.0,755.0 L 588.0,775.0 L 690.0,776.0 Z" stroke="#FFFF00" stroke-width="2" fill="none" />
<path d="M 386.0,963.0 L 389.0,927.0 L 389.0,854.0 L 389.0,560.0 L 127.0,559.0 L 126.0,963.0 L 386.0,963.0 Z" stroke="#0080FF" stroke-width="2" fill="none" />
<path d="M 773.1,1281.0 L 774.0,1251.0 L 896.0,1252.0 L 895.0,792.0 L 589.0,792.0 L 589.0,800.0 L 589.0,873.0 L 588.0,898.0 L 503.0,901.0 L 503.0,1252.0 L 717.0,1251.0 L 719.0,1278.0 Z" stroke="#FF0080" stroke-width="2" fill="none" />
<path d="M 470.0,1253.0 L 486.0,1252.0 L 486.0,980.0 L 412.0,979.0 L 125.0,981.0 L 127.0,1252.0 L 470.0,1253.0 Z" stroke="#FF8000" stroke-width="2" fill="none" />
<path d="M 887.0,1420.0 L 905.0,1419.0 L 905.0,1287.0 L 780.0,1287.0 L 714.0,1285.0 L 271.0,1288.0 L 272.0,1419.0 L 887.0,1420.0 Z" stroke="#8080FF" stroke-width="2" fill="none" />
</svg>