<?xml version="1.0" encoding="utf-8" ?>
<svg baseProfile="full" height="1024" version="1.1" width="1024" xmlns="http://www.w3.org/2000/svg" xmlns:ev="http://www.w3.org/2001/xml-events" xmlns:xlink="http://www.w3.org/1999/xlink"><defs /><polyline fill="none" points="959.0,912.5 859.0,912.5 850.0,908.5 189.0,908.5 61.5,781.0 60.5,442.0 63.0,439.5 151.0,439.5 183.5,408.0 154.5,379.0 154.0,324.5 53.0,325.5 50.5,323.0 52.5,134.0 152.0,34.5 808.0,34.5 809.5,287.0 963.0,287.5 966.5,291.0 966.5,579.0 961.5,582.0 961.5,910.0 959.0,912.5" stroke="black" stroke-width="1" /><polyline fill="none" points="597.5,906.0 586.5,904.0 586.5,887.0 589.0,884.5 498.0,885.5 464.5,883.0 465.0,624.5 456.5,625.0 455.0,635.5 444.5,636.0 445.0,642.5 456.5,644.0 455.0,885.5 379.5,884.0 379.5,644.0 394.0,643.5 394.0,635.5 372.0,635.5 364.5,642.0 372.5,644.0 372.5,882.0 370.0,884.5 199.0,885.5 85.5,772.0 86.0,629.5 310.0,629.5 334.5,607.0 335.5,571.0 332.0,570.5 326.5,573.0 326.5,590.0 294.0,620.5 84.5,620.0 84.5,464.0 159.0,462.5 200.0,422.5 217.0,435.5 224.0,429.5 236.5,441.0 224.5,429.0 230.5,424.0 224.5,416.0 176.5,368.0 177.5,322.0 292.0,320.5 294.0,328.5 388.0,327.5 389.0,363.5 397.5,363.0 397.5,325.0 407.5,323.0 407.0,316.5 378.0,316.5 376.0,294.5 367.5,295.0 367.0,319.5 349.0,320.5 302.0,319.5 300.0,300.5 75.5,301.0 76.5,143.0 162.0,58.5 256.5,58.0 256.5,38.0 252.0,36.5 152.0,37.5 53.5,138.0 53.5,321.0 156.0,322.5 157.5,379.0 186.5,407.0 183.0,413.5 151.0,442.5 63.5,443.0 63.5,779.0 191.0,906.5 597.5,906.0" stroke="black" stroke-width="1" /><polyline fill="none" points="375.5,244.0 377.0,235.5 471.5,235.0 471.0,226.5 378.0,227.5 376.5,225.0 376.5,60.0 434.0,58.5 434.5,38.0 315.0,36.5 316.0,58.5 368.5,59.0 367.5,244.0 375.5,244.0" stroke="black" stroke-width="1" /><polyline fill="none" points="942.5,404.0 944.0,398.5 963.5,399.0 963.0,290.5 806.5,289.0 807.0,37.5 490.5,37.0 490.0,58.5 527.5,60.0 528.5,226.0 520.0,226.5 519.5,234.0 527.0,235.5 529.0,243.5 536.5,243.0 537.0,57.5 785.5,59.0 785.5,303.0 540.0,304.5 535.5,303.0 536.0,294.5 528.0,294.5 527.0,315.5 461.5,316.0 463.0,324.5 527.0,323.5 529.0,380.5 536.0,381.5 537.5,377.0 539.0,312.5 940.0,312.5 942.5,314.0 942.5,404.0" stroke="black" stroke-width="1" /><polyline fill="none" points="780.5,302.0 783.5,301.0 784.5,270.0 782.5,61.0 539.0,59.5 538.5,241.0 557.0,244.5 578.5,260.0 587.5,275.0 590.5,296.0 539.0,297.5 538.5,301.0 780.5,302.0" stroke="black" stroke-width="1" /><polyline fill="none" points="365.5,317.0 365.0,296.5 317.0,297.5 313.5,296.0 313.5,287.0 323.5,263.0 331.0,254.5 346.0,245.5 365.5,241.0 366.0,61.5 164.0,60.5 78.5,145.0 78.0,298.5 300.0,297.5 303.5,302.0 304.0,317.5 365.5,317.0" stroke="black" stroke-width="1" /><polyline fill="none" points="525.5,225.0 524.5,62.0 380.0,61.5 379.5,224.0 468.0,224.5 472.5,205.0 483.0,189.5 497.0,180.5 520.0,177.5 521.5,224.0 525.5,225.0" stroke="black" stroke-width="1" /><polyline fill="none" points="406.5,687.0 415.0,685.5 431.5,675.0 441.5,653.0 441.5,634.0 453.0,632.5 454.0,622.5 477.0,620.5 490.0,615.5 503.5,604.0 508.5,595.0 511.0,577.5 458.0,577.5 454.5,573.0 454.5,557.0 456.0,554.5 526.5,554.0 524.5,436.0 591.5,433.0 583.5,408.0 569.0,392.5 548.0,383.5 526.5,382.0 525.0,326.5 459.5,325.0 459.5,314.0 462.0,312.5 525.0,313.5 526.0,292.5 585.5,292.0 580.5,272.0 569.0,257.5 554.0,248.5 527.0,245.5 526.5,239.0 516.5,235.0 517.0,183.5 499.0,185.5 483.5,197.0 474.5,214.0 473.0,237.5 379.0,237.5 377.0,246.5 354.0,248.5 336.0,257.5 325.5,270.0 318.5,288.0 320.0,292.5 378.0,292.5 379.0,313.5 408.0,313.5 410.5,318.0 410.0,325.5 399.5,327.0 399.5,365.0 376.0,367.5 362.0,373.5 351.5,383.0 342.5,402.0 343.0,410.5 398.5,411.0 399.5,484.0 396.0,486.5 337.5,486.0 338.0,511.5 390.0,511.5 391.5,522.0 386.5,540.0 369.0,561.5 353.0,570.5 337.5,574.0 337.5,608.0 328.5,618.0 322.5,636.0 327.5,659.0 336.0,668.5 368.0,634.5 396.0,633.5 397.5,687.0 406.5,687.0" stroke="black" stroke-width="1" /><polyline fill="none" points="939.5,555.0 940.0,315.5 539.5,316.0 539.5,378.0 560.0,381.5 575.0,390.5 587.5,404.0 596.5,426.0 595.0,439.5 541.0,439.5 540.5,452.0 615.0,451.5 653.0,452.5 655.5,455.0 655.5,477.0 653.0,479.5 540.0,478.5 540.0,555.5 939.5,555.0" stroke="black" stroke-width="1" /><polyline fill="none" points="364.5,464.0 370.0,462.5 386.5,446.0 386.5,416.0 339.0,415.5 336.5,408.0 342.5,388.0 351.0,375.5 368.0,364.5 386.5,361.0 386.0,329.5 292.0,330.5 291.5,324.0 286.0,322.5 179.5,324.0 179.5,368.0 275.0,463.5 364.5,464.0" stroke="black" stroke-width="1" /><polyline fill="none" points="284.5,618.0 296.0,616.5 324.5,588.0 326.0,569.5 349.0,566.5 371.5,553.0 383.5,534.0 385.0,515.5 326.0,516.5 322.5,514.0 323.0,486.5 265.0,487.5 202.0,425.5 161.0,464.5 87.5,466.0 88.0,618.5 284.5,618.0" stroke="black" stroke-width="1" /><polyline fill="none" points="860.5,604.0 860.0,578.5 963.5,578.0 963.0,473.5 941.5,475.0 941.0,557.5 538.0,557.5 538.0,475.5 651.0,476.5 652.5,456.0 539.0,454.5 539.5,437.0 529.0,436.5 528.5,556.0 456.5,559.0 458.0,574.5 465.0,574.5 466.0,566.5 835.0,566.5 836.5,604.0 860.5,604.0" stroke="black" stroke-width="1" /><polyline fill="none" points="816.5,882.0 834.5,881.0 833.5,653.0 853.0,648.5 864.0,642.5 877.5,625.0 880.0,607.5 835.0,607.5 833.0,568.5 467.5,570.0 514.0,571.5 517.5,578.0 513.5,597.0 507.5,607.0 486.0,623.5 468.0,626.5 466.5,633.0 468.0,881.5 816.5,882.0" stroke="black" stroke-width="1" /><polyline fill="none" points="948.5,903.0 949.5,581.0 862.0,581.5 861.5,601.0 883.0,601.5 886.5,611.0 877.5,636.0 854.5,654.0 861.5,656.0 861.5,903.0 948.5,903.0" stroke="black" stroke-width="1" /><polyline fill="none" points="201.5,883.0 361.0,882.5 370.5,880.0 369.0,644.5 363.0,646.5 338.0,673.5 333.0,673.5 324.5,663.0 318.5,647.0 322.0,621.5 312.0,631.5 298.0,632.5 87.5,633.0 87.5,770.0 201.5,883.0" stroke="black" stroke-width="1" /><polyline fill="none" points="453.5,882.0 454.5,646.0 446.5,645.0 443.5,665.0 428.0,684.5 417.0,690.5 395.0,693.5 391.5,684.0 392.5,646.0 383.0,644.5 382.5,882.0 453.5,882.0" stroke="black" stroke-width="1" /><polyline fill="none" points="859.5,908.0 858.5,657.0 846.0,656.5 846.0,652.5 835.5,655.0 835.0,884.5 592.5,885.0 671.0,885.5 671.5,905.0 653.0,906.5 859.5,908.0" stroke="black" stroke-width="1" /></svg>