<?xml version='1.0' encoding='utf-8'?>
<svg xmlns="http://www.w3.org/2000/svg" version="1.1" width="1024" height="1024" viewBox="0 0 1024 1024"><rect x="0" y="0" width="1024" height="1024" fill="#FFFFFF" /><polyline points="780,302 783,301 784,270 782,61 539,59 538,241 557,244 578,260 587,275 590,296 539,297 538,301 780,302" fill="none" stroke="#0000FF" stroke-width="2" /><polyline points="365,317 365,296 317,297 313,296 313,287 323,263 331,254 346,245 365,241 366,61 164,60 78,145 78,298 300,297 303,302 304,317 365,317" fill="none" stroke="#00FF00" stroke-width="2" /><polyline points="525,225 524,62 380,61 379,224 468,224 472,205 483,189 497,180 520,177 521,224 525,225" fill="none" stroke="#FF0000" stroke-width="2" /><polyline points="406,687 415,685 431,675 441,653 441,634 453,632 454,622 477,620 490,615 503,604 508,595 511,577 458,577 454,573 454,557 456,554 526,554 524,436 591,433 583,408 569,392 548,383 526,382 525,326 459,325 459,314 462,312 525,313 526,292 585,292 580,272 569,257 554,248 527,245 526,239 516,235 517,183 499,185 483,197 474,214 473,237 379,237 377,246 354,248 336,257 325,270 318,288 320,292 378,292 379,313 408,313 410,318 410,325 399,327 399,365 376,367 362,373 351,383 342,402 343,410 398,411 399,484 396,486 337,486 338,511 390,511 391,522 386,540 369,561 353,570 337,574 337,608 328,618 322,636 327,659 336,668 368,634 396,633 397,687 406,687" fill="none" stroke="#00FFFF" stroke-width="2" /><polyline points="939,555 940,315 539,316 539,378 560,381 575,390 587,404 596,426 595,439 541,439 540,452 615,451 653,452 655,455 655,477 653,479 540,478 540,555 939,555" fill="none" stroke="#FF00FF" stroke-width="2" /><polyline points="364,464 370,462 386,446 386,416 339,415 336,408 342,388 351,375 368,364 386,361 386,329 292,330 291,324 286,322 179,324 179,368 275,463 364,464" fill="none" stroke="#FFFF00" stroke-width="2" /><polyline points="284,618 296,616 324,588 326,569 349,566 371,553 383,534 385,515 326,516 322,514 323,486 265,487 202,425 161,464 87,466 88,618 284,618" fill="none" stroke="#0080FF" stroke-width="2" /><polyline points="816,882 834,881 833,653 853,648 864,642 877,625 880,607 835,607 833,568 467,570 514,571 517,578 513,597 507,607 486,623 468,626 466,633 468,881 816,882" fill="none" stroke="#FF0080" stroke-width="2" /><polyline points="948,903 949,581 862,581 861,601 883,601 886,611 877,636 854,654 861,656 861,903 948,903" fill="none" stroke="#FF8000" stroke-width="2" /><polyline points="201,883 361,882 370,880 369,644 363,646 338,673 333,673 324,663 318,647 322,621 312,631 298,632 87,633 87,770 201,883" fill="none" stroke="#8080FF" stroke-width="2" /><polyline points="453,882 454,646 446,645 443,665 428,684 417,690 395,693 391,684 392,646 383,644 382,882 453,882" fill="none" stroke="#80FF80" stroke-width="2" /></svg>