<?xml version='1.0' encoding='utf-8'?>
<svg xmlns="http://www.w3.org/2000/svg" width="1536" height="1024">
  
  <rect width="1536" height="1024" fill="black" />

  
  <g stroke-width="2.0" fill="none" opacity="0.8">
    <line x1="788.5" y1="606.5" x2="1333.9" y2="606.5" stroke="#0000ff" /><line x1="890.2" y1="385.1" x2="890.2" y2="64.3" stroke="#0000ff" /><line x1="890.2" y1="64.3" x2="890.2" y2="50.0" stroke="#0000ff" /><line x1="680.9" y1="606.5" x2="680.9" y2="352.3" stroke="#0000ff" /><line x1="586.9" y1="50.0" x2="586.9" y2="64.3" stroke="#0000ff" /><line x1="586.9" y1="64.3" x2="586.9" y2="352.3" stroke="#0000ff" /><line x1="788.5" y1="899.4" x2="788.5" y2="722.0" stroke="#0000ff" /><line x1="788.5" y1="722.0" x2="788.5" y2="385.1" stroke="#0000ff" /><line x1="586.9" y1="256.0" x2="890.2" y2="256.0" stroke="#0000ff" /><line x1="680.9" y1="352.3" x2="286.0" y2="352.3" stroke="#0000ff" /><line x1="788.5" y1="385.1" x2="1333.9" y2="385.1" stroke="#0000ff" /><line x1="586.9" y1="899.4" x2="586.9" y2="722.0" stroke="#0000ff" /><line x1="586.9" y1="722.0" x2="586.9" y2="606.5" stroke="#0000ff" /><line x1="680.9" y1="606.5" x2="586.9" y2="606.5" stroke="#0000ff" /><line x1="788.5" y1="722.0" x2="586.9" y2="722.0" stroke="#0000ff" /><line x1="1333.9" y1="722.0" x2="1333.9" y2="606.5" stroke="#0000ff" /><line x1="1333.9" y1="606.5" x2="1333.9" y2="64.3" stroke="#00ff00" /><line x1="1333.9" y1="64.3" x2="1333.9" y2="50.0" stroke="#00ff00" /><line x1="586.9" y1="606.5" x2="276.6" y2="606.5" stroke="#00ff00" /><line x1="276.6" y1="606.5" x2="176.2" y2="606.5" stroke="#00ff00" /><line x1="176.2" y1="352.3" x2="286.0" y2="352.3" stroke="#00ff00" /><line x1="1433.2" y1="899.4" x2="1433.2" y2="606.5" stroke="#00ff00" /><line x1="176.2" y1="899.4" x2="176.2" y2="606.5" stroke="#00ff00" /><line x1="788.5" y1="899.4" x2="176.2" y2="899.4" stroke="#00ff00" /><line x1="1333.9" y1="935.2" x2="1333.9" y2="722.0" stroke="#00ff00" /><line x1="1433.2" y1="606.5" x2="1333.9" y2="606.5" stroke="#00ff00" /><line x1="176.2" y1="64.3" x2="176.2" y2="352.3" stroke="#00ff00" /><line x1="276.6" y1="352.3" x2="276.6" y2="606.5" stroke="#00ff00" /><line x1="176.2" y1="64.3" x2="586.9" y2="64.3" stroke="#00ff00" /><line x1="586.9" y1="64.3" x2="890.2" y2="64.3" stroke="#00ff00" /><line x1="890.2" y1="64.3" x2="1333.9" y2="64.3" stroke="#00ff00" /><line x1="1433.2" y1="899.4" x2="1420.8" y2="935.2" stroke="#00ff00" /><line x1="788.5" y1="899.4" x2="788.5" y2="947.0" stroke="#00ff00" /><line x1="1420.8" y1="935.2" x2="788.5" y2="935.2" stroke="#00ff00" /></g>

  
  <g opacity="1.0">
    <circle cx="586.9" cy="64.3" r="4.0" fill="#0000ff" />
    <circle cx="890.2" cy="64.3" r="4.0" fill="#0000ff" />
    <circle cx="1333.9" cy="64.3" r="4.0" fill="#00ff00" />
    <circle cx="176.2" cy="64.3" r="4.0" fill="#00ff00" />
    <circle cx="586.9" cy="352.3" r="4.0" fill="#0000ff" />
    <circle cx="176.2" cy="352.3" r="4.0" fill="#00ff00" />
    <circle cx="680.9" cy="352.3" r="4.0" fill="#0000ff" />
    <circle cx="286.0" cy="352.3" r="4.0" fill="#00ff00" />
    <circle cx="276.6" cy="352.3" r="4.0" fill="#00ff00" />
    <circle cx="890.2" cy="385.1" r="4.0" fill="#0000ff" />
    <circle cx="1333.9" cy="385.1" r="4.0" fill="#00ff00" />
    <circle cx="788.5" cy="385.1" r="4.0" fill="#0000ff" />
    <circle cx="276.6" cy="606.5" r="4.0" fill="#00ff00" />
    <circle cx="1433.2" cy="606.5" r="4.0" fill="#00ff00" />
    <circle cx="176.2" cy="606.5" r="4.0" fill="#00ff00" />
    <circle cx="586.9" cy="722.0" r="4.0" fill="#0000ff" />
    <circle cx="788.5" cy="722.0" r="4.0" fill="#0000ff" />
    <circle cx="1333.9" cy="722.0" r="4.0" fill="#00ff00" />
    <circle cx="586.9" cy="899.4" r="4.0" fill="#00ff00" />
    <circle cx="1433.2" cy="899.4" r="4.0" fill="#00ff00" />
    <circle cx="176.2" cy="899.4" r="4.0" fill="#00ff00" />
    <circle cx="788.5" cy="899.4" r="4.0" fill="#00ff00" />
    <circle cx="1333.9" cy="935.2" r="4.0" fill="#00ff00" />
    <circle cx="1420.8" cy="935.2" r="4.0" fill="#00ff00" />
    </g>

</svg>