<?xml version='1.0' encoding='utf-8'?>
<svg xmlns="http://www.w3.org/2000/svg" width="1024" height="1536">
  
  <rect width="1024" height="1536" fill="black" />

  
  <g stroke-width="2.0" fill="none" opacity="0.8">
    <line x1="579.1" y1="90.0" x2="579.1" y2="105.2" stroke="#0000ff" /><line x1="579.1" y1="105.2" x2="579.1" y2="358.1" stroke="#0000ff" /><line x1="579.1" y1="358.1" x2="579.1" y2="519.4" stroke="#0000ff" /><line x1="579.1" y1="519.4" x2="579.1" y2="783.8" stroke="#0000ff" /><line x1="579.1" y1="783.8" x2="579.1" y2="878.3" stroke="#0000ff" /><line x1="396.1" y1="973.1" x2="396.1" y2="519.4" stroke="#0000ff" /><line x1="396.1" y1="519.4" x2="396.1" y2="412.4" stroke="#0000ff" /><line x1="396.1" y1="358.1" x2="396.1" y2="90.0" stroke="#0000ff" /><line x1="493.9" y1="1269.6" x2="493.9" y2="878.3" stroke="#0000ff" /><line x1="116.4" y1="412.4" x2="396.1" y2="412.4" stroke="#0000ff" /><line x1="904.0" y1="519.4" x2="579.1" y2="519.4" stroke="#0000ff" /><line x1="396.1" y1="358.1" x2="579.1" y2="358.1" stroke="#0000ff" /><line x1="579.1" y1="878.3" x2="493.9" y2="878.3" stroke="#0000ff" /><line x1="706.2" y1="1269.6" x2="781.0" y2="1269.6" stroke="#0000ff" /><line x1="493.9" y1="973.1" x2="116.4" y2="973.1" stroke="#0000ff" /><line x1="116.4" y1="519.4" x2="396.1" y2="519.4" stroke="#0000ff" /><line x1="904.0" y1="783.8" x2="579.1" y2="783.8" stroke="#0000ff" /><line x1="262.3" y1="1269.6" x2="262.3" y2="1431.3" stroke="#00ff00" /><line x1="904.0" y1="1269.6" x2="904.0" y2="105.2" stroke="#00ff00" /><line x1="116.4" y1="105.2" x2="116.4" y2="1269.6" stroke="#00ff00" /><line x1="781.0" y1="1269.6" x2="917.0" y2="1269.6" stroke="#00ff00" /><line x1="706.2" y1="1269.6" x2="116.4" y2="1269.6" stroke="#00ff00" /><line x1="116.4" y1="105.2" x2="396.1" y2="105.2" stroke="#00ff00" /><line x1="396.1" y1="105.2" x2="579.1" y2="105.2" stroke="#00ff00" /><line x1="579.1" y1="105.2" x2="904.0" y2="105.2" stroke="#00ff00" /><line x1="904.0" y1="1431.3" x2="917.0" y2="1421.0" stroke="#00ff00" /><line x1="396.1" y1="358.1" x2="396.1" y2="412.4" stroke="#00ff00" /><line x1="917.0" y1="1269.6" x2="917.0" y2="1421.0" stroke="#00ff00" /><line x1="904.0" y1="1431.3" x2="262.3" y2="1431.3" stroke="#00ff00" /></g>

  
  <g opacity="1.0">
    <circle cx="396.1" cy="105.2" r="4.0" fill="#0000ff" />
    <circle cx="579.1" cy="105.2" r="4.0" fill="#0000ff" />
    <circle cx="116.4" cy="105.2" r="4.0" fill="#00ff00" />
    <circle cx="904.0" cy="105.2" r="4.0" fill="#00ff00" />
    <circle cx="396.1" cy="358.1" r="4.0" fill="#00ff00" />
    <circle cx="579.1" cy="358.1" r="4.0" fill="#0000ff" />
    <circle cx="116.4" cy="412.4" r="4.0" fill="#00ff00" />
    <circle cx="579.1" cy="519.4" r="4.0" fill="#0000ff" />
    <circle cx="116.4" cy="519.4" r="4.0" fill="#00ff00" />
    <circle cx="396.1" cy="519.4" r="4.0" fill="#0000ff" />
    <circle cx="904.0" cy="519.4" r="4.0" fill="#00ff00" />
    <circle cx="579.1" cy="783.8" r="4.0" fill="#0000ff" />
    <circle cx="904.0" cy="783.8" r="4.0" fill="#00ff00" />
    <circle cx="493.9" cy="878.3" r="4.0" fill="#0000ff" />
    <circle cx="116.4" cy="973.1" r="4.0" fill="#00ff00" />
    <circle cx="493.9" cy="973.1" r="4.0" fill="#0000ff" />
    <circle cx="116.4" cy="1269.6" r="4.0" fill="#00ff00" />
    <circle cx="706.2" cy="1269.6" r="4.0" fill="#0000ff" />
    <circle cx="904.0" cy="1269.6" r="4.0" fill="#00ff00" />
    <circle cx="493.9" cy="1269.6" r="4.0" fill="#00ff00" />
    <circle cx="262.3" cy="1269.6" r="4.0" fill="#00ff00" />
    <circle cx="917.0" cy="1269.6" r="4.0" fill="#00ff00" />
    <circle cx="917.0" cy="1421.0" r="4.0" fill="#00ff00" />
    <circle cx="262.3" cy="1431.3" r="4.0" fill="#00ff00" />
    <circle cx="904.0" cy="1431.3" r="4.0" fill="#00ff00" />
  </g>

</svg>