<?xml version='1.0' encoding='utf-8'?>
<svg xmlns="http://www.w3.org/2000/svg" width="3000" height="3000">
  <rect width="3000" height="3000" fill="black" />
  <g stroke-width="2.0" fill="none" opacity="0.8">
    <line x1="540.234375" y1="1776.85546875" x2="1146.2890625" y2="1776.85546875" stroke="rgb(0,255,0)" />
    <line x1="344.14062499999994" y1="1032.12890625" x2="558.59375" y2="1032.12890625" stroke="rgb(0,255,0)" />
    <line x1="2799.21875" y1="2634.9609375" x2="2799.21875" y2="1776.85546875" stroke="rgb(0,255,0)" />
    <line x1="344.14062499999994" y1="1776.85546875" x2="540.234375" y2="1776.85546875" stroke="rgb(0,255,0)" />
    <line x1="2605.2734375000005" y1="1776.85546875" x2="2605.2734375000005" y2="188.37890625" stroke="rgb(0,255,0)" />
    <line x1="344.14062499999994" y1="2634.9609375" x2="344.14062499999994" y2="1776.85546875" stroke="rgb(0,255,0)" />
    <line x1="1540.0390625" y1="2634.9609375" x2="344.14062499999994" y2="2634.9609375" stroke="rgb(0,255,0)" />
    <line x1="2605.2734375000005" y1="2739.84375" x2="2605.2734375000005" y2="2115.234375" stroke="rgb(0,255,0)" />
    <line x1="2799.21875" y1="1776.85546875" x2="2605.2734375000005" y2="1776.85546875" stroke="rgb(0,255,0)" />
    <line x1="344.14062499999994" y1="188.37890625" x2="344.14062499999994" y2="1032.12890625" stroke="rgb(0,255,0)" />
    <line x1="540.234375" y1="1032.12890625" x2="540.234375" y2="1776.85546875" stroke="rgb(0,255,0)" />
    <line x1="344.14062499999994" y1="188.37890625" x2="2605.2734375000005" y2="188.37890625" stroke="rgb(0,255,0)" />
    <line x1="2799.21875" y1="2634.9609375" x2="2775.0" y2="2739.84375" stroke="rgb(0,255,0)" />
    <line x1="1540.0390625" y1="2739.84375" x2="1540.0390625" y2="2634.9609375" stroke="rgb(0,255,0)" />
    <line x1="2775.0" y1="2739.84375" x2="1540.0390625" y2="2739.84375" stroke="rgb(0,255,0)" />
    <line x1="1540.0390625" y1="1776.85546875" x2="2499.0234375" y2="1776.85546875" stroke="rgb(0,0,255)" />
    <line x1="1329.8828125" y1="1032.12890625" x2="558.59375" y2="1032.12890625" stroke="rgb(0,0,255)" />
    <line x1="1540.0390625" y1="2634.9609375" x2="1540.0390625" y2="2039.6484375000002" stroke="rgb(0,0,255)" />
    <line x1="2427.734375" y1="1776.85546875" x2="2605.2734375000005" y2="1776.85546875" stroke="rgb(0,0,255)" />
    <line x1="1329.8828125" y1="1032.12890625" x2="1329.8828125" y2="1237.20703125" stroke="rgb(0,0,255)" />
    <line x1="1540.0390625" y1="1128.22265625" x2="2605.2734375000005" y2="1128.22265625" stroke="rgb(0,0,255)" />
    <line x1="1146.2890625" y1="750.0" x2="1146.2890625" y2="188.37890625" stroke="rgb(0,0,255)" />
    <line x1="1146.2890625" y1="2115.234375" x2="1146.2890625" y2="2634.9609375" stroke="rgb(0,0,255)" />
    <line x1="1738.671875" y1="750.0" x2="1738.671875" y2="188.37890625" stroke="rgb(0,0,255)" />
    <line x1="1540.0390625" y1="1776.85546875" x2="1540.0390625" y2="1466.6015625" stroke="rgb(0,0,255)" />
    <line x1="1329.8828125" y1="1466.6015625" x2="1329.8828125" y2="1776.85546875" stroke="rgb(0,0,255)" />
    <line x1="1329.8828125" y1="1776.85546875" x2="1146.2890625" y2="1776.85546875" stroke="rgb(0,0,255)" />
    <line x1="1738.671875" y1="1032.12890625" x2="1738.671875" y2="1128.22265625" stroke="rgb(0,0,255)" />
    <line x1="1465.2343750000002" y1="2115.234375" x2="1540.0390625" y2="2115.234375" stroke="rgb(0,0,255)" />
    <line x1="1256.25" y1="750.0" x2="1329.8828125" y2="750.0" stroke="rgb(0,0,255)" />
    <line x1="1540.0390625" y1="1237.20703125" x2="1540.0390625" y2="1128.22265625" stroke="rgb(0,0,255)" />
    <line x1="1146.2890625" y1="2115.234375" x2="1329.8828125" y2="2115.234375" stroke="rgb(0,0,255)" />
    <line x1="1540.0390625" y1="750.0" x2="1738.671875" y2="750.0" stroke="rgb(0,0,255)" />
    <line x1="1540.0390625" y1="750.0" x2="1329.8828125" y2="750.0" stroke="rgb(255,0,0)" />
    <line x1="1146.2890625" y1="1032.12890625" x2="1146.2890625" y2="750.0" stroke="rgb(255,0,0)" />
    <line x1="1465.2343750000002" y1="2115.234375" x2="1329.8828125" y2="2115.234375" stroke="rgb(255,0,0)" />
    <line x1="1329.8828125" y1="1237.20703125" x2="1329.8828125" y2="1466.6015625" stroke="rgb(255,0,0)" />
    <line x1="1540.0390625" y1="2039.6484375000002" x2="1540.0390625" y2="1776.85546875" stroke="rgb(255,0,0)" />
    <line x1="1540.0390625" y1="1237.20703125" x2="1540.0390625" y2="1466.6015625" stroke="rgb(255,0,0)" />
    <line x1="1146.2890625" y1="2115.234375" x2="1146.2890625" y2="1776.85546875" stroke="rgb(255,0,0)" />
    <line x1="1540.0390625" y1="2774.4140625" x2="1540.0390625" y2="2739.84375" stroke="rgb(255,0,0)" />
    <line x1="2605.2734375000005" y1="146.484375" x2="2605.2734375000005" y2="188.37890625" stroke="rgb(255,0,0)" />
    <line x1="1146.2890625" y1="188.37890625" x2="1146.2890625" y2="146.484375" stroke="rgb(255,0,0)" />
    <line x1="1738.671875" y1="146.484375" x2="1738.671875" y2="188.37890625" stroke="rgb(255,0,0)" />
    <line x1="1146.2890625" y1="750.0" x2="1256.25" y2="750.0" stroke="rgb(255,0,0)" />
    <line x1="2605.2734375000005" y1="2115.234375" x2="2605.2734375000005" y2="1776.85546875" stroke="rgb(255,0,0)" />
    <line x1="1738.671875" y1="1032.12890625" x2="1738.671875" y2="750.0" stroke="rgb(255,0,0)" />
  </g>
  <g opacity="1.0">
    <circle cx="1146.2890625" cy="146.484375" r="4.0" fill="rgb(255,0,0)" />
    <circle cx="1738.671875" cy="146.484375" r="4.0" fill="rgb(255,0,0)" />
    <circle cx="2605.2734375000005" cy="146.484375" r="4.0" fill="rgb(255,0,0)" />
    <circle cx="1146.2890625" cy="188.37890625" r="4.0" fill="rgb(0,0,255)" />
    <circle cx="1738.671875" cy="188.37890625" r="4.0" fill="rgb(0,0,255)" />
    <circle cx="2605.2734375000005" cy="188.37890625" r="4.0" fill="rgb(0,255,0)" />
    <circle cx="344.14062499999994" cy="188.37890625" r="4.0" fill="rgb(0,255,0)" />
    <circle cx="1738.671875" cy="750.0" r="4.0" fill="rgb(255,0,0)" />
    <circle cx="1146.2890625" cy="750.0" r="4.0" fill="rgb(255,0,0)" />
    <circle cx="1540.0390625" cy="750.0" r="4.0" fill="rgb(255,0,0)" />
    <circle cx="1329.8828125" cy="750.0" r="4.0" fill="rgb(255,0,0)" />
    <circle cx="1256.25" cy="750.0" r="4.0" fill="rgb(0,0,255)" />
    <circle cx="1146.2890625" cy="1032.12890625" r="4.0" fill="rgb(0,0,255)" />
    <circle cx="344.14062499999994" cy="1032.12890625" r="4.0" fill="rgb(0,255,0)" />
    <circle cx="1329.8828125" cy="1032.12890625" r="4.0" fill="rgb(0,0,255)" />
    <circle cx="1738.671875" cy="1032.12890625" r="4.0" fill="rgb(0,0,255)" />
    <circle cx="558.59375" cy="1032.12890625" r="4.0" fill="rgb(0,255,0)" />
    <circle cx="540.234375" cy="1032.12890625" r="4.0" fill="rgb(0,255,0)" />
    <circle cx="1738.671875" cy="1128.22265625" r="4.0" fill="rgb(0,0,255)" />
    <circle cx="2605.2734375000005" cy="1128.22265625" r="4.0" fill="rgb(0,255,0)" />
    <circle cx="1540.0390625" cy="1128.22265625" r="4.0" fill="rgb(0,0,255)" />
    <circle cx="1329.8828125" cy="1237.20703125" r="4.0" fill="rgb(255,0,0)" />
    <circle cx="1540.0390625" cy="1237.20703125" r="4.0" fill="rgb(255,0,0)" />
    <circle cx="1540.0390625" cy="1466.6015625" r="4.0" fill="rgb(0,0,255)" />
    <circle cx="1329.8828125" cy="1466.6015625" r="4.0" fill="rgb(0,0,255)" />
    <circle cx="2605.2734375000005" cy="1776.85546875" r="4.0" fill="rgb(255,0,0)" />
    <circle cx="1540.0390625" cy="1776.85546875" r="4.0" fill="rgb(255,0,0)" />
    <circle cx="2427.734375" cy="1776.85546875" r="4.0" fill="rgb(0,0,255)" />
    <circle cx="2499.0234375" cy="1776.85546875" r="4.0" fill="rgb(0,0,255)" />
    <circle cx="540.234375" cy="1776.85546875" r="4.0" fill="rgb(0,255,0)" />
    <circle cx="2799.21875" cy="1776.85546875" r="4.0" fill="rgb(0,255,0)" />
    <circle cx="1329.8828125" cy="1776.85546875" r="4.0" fill="rgb(255,0,0)" />
    <circle cx="1146.2890625" cy="1776.85546875" r="4.0" fill="rgb(255,0,0)" />
    <circle cx="344.14062499999994" cy="1776.85546875" r="4.0" fill="rgb(0,255,0)" />
    <circle cx="1540.0390625" cy="2039.6484375000002" r="4.0" fill="rgb(0,0,255)" />
    <circle cx="1146.2890625" cy="2115.234375" r="4.0" fill="rgb(0,0,255)" />
    <circle cx="1329.8828125" cy="2115.234375" r="4.0" fill="rgb(255,0,0)" />
    <circle cx="1540.0390625" cy="2115.234375" r="4.0" fill="rgb(0,0,255)" />
    <circle cx="1465.2343750000002" cy="2115.234375" r="4.0" fill="rgb(255,0,0)" />
    <circle cx="2605.2734375000005" cy="2115.234375" r="4.0" fill="rgb(0,255,0)" />
    <circle cx="1146.2890625" cy="2634.9609375" r="4.0" fill="rgb(0,255,0)" />
    <circle cx="2799.21875" cy="2634.9609375" r="4.0" fill="rgb(0,255,0)" />
    <circle cx="344.14062499999994" cy="2634.9609375" r="4.0" fill="rgb(0,255,0)" />
    <circle cx="1540.0390625" cy="2634.9609375" r="4.0" fill="rgb(0,255,0)" />
    <circle cx="2605.2734375000005" cy="2739.84375" r="4.0" fill="rgb(0,255,0)" />
    <circle cx="1540.0390625" cy="2739.84375" r="4.0" fill="rgb(255,0,0)" />
    <circle cx="2775.0" cy="2739.84375" r="4.0" fill="rgb(0,255,0)" />
    <circle cx="1540.0390625" cy="2774.4140625" r="4.0" fill="rgb(255,0,0)" />
  </g>
</svg>