<?xml version='1.0' encoding='utf-8'?>
<svg xmlns="http://www.w3.org/2000/svg" width="3000" height="3000">
  <rect width="3000" height="3000" fill="black" />
  <g stroke-width="2.0" fill="none" opacity="0.8">
    <line x1="768.45703125" y1="2479.6875" x2="768.45703125" y2="2795.5078125" stroke="rgb(0,255,0)" />
    <line x1="2648.4375" y1="2479.6875" x2="2648.4375" y2="205.46875000000003" stroke="rgb(0,255,0)" />
    <line x1="341.015625" y1="205.46875000000003" x2="341.015625" y2="2479.6875" stroke="rgb(0,255,0)" />
    <line x1="2288.0859375" y1="2479.6875" x2="2686.5234375" y2="2479.6875" stroke="rgb(0,255,0)" />
    <line x1="2068.9453125" y1="2479.6875" x2="341.015625" y2="2479.6875" stroke="rgb(0,255,0)" />
    <line x1="341.015625" y1="205.46875000000003" x2="2648.4375" y2="205.46875000000003" stroke="rgb(0,255,0)" />
    <line x1="2648.4375" y1="2795.5078125" x2="2686.5234375" y2="2775.390625" stroke="rgb(0,255,0)" />
    <line x1="1160.44921875" y1="699.4140625" x2="1160.44921875" y2="805.46875" stroke="rgb(0,255,0)" />
    <line x1="2686.5234375" y1="2479.6875" x2="2686.5234375" y2="2775.390625" stroke="rgb(0,255,0)" />
    <line x1="2648.4375" y1="2795.5078125" x2="768.45703125" y2="2795.5078125" stroke="rgb(0,255,0)" />
    <line x1="1446.97265625" y1="2479.6875" x2="1446.97265625" y2="1715.4296875" stroke="rgb(0,0,255)" />
    <line x1="1696.58203125" y1="805.46875" x2="1696.58203125" y2="465.23437499999994" stroke="rgb(0,0,255)" />
    <line x1="341.015625" y1="805.46875" x2="883.30078125" y2="805.46875" stroke="rgb(0,0,255)" />
    <line x1="1696.58203125" y1="205.46875000000003" x2="1696.58203125" y2="514.2578125" stroke="rgb(0,0,255)" />
    <line x1="2648.4375" y1="1014.453125" x2="1696.58203125" y2="1014.453125" stroke="rgb(0,0,255)" />
    <line x1="1446.97265625" y1="699.4140625" x2="1160.44921875" y2="699.4140625" stroke="rgb(0,0,255)" />
    <line x1="1160.44921875" y1="1014.453125" x2="1160.44921875" y2="1715.4296875" stroke="rgb(0,0,255)" />
    <line x1="1160.44921875" y1="1804.4921874999998" x2="1160.44921875" y2="1900.5859375" stroke="rgb(0,0,255)" />
    <line x1="1160.44921875" y1="699.4140625" x2="1160.44921875" y2="205.46875000000003" stroke="rgb(0,0,255)" />
    <line x1="1696.58203125" y1="1715.4296875" x2="1446.97265625" y2="1715.4296875" stroke="rgb(0,0,255)" />
    <line x1="1696.58203125" y1="1014.453125" x2="1696.58203125" y2="1336.71875" stroke="rgb(0,0,255)" />
    <line x1="2068.9453125" y1="2479.6875" x2="2119.62890625" y2="2479.6875" stroke="rgb(0,0,255)" />
    <line x1="1696.58203125" y1="1568.9453125" x2="1696.58203125" y2="1474.4140625" stroke="rgb(0,0,255)" />
    <line x1="1397.4609375" y1="1900.5859375" x2="1446.97265625" y2="1900.5859375" stroke="rgb(0,0,255)" />
    <line x1="341.015625" y1="1014.453125" x2="1160.44921875" y2="1014.453125" stroke="rgb(0,0,255)" />
    <line x1="341.015625" y1="1900.5859375" x2="1160.44921875" y2="1900.5859375" stroke="rgb(0,0,255)" />
    <line x1="2648.4375" y1="1530.859375" x2="1696.58203125" y2="1530.859375" stroke="rgb(0,0,255)" />
    <line x1="883.30078125" y1="805.46875" x2="1160.44921875" y2="805.46875" stroke="rgb(255,0,0)" />
    <line x1="1696.58203125" y1="1336.71875" x2="1696.58203125" y2="1474.4140625" stroke="rgb(255,0,0)" />
    <line x1="2288.0859375" y1="2479.6875" x2="2119.62890625" y2="2479.6875" stroke="rgb(255,0,0)" />
    <line x1="1696.58203125" y1="805.46875" x2="1696.58203125" y2="1014.453125" stroke="rgb(255,0,0)" />
    <line x1="1160.44921875" y1="175.78125" x2="1160.44921875" y2="205.46875000000003" stroke="rgb(255,0,0)" />
    <line x1="1696.58203125" y1="205.46875000000003" x2="1696.58203125" y2="175.78125" stroke="rgb(255,0,0)" />
    <line x1="1160.44921875" y1="1715.4296875" x2="1160.44921875" y2="1804.4921874999998" stroke="rgb(255,0,0)" />
    <line x1="1696.58203125" y1="1568.9453125" x2="1696.58203125" y2="1715.4296875" stroke="rgb(255,0,0)" />
    <line x1="1160.44921875" y1="1900.5859375" x2="1397.4609375" y2="1900.5859375" stroke="rgb(255,0,0)" />
    <line x1="1446.97265625" y1="699.4140625" x2="1696.58203125" y2="699.4140625" stroke="rgb(255,0,0)" />
    <line x1="1160.44921875" y1="1014.453125" x2="1160.44921875" y2="805.46875" stroke="rgb(255,0,0)" />
  </g>
  <g opacity="1.0">
    <circle cx="1160.44921875" cy="175.78125" r="4.0" fill="rgb(255,0,0)" />
    <circle cx="1696.58203125" cy="175.78125" r="4.0" fill="rgb(255,0,0)" />
    <circle cx="1160.44921875" cy="205.46875000000003" r="4.0" fill="rgb(0,0,255)" />
    <circle cx="1696.58203125" cy="205.46875000000003" r="4.0" fill="rgb(0,0,255)" />
    <circle cx="341.015625" cy="205.46875000000003" r="4.0" fill="rgb(0,255,0)" />
    <circle cx="2648.4375" cy="205.46875000000003" r="4.0" fill="rgb(0,255,0)" />
    <circle cx="1696.58203125" cy="465.23437499999994" r="4.0" fill="rgb(0,0,255)" />
    <circle cx="1696.58203125" cy="514.2578125" r="4.0" fill="rgb(0,0,255)" />
    <circle cx="1160.44921875" cy="699.4140625" r="4.0" fill="rgb(0,255,0)" />
    <circle cx="1696.58203125" cy="699.4140625" r="4.0" fill="rgb(0,0,255)" />
    <circle cx="1446.97265625" cy="699.4140625" r="4.0" fill="rgb(255,0,0)" />
    <circle cx="341.015625" cy="805.46875" r="4.0" fill="rgb(0,255,0)" />
    <circle cx="1160.44921875" cy="805.46875" r="4.0" fill="rgb(255,0,0)" />
    <circle cx="883.30078125" cy="805.46875" r="4.0" fill="rgb(255,0,0)" />
    <circle cx="1696.58203125" cy="805.46875" r="4.0" fill="rgb(255,0,0)" />
    <circle cx="1696.58203125" cy="1014.453125" r="4.0" fill="rgb(0,0,255)" />
    <circle cx="341.015625" cy="1014.453125" r="4.0" fill="rgb(0,255,0)" />
    <circle cx="1160.44921875" cy="1014.453125" r="4.0" fill="rgb(0,0,255)" />
    <circle cx="2648.4375" cy="1014.453125" r="4.0" fill="rgb(0,255,0)" />
    <circle cx="1696.58203125" cy="1336.71875" r="4.0" fill="rgb(255,0,0)" />
    <circle cx="1696.58203125" cy="1474.4140625" r="4.0" fill="rgb(0,0,255)" />
    <circle cx="1696.58203125" cy="1530.859375" r="4.0" fill="rgb(0,0,255)" />
    <circle cx="2648.4375" cy="1530.859375" r="4.0" fill="rgb(0,255,0)" />
    <circle cx="1696.58203125" cy="1568.9453125" r="4.0" fill="rgb(255,0,0)" />
    <circle cx="1696.58203125" cy="1715.4296875" r="4.0" fill="rgb(255,0,0)" />
    <circle cx="1160.44921875" cy="1715.4296875" r="4.0" fill="rgb(255,0,0)" />
    <circle cx="1446.97265625" cy="1715.4296875" r="4.0" fill="rgb(0,0,255)" />
    <circle cx="1160.44921875" cy="1804.4921874999998" r="4.0" fill="rgb(0,0,255)" />
    <circle cx="341.015625" cy="1900.5859375" r="4.0" fill="rgb(0,255,0)" />
    <circle cx="1160.44921875" cy="1900.5859375" r="4.0" fill="rgb(255,0,0)" />
    <circle cx="1446.97265625" cy="1900.5859375" r="4.0" fill="rgb(0,0,255)" />
    <circle cx="1397.4609375" cy="1900.5859375" r="4.0" fill="rgb(255,0,0)" />
    <circle cx="341.015625" cy="2479.6875" r="4.0" fill="rgb(0,255,0)" />
    <circle cx="2068.9453125" cy="2479.6875" r="4.0" fill="rgb(0,0,255)" />
    <circle cx="2288.0859375" cy="2479.6875" r="4.0" fill="rgb(255,0,0)" />
    <circle cx="2648.4375" cy="2479.6875" r="4.0" fill="rgb(0,255,0)" />
    <circle cx="1446.97265625" cy="2479.6875" r="4.0" fill="rgb(0,255,0)" />
    <circle cx="768.45703125" cy="2479.6875" r="4.0" fill="rgb(0,255,0)" />
    <circle cx="2686.5234375" cy="2479.6875" r="4.0" fill="rgb(0,255,0)" />
    <circle cx="2119.62890625" cy="2479.6875" r="4.0" fill="rgb(255,0,0)" />
    <circle cx="2686.5234375" cy="2775.390625" r="4.0" fill="rgb(0,255,0)" />
    <circle cx="768.45703125" cy="2795.5078125" r="4.0" fill="rgb(0,255,0)" />
    <circle cx="2648.4375" cy="2795.5078125" r="4.0" fill="rgb(0,255,0)" />
  </g>
</svg>