<?xml version='1.0' encoding='utf-8'?>
<svg xmlns="http://www.w3.org/2000/svg" version="1.1" width="1024" height="1536" viewBox="0 0 1024 1536"><rect x="0" y="0" width="1024" height="1536" fill="#FFFFFF" /><polyline points="448.0,313.0 453.0,311.3" stroke="#0000FF" stroke-width="2" fill="none" /><polyline points="528.0,311.1 559.0,312.0 559.0,117.0 436.0,118.0 436.0,309.0 438.0,312.0 448.0,313.0" stroke="#0000FF" stroke-width="2" fill="none" /><polyline points="318.0,429.0 417.0,428.0 417.0,424.0" stroke="#00FF00" stroke-width="2" fill="none" /><polyline points="417.0,338.0 418.0,120.0 186.0,119.0 92.0,250.0 92.0,428.0 318.0,429.0" stroke="#00FF00" stroke-width="2" fill="none" /><polyline points="697.0,540.0 852.0,539.0 853.0,231.0 578.0,232.0 578.0,444.0" stroke="#FF0000" stroke-width="2" fill="none" /><polyline points="579.9,530.0 579.0,539.0 697.0,540.0" stroke="#FF0000" stroke-width="2" fill="none" /><polyline points="523.2,936.0 523.0,921.0 525.0,918.0 559.0,918.0 558.0,819.0 576.0,818.8" stroke="#00FFFF" stroke-width="2" fill="none" /><polyline points="576.0,750.3 559.0,749.0 559.0,524.0 576.0,522.9" stroke="#00FFFF" stroke-width="2" fill="none" /><polyline points="576.0,451.2 559.0,451.0 560.0,333.0 521.0,329.0 521.3,314.0" stroke="#00FFFF" stroke-width="2" fill="none" /><polyline points="460.1,314.0 458.0,329.0 455.0,333.0 438.0,332.0 437.0,345.0 420.0,345.6" stroke="#00FFFF" stroke-width="2" fill="none" /><polyline points="420.0,416.2 436.0,416.0 438.0,419.0 438.0,528.0 431.0,525.0 420.0,525.7" stroke="#00FFFF" stroke-width="2" fill="none" /><polyline points="420.0,592.1 428.0,592.0 437.0,596.0 437.0,815.0 420.0,816.3" stroke="#00FFFF" stroke-width="2" fill="none" /><polyline points="420.0,882.0 436.0,882.0 436.0,919.0 457.0,918.0 458.8,936.0" stroke="#00FFFF" stroke-width="2" fill="none" /><polyline points="412.0,616.0 418.0,615.0 418.0,599.0" stroke="#FF00FF" stroke-width="2" fill="none" /><polyline points="417.0,520.0 417.0,448.0 185.0,449.0 185.0,535.0 268.0,615.0 412.0,616.0" stroke="#FF00FF" stroke-width="2" fill="none" /><polyline points="860.0,837.0 869.0,836.0 869.0,822.0 872.0,819.0 930.0,819.0 931.0,640.0 929.0,567.0 855.0,567.0 852.0,559.0 844.0,558.0 578.0,560.0 579.0,744.0" stroke="#FFFF00" stroke-width="2" fill="none" /><polyline points="580.0,825.0 580.0,836.0 860.0,837.0" stroke="#FFFF00" stroke-width="2" fill="none" /><polyline points="411.0,920.0 416.0,919.0 417.0,915.0 416.0,888.0" stroke="#0080FF" stroke-width="2" fill="none" /><polyline points="417.0,809.0 417.0,634.0 246.0,635.0 229.0,619.0 107.0,739.0 108.0,919.0 411.0,920.0" stroke="#0080FF" stroke-width="2" fill="none" /><polyline points="948.0,1394.0 947.0,851.0 915.0,850.0 901.0,852.0 901.0,1146.0 873.0,1146.3" stroke="#FF0080" stroke-width="2" fill="none" /><polyline points="873.0,1214.6 901.0,1218.0 901.0,1276.0 885.0,1278.0 578.0,1278.0 500.0,1355.0 499.0,1393.0 948.0,1394.0" stroke="#FF0080" stroke-width="2" fill="none" /><polyline points="828.0,1246.0 869.0,1245.0 870.0,1242.0 870.0,1222.0" stroke="#FF8000" stroke-width="2" fill="none" /><polyline points="869.0,1140.0 870.0,857.0 579.0,856.0 579.0,1105.0" stroke="#FF8000" stroke-width="2" fill="none" /><polyline points="579.9,1189.0 578.0,1245.0 828.0,1246.0" stroke="#FF8000" stroke-width="2" fill="none" /><polyline points="429.0,1324.0 486.0,1323.0 555.0,1255.0 560.0,1245.0 561.0,1182.0 578.0,1182.2" stroke="#8080FF" stroke-width="2" fill="none" /><polyline points="576.0,1111.6 564.0,1111.0 563.0,1115.0 560.0,1115.0 559.0,940.0 530.0,940.0" stroke="#8080FF" stroke-width="2" fill="none" /><polyline points="452.0,939.0 136.0,939.0 133.0,1180.0 273.0,1324.0 429.0,1324.0" stroke="#8080FF" stroke-width="2" fill="none" /></svg>