<?xml version='1.0' encoding='utf-8'?>
<svg xmlns="http://www.w3.org/2000/svg" version="1.1" width="1024" height="1024" viewBox="0 0 1024 1024"><rect x="0" y="0" width="1024" height="1024" fill="#FFFFFF" /><polyline points="780.0,302.0 783.0,301.0 784.0,270.0 782.0,61.0 539.0,59.0 538.0,240.0" stroke="#0000FF" stroke-width="2" fill="none" /><polyline points="538.8,298.0 538.0,301.0 780.0,302.0" stroke="#0000FF" stroke-width="2" fill="none" /><polyline points="365.0,317.0 365.0,298.0" stroke="#00FF00" stroke-width="2" fill="none" /><polyline points="365.0,240.0 366.0,61.0 164.0,60.0 78.0,145.0 78.0,298.0 300.0,297.0 303.0,302.0 304.0,317.0 365.0,317.0" stroke="#00FF00" stroke-width="2" fill="none" /><polyline points="525.0,225.0 524.0,62.0 380.0,61.0 379.0,224.0 467.0,224.0" stroke="#FF0000" stroke-width="2" fill="none" /><polyline points="521.0,224.0 525.0,225.0" stroke="#FF0000" stroke-width="2" fill="none" /><polyline points="441.0,643.0 441.0,634.0 453.0,632.0 454.0,622.0 463.0,621.2" stroke="#00FFFF" stroke-width="2" fill="none" /><polyline points="463.0,577.0 458.0,577.0 454.0,573.0 454.0,557.0 456.0,554.0 526.0,554.0 524.0,436.0 537.0,435.4" stroke="#00FFFF" stroke-width="2" fill="none" /><polyline points="537.0,382.5 526.0,382.0 525.0,326.0 459.0,325.0 459.0,314.0 462.0,312.0 525.0,313.0 526.0,292.0 535.0,292.0" stroke="#00FFFF" stroke-width="2" fill="none" /><polyline points="535.0,245.9 527.0,245.0 526.0,239.0 516.0,235.0 516.2,227.0" stroke="#00FFFF" stroke-width="2" fill="none" /><polyline points="473.4,227.0 473.0,237.0 379.0,237.0 377.0,246.0 368.0,246.8" stroke="#00FFFF" stroke-width="2" fill="none" /><polyline points="368.0,292.0 378.0,292.0 379.0,313.0 408.0,313.0 410.0,318.0 410.0,325.0 399.0,327.0 399.0,365.0 390.0,365.8" stroke="#00FFFF" stroke-width="2" fill="none" /><polyline points="390.0,410.9 398.0,411.0 399.0,484.0 396.0,486.0 337.0,486.0 338.0,510.0" stroke="#00FFFF" stroke-width="2" fill="none" /><polyline points="337.0,575.0 337.0,608.0 328.0,618.0 322.0,636.0" stroke="#00FFFF" stroke-width="2" fill="none" /><polyline points="366.1,636.0 368.0,634.0 396.0,633.0 396.2,643.0" stroke="#00FFFF" stroke-width="2" fill="none" /><polyline points="939.0,555.0 940.0,315.0 539.0,316.0 539.0,377.0" stroke="#FF00FF" stroke-width="2" fill="none" /><polyline points="540.9,440.0 540.0,452.0 615.0,451.0 653.0,452.0 655.0,455.0 655.0,477.0 653.0,479.0 540.0,478.0 540.0,555.0 939.0,555.0" stroke="#FF00FF" stroke-width="2" fill="none" /><polyline points="364.0,464.0 370.0,462.0 386.0,446.0 386.0,417.0" stroke="#FFFF00" stroke-width="2" fill="none" /><polyline points="386.0,360.0 386.0,329.0 292.0,330.0 291.0,324.0 286.0,322.0 179.0,324.0 179.0,368.0 275.0,463.0 364.0,464.0" stroke="#FFFF00" stroke-width="2" fill="none" /><polyline points="284.0,618.0 296.0,616.0 324.0,588.0 326.0,569.0 334.0,568.0" stroke="#0080FF" stroke-width="2" fill="none" /><polyline points="334.0,515.9 326.0,516.0 322.0,514.0 323.0,486.0 265.0,487.0 202.0,425.0 161.0,464.0 87.0,466.0 88.0,618.0 284.0,618.0" stroke="#0080FF" stroke-width="2" fill="none" /><polyline points="816.0,882.0 834.0,881.0 833.0,653.0 851.0,648.5" stroke="#FF0080" stroke-width="2" fill="none" /><polyline points="851.0,607.0 835.0,607.0 833.0,568.0 517.8,569.7" stroke="#FF0080" stroke-width="2" fill="none" /><polyline points="467.7,627.0 466.0,633.0 468.0,881.0 816.0,882.0" stroke="#FF0080" stroke-width="2" fill="none" /><polyline points="948.0,903.0 949.0,581.0 862.0,581.0 861.0,600.0" stroke="#FF8000" stroke-width="2" fill="none" /><polyline points="854.0,654.0 861.0,656.0 861.0,903.0 948.0,903.0" stroke="#FF8000" stroke-width="2" fill="none" /><polyline points="201.0,883.0 361.0,882.0 370.0,880.0 369.0,644.0 368.0,644.3" stroke="#8080FF" stroke-width="2" fill="none" /><polyline points="319.7,636.0 322.0,621.0 312.0,631.0 298.0,632.0 87.0,633.0 87.0,770.0 201.0,883.0" stroke="#8080FF" stroke-width="2" fill="none" /><polyline points="453.0,882.0 454.0,646.0 447.0,645.1" stroke="#80FF80" stroke-width="2" fill="none" /><polyline points="390.0,645.6 383.0,644.0 382.0,882.0 453.0,882.0" stroke="#80FF80" stroke-width="2" fill="none" /></svg>