<?xml version='1.0' encoding='utf-8'?>
<svg xmlns="http://www.w3.org/2000/svg" version="1.1" width="1024" height="1536" viewBox="0 0 1024 1536"><rect x="0" y="0" width="1024" height="1536" fill="#FFFFFF" /><polyline points="394.0,298.0 443.0,297.0 444.0,295.0 443.0,249.0" stroke="#0000FF" stroke-width="2" fill="none" /><polyline points="443.0,180.0 443.0,108.0 253.0,108.0 178.0,181.0 295.0,297.0 394.0,298.0" stroke="#0000FF" stroke-width="2" fill="none" /><polyline points="497.9,999.0 500.0,985.0 543.0,984.0 544.0,904.0 556.0,903.8" stroke="#00FF00" stroke-width="2" fill="none" /><polyline points="556.0,845.9 542.0,844.0 543.0,683.0 557.0,682.8" stroke="#00FF00" stroke-width="2" fill="none" /><polyline points="557.0,624.8 546.0,624.0 542.0,619.0 543.0,394.0 557.0,393.8" stroke="#00FF00" stroke-width="2" fill="none" /><polyline points="557.0,336.1 542.0,335.0 542.0,108.0 462.0,108.0 461.0,186.0 459.0,188.0 446.0,188.0" stroke="#00FF00" stroke-width="2" fill="none" /><polyline points="446.0,244.6 461.0,245.0 462.0,313.0 460.0,315.0 418.0,315.0 418.0,368.0 404.0,369.9" stroke="#00FF00" stroke-width="2" fill="none" /><polyline points="404.0,426.0 416.0,426.0 416.0,526.0 414.0,528.0 321.0,528.0 320.0,598.0 240.0,678.0 240.0,799.0 392.0,799.0 419.0,802.0 420.0,854.0 418.0,856.0 405.0,856.0" stroke="#00FF00" stroke-width="2" fill="none" /><polyline points="405.0,912.0 418.0,912.0 420.0,915.0 419.0,985.0 437.0,987.0 437.0,999.0" stroke="#00FF00" stroke-width="2" fill="none" /><polyline points="797.0,417.0 914.0,416.0 913.0,109.0 561.0,108.0 560.0,329.0" stroke="#FF0000" stroke-width="2" fill="none" /><polyline points="560.9,400.0 560.0,416.0 797.0,417.0" stroke="#FF0000" stroke-width="2" fill="none" /><polyline points="368.0,494.0 400.0,493.0 399.0,432.0" stroke="#00FFFF" stroke-width="2" fill="none" /><polyline points="400.0,362.0 399.0,316.0 287.0,314.0 165.0,193.0 83.0,275.0 83.0,493.0 368.0,494.0" stroke="#00FFFF" stroke-width="2" fill="none" /><polyline points="884.0,714.0 914.0,713.0 916.0,702.0 942.0,667.0 942.0,560.0 914.0,526.0 913.0,434.0 560.0,435.0 560.0,617.0" stroke="#FF00FF" stroke-width="2" fill="none" /><polyline points="561.0,688.0 561.0,713.0 884.0,714.0" stroke="#FF00FF" stroke-width="2" fill="none" /><polyline points="913.0,1075.0 913.0,731.0 560.0,732.0 560.0,839.0" stroke="#FFFF00" stroke-width="2" fill="none" /><polyline points="560.0,911.0 561.0,1075.0 913.0,1075.0" stroke="#FFFF00" stroke-width="2" fill="none" /><polyline points="292.0,1091.0 309.0,1090.0 402.0,993.0 402.0,920.0" stroke="#0080FF" stroke-width="2" fill="none" /><polyline points="402.0,849.0 402.0,835.0 85.0,834.0 83.0,1090.0 292.0,1091.0" stroke="#0080FF" stroke-width="2" fill="none" /><polyline points="540.0,1396.0 543.0,1371.0 543.0,1192.0 558.0,1189.8" stroke="#FF0080" stroke-width="2" fill="none" /><polyline points="558.0,1134.7 542.0,1134.0 542.0,1003.0 506.0,1003.0" stroke="#FF0080" stroke-width="2" fill="none" /><polyline points="429.0,1003.9 415.0,1003.0 379.0,1041.0 379.0,1131.0" stroke="#FF0080" stroke-width="2" fill="none" /><polyline points="379.0,1201.0 379.0,1362.0 412.0,1395.0 540.0,1396.0" stroke="#FF0080" stroke-width="2" fill="none" /><polyline points="934.0,1413.0 975.0,1412.0 976.0,1086.0 973.0,1080.0 947.0,1082.0 948.0,1107.0 946.0,1108.0 899.0,1109.0 900.0,1179.0 884.0,1180.0 874.0,1183.5" stroke="#FF8000" stroke-width="2" fill="none" /><polyline points="874.0,1231.0 899.0,1231.0 899.0,1412.0 934.0,1413.0" stroke="#FF8000" stroke-width="2" fill="none" /><polyline points="866.0,1396.0 867.0,1239.0" stroke="#8080FF" stroke-width="2" fill="none" /><polyline points="868.7,1177.0 866.0,1175.0 866.0,1093.0 560.0,1094.0 561.0,1128.0" stroke="#8080FF" stroke-width="2" fill="none" /><polyline points="563.5,1198.0 559.0,1200.0 561.0,1395.0 866.0,1396.0" stroke="#8080FF" stroke-width="2" fill="none" /><polyline points="346.0,1322.0 362.0,1321.0 362.0,1194.0 376.0,1193.8" stroke="#80FF80" stroke-width="2" fill="none" /><polyline points="376.0,1138.7 363.0,1137.0 361.0,1107.0 214.0,1107.0 213.0,1321.0 346.0,1322.0" stroke="#80FF80" stroke-width="2" fill="none" /></svg>