<?xml version='1.0' encoding='utf-8'?>
<svg xmlns="http://www.w3.org/2000/svg" version="1.1" width="1536" height="1024" viewBox="0 0 1536 1024"><rect x="0" y="0" width="1536" height="1024" fill="#FFFFFF" /><polyline points="573.0,348.0 589.0,347.0 589.0,342.0" stroke="#0000FF" stroke-width="2" fill="none" /><polyline points="589.3,264.0 590.0,262.0 589.0,75.0 188.0,76.0 189.0,347.0 573.0,348.0" stroke="#0000FF" stroke-width="2" fill="none" /><polyline points="848.0,241.0 882.0,240.0 882.0,75.0 607.0,76.0 608.0,240.0 696.0,240.0" stroke="#00FF00" stroke-width="2" fill="none" /><polyline points="775.0,240.0 848.0,241.0" stroke="#00FF00" stroke-width="2" fill="none" /><polyline points="1249.0,378.0 1320.0,377.0 1321.0,75.0 900.0,76.0 900.0,274.0" stroke="#FF0000" stroke-width="2" fill="none" /><polyline points="899.1,357.0 901.0,377.0 1249.0,378.0" stroke="#FF0000" stroke-width="2" fill="none" /><polyline points="738.4,726.0 738.0,712.0 741.0,709.0 778.0,710.0 779.0,688.0 786.0,692.0 794.0,691.6" stroke="#00FFFF" stroke-width="2" fill="none" /><polyline points="794.0,625.7 783.0,626.0 779.0,624.0 779.0,502.0 794.0,500.4" stroke="#00FFFF" stroke-width="2" fill="none" /><polyline points="794.0,432.8 779.0,433.0 779.0,380.0 782.0,377.0 882.0,377.0 882.0,350.0 895.0,349.0" stroke="#00FFFF" stroke-width="2" fill="none" /><polyline points="895.0,282.5 884.0,283.0 880.0,281.0 881.0,258.0 770.0,258.0 767.0,257.0 767.0,243.0" stroke="#00FFFF" stroke-width="2" fill="none" /><polyline points="704.0,243.0 704.0,255.0 702.0,258.0 608.0,258.0 608.0,269.0 606.0,271.0 592.0,272.4" stroke="#00FFFF" stroke-width="2" fill="none" /><polyline points="592.0,334.4 606.0,334.0 608.0,347.0 688.0,347.0 693.0,350.0 692.0,422.0 678.0,423.4" stroke="#00FFFF" stroke-width="2" fill="none" /><polyline points="678.0,492.8 692.0,493.0 693.0,616.0 691.0,619.0 668.0,620.0 586.0,619.0 584.0,641.0 570.0,641.8" stroke="#00FFFF" stroke-width="2" fill="none" /><polyline points="570.0,700.2 584.0,700.0 585.0,711.0 593.0,712.0 678.0,711.0 679.7,726.0" stroke="#00FFFF" stroke-width="2" fill="none" /><polyline points="592.0,602.0 675.0,601.0 675.0,499.0" stroke="#FF00FF" stroke-width="2" fill="none" /><polyline points="675.0,416.0 675.0,366.0 291.0,367.0 291.0,601.0 592.0,602.0" stroke="#FF00FF" stroke-width="2" fill="none" /><polyline points="1321.0,579.0 1320.0,396.0 797.0,397.0 798.0,427.0" stroke="#FFFF00" stroke-width="2" fill="none" /><polyline points="797.0,508.0 798.0,579.0 1321.0,579.0" stroke="#FFFF00" stroke-width="2" fill="none" /><polyline points="1299.0,922.0 1321.0,921.0 1321.0,727.0" stroke="#0080FF" stroke-width="2" fill="none" /><polyline points="1322.0,652.0 1320.0,597.0 797.0,598.0 798.0,618.0" stroke="#0080FF" stroke-width="2" fill="none" /><polyline points="797.0,699.0 799.0,922.0 1299.0,922.0" stroke="#0080FF" stroke-width="2" fill="none" /><polyline points="1387.0,923.0 1422.0,922.0 1423.0,919.0 1421.0,622.0 1419.0,602.0 1353.0,603.0 1352.0,655.0 1326.0,657.0" stroke="#FF0080" stroke-width="2" fill="none" /><polyline points="1326.0,718.6 1343.0,718.0 1353.0,721.0 1352.0,922.0 1387.0,923.0" stroke="#FF0080" stroke-width="2" fill="none" /><polyline points="518.0,891.0 567.0,890.0 567.0,708.0" stroke="#FF8000" stroke-width="2" fill="none" /><polyline points="566.0,636.0 566.0,625.0 188.0,626.0 190.0,891.0 518.0,891.0" stroke="#FF8000" stroke-width="2" fill="none" /><polyline points="630.0,891.0 779.0,890.0 779.0,729.0 746.0,729.9" stroke="#8080FF" stroke-width="2" fill="none" /><polyline points="673.0,729.0 585.0,731.0 586.0,890.0 630.0,891.0" stroke="#8080FF" stroke-width="2" fill="none" /></svg>