<?xml version='1.0' encoding='utf-8'?>
<svg xmlns="http://www.w3.org/2000/svg" version="1.1" width="1536" height="1024" viewBox="0 0 1536 1024">
  <rect x="0" y="0" width="1536" height="1024" fill="#FFFFFF" />
  <polyline points="769.0,241.5 768.5,241.0 768.0,240.5 767.5,240.0 767.5,239.0 767.5,238.0 767.5,237.0 767.5,236.0 767.5,235.0 767.5,234.0 767.5,233.0 767.5,232.0 767.0,231.5 766.5,231.0 766.5,230.0 766.0,229.5 765.5,229.0 765.5,228.0 765.0,227.5 764.5,227.0 764.5,226.0 764.0,225.5 763.5,225.0 763.5,224.0 763.0,223.5 762.5,223.0 762.5,222.0 762.0,221.5 761.5,221.0 761.5,220.0 761.0,219.5 760.5,219.0 760.5,218.0 760.0,217.5 759.5,217.0 759.5,216.0 759.0,215.5 758.5,215.0 758.5,214.0 758.0,213.5 757.5,213.0 757.5,212.0 757.0,211.5 756.5,211.0 756.5,210.0 756.0,209.5 755.5,209.0 755.5,208.0 755.0,207.5 754.5,207.0 754.0,206.5 753.5,206.0 753.0,205.5 752.5,205.0 752.0,204.5 751.0,204.5 750.5,204.0 750.0,203.5 749.5,203.0 749.0,202.5 748.5,202.0 748.0,201.5 747.5,201.0 747.0,200.5 746.5,200.0 746.0,199.5 745.5,199.0 745.0,198.5 744.0,198.5 743.5,198.0 743.0,197.5 742.5,197.0 742.0,196.5 741.5,196.0 741.0,195.5 740.5,195.0 740.0,194.5 739.5,194.0 739.0,193.5 738.5,193.0 738.0,192.5 737.0,192.5 736.5,192.0 736.0,191.5 735.5,191.0 735.0,190.5 734.5,190.0 734.0,189.5 733.5,189.0 733.0,188.5 732.0,188.5 731.0,188.5 730.5,188.0 730.0,187.5 729.0,187.5 728.0,187.5 727.5,187.0 727.0,186.5 726.0,186.5 725.0,186.5 724.5,186.0 724.0,185.5 723.0,185.5 722.0,185.5 721.5,185.0 721.0,184.5 720.0,184.5 719.0,184.5 718.5,184.0 718.0,183.5 717.0,183.5 716.0,183.5 715.5,183.0 715.0,182.5 714.0,182.5 713.0,182.5 712.0,182.5 711.0,182.5 710.0,182.5 709.0,182.5 708.0,182.5 707.0,182.5 706.0,182.5 705.0,182.5 704.0,182.5 703.5,183.0 703.5,184.0 703.5,185.0 703.5,186.0 703.5,187.0 703.5,188.0 703.5,189.0 703.5,190.0 703.5,191.0 703.5,192.0 703.5,193.0 703.5,194.0 703.5,195.0 703.5,196.0 703.5,197.0 703.5,198.0 703.5,199.0 703.5,200.0 703.5,201.0 703.5,202.0 703.5,203.0 703.5,204.0 703.5,205.0 703.5,206.0 703.5,207.0 703.5,208.0 703.5,209.0 703.5,210.0 703.5,211.0 703.5,212.0 703.5,213.0 703.5,214.0 703.5,215.0 703.5,216.0 703.5,217.0 703.5,218.0 703.5,219.0 703.5,220.0 703.5,221.0 703.5,222.0 703.5,223.0 703.5,224.0 703.5,225.0 703.5,226.0 703.5,227.0 703.5,228.0 703.5,229.0 703.5,230.0 703.5,231.0 703.5,232.0 703.5,233.0 703.5,234.0 703.5,235.0 703.5,236.0 703.5,237.0 703.5,238.0 703.5,239.0 703.0,239.5 702.5,240.0 702.0,240.5 701.0,240.5 700.0,240.5 699.5,240.0 699.0,239.5 698.5,239.0 698.5,238.0 698.5,237.0 698.5,236.0 698.5,235.0 698.5,234.0 698.5,233.0 698.5,232.0 698.5,231.0 698.5,230.0 698.5,229.0 698.5,228.0 698.5,227.0 698.5,226.0 698.5,225.0 698.5,224.0 698.5,223.0 698.5,222.0 698.5,221.0 698.5,220.0 698.5,219.0 698.5,218.0 698.5,217.0 698.5,216.0 698.5,215.0 698.5,214.0 698.5,213.0 698.5,212.0 698.5,211.0 698.0,210.5 697.5,210.0 697.5,209.0 697.5,208.0 697.5,207.0 697.5,206.0 697.5,205.0 697.5,204.0 697.5,203.0 697.5,202.0 697.5,201.0 697.5,200.0 697.5,199.0 697.5,198.0 697.5,197.0 697.5,196.0 697.5,195.0 697.5,194.0 697.5,193.0 697.5,192.0 697.5,191.0 697.5,190.0 697.5,189.0 697.5,188.0 697.5,187.0 697.5,186.0 697.5,185.0 697.5,184.0 697.5,183.0 697.5,182.0 697.5,181.0 698.0,180.5 698.5,180.0 699.0,179.5 699.5,179.0 700.0,178.5 700.5,178.0 701.0,177.5 702.0,177.5 703.0,177.5 704.0,177.5 705.0,177.5 706.0,177.5 707.0,177.5 708.0,177.5 709.0,177.5 710.0,177.5 711.0,177.5 712.0,177.5 712.5,178.0 713.0,178.5 714.0,178.5 715.0,178.5 716.0,178.5 716.5,179.0 717.0,179.5 718.0,179.5 719.0,179.5 720.0,179.5 720.5,180.0 721.0,180.5 722.0,180.5 723.0,180.5 724.0,180.5 724.5,181.0 725.0,181.5 726.0,181.5 727.0,181.5 728.0,181.5 728.5,182.0 729.0,182.5 730.0,182.5 731.0,182.5 732.0,182.5 732.5,183.0 733.0,183.5 734.0,183.5 734.5,184.0 735.0,184.5 735.5,185.0 736.0,185.5 737.0,185.5 737.5,186.0 738.0,186.5 738.5,187.0 739.0,187.5 740.0,187.5 740.5,188.0 741.0,188.5 741.5,189.0 742.0,189.5 743.0,189.5 743.5,190.0 744.0,190.5 744.5,191.0 745.0,191.5 746.0,191.5 746.5,192.0 747.0,192.5 747.5,193.0 748.0,193.5 749.0,193.5 749.5,194.0 750.0,194.5 750.5,195.0 751.0,195.5 751.5,196.0 751.5,197.0 752.0,197.5 752.5,198.0 753.0,198.5 753.5,199.0 754.0,199.5 754.5,200.0 755.0,200.5 755.5,201.0 756.0,201.5 756.5,202.0 756.5,203.0 757.0,203.5 757.5,204.0 758.0,204.5 758.5,205.0 759.0,205.5 759.5,206.0 760.0,206.5 760.5,207.0 761.0,207.5 761.5,208.0 761.5,209.0 762.0,209.5 762.5,210.0 763.0,210.5 763.5,211.0 764.0,211.5 764.5,212.0 764.5,213.0 765.0,213.5 765.5,214.0 765.5,215.0 766.0,215.5 766.5,216.0 766.5,217.0 767.0,217.5 767.5,218.0 767.5,219.0 768.0,219.5 768.5,220.0 768.5,221.0 769.0,221.5 769.5,222.0 769.5,223.0 769.5,224.0 769.5,225.0 770.0,225.5 770.5,226.0 770.5,227.0 770.5,228.0 770.5,229.0 771.0,229.5 771.5,230.0 771.5,231.0 771.5,232.0 771.5,233.0 772.0,233.5 772.5,234.0 772.5,235.0 772.5,236.0 772.5,237.0 773.0,237.5 773.5,238.0 773.5,239.0 773.0,239.5 772.5,240.0 772.0,240.5 771.0,240.5 770.0,240.5 769.5,241.0 769.0,241.5 769.0,241.5" fill="none" stroke="#0000FF" stroke-width="2" />
  <polyline points="588.0,340.5 587.0,340.5 586.0,340.5 585.0,340.5 584.0,340.5 583.0,340.5 582.0,340.5 581.0,340.5 580.0,340.5 579.0,340.5 578.0,340.5 577.0,340.5 576.0,340.5 575.0,340.5 574.0,340.5 573.0,340.5 572.0,340.5 571.0,340.5 570.0,340.5 569.0,340.5 568.0,340.5 567.0,340.5 566.0,340.5 565.0,340.5 564.0,340.5 563.0,340.5 562.0,340.5 561.0,340.5 560.0,340.5 559.0,340.5 558.0,340.5 557.0,340.5 556.0,340.5 555.0,340.5 554.0,340.5 553.0,340.5 552.0,340.5 551.0,340.5 550.0,340.5 549.0,340.5 548.0,340.5 547.0,340.5 546.0,340.5 545.0,340.5 544.0,340.5 543.0,340.5 542.0,340.5 541.0,340.5 540.0,340.5 539.0,340.5 538.0,340.5 537.0,340.5 536.0,340.5 535.0,340.5 534.0,340.5 533.0,340.5 532.0,340.5 531.0,340.5 530.5,340.0 530.0,339.5 529.5,339.0 529.5,338.0 529.5,337.0 529.5,336.0 529.0,335.5 528.5,335.0 528.5,334.0 528.5,333.0 528.5,332.0 528.0,331.5 527.5,331.0 527.5,330.0 527.5,329.0 527.5,328.0 527.5,327.0 528.0,326.5 528.5,326.0 528.5,325.0 528.5,324.0 528.5,323.0 529.0,322.5 529.5,322.0 529.5,321.0 529.5,320.0 529.5,319.0 530.0,318.5 530.5,318.0 530.5,317.0 530.5,316.0 530.5,315.0 531.0,314.5 531.5,314.0 531.5,313.0 531.5,312.0 531.5,311.0 532.0,310.5 532.5,310.0 532.5,309.0 533.0,308.5 533.5,308.0 533.5,307.0 534.0,306.5 534.5,306.0 534.5,305.0 535.0,304.5 535.5,304.0 535.5,303.0 536.0,302.5 536.5,302.0 536.5,301.0 537.0,300.5 537.5,300.0 538.0,299.5 538.5,299.0 538.5,298.0 539.0,297.5 539.5,297.0 539.5,296.0 540.0,295.5 540.5,295.0 540.5,294.0 541.0,293.5 541.5,293.0 542.0,292.5 542.5,292.0 543.0,291.5 543.5,291.0 544.0,290.5 544.5,290.0 545.0,289.5 545.5,289.0 546.0,288.5 546.5,288.0 547.0,287.5 547.5,287.0 548.0,286.5 548.5,286.0 549.0,285.5 549.5,285.0 550.0,284.5 551.0,284.5 551.5,284.0 552.0,283.5 552.5,283.0 553.0,282.5 553.5,282.0 554.0,281.5 554.5,281.0 555.0,280.5 555.5,280.0 556.0,279.5 556.5,279.0 557.0,278.5 557.5,278.0 558.0,277.5 558.5,277.0 559.0,276.5 559.5,276.0 560.0,275.5 561.0,275.5 561.5,275.0 562.0,274.5 563.0,274.5 563.5,274.0 564.0,273.5 565.0,273.5 565.5,273.0 566.0,272.5 566.5,272.0 567.0,271.5 568.0,271.5 568.5,271.0 569.0,270.5 570.0,270.5 570.5,270.0 571.0,269.5 572.0,269.5 572.5,269.0 573.0,268.5 574.0,268.5 575.0,268.5 576.0,268.5 576.5,268.0 577.0,267.5 578.0,267.5 579.0,267.5 580.0,267.5 580.5,267.0 581.0,266.5 582.0,266.5 583.0,266.5 584.0,266.5 585.0,266.5 585.5,266.0 586.0,265.5 587.0,265.5 587.5,266.0 588.0,266.5 588.5,267.0 588.0,267.5 587.5,268.0 588.0,268.5 588.5,269.0 588.5,270.0 588.5,271.0 588.0,271.5 587.5,272.0 587.0,272.5 586.0,272.5 585.0,272.5 584.5,273.0 584.0,273.5 583.0,273.5 582.0,273.5 581.0,273.5 580.0,273.5 579.0,273.5 578.0,273.5 577.0,273.5 576.0,273.5 575.0,273.5 574.5,274.0 574.0,274.5 573.0,274.5 572.5,275.0 572.0,275.5 571.5,276.0 571.0,276.5 570.0,276.5 569.5,277.0 569.0,277.5 568.5,278.0 568.0,278.5 567.0,278.5 566.5,279.0 566.0,279.5 565.5,280.0 565.0,280.5 564.0,280.5 563.5,281.0 563.0,281.5 562.5,282.0 562.0,282.5 561.0,282.5 560.5,283.0 560.0,283.5 559.5,284.0 559.0,284.5 558.0,284.5 557.5,285.0 557.0,285.5 556.5,286.0 556.0,286.5 555.0,286.5 554.5,287.0 554.0,287.5 553.5,288.0 553.0,288.5 552.0,288.5 551.5,289.0 551.0,289.5 550.5,290.0 550.5,291.0 550.0,291.5 549.5,292.0 549.0,292.5 548.5,293.0 548.0,293.5 547.5,294.0 547.5,295.0 547.0,295.5 546.5,296.0 546.0,296.5 545.5,297.0 545.0,297.5 544.5,298.0 544.5,299.0 544.0,299.5 543.5,300.0 543.0,300.5 542.5,301.0 542.0,301.5 541.5,302.0 541.5,303.0 541.0,303.5 540.5,304.0 540.0,304.5 539.5,305.0 539.5,306.0 539.0,306.5 538.5,307.0 538.5,308.0 538.5,309.0 538.0,309.5 537.5,310.0 537.5,311.0 537.5,312.0 537.0,312.5 536.5,313.0 536.5,314.0 536.5,315.0 536.0,315.5 535.5,316.0 535.5,317.0 535.5,318.0 535.0,318.5 534.5,319.0 534.5,320.0 534.5,321.0 534.0,321.5 533.5,322.0 533.5,323.0 533.5,324.0 533.0,324.5 532.5,325.0 532.5,326.0 532.5,327.0 532.5,328.0 532.5,329.0 532.5,330.0 532.5,331.0 532.5,332.0 532.5,333.0 532.5,334.0 532.5,335.0 533.0,335.5 534.0,335.5 535.0,335.5 536.0,335.5 536.5,336.0 537.0,336.5 537.5,336.0 538.0,335.5 539.0,335.5 540.0,335.5 541.0,335.5 542.0,335.5 543.0,335.5 544.0,335.5 545.0,335.5 546.0,335.5 547.0,335.5 548.0,335.5 549.0,335.5 550.0,335.5 551.0,335.5 552.0,335.5 553.0,335.5 554.0,335.5 555.0,335.5 556.0,335.5 557.0,335.5 558.0,335.5 559.0,335.5 560.0,335.5 561.0,335.5 562.0,335.5 563.0,335.5 564.0,335.5 565.0,335.5 566.0,335.5 567.0,335.5 568.0,335.5 569.0,335.5 570.0,335.5 571.0,335.5 571.5,335.0 572.0,334.5 573.0,334.5 574.0,334.5 575.0,334.5 576.0,334.5 577.0,334.5 578.0,334.5 579.0,334.5 580.0,334.5 581.0,334.5 582.0,334.5 583.0,334.5 584.0,334.5 585.0,334.5 586.0,334.5 587.0,334.5 588.0,334.5 589.0,334.5 589.5,335.0 590.0,335.5 590.5,336.0 590.0,336.5 589.5,337.0 589.5,338.0 589.5,339.0 589.0,339.5 588.5,340.0 588.0,340.5 588.0,340.5" fill="none" stroke="#00FF00" stroke-width="2" />
  <polyline points="901.0,355.5 900.0,355.5 899.5,355.0 899.0,354.5 898.5,354.0 898.5,353.0 898.5,352.0 898.0,351.5 897.5,351.0 897.0,350.5 896.5,350.0 897.0,349.5 897.5,349.0 898.0,348.5 899.0,348.5 900.0,348.5 901.0,348.5 902.0,348.5 903.0,348.5 904.0,348.5 905.0,348.5 906.0,348.5 907.0,348.5 908.0,348.5 908.5,348.0 909.0,347.5 910.0,347.5 910.5,347.0 911.0,346.5 912.0,346.5 912.5,346.0 913.0,345.5 914.0,345.5 914.5,345.0 915.0,344.5 916.0,344.5 916.5,344.0 917.0,343.5 918.0,343.5 918.5,343.0 919.0,342.5 920.0,342.5 921.0,342.5 921.5,342.0 922.0,341.5 923.0,341.5 923.5,341.0 924.0,340.5 925.0,340.5 925.5,340.0 926.0,339.5 927.0,339.5 927.5,339.0 928.0,338.5 929.0,338.5 929.5,338.0 930.0,337.5 931.0,337.5 931.5,337.0 932.0,336.5 932.5,336.0 933.0,335.5 933.5,335.0 933.5,334.0 934.0,333.5 934.5,333.0 935.0,332.5 935.5,332.0 936.0,331.5 936.5,331.0 937.0,330.5 937.5,330.0 938.0,329.5 938.5,329.0 938.5,328.0 939.0,327.5 939.5,327.0 940.0,326.5 940.5,326.0 941.0,325.5 941.5,325.0 942.0,324.5 942.5,324.0 943.0,323.5 943.5,323.0 943.5,322.0 944.0,321.5 944.5,321.0 945.0,320.5 945.5,320.0 946.0,319.5 946.5,319.0 947.0,318.5 947.5,318.0 948.0,317.5 948.5,317.0 948.5,316.0 949.0,315.5 949.5,315.0 950.0,314.5 950.5,314.0 951.0,313.5 951.5,313.0 951.5,312.0 951.5,311.0 952.0,310.5 952.5,310.0 952.5,309.0 952.5,308.0 952.5,307.0 953.0,306.5 953.5,306.0 953.5,305.0 953.5,304.0 953.5,303.0 954.0,302.5 954.5,302.0 954.5,301.0 954.5,300.0 954.5,299.0 954.5,298.0 955.0,297.5 955.5,297.0 955.5,296.0 955.5,295.0 955.5,294.0 956.0,293.5 956.5,293.0 956.5,292.0 956.5,291.0 956.5,290.0 957.0,289.5 957.5,289.0 957.5,288.0 957.5,287.0 957.5,286.0 958.0,285.5 958.5,285.0 958.5,284.0 958.5,283.0 958.0,282.5 957.5,282.0 957.5,281.0 957.0,280.5 956.5,280.0 956.0,279.5 955.5,280.0 955.0,280.5 954.0,280.5 953.0,280.5 952.0,280.5 951.0,280.5 950.0,280.5 949.0,280.5 948.0,280.5 947.0,280.5 946.0,280.5 945.0,280.5 944.0,280.5 943.0,280.5 942.0,280.5 941.0,280.5 940.0,280.5 939.0,280.5 938.0,280.5 937.0,280.5 936.0,280.5 935.0,280.5 934.0,280.5 933.0,280.5 932.0,280.5 931.5,281.0 931.0,281.5 930.0,281.5 929.0,281.5 928.0,281.5 927.0,281.5 926.0,281.5 925.0,281.5 924.0,281.5 923.0,281.5 922.0,281.5 921.0,281.5 920.0,281.5 919.0,281.5 918.0,281.5 917.0,281.5 916.0,281.5 915.0,281.5 914.0,281.5 913.0,281.5 912.0,281.5 911.0,281.5 910.0,281.5 909.0,281.5 908.0,281.5 907.5,282.0 907.0,282.5 906.0,282.5 905.0,282.5 904.0,282.5 903.0,282.5 902.0,282.5 901.0,282.5 900.0,282.5 899.5,282.0 899.0,281.5 898.5,281.0 899.0,280.5 899.5,280.0 899.5,279.0 899.5,278.0 900.0,277.5 900.5,277.0 901.0,276.5 901.5,276.0 902.0,275.5 903.0,275.5 904.0,275.5 905.0,275.5 906.0,275.5 907.0,275.5 908.0,275.5 909.0,275.5 910.0,275.5 911.0,275.5 912.0,275.5 913.0,275.5 914.0,275.5 915.0,275.5 916.0,275.5 917.0,275.5 918.0,275.5 919.0,275.5 920.0,275.5 921.0,275.5 922.0,275.5 923.0,275.5 924.0,275.5 925.0,275.5 926.0,275.5 927.0,275.5 928.0,275.5 929.0,275.5 930.0,275.5 931.0,275.5 932.0,275.5 933.0,275.5 934.0,275.5 935.0,275.5 936.0,275.5 937.0,275.5 938.0,275.5 939.0,275.5 940.0,275.5 941.0,275.5 942.0,275.5 943.0,275.5 944.0,275.5 945.0,275.5 946.0,275.5 947.0,275.5 948.0,275.5 949.0,275.5 950.0,275.5 951.0,275.5 952.0,275.5 953.0,275.5 954.0,275.5 955.0,275.5 956.0,275.5 957.0,275.5 958.0,275.5 959.0,275.5 960.0,275.5 960.5,276.0 961.0,276.5 961.5,277.0 962.0,277.5 962.5,278.0 962.5,279.0 962.5,280.0 962.5,281.0 962.5,282.0 962.0,282.5 961.5,283.0 961.5,284.0 961.5,285.0 961.5,286.0 961.5,287.0 961.5,288.0 961.5,289.0 961.5,290.0 961.5,291.0 961.5,292.0 961.0,292.5 960.5,293.0 960.5,294.0 960.5,295.0 960.5,296.0 960.5,297.0 960.5,298.0 960.5,299.0 960.5,300.0 960.5,301.0 960.0,301.5 959.5,302.0 959.5,303.0 959.5,304.0 959.5,305.0 959.5,306.0 959.5,307.0 959.0,307.5 958.5,308.0 958.5,309.0 958.0,309.5 957.5,310.0 957.5,311.0 957.0,311.5 956.5,312.0 956.5,313.0 956.0,313.5 955.5,314.0 955.5,315.0 955.0,315.5 954.5,316.0 954.5,317.0 954.0,317.5 953.5,318.0 953.5,319.0 953.0,319.5 952.5,320.0 952.5,321.0 952.0,321.5 951.5,322.0 951.0,322.5 950.5,323.0 950.0,323.5 949.5,324.0 949.0,324.5 948.5,325.0 948.0,325.5 947.5,326.0 947.5,327.0 947.0,327.5 946.5,328.0 946.0,328.5 945.5,329.0 945.0,329.5 944.5,330.0 944.0,330.5 943.5,331.0 943.0,331.5 942.5,332.0 942.0,332.5 941.5,333.0 941.0,333.5 940.5,334.0 940.0,334.5 939.5,335.0 939.5,336.0 939.0,336.5 938.5,337.0 938.0,337.5 937.5,338.0 937.0,338.5 936.5,339.0 936.0,339.5 935.5,340.0 935.0,340.5 934.5,341.0 934.0,341.5 933.0,341.5 932.5,342.0 932.0,342.5 931.5,343.0 931.0,343.5 930.0,343.5 929.5,344.0 929.0,344.5 928.5,345.0 928.0,345.5 927.0,345.5 926.5,346.0 926.0,346.5 925.5,347.0 925.0,347.5 924.0,347.5 923.5,348.0 923.0,348.5 922.0,348.5 921.0,348.5 920.5,349.0 920.0,349.5 919.0,349.5 918.0,349.5 917.5,350.0 917.0,350.5 916.0,350.5 915.0,350.5 914.5,351.0 914.0,351.5 913.0,351.5 912.0,351.5 911.5,352.0 911.0,352.5 910.0,352.5 909.0,352.5 908.0,352.5 907.5,353.0 907.0,353.5 906.0,353.5 905.0,353.5 904.5,354.0 904.0,354.5 903.0,354.5 902.0,354.5 901.5,355.0 901.0,355.5 901.0,355.5" fill="none" stroke="#FF0000" stroke-width="2" />
  <polyline points="674.0,497.5 673.0,497.5 672.0,497.5 671.0,497.5 670.0,497.5 669.0,497.5 668.0,497.5 667.0,497.5 666.0,497.5 665.0,497.5 664.0,497.5 663.0,497.5 662.0,497.5 661.0,497.5 660.0,497.5 659.0,497.5 658.0,497.5 657.0,497.5 656.0,497.5 655.0,497.5 654.0,497.5 653.0,497.5 652.0,497.5 651.0,497.5 650.0,497.5 649.0,497.5 648.0,497.5 647.0,497.5 646.0,497.5 645.0,497.5 644.0,497.5 643.0,497.5 642.0,497.5 641.0,497.5 640.0,497.5 639.0,497.5 638.0,497.5 637.0,497.5 636.0,497.5 635.0,497.5 634.0,497.5 633.0,497.5 632.0,497.5 631.0,497.5 630.0,497.5 629.0,497.5 628.0,497.5 627.0,497.5 626.0,497.5 625.0,497.5 624.0,497.5 623.0,497.5 622.0,497.5 621.0,497.5 620.0,497.5 619.0,497.5 618.0,497.5 617.0,497.5 616.0,497.5 615.0,497.5 614.0,497.5 613.0,497.5 612.0,497.5 611.0,497.5 610.0,497.5 609.5,497.0 609.0,496.5 608.0,496.5 607.5,496.0 607.0,495.5 606.5,495.0 606.5,494.0 606.5,493.0 607.0,492.5 607.5,492.0 607.5,491.0 607.5,490.0 607.5,489.0 607.5,488.0 607.5,487.0 608.0,486.5 608.5,486.0 608.5,485.0 608.5,484.0 608.5,483.0 608.5,482.0 608.5,481.0 609.0,480.5 609.5,480.0 609.5,479.0 609.5,478.0 609.5,477.0 609.5,476.0 609.5,475.0 610.0,474.5 610.5,474.0 610.5,473.0 610.5,472.0 610.5,471.0 610.5,470.0 610.5,469.0 611.0,468.5 611.5,468.0 611.5,467.0 611.5,466.0 612.0,465.5 612.5,465.0 612.5,464.0 613.0,463.5 613.5,463.0 613.5,462.0 614.0,461.5 614.5,461.0 615.0,460.5 615.5,460.0 615.5,459.0 616.0,458.5 616.5,458.0 617.0,457.5 617.5,457.0 617.5,456.0 618.0,455.5 618.5,455.0 618.5,454.0 619.0,453.5 619.5,453.0 620.0,452.5 620.5,452.0 620.5,451.0 621.0,450.5 621.5,450.0 621.5,449.0 622.0,448.5 622.5,448.0 623.0,447.5 623.5,447.0 623.5,446.0 624.0,445.5 624.5,445.0 625.0,444.5 625.5,444.0 625.5,443.0 626.0,442.5 626.5,442.0 626.5,441.0 627.0,440.5 627.5,440.0 628.0,439.5 628.5,439.0 629.0,438.5 629.5,438.0 630.0,437.5 630.5,437.0 631.0,436.5 631.5,436.0 632.0,435.5 632.5,435.0 633.0,434.5 634.0,434.5 634.5,434.0 635.0,433.5 635.5,433.0 636.0,432.5 636.5,432.0 637.0,431.5 637.5,431.0 638.0,430.5 638.5,430.0 639.0,429.5 640.0,429.5 640.5,429.0 641.0,428.5 642.0,428.5 642.5,428.0 643.0,427.5 644.0,427.5 644.5,427.0 645.0,426.5 646.0,426.5 646.5,426.0 647.0,425.5 648.0,425.5 648.5,425.0 649.0,424.5 650.0,424.5 650.5,424.0 651.0,423.5 652.0,423.5 652.5,423.0 653.0,422.5 654.0,422.5 654.5,422.0 655.0,421.5 656.0,421.5 656.5,421.0 657.0,420.5 658.0,420.5 659.0,420.5 660.0,420.5 661.0,420.5 661.5,420.0 662.0,419.5 663.0,419.5 664.0,419.5 665.0,419.5 665.5,419.0 666.0,418.5 667.0,418.5 668.0,418.5 669.0,418.5 670.0,418.5 670.5,418.0 671.0,417.5 672.0,417.5 673.0,417.5 674.0,417.5 674.5,418.0 675.0,418.5 675.5,419.0 675.5,420.0 675.5,421.0 676.0,421.5 676.5,422.0 676.0,422.5 675.5,423.0 675.0,423.5 674.0,423.5 673.0,423.5 672.0,423.5 671.5,424.0 671.0,424.5 670.0,424.5 669.0,424.5 668.0,424.5 667.0,424.5 666.0,424.5 665.0,424.5 664.0,424.5 663.0,424.5 662.0,424.5 661.5,425.0 661.0,425.5 660.0,425.5 659.5,426.0 659.0,426.5 658.0,426.5 657.5,427.0 657.0,427.5 656.0,427.5 655.5,428.0 655.0,428.5 654.0,428.5 653.5,429.0 653.0,429.5 652.0,429.5 651.5,430.0 651.0,430.5 650.0,430.5 649.5,431.0 649.0,431.5 648.0,431.5 647.5,432.0 647.0,432.5 646.0,432.5 645.5,433.0 645.0,433.5 644.0,433.5 643.5,434.0 643.0,434.5 642.0,434.5 641.5,435.0 641.0,435.5 640.0,435.5 639.5,436.0 639.0,436.5 638.5,437.0 638.0,437.5 637.5,438.0 637.0,438.5 636.5,439.0 636.0,439.5 635.5,440.0 635.5,441.0 635.0,441.5 634.5,442.0 634.0,442.5 633.5,443.0 633.0,443.5 632.5,444.0 632.0,444.5 631.5,445.0 631.0,445.5 630.5,446.0 630.0,446.5 629.5,447.0 629.0,447.5 628.5,448.0 628.0,448.5 627.5,449.0 627.0,449.5 626.5,450.0 626.5,451.0 626.0,451.5 625.5,452.0 625.0,452.5 624.5,453.0 624.0,453.5 623.5,454.0 623.0,454.5 622.5,455.0 622.0,455.5 621.5,456.0 621.5,457.0 621.0,457.5 620.5,458.0 620.5,459.0 620.0,459.5 619.5,460.0 619.5,461.0 619.5,462.0 619.0,462.5 618.5,463.0 618.5,464.0 618.0,464.5 617.5,465.0 617.5,466.0 617.5,467.0 617.0,467.5 616.5,468.0 616.5,469.0 616.0,469.5 615.5,470.0 615.5,471.0 615.0,471.5 614.5,472.0 614.5,473.0 614.5,474.0 614.0,474.5 613.5,475.0 613.5,476.0 613.0,476.5 612.5,477.0 612.5,478.0 612.5,479.0 612.5,480.0 612.5,481.0 612.5,482.0 612.5,483.0 612.5,484.0 613.0,484.5 613.5,485.0 613.5,486.0 613.5,487.0 613.5,488.0 613.5,489.0 613.5,490.0 613.5,491.0 613.5,492.0 614.0,492.5 615.0,492.5 616.0,492.5 617.0,492.5 618.0,492.5 619.0,492.5 620.0,492.5 621.0,492.5 622.0,492.5 623.0,492.5 624.0,492.5 625.0,492.5 626.0,492.5 627.0,492.5 628.0,492.5 629.0,492.5 630.0,492.5 631.0,492.5 632.0,492.5 633.0,492.5 634.0,492.5 635.0,492.5 636.0,492.5 637.0,492.5 638.0,492.5 639.0,492.5 640.0,492.5 641.0,492.5 642.0,492.5 643.0,492.5 644.0,492.5 645.0,492.5 646.0,492.5 647.0,492.5 648.0,492.5 649.0,492.5 650.0,492.5 651.0,492.5 652.0,492.5 653.0,492.5 654.0,492.5 655.0,492.5 656.0,492.5 657.0,492.5 658.0,492.5 659.0,492.5 660.0,492.5 661.0,492.5 662.0,492.5 663.0,492.5 664.0,492.5 665.0,492.5 666.0,492.5 667.0,492.5 668.0,492.5 669.0,492.5 670.0,492.5 671.0,492.5 672.0,492.5 673.0,492.5 674.0,492.5 674.5,493.0 675.0,493.5 675.5,494.0 675.5,495.0 675.5,496.0 675.0,496.5 674.5,497.0 674.0,497.5 674.0,497.5" fill="none" stroke="#00FFFF" stroke-width="2" />
  <polyline points="799.0,506.5 798.0,506.5 797.5,506.0 797.0,505.5 796.5,505.0 796.5,504.0 796.5,503.0 796.0,502.5 795.5,502.0 796.0,501.5 796.5,501.0 797.0,500.5 798.0,500.5 798.5,500.0 799.0,499.5 800.0,499.5 801.0,499.5 802.0,499.5 803.0,499.5 804.0,499.5 805.0,499.5 806.0,499.5 807.0,499.5 807.5,499.0 808.0,498.5 809.0,498.5 809.5,498.0 810.0,497.5 811.0,497.5 811.5,497.0 812.0,496.5 813.0,496.5 813.5,496.0 814.0,495.5 815.0,495.5 815.5,495.0 816.0,494.5 817.0,494.5 817.5,494.0 818.0,493.5 819.0,493.5 819.5,493.0 820.0,492.5 820.5,492.0 821.0,491.5 822.0,491.5 822.5,491.0 823.0,490.5 824.0,490.5 824.5,490.0 825.0,489.5 826.0,489.5 826.5,489.0 827.0,488.5 828.0,488.5 828.5,488.0 829.0,487.5 830.0,487.5 830.5,487.0 831.0,486.5 832.0,486.5 832.5,486.0 833.0,485.5 833.5,485.0 834.0,484.5 834.5,484.0 834.5,483.0 835.0,482.5 835.5,482.0 836.0,481.5 836.5,481.0 837.0,480.5 837.5,480.0 838.0,479.5 838.5,479.0 838.5,478.0 839.0,477.5 839.5,477.0 840.0,476.5 840.5,476.0 841.0,475.5 841.5,475.0 842.0,474.5 842.5,474.0 842.5,473.0 843.0,472.5 843.5,472.0 844.0,471.5 844.5,471.0 845.0,470.5 845.5,470.0 846.0,469.5 846.5,469.0 846.5,468.0 847.0,467.5 847.5,467.0 848.0,466.5 848.5,466.0 848.5,465.0 849.0,464.5 849.5,464.0 849.5,463.0 849.5,462.0 850.0,461.5 850.5,461.0 850.5,460.0 850.5,459.0 851.0,458.5 851.5,458.0 851.5,457.0 851.5,456.0 852.0,455.5 852.5,455.0 852.5,454.0 852.5,453.0 853.0,452.5 853.5,452.0 853.5,451.0 853.5,450.0 854.0,449.5 854.5,449.0 854.5,448.0 854.5,447.0 855.0,446.5 855.5,446.0 855.5,445.0 855.5,444.0 856.0,443.5 856.5,443.0 856.5,442.0 856.5,441.0 856.5,440.0 856.0,439.5 855.5,439.0 855.5,438.0 855.5,437.0 855.5,436.0 855.5,435.0 855.0,434.5 854.5,434.0 854.5,433.0 854.5,432.0 854.0,431.5 853.5,432.0 853.0,432.5 852.0,432.5 851.0,432.5 850.0,432.5 849.0,432.5 848.0,432.5 847.0,432.5 846.0,432.5 845.0,432.5 844.0,432.5 843.0,432.5 842.0,432.5 841.0,432.5 840.0,432.5 839.0,432.5 838.0,432.5 837.0,432.5 836.0,432.5 835.0,432.5 834.0,432.5 833.0,432.5 832.0,432.5 831.0,432.5 830.0,432.5 829.0,432.5 828.0,432.5 827.0,432.5 826.0,432.5 825.0,432.5 824.0,432.5 823.0,432.5 822.0,432.5 821.0,432.5 820.0,432.5 819.0,432.5 818.0,432.5 817.0,432.5 816.0,432.5 815.0,432.5 814.0,432.5 813.0,432.5 812.0,432.5 811.0,432.5 810.0,432.5 809.0,432.5 808.0,432.5 807.0,432.5 806.0,432.5 805.0,432.5 804.0,432.5 803.0,432.5 802.0,432.5 801.0,432.5 800.0,432.5 799.0,432.5 798.5,432.0 798.0,431.5 797.5,431.0 797.5,430.0 798.0,429.5 798.5,429.0 799.0,428.5 800.0,428.5 801.0,428.5 802.0,428.5 803.0,428.5 804.0,428.5 805.0,428.5 806.0,428.5 807.0,428.5 808.0,428.5 809.0,428.5 810.0,428.5 811.0,428.5 812.0,428.5 813.0,428.5 814.0,428.5 815.0,428.5 816.0,428.5 817.0,428.5 818.0,428.5 819.0,428.5 820.0,428.5 821.0,428.5 822.0,428.5 823.0,428.5 824.0,428.5 825.0,428.5 826.0,428.5 827.0,428.5 828.0,428.5 829.0,428.5 829.5,429.0 830.0,429.5 831.0,429.5 832.0,429.5 833.0,429.5 834.0,429.5 835.0,429.5 836.0,429.5 837.0,429.5 838.0,429.5 839.0,429.5 840.0,429.5 841.0,429.5 842.0,429.5 843.0,429.5 844.0,429.5 845.0,429.5 846.0,429.5 847.0,429.5 848.0,429.5 849.0,429.5 850.0,429.5 851.0,429.5 852.0,429.5 853.0,429.5 853.5,430.0 854.0,430.5 854.5,430.0 855.0,429.5 856.0,429.5 857.0,429.5 858.0,429.5 859.0,429.5 859.5,430.0 860.0,430.5 860.5,431.0 860.5,432.0 860.5,433.0 860.5,434.0 860.5,435.0 860.5,436.0 860.0,436.5 859.5,437.0 859.5,438.0 859.5,439.0 859.5,440.0 859.5,441.0 859.5,442.0 859.5,443.0 859.5,444.0 859.5,445.0 859.5,446.0 859.5,447.0 859.5,448.0 859.0,448.5 858.5,449.0 858.5,450.0 858.5,451.0 858.5,452.0 858.5,453.0 858.5,454.0 858.5,455.0 858.0,455.5 857.5,456.0 857.5,457.0 857.0,457.5 856.5,458.0 856.5,459.0 856.0,459.5 855.5,460.0 855.5,461.0 855.0,461.5 854.5,462.0 854.5,463.0 854.0,463.5 853.5,464.0 853.5,465.0 853.0,465.5 852.5,466.0 852.5,467.0 852.0,467.5 851.5,468.0 851.5,469.0 851.0,469.5 850.5,470.0 850.5,471.0 850.0,471.5 849.5,472.0 849.5,473.0 849.0,473.5 848.5,474.0 848.5,475.0 848.0,475.5 847.5,476.0 847.5,477.0 847.0,477.5 846.5,478.0 846.5,479.0 846.0,479.5 845.5,480.0 845.0,480.5 844.5,481.0 844.0,481.5 843.5,482.0 843.0,482.5 842.0,482.5 841.5,483.0 841.0,483.5 840.5,484.0 840.0,484.5 839.5,485.0 839.0,485.5 838.5,486.0 838.0,486.5 837.0,486.5 836.5,487.0 836.0,487.5 835.5,488.0 835.0,488.5 834.5,489.0 834.0,489.5 833.5,490.0 833.0,490.5 832.0,490.5 831.5,491.0 831.0,491.5 830.5,492.0 830.0,492.5 829.5,493.0 829.0,493.5 828.5,494.0 828.0,494.5 827.0,494.5 826.5,495.0 826.0,495.5 825.5,496.0 825.0,496.5 824.5,497.0 824.0,497.5 823.5,498.0 823.0,498.5 822.0,498.5 821.5,499.0 821.0,499.5 820.5,500.0 820.0,500.5 819.0,500.5 818.0,500.5 817.5,501.0 817.0,501.5 816.0,501.5 815.0,501.5 814.0,501.5 813.5,502.0 813.0,502.5 812.0,502.5 811.0,502.5 810.5,503.0 810.0,503.5 809.0,503.5 808.0,503.5 807.0,503.5 806.5,504.0 806.0,504.5 805.0,504.5 804.0,504.5 803.5,505.0 803.0,505.5 802.0,505.5 801.0,505.5 800.0,505.5 799.5,506.0 799.0,506.5 799.0,506.5" fill="none" stroke="#FF00FF" stroke-width="2" />
  <polyline points="799.0,697.5 798.0,697.5 797.5,697.0 797.0,696.5 796.5,696.0 796.5,695.0 796.5,694.0 796.0,693.5 795.5,693.0 796.0,692.5 796.5,692.0 797.0,691.5 798.0,691.5 799.0,691.5 800.0,691.5 801.0,691.5 802.0,691.5 803.0,691.5 804.0,691.5 805.0,691.5 806.0,691.5 806.5,691.0 807.0,690.5 808.0,690.5 808.5,690.0 809.0,689.5 810.0,689.5 811.0,689.5 811.5,689.0 812.0,688.5 813.0,688.5 813.5,688.0 814.0,687.5 815.0,687.5 816.0,687.5 816.5,687.0 817.0,686.5 818.0,686.5 818.5,686.0 819.0,685.5 820.0,685.5 821.0,685.5 821.5,685.0 822.0,684.5 823.0,684.5 823.5,684.0 824.0,683.5 824.5,683.0 825.0,682.5 826.0,682.5 826.5,682.0 827.0,681.5 827.5,681.0 828.0,680.5 828.5,680.0 829.0,679.5 830.0,679.5 830.5,679.0 831.0,678.5 831.5,678.0 832.0,677.5 832.5,677.0 833.0,676.5 834.0,676.5 834.5,676.0 835.0,675.5 835.5,675.0 836.0,674.5 836.5,674.0 837.0,673.5 837.5,673.0 837.5,672.0 838.0,671.5 838.5,671.0 839.0,670.5 839.5,670.0 840.0,669.5 840.5,669.0 841.0,668.5 841.5,668.0 841.5,667.0 842.0,666.5 842.5,666.0 843.0,665.5 843.5,665.0 844.0,664.5 844.5,664.0 845.0,663.5 845.5,663.0 845.5,662.0 846.0,661.5 846.5,661.0 847.0,660.5 847.5,660.0 847.5,659.0 848.0,658.5 848.5,658.0 848.5,657.0 848.5,656.0 849.0,655.5 849.5,655.0 849.5,654.0 849.5,653.0 850.0,652.5 850.5,652.0 850.5,651.0 850.5,650.0 851.0,649.5 851.5,649.0 851.5,648.0 851.5,647.0 852.0,646.5 852.5,646.0 852.5,645.0 853.0,644.5 853.5,644.0 853.5,643.0 853.5,642.0 854.0,641.5 854.5,641.0 854.5,640.0 854.5,639.0 855.0,638.5 855.5,638.0 855.5,637.0 855.5,636.0 856.0,635.5 856.5,635.0 856.5,634.0 856.5,633.0 856.5,632.0 856.5,631.0 856.5,630.0 856.5,629.0 856.5,628.0 856.5,627.0 856.5,626.0 856.5,625.0 856.5,624.0 856.0,623.5 855.5,624.0 855.0,624.5 854.0,624.5 853.0,624.5 852.0,624.5 851.0,624.5 850.0,624.5 849.0,624.5 848.0,624.5 847.0,624.5 846.0,624.5 845.0,624.5 844.0,624.5 843.0,624.5 842.0,624.5 841.0,624.5 840.0,624.5 839.0,624.5 838.0,624.5 837.0,624.5 836.0,624.5 835.0,624.5 834.0,624.5 833.0,624.5 832.0,624.5 831.0,624.5 830.0,624.5 829.0,624.5 828.0,624.5 827.0,624.5 826.0,624.5 825.0,624.5 824.0,624.5 823.0,624.5 822.0,624.5 821.0,624.5 820.0,624.5 819.5,625.0 819.0,625.5 818.0,625.5 817.0,625.5 816.0,625.5 815.0,625.5 814.0,625.5 813.0,625.5 812.0,625.5 811.0,625.5 810.0,625.5 809.0,625.5 808.0,625.5 807.0,625.5 806.0,625.5 805.0,625.5 804.0,625.5 803.0,625.5 802.0,625.5 801.0,625.5 800.0,625.5 799.0,625.5 798.0,625.5 797.5,625.0 797.0,624.5 796.5,624.0 797.0,623.5 797.5,623.0 797.5,622.0 797.5,621.0 798.0,620.5 798.5,620.0 799.0,619.5 800.0,619.5 801.0,619.5 802.0,619.5 803.0,619.5 804.0,619.5 805.0,619.5 806.0,619.5 807.0,619.5 808.0,619.5 809.0,619.5 810.0,619.5 811.0,619.5 812.0,619.5 813.0,619.5 814.0,619.5 815.0,619.5 816.0,619.5 817.0,619.5 818.0,619.5 819.0,619.5 820.0,619.5 821.0,619.5 822.0,619.5 823.0,619.5 824.0,619.5 825.0,619.5 826.0,619.5 827.0,619.5 828.0,619.5 829.0,619.5 830.0,619.5 831.0,619.5 832.0,619.5 833.0,619.5 834.0,619.5 835.0,619.5 836.0,619.5 837.0,619.5 838.0,619.5 839.0,619.5 840.0,619.5 841.0,619.5 842.0,619.5 843.0,619.5 844.0,619.5 845.0,619.5 846.0,619.5 847.0,619.5 848.0,619.5 849.0,619.5 850.0,619.5 851.0,619.5 852.0,619.5 853.0,619.5 854.0,619.5 855.0,619.5 856.0,619.5 857.0,619.5 858.0,619.5 859.0,619.5 859.5,620.0 860.0,620.5 860.5,621.0 861.0,621.5 861.5,622.0 861.5,623.0 861.5,624.0 861.5,625.0 861.5,626.0 861.0,626.5 860.5,627.0 860.5,628.0 860.5,629.0 860.5,630.0 860.5,631.0 860.5,632.0 860.5,633.0 860.5,634.0 860.0,634.5 859.5,635.0 859.5,636.0 859.5,637.0 859.5,638.0 859.5,639.0 859.5,640.0 859.5,641.0 859.5,642.0 859.0,642.5 858.5,643.0 858.5,644.0 858.5,645.0 858.5,646.0 858.5,647.0 858.0,647.5 857.5,648.0 857.5,649.0 857.0,649.5 856.5,650.0 856.5,651.0 856.0,651.5 855.5,652.0 855.5,653.0 855.0,653.5 854.5,654.0 854.0,654.5 853.5,655.0 853.5,656.0 853.0,656.5 852.5,657.0 852.5,658.0 852.0,658.5 851.5,659.0 851.5,660.0 851.0,660.5 850.5,661.0 850.0,661.5 849.5,662.0 849.5,663.0 849.0,663.5 848.5,664.0 848.5,665.0 848.0,665.5 847.5,666.0 847.5,667.0 847.0,667.5 846.5,668.0 846.0,668.5 845.5,669.0 845.5,670.0 845.0,670.5 844.5,671.0 844.5,672.0 844.0,672.5 843.5,673.0 843.5,674.0 843.0,674.5 842.5,675.0 842.0,675.5 841.5,676.0 841.0,676.5 840.5,677.0 840.0,677.5 839.0,677.5 838.5,678.0 838.0,678.5 837.5,679.0 837.0,679.5 836.5,680.0 836.0,680.5 835.5,681.0 835.0,681.5 834.5,682.0 834.0,682.5 833.0,682.5 832.5,683.0 832.0,683.5 831.5,684.0 831.0,684.5 830.5,685.0 830.0,685.5 829.5,686.0 829.0,686.5 828.0,686.5 827.5,687.0 827.0,687.5 826.5,688.0 826.0,688.5 825.5,689.0 825.0,689.5 824.0,689.5 823.0,689.5 822.5,690.0 822.0,690.5 821.0,690.5 820.0,690.5 819.5,691.0 819.0,691.5 818.0,691.5 817.0,691.5 816.0,691.5 815.5,692.0 815.0,692.5 814.0,692.5 813.0,692.5 812.5,693.0 812.0,693.5 811.0,693.5 810.0,693.5 809.5,694.0 809.0,694.5 808.0,694.5 807.0,694.5 806.5,695.0 806.0,695.5 805.0,695.5 804.0,695.5 803.0,695.5 802.5,696.0 802.0,696.5 801.0,696.5 800.0,696.5 799.5,697.0 799.0,697.5 799.0,697.5" fill="none" stroke="#FFFF00" stroke-width="2" />
  <polyline points="566.0,706.5 565.0,706.5 564.0,706.5 563.0,706.5 562.0,706.5 561.0,706.5 560.0,706.5 559.0,706.5 558.0,706.5 557.0,706.5 556.0,706.5 555.0,706.5 554.0,706.5 553.0,706.5 552.0,706.5 551.0,706.5 550.0,706.5 549.0,706.5 548.0,706.5 547.0,706.5 546.0,706.5 545.0,706.5 544.0,706.5 543.0,706.5 542.0,706.5 541.0,706.5 540.0,706.5 539.0,706.5 538.0,706.5 537.0,706.5 536.0,706.5 535.0,706.5 534.0,706.5 533.0,706.5 532.0,706.5 531.0,706.5 530.0,706.5 529.0,706.5 528.0,706.5 527.0,706.5 526.0,706.5 525.0,706.5 524.0,706.5 523.0,706.5 522.0,706.5 521.0,706.5 520.0,706.5 519.0,706.5 518.0,706.5 517.0,706.5 516.0,706.5 515.0,706.5 514.5,706.0 514.0,705.5 513.0,705.5 512.5,705.0 512.0,704.5 511.5,704.0 511.5,703.0 511.5,702.0 511.5,701.0 511.5,700.0 512.0,699.5 512.5,699.0 512.5,698.0 512.5,697.0 512.5,696.0 512.5,695.0 512.5,694.0 512.5,693.0 512.5,692.0 512.5,691.0 512.5,690.0 513.0,689.5 513.5,689.0 513.5,688.0 513.5,687.0 513.5,686.0 513.5,685.0 513.5,684.0 514.0,683.5 514.5,683.0 514.5,682.0 515.0,681.5 515.5,681.0 515.5,680.0 516.0,679.5 516.5,679.0 516.5,678.0 516.5,677.0 517.0,676.5 517.5,676.0 517.5,675.0 518.0,674.5 518.5,674.0 518.5,673.0 518.5,672.0 519.0,671.5 519.5,671.0 519.5,670.0 520.0,669.5 520.5,669.0 520.5,668.0 521.0,667.5 521.5,667.0 521.5,666.0 522.0,665.5 522.5,665.0 523.0,664.5 523.5,664.0 524.0,663.5 524.5,663.0 525.0,662.5 525.5,662.0 526.0,661.5 526.5,661.0 527.0,660.5 527.5,660.0 528.0,659.5 528.5,659.0 529.0,658.5 529.5,658.0 530.0,657.5 530.5,657.0 530.5,656.0 531.0,655.5 531.5,655.0 532.0,654.5 532.5,654.0 533.0,653.5 533.5,653.0 534.0,652.5 534.5,652.0 535.0,651.5 535.5,651.0 536.0,650.5 536.5,650.0 537.0,649.5 537.5,649.0 538.0,648.5 538.5,648.0 539.0,647.5 539.5,647.0 540.0,646.5 541.0,646.5 541.5,646.0 542.0,645.5 543.0,645.5 543.5,645.0 544.0,644.5 545.0,644.5 545.5,644.0 546.0,643.5 546.5,643.0 547.0,642.5 548.0,642.5 548.5,642.0 549.0,641.5 550.0,641.5 550.5,641.0 551.0,640.5 552.0,640.5 552.5,640.0 553.0,639.5 554.0,639.5 554.5,639.0 555.0,638.5 556.0,638.5 557.0,638.5 558.0,638.5 559.0,638.5 560.0,638.5 560.5,638.0 561.0,637.5 562.0,637.5 563.0,637.5 564.0,637.5 565.0,637.5 565.5,638.0 566.0,638.5 566.5,639.0 566.5,640.0 566.5,641.0 566.0,641.5 565.5,642.0 565.0,642.5 564.0,642.5 563.0,642.5 562.5,643.0 562.0,643.5 561.0,643.5 560.0,643.5 559.5,644.0 559.0,644.5 558.0,644.5 557.0,644.5 556.0,644.5 555.5,645.0 555.0,645.5 554.0,645.5 553.0,645.5 552.5,646.0 552.0,646.5 551.0,646.5 550.0,646.5 549.5,647.0 549.0,647.5 548.5,648.0 548.0,648.5 547.5,649.0 547.0,649.5 546.0,649.5 545.5,650.0 545.0,650.5 544.5,651.0 544.0,651.5 543.5,652.0 543.0,652.5 542.5,653.0 542.0,653.5 541.0,653.5 540.5,654.0 540.0,654.5 539.5,655.0 539.0,655.5 538.5,656.0 538.0,656.5 537.5,657.0 537.0,657.5 536.0,657.5 535.5,658.0 535.0,658.5 534.5,659.0 534.0,659.5 533.5,660.0 533.0,660.5 532.5,661.0 532.0,661.5 531.0,661.5 530.5,662.0 530.0,662.5 529.5,663.0 529.0,663.5 528.5,664.0 528.5,665.0 528.0,665.5 527.5,666.0 527.5,667.0 527.0,667.5 526.5,668.0 526.5,669.0 526.0,669.5 525.5,670.0 525.5,671.0 525.0,671.5 524.5,672.0 524.5,673.0 524.0,673.5 523.5,674.0 523.0,674.5 522.5,675.0 522.5,676.0 522.0,676.5 521.5,677.0 521.5,678.0 521.0,678.5 520.5,679.0 520.5,680.0 520.0,680.5 519.5,681.0 519.5,682.0 519.0,682.5 518.5,683.0 518.5,684.0 518.5,685.0 518.5,686.0 518.5,687.0 518.0,687.5 517.5,688.0 517.5,689.0 517.5,690.0 517.5,691.0 517.5,692.0 517.5,693.0 517.5,694.0 517.5,695.0 517.5,696.0 517.0,696.5 516.5,697.0 516.5,698.0 516.5,699.0 516.5,700.0 516.5,701.0 517.0,701.5 517.5,701.0 518.0,700.5 519.0,700.5 520.0,700.5 521.0,700.5 522.0,700.5 523.0,700.5 524.0,700.5 525.0,700.5 526.0,700.5 527.0,700.5 528.0,700.5 529.0,700.5 530.0,700.5 531.0,700.5 532.0,700.5 533.0,700.5 534.0,700.5 535.0,700.5 536.0,700.5 537.0,700.5 538.0,700.5 539.0,700.5 540.0,700.5 541.0,700.5 542.0,700.5 543.0,700.5 544.0,700.5 545.0,700.5 546.0,700.5 547.0,700.5 548.0,700.5 549.0,700.5 550.0,700.5 551.0,700.5 552.0,700.5 553.0,700.5 554.0,700.5 555.0,700.5 556.0,700.5 557.0,700.5 558.0,700.5 559.0,700.5 560.0,700.5 561.0,700.5 562.0,700.5 563.0,700.5 564.0,700.5 565.0,700.5 566.0,700.5 567.0,700.5 567.5,701.0 568.0,701.5 568.5,702.0 568.0,702.5 567.5,703.0 567.5,704.0 567.5,705.0 567.0,705.5 566.5,706.0 566.0,706.5 566.0,706.5" fill="none" stroke="#0080FF" stroke-width="2" />
  <polyline points="1319.0,725.5 1318.0,725.5 1317.0,725.5 1316.0,725.5 1315.0,725.5 1314.0,725.5 1313.0,725.5 1312.0,725.5 1311.0,725.5 1310.0,725.5 1309.0,725.5 1308.0,725.5 1307.0,725.5 1306.0,725.5 1305.0,725.5 1304.0,725.5 1303.0,725.5 1302.0,725.5 1301.0,725.5 1300.0,725.5 1299.0,725.5 1298.0,725.5 1297.0,725.5 1296.0,725.5 1295.0,725.5 1294.0,725.5 1293.0,725.5 1292.0,725.5 1291.0,725.5 1290.0,725.5 1289.0,725.5 1288.0,725.5 1287.0,725.5 1286.0,725.5 1285.0,725.5 1284.0,725.5 1283.0,725.5 1282.0,725.5 1281.0,725.5 1280.0,725.5 1279.0,725.5 1278.0,725.5 1277.0,725.5 1276.0,725.5 1275.5,725.0 1275.0,724.5 1274.5,724.0 1274.5,723.0 1274.0,722.5 1273.5,722.0 1273.5,721.0 1273.0,720.5 1272.5,720.0 1272.5,719.0 1272.5,718.0 1272.5,717.0 1273.0,716.5 1273.5,716.0 1273.5,715.0 1273.5,714.0 1273.5,713.0 1273.5,712.0 1273.5,711.0 1273.5,710.0 1274.0,709.5 1274.5,709.0 1274.5,708.0 1274.5,707.0 1274.5,706.0 1274.5,705.0 1274.5,704.0 1274.5,703.0 1275.0,702.5 1275.5,702.0 1275.5,701.0 1275.5,700.0 1275.5,699.0 1275.5,698.0 1276.0,697.5 1276.5,697.0 1276.5,696.0 1277.0,695.5 1277.5,695.0 1277.5,694.0 1278.0,693.5 1278.5,693.0 1278.5,692.0 1279.0,691.5 1279.5,691.0 1279.5,690.0 1279.5,689.0 1280.0,688.5 1280.5,688.0 1280.5,687.0 1281.0,686.5 1281.5,686.0 1281.5,685.0 1282.0,684.5 1282.5,684.0 1282.5,683.0 1283.0,682.5 1283.5,682.0 1283.5,681.0 1284.0,680.5 1284.5,680.0 1285.0,679.5 1285.5,679.0 1286.0,678.5 1286.5,678.0 1287.0,677.5 1287.5,677.0 1288.0,676.5 1288.5,676.0 1289.0,675.5 1289.5,675.0 1290.0,674.5 1290.5,674.0 1291.0,673.5 1291.5,673.0 1292.0,672.5 1292.5,672.0 1293.0,671.5 1293.5,671.0 1294.0,670.5 1295.0,670.5 1295.5,670.0 1296.0,669.5 1296.5,669.0 1297.0,668.5 1297.5,668.0 1298.0,667.5 1298.5,667.0 1299.0,666.5 1299.5,666.0 1300.0,665.5 1300.5,665.0 1301.0,664.5 1301.5,664.0 1302.0,663.5 1302.5,663.0 1303.0,662.5 1303.5,662.0 1304.0,661.5 1304.5,661.0 1305.0,660.5 1305.5,660.0 1306.0,659.5 1307.0,659.5 1307.5,659.0 1308.0,658.5 1309.0,658.5 1310.0,658.5 1310.5,658.0 1311.0,657.5 1312.0,657.5 1312.5,657.0 1313.0,656.5 1314.0,656.5 1315.0,656.5 1315.5,656.0 1316.0,655.5 1317.0,655.5 1317.5,655.0 1318.0,654.5 1319.0,654.5 1320.0,654.5 1320.5,654.0 1321.0,653.5 1321.5,654.0 1322.0,654.5 1322.5,655.0 1323.0,655.5 1323.5,656.0 1324.0,656.5 1324.5,657.0 1324.0,657.5 1323.5,658.0 1323.0,658.5 1322.0,658.5 1321.5,659.0 1321.0,659.5 1320.0,659.5 1319.0,659.5 1318.5,660.0 1318.0,660.5 1317.0,660.5 1316.5,661.0 1316.0,661.5 1315.0,661.5 1314.5,662.0 1314.0,662.5 1313.0,662.5 1312.5,663.0 1312.0,663.5 1311.0,663.5 1310.0,663.5 1309.5,664.0 1309.0,664.5 1308.0,664.5 1307.5,665.0 1307.0,665.5 1306.0,665.5 1305.5,666.0 1305.0,666.5 1304.5,667.0 1304.0,667.5 1303.5,668.0 1303.0,668.5 1302.5,669.0 1302.0,669.5 1301.5,670.0 1301.0,670.5 1300.5,671.0 1300.5,672.0 1300.0,672.5 1299.5,673.0 1299.0,673.5 1298.5,674.0 1298.0,674.5 1297.5,675.0 1297.0,675.5 1296.5,676.0 1296.0,676.5 1295.5,677.0 1295.0,677.5 1294.5,678.0 1294.0,678.5 1293.5,679.0 1293.0,679.5 1292.5,680.0 1292.0,680.5 1291.5,681.0 1291.0,681.5 1290.5,682.0 1290.5,683.0 1290.0,683.5 1289.5,684.0 1289.0,684.5 1288.5,685.0 1288.0,685.5 1287.5,686.0 1287.0,686.5 1286.5,687.0 1286.0,687.5 1285.5,688.0 1285.5,689.0 1285.0,689.5 1284.5,690.0 1284.5,691.0 1284.5,692.0 1284.0,692.5 1283.5,693.0 1283.5,694.0 1283.5,695.0 1283.0,695.5 1282.5,696.0 1282.5,697.0 1282.5,698.0 1282.0,698.5 1281.5,699.0 1281.5,700.0 1281.0,700.5 1280.5,701.0 1280.5,702.0 1280.5,703.0 1280.0,703.5 1279.5,704.0 1279.5,705.0 1279.5,706.0 1279.0,706.5 1278.5,707.0 1278.5,708.0 1278.5,709.0 1278.0,709.5 1277.5,710.0 1277.5,711.0 1277.5,712.0 1277.5,713.0 1277.5,714.0 1277.5,715.0 1277.5,716.0 1277.5,717.0 1277.5,718.0 1277.5,719.0 1278.0,719.5 1279.0,719.5 1280.0,719.5 1281.0,719.5 1281.5,720.0 1282.0,720.5 1282.5,720.0 1283.0,719.5 1284.0,719.5 1285.0,719.5 1286.0,719.5 1287.0,719.5 1288.0,719.5 1289.0,719.5 1290.0,719.5 1291.0,719.5 1292.0,719.5 1293.0,719.5 1294.0,719.5 1295.0,719.5 1296.0,719.5 1297.0,719.5 1298.0,719.5 1299.0,719.5 1300.0,719.5 1301.0,719.5 1302.0,719.5 1303.0,719.5 1304.0,719.5 1305.0,719.5 1306.0,719.5 1307.0,719.5 1308.0,719.5 1309.0,719.5 1310.0,719.5 1311.0,719.5 1312.0,719.5 1312.5,719.0 1313.0,718.5 1314.0,718.5 1315.0,718.5 1316.0,718.5 1317.0,718.5 1318.0,718.5 1319.0,718.5 1319.5,719.0 1320.0,719.5 1320.5,720.0 1320.5,721.0 1320.5,722.0 1320.0,722.5 1319.5,723.0 1320.0,723.5 1320.5,724.0 1320.0,724.5 1319.5,725.0 1319.0,725.5 1319.0,725.5" fill="none" stroke="#FF0080" stroke-width="2" />
  <polyline points="781.0,693.5 780.5,693.0 780.0,692.5 779.5,692.0 779.5,691.0 780.0,690.5 780.5,690.0 781.0,689.5 782.0,689.5 782.5,690.0 783.0,690.5 783.5,691.0 783.0,691.5 782.5,692.0 782.0,692.5 781.5,693.0 781.0,693.5 781.0,693.5" fill="none" stroke="#FF8000" stroke-width="2" />
  <polyline points="743.0,783.5 742.0,783.5 741.0,783.5 740.0,783.5 739.0,783.5 738.0,783.5 737.0,783.5 736.0,783.5 735.0,783.5 734.0,783.5 733.0,783.5 732.0,783.5 731.5,783.0 731.0,782.5 730.0,782.5 729.0,782.5 728.0,782.5 727.0,782.5 726.0,782.5 725.0,782.5 724.0,782.5 723.5,782.0 723.0,781.5 722.0,781.5 721.5,781.0 721.0,780.5 720.0,780.5 719.5,780.0 719.0,779.5 718.0,779.5 717.5,779.0 717.0,778.5 716.0,778.5 715.5,778.0 715.0,777.5 714.0,777.5 713.5,777.0 713.0,776.5 712.0,776.5 711.0,776.5 710.5,776.0 710.0,775.5 709.0,775.5 708.5,775.0 708.0,774.5 707.0,774.5 706.5,774.0 706.0,773.5 705.0,773.5 704.5,773.0 704.0,772.5 703.0,772.5 702.5,772.0 702.0,771.5 701.0,771.5 700.5,771.0 700.0,770.5 699.0,770.5 698.5,770.0 698.0,769.5 697.5,769.0 697.0,768.5 696.5,768.0 696.0,767.5 695.5,767.0 695.0,766.5 694.5,766.0 694.0,765.5 693.5,765.0 693.0,764.5 692.5,764.0 692.0,763.5 691.5,763.0 691.0,762.5 690.5,762.0 690.0,761.5 689.5,761.0 689.0,760.5 688.5,760.0 688.0,759.5 687.5,759.0 687.0,758.5 686.5,758.0 686.0,757.5 685.5,757.0 685.0,756.5 684.5,756.0 684.0,755.5 683.5,755.0 683.5,754.0 683.0,753.5 682.5,753.0 682.5,752.0 682.5,751.0 682.0,750.5 681.5,750.0 681.5,749.0 681.5,748.0 681.0,747.5 680.5,747.0 680.5,746.0 680.5,745.0 680.0,744.5 679.5,744.0 679.5,743.0 679.0,742.5 678.5,742.0 678.5,741.0 678.5,740.0 678.0,739.5 677.5,739.0 677.5,738.0 677.5,737.0 677.0,736.5 676.5,736.0 676.5,735.0 676.5,734.0 676.0,733.5 675.5,733.0 675.5,732.0 675.5,731.0 675.0,730.5 674.5,730.0 675.0,729.5 675.5,729.0 676.0,728.5 677.0,728.5 677.5,728.0 678.0,727.5 678.5,728.0 679.0,728.5 679.5,729.0 679.5,730.0 679.5,731.0 679.5,732.0 679.5,733.0 680.0,733.5 680.5,734.0 680.5,735.0 680.5,736.0 680.5,737.0 680.5,738.0 681.0,738.5 681.5,739.0 681.5,740.0 682.0,740.5 682.5,741.0 682.5,742.0 683.0,742.5 683.5,743.0 683.5,744.0 684.0,744.5 684.5,745.0 684.5,746.0 685.0,746.5 685.5,747.0 686.0,747.5 686.5,748.0 686.5,749.0 687.0,749.5 687.5,750.0 687.5,751.0 688.0,751.5 688.5,752.0 688.5,753.0 689.0,753.5 689.5,754.0 689.5,755.0 690.0,755.5 690.5,756.0 690.5,757.0 691.0,757.5 691.5,758.0 692.0,758.5 692.5,759.0 693.0,759.5 694.0,759.5 694.5,760.0 695.0,760.5 695.5,761.0 696.0,761.5 696.5,762.0 697.0,762.5 697.5,763.0 698.0,763.5 699.0,763.5 699.5,764.0 700.0,764.5 700.5,765.0 701.0,765.5 701.5,766.0 702.0,766.5 702.5,767.0 703.0,767.5 704.0,767.5 704.5,768.0 705.0,768.5 705.5,769.0 706.0,769.5 707.0,769.5 707.5,770.0 708.0,770.5 709.0,770.5 709.5,771.0 710.0,771.5 711.0,771.5 711.5,772.0 712.0,772.5 713.0,772.5 714.0,772.5 714.5,773.0 715.0,773.5 716.0,773.5 716.5,774.0 717.0,774.5 718.0,774.5 718.5,775.0 719.0,775.5 720.0,775.5 720.5,776.0 721.0,776.5 722.0,776.5 723.0,776.5 724.0,776.5 725.0,776.5 726.0,776.5 727.0,776.5 728.0,776.5 729.0,776.5 730.0,776.5 730.5,777.0 731.0,777.5 732.0,777.5 733.0,777.5 734.0,777.5 735.0,777.5 736.0,777.5 737.0,777.5 738.0,777.5 739.0,777.5 739.5,778.0 740.0,778.5 740.5,778.0 740.5,777.0 740.5,776.0 740.5,775.0 740.5,774.0 740.5,773.0 740.5,772.0 740.5,771.0 740.5,770.0 740.5,769.0 740.5,768.0 740.5,767.0 740.5,766.0 740.5,765.0 740.5,764.0 740.5,763.0 740.5,762.0 740.0,761.5 739.5,761.0 739.5,760.0 739.5,759.0 739.5,758.0 739.5,757.0 739.5,756.0 739.5,755.0 739.5,754.0 739.5,753.0 739.5,752.0 739.5,751.0 739.5,750.0 739.5,749.0 739.5,748.0 739.5,747.0 739.5,746.0 739.5,745.0 739.5,744.0 739.5,743.0 739.5,742.0 739.5,741.0 739.5,740.0 739.5,739.0 739.5,738.0 739.5,737.0 739.5,736.0 739.5,735.0 739.5,734.0 739.5,733.0 739.5,732.0 739.5,731.0 740.0,730.5 740.5,730.0 741.0,729.5 742.0,729.5 742.5,730.0 743.0,730.5 743.5,731.0 743.5,732.0 743.5,733.0 743.5,734.0 743.5,735.0 743.5,736.0 743.5,737.0 743.5,738.0 743.5,739.0 743.5,740.0 743.5,741.0 743.5,742.0 743.5,743.0 743.5,744.0 743.5,745.0 743.5,746.0 743.5,747.0 743.5,748.0 743.5,749.0 743.5,750.0 743.5,751.0 743.5,752.0 743.5,753.0 743.5,754.0 743.5,755.0 743.5,756.0 744.0,756.5 744.5,757.0 744.5,758.0 744.5,759.0 744.5,760.0 744.5,761.0 744.5,762.0 744.5,763.0 744.5,764.0 744.5,765.0 744.5,766.0 744.5,767.0 744.5,768.0 744.5,769.0 744.5,770.0 744.5,771.0 744.5,772.0 744.5,773.0 744.5,774.0 744.5,775.0 744.5,776.0 744.5,777.0 744.5,778.0 744.5,779.0 744.5,780.0 744.5,781.0 744.5,782.0 744.0,782.5 743.5,783.0 743.0,783.5 743.0,783.5" fill="none" stroke="#8080FF" stroke-width="2" />
</svg>