<?xml version='1.0' encoding='utf-8'?>
<svg xmlns="http://www.w3.org/2000/svg" version="1.1" width="1024" height="1536" viewBox="0 0 1024 1536"><rect x="0" y="0" width="1024" height="1536" fill="#FFFFFF" /><polyline points="225.0,400.0 313.0,399.0" stroke="#0000FF" stroke-width="2" fill="none" /><polyline points="384.0,399.0 389.0,399.0 389.0,115.0 126.0,116.0 126.0,399.0 225.0,400.0" stroke="#0000FF" stroke-width="2" fill="none" /><polyline points="448.0,352.0 486.0,351.0" stroke="#00FF00" stroke-width="2" fill="none" /><polyline points="557.0,351.0 571.0,351.0 570.0,115.0 405.0,117.0 406.0,351.0 448.0,352.0" stroke="#00FF00" stroke-width="2" fill="none" /><polyline points="857.0,509.0 896.0,507.0 895.0,116.0 589.0,116.0 588.0,412.0" stroke="#FF0000" stroke-width="2" fill="none" /><polyline points="588.9,484.0 587.0,509.0 857.0,509.0" stroke="#FF0000" stroke-width="2" fill="none" /><polyline points="473.0,977.0 473.0,966.0 476.0,962.0 486.0,963.0 488.0,884.0 571.0,884.0 573.0,883.0 571.0,871.0 575.0,866.0 585.0,866.0" stroke="#00FFFF" stroke-width="2" fill="none" /><polyline points="585.0,808.0 574.0,807.0 571.0,805.0 573.0,748.0 585.0,748.0" stroke="#00FFFF" stroke-width="2" fill="none" /><polyline points="585.0,690.0 573.0,690.0 571.0,688.0 570.0,478.0 584.0,477.8" stroke="#00FFFF" stroke-width="2" fill="none" /><polyline points="584.0,419.0 570.0,418.0 571.0,368.0 553.0,367.0 550.0,365.0 550.0,355.0" stroke="#00FFFF" stroke-width="2" fill="none" /><polyline points="494.4,355.0 494.0,364.0 491.0,367.0 406.0,369.0 406.0,429.0" stroke="#00FFFF" stroke-width="2" fill="none" /><polyline points="406.0,503.0 406.0,858.0 402.0,862.0 392.0,862.4" stroke="#00FFFF" stroke-width="2" fill="none" /><polyline points="392.0,919.8 404.0,920.0 406.0,962.0 418.0,964.0 419.0,977.0" stroke="#00FFFF" stroke-width="2" fill="none" /><polyline points="336.0,543.0 389.0,542.0 389.0,497.0 393.0,494.0 402.0,494.0" stroke="#FF00FF" stroke-width="2" fill="none" /><polyline points="402.0,436.8 391.0,436.0 389.0,416.0 377.0,414.0 376.8,403.0" stroke="#FF00FF" stroke-width="2" fill="none" /><polyline points="321.5,403.0 321.0,411.0 318.0,415.0 126.0,417.0 127.0,542.0 336.0,543.0" stroke="#FF00FF" stroke-width="2" fill="none" /><polyline points="690.0,776.0 895.0,774.0 895.0,525.0 588.0,526.0 588.0,682.0" stroke="#FFFF00" stroke-width="2" fill="none" /><polyline points="589.0,755.0 588.0,775.0 690.0,776.0" stroke="#FFFF00" stroke-width="2" fill="none" /><polyline points="386.0,963.0 389.0,962.0 389.0,927.0" stroke="#0080FF" stroke-width="2" fill="none" /><polyline points="389.0,854.0 389.0,560.0 127.0,559.0 126.0,963.0 386.0,963.0" stroke="#0080FF" stroke-width="2" fill="none" /><polyline points="773.1,1281.0 774.0,1251.0 896.0,1252.0 895.0,792.0 589.0,792.0 589.0,800.0" stroke="#FF0080" stroke-width="2" fill="none" /><polyline points="589.0,873.0 588.0,898.0 585.0,901.0 503.0,901.0 503.0,1252.0 717.0,1251.0 719.0,1278.0 720.2,1281.0" stroke="#FF0080" stroke-width="2" fill="none" /><polyline points="470.0,1253.0 486.0,1252.0 486.0,980.0 480.0,980.0" stroke="#FF8000" stroke-width="2" fill="none" /><polyline points="412.0,979.0 125.0,981.0 127.0,1252.0 470.0,1253.0" stroke="#FF8000" stroke-width="2" fill="none" /><polyline points="887.0,1420.0 905.0,1419.0 905.0,1287.0 780.0,1287.0" stroke="#8080FF" stroke-width="2" fill="none" /><polyline points="714.0,1285.0 271.0,1288.0 272.0,1419.0 887.0,1420.0" stroke="#8080FF" stroke-width="2" fill="none" /></svg>