<?xml version='1.0' encoding='utf-8'?>
<svg xmlns="http://www.w3.org/2000/svg" version="1.1" width="1024" height="1536" viewBox="0 0 1024 1536">
  <rect x="0" y="0" width="1024" height="1536" fill="#FFFFFF" />
  <polyline points="493.0,353.5 492.5,353.0 492.0,352.5 491.5,352.0 491.0,351.5 490.0,351.5 489.0,351.5 488.5,351.0 488.0,350.5 487.5,350.0 487.5,349.0 488.0,348.5 488.5,348.0 488.5,347.0 488.5,346.0 488.5,345.0 489.0,344.5 489.5,344.0 489.5,343.0 489.5,342.0 489.5,341.0 490.0,340.5 490.5,340.0 490.5,339.0 490.5,338.0 490.5,337.0 491.0,336.5 491.5,336.0 491.5,335.0 491.5,334.0 491.5,333.0 492.0,332.5 492.5,332.0 492.5,331.0 493.0,330.5 493.5,330.0 493.5,329.0 494.0,328.5 494.5,328.0 495.0,327.5 495.5,327.0 495.5,326.0 496.0,325.5 496.5,325.0 497.0,324.5 497.5,324.0 498.0,323.5 498.5,323.0 498.5,322.0 499.0,321.5 499.5,321.0 500.0,320.5 500.5,320.0 500.5,319.0 501.0,318.5 501.5,318.0 502.0,317.5 502.5,317.0 502.5,316.0 503.0,315.5 503.5,315.0 504.0,314.5 504.5,314.0 505.0,313.5 505.5,313.0 505.5,312.0 506.0,311.5 506.5,311.0 507.0,310.5 508.0,310.5 508.5,310.0 509.0,309.5 509.5,309.0 510.0,308.5 511.0,308.5 511.5,308.0 512.0,307.5 513.0,307.5 513.5,307.0 514.0,306.5 514.5,306.0 515.0,305.5 516.0,305.5 516.5,305.0 517.0,304.5 517.5,304.0 518.0,303.5 519.0,303.5 519.5,303.0 520.0,302.5 521.0,302.5 521.5,302.0 522.0,301.5 522.5,301.0 523.0,300.5 524.0,300.5 524.5,300.0 525.0,299.5 526.0,299.5 526.5,299.0 527.0,298.5 527.5,298.0 528.0,297.5 529.0,297.5 529.5,297.0 530.0,296.5 531.0,296.5 532.0,296.5 533.0,296.5 534.0,296.5 534.5,296.0 535.0,295.5 536.0,295.5 537.0,295.5 538.0,295.5 538.5,295.0 539.0,294.5 540.0,294.5 541.0,294.5 542.0,294.5 543.0,294.5 543.5,294.0 544.0,293.5 545.0,293.5 546.0,293.5 547.0,293.5 548.0,293.5 549.0,293.5 550.0,293.5 551.0,293.5 552.0,293.5 553.0,293.5 553.5,294.0 554.0,294.5 554.5,295.0 555.0,295.5 555.5,296.0 555.5,297.0 555.5,298.0 555.5,299.0 555.5,300.0 555.5,301.0 555.5,302.0 555.5,303.0 555.5,304.0 555.5,305.0 555.5,306.0 555.5,307.0 555.5,308.0 555.5,309.0 555.5,310.0 555.5,311.0 555.5,312.0 555.5,313.0 555.5,314.0 555.5,315.0 555.5,316.0 555.5,317.0 555.5,318.0 555.5,319.0 555.5,320.0 555.5,321.0 555.5,322.0 555.5,323.0 555.5,324.0 555.5,325.0 555.5,326.0 555.5,327.0 555.5,328.0 555.5,329.0 555.5,330.0 555.5,331.0 555.5,332.0 555.5,333.0 555.5,334.0 555.5,335.0 555.5,336.0 555.5,337.0 555.5,338.0 555.5,339.0 555.5,340.0 555.5,341.0 555.5,342.0 555.5,343.0 555.5,344.0 555.5,345.0 555.5,346.0 555.5,347.0 555.5,348.0 555.5,349.0 555.5,350.0 555.0,350.5 554.5,351.0 554.0,351.5 553.0,351.5 552.5,352.0 552.0,352.5 551.5,352.0 551.0,351.5 550.5,351.0 550.5,350.0 550.5,349.0 550.5,348.0 550.5,347.0 550.5,346.0 550.5,345.0 550.5,344.0 550.5,343.0 550.5,342.0 550.5,341.0 550.5,340.0 550.5,339.0 550.5,338.0 550.5,337.0 550.5,336.0 550.5,335.0 550.5,334.0 550.5,333.0 550.5,332.0 550.5,331.0 550.5,330.0 550.5,329.0 550.5,328.0 550.5,327.0 550.5,326.0 550.5,325.0 550.5,324.0 550.5,323.0 550.5,322.0 550.5,321.0 550.5,320.0 550.5,319.0 550.5,318.0 550.5,317.0 550.5,316.0 550.5,315.0 550.5,314.0 550.5,313.0 550.5,312.0 550.5,311.0 550.5,310.0 550.5,309.0 550.5,308.0 550.5,307.0 550.5,306.0 550.5,305.0 550.5,304.0 550.5,303.0 550.5,302.0 550.5,301.0 550.5,300.0 550.0,299.5 549.5,300.0 549.0,300.5 548.0,300.5 547.0,300.5 546.0,300.5 545.0,300.5 544.5,301.0 544.0,301.5 543.0,301.5 542.0,301.5 541.0,301.5 540.0,301.5 539.5,302.0 539.0,302.5 538.0,302.5 537.0,302.5 536.0,302.5 535.5,303.0 535.0,303.5 534.0,303.5 533.0,303.5 532.0,303.5 531.0,303.5 530.5,304.0 530.0,304.5 529.0,304.5 528.0,304.5 527.0,304.5 526.0,304.5 525.5,305.0 525.0,305.5 524.5,306.0 524.0,306.5 523.5,307.0 523.0,307.5 522.0,307.5 521.5,308.0 521.0,308.5 520.5,309.0 520.0,309.5 519.5,310.0 519.0,310.5 518.5,311.0 518.0,311.5 517.0,311.5 516.5,312.0 516.0,312.5 515.5,313.0 515.0,313.5 514.5,314.0 514.0,314.5 513.5,315.0 513.0,315.5 512.0,315.5 511.5,316.0 511.0,316.5 510.5,317.0 510.0,317.5 509.5,318.0 509.0,318.5 508.5,319.0 508.0,319.5 507.0,319.5 506.5,320.0 506.0,320.5 505.5,321.0 505.0,321.5 504.5,322.0 504.0,322.5 503.5,323.0 503.5,324.0 503.0,324.5 502.5,325.0 502.5,326.0 502.0,326.5 501.5,327.0 501.5,328.0 501.0,328.5 500.5,329.0 500.5,330.0 500.0,330.5 499.5,331.0 499.5,332.0 499.0,332.5 498.5,333.0 498.5,334.0 498.0,334.5 497.5,335.0 497.5,336.0 497.0,336.5 496.5,337.0 496.5,338.0 496.0,338.5 495.5,339.0 495.5,340.0 495.0,340.5 494.5,341.0 494.5,342.0 494.5,343.0 494.5,344.0 494.5,345.0 494.5,346.0 494.5,347.0 494.5,348.0 494.5,349.0 494.5,350.0 494.5,351.0 494.5,352.0 494.0,352.5 493.5,353.0 493.0,353.5 493.0,353.5" fill="none" stroke="#0000FF" stroke-width="2" />
  <polyline points="320.0,401.5 319.5,401.0 319.0,400.5 318.5,400.0 318.0,399.5 317.0,399.5 316.0,399.5 315.5,399.0 315.0,398.5 314.5,398.0 314.5,397.0 315.0,396.5 315.5,396.0 315.5,395.0 315.5,394.0 315.5,393.0 315.5,392.0 316.0,391.5 316.5,391.0 316.5,390.0 316.5,389.0 316.5,388.0 316.5,387.0 317.0,386.5 317.5,386.0 317.5,385.0 317.5,384.0 317.5,383.0 317.5,382.0 318.0,381.5 318.5,381.0 318.5,380.0 318.5,379.0 318.5,378.0 318.5,377.0 319.0,376.5 319.5,376.0 319.5,375.0 319.5,374.0 320.0,373.5 320.5,373.0 320.5,372.0 321.0,371.5 321.5,371.0 322.0,370.5 322.5,370.0 322.5,369.0 323.0,368.5 323.5,368.0 324.0,367.5 324.5,367.0 324.5,366.0 325.0,365.5 325.5,365.0 326.0,364.5 326.5,364.0 326.5,363.0 327.0,362.5 327.5,362.0 328.0,361.5 328.5,361.0 328.5,360.0 329.0,359.5 329.5,359.0 330.0,358.5 330.5,358.0 331.0,357.5 331.5,357.0 332.0,356.5 333.0,356.5 333.5,356.0 334.0,355.5 334.5,355.0 335.0,354.5 335.5,354.0 336.0,353.5 336.5,353.0 337.0,352.5 337.5,352.0 338.0,351.5 338.5,351.0 339.0,350.5 340.0,350.5 340.5,350.0 341.0,349.5 341.5,349.0 342.0,348.5 342.5,348.0 343.0,347.5 344.0,347.5 345.0,347.5 345.5,347.0 346.0,346.5 347.0,346.5 348.0,346.5 348.5,346.0 349.0,345.5 350.0,345.5 350.5,345.0 351.0,344.5 352.0,344.5 353.0,344.5 353.5,344.0 354.0,343.5 355.0,343.5 356.0,343.5 356.5,343.0 357.0,342.5 358.0,342.5 359.0,342.5 359.5,342.0 360.0,341.5 361.0,341.5 362.0,341.5 362.5,341.0 363.0,340.5 364.0,340.5 364.5,340.0 365.0,339.5 366.0,339.5 367.0,339.5 367.5,339.0 368.0,338.5 369.0,338.5 370.0,338.5 371.0,338.5 372.0,338.5 373.0,338.5 374.0,338.5 375.0,338.5 376.0,338.5 377.0,338.5 378.0,338.5 379.0,338.5 380.0,338.5 380.5,339.0 381.0,339.5 381.5,340.0 381.5,341.0 382.0,341.5 382.5,342.0 382.5,343.0 382.5,344.0 382.5,345.0 382.5,346.0 382.5,347.0 382.5,348.0 382.5,349.0 382.5,350.0 382.5,351.0 382.5,352.0 382.5,353.0 382.5,354.0 382.5,355.0 382.5,356.0 382.5,357.0 382.5,358.0 382.5,359.0 382.5,360.0 382.5,361.0 382.5,362.0 382.5,363.0 382.5,364.0 382.5,365.0 382.5,366.0 382.5,367.0 382.5,368.0 382.5,369.0 382.5,370.0 382.5,371.0 382.5,372.0 382.5,373.0 382.5,374.0 382.5,375.0 382.5,376.0 382.5,377.0 382.5,378.0 382.5,379.0 382.5,380.0 382.5,381.0 382.5,382.0 382.5,383.0 382.5,384.0 382.5,385.0 382.5,386.0 382.5,387.0 382.5,388.0 382.5,389.0 382.5,390.0 382.5,391.0 382.5,392.0 382.5,393.0 382.5,394.0 382.5,395.0 382.5,396.0 382.5,397.0 382.5,398.0 382.0,398.5 381.5,399.0 381.0,399.5 380.0,399.5 379.5,400.0 379.0,400.5 378.5,400.0 378.0,399.5 377.5,399.0 377.5,398.0 377.5,397.0 377.5,396.0 377.5,395.0 377.5,394.0 377.5,393.0 377.5,392.0 377.5,391.0 377.5,390.0 377.5,389.0 377.5,388.0 377.5,387.0 377.5,386.0 377.5,385.0 377.5,384.0 377.5,383.0 377.5,382.0 377.5,381.0 377.5,380.0 377.0,379.5 376.5,379.0 376.5,378.0 376.5,377.0 376.5,376.0 376.5,375.0 376.5,374.0 376.5,373.0 376.5,372.0 376.5,371.0 376.5,370.0 376.5,369.0 376.5,368.0 376.5,367.0 376.5,366.0 376.5,365.0 376.5,364.0 376.5,363.0 376.5,362.0 376.5,361.0 376.5,360.0 376.5,359.0 376.5,358.0 376.5,357.0 376.5,356.0 376.5,355.0 376.5,354.0 376.5,353.0 376.5,352.0 376.5,351.0 376.5,350.0 376.5,349.0 376.5,348.0 376.5,347.0 376.5,346.0 376.5,345.0 376.0,344.5 375.5,345.0 375.0,345.5 374.0,345.5 373.0,345.5 372.0,345.5 371.0,345.5 370.0,345.5 369.0,345.5 368.5,346.0 368.0,346.5 367.0,346.5 366.0,346.5 365.0,346.5 364.0,346.5 363.0,346.5 362.5,347.0 362.0,347.5 361.0,347.5 360.0,347.5 359.0,347.5 358.0,347.5 357.0,347.5 356.0,347.5 355.5,348.0 355.0,348.5 354.5,349.0 354.0,349.5 353.0,349.5 352.5,350.0 352.0,350.5 351.5,351.0 351.0,351.5 350.0,351.5 349.5,352.0 349.0,352.5 348.5,353.0 348.0,353.5 347.0,353.5 346.5,354.0 346.0,354.5 345.5,355.0 345.0,355.5 344.0,355.5 343.5,356.0 343.0,356.5 342.5,357.0 342.0,357.5 341.0,357.5 340.5,358.0 340.0,358.5 339.5,359.0 339.0,359.5 338.0,359.5 337.5,360.0 337.0,360.5 336.5,361.0 336.0,361.5 335.0,361.5 334.5,362.0 334.0,362.5 333.5,363.0 333.0,363.5 332.5,364.0 332.5,365.0 332.0,365.5 331.5,366.0 331.5,367.0 331.0,367.5 330.5,368.0 330.0,368.5 329.5,369.0 329.5,370.0 329.0,370.5 328.5,371.0 328.5,372.0 328.0,372.5 327.5,373.0 327.0,373.5 326.5,374.0 326.5,375.0 326.0,375.5 325.5,376.0 325.0,376.5 324.5,377.0 324.5,378.0 324.0,378.5 323.5,379.0 323.5,380.0 323.0,380.5 322.5,381.0 322.5,382.0 322.5,383.0 322.5,384.0 322.5,385.0 322.5,386.0 322.5,387.0 322.5,388.0 322.0,388.5 321.5,389.0 321.5,390.0 321.5,391.0 321.5,392.0 321.5,393.0 321.5,394.0 321.5,395.0 321.5,396.0 321.5,397.0 321.5,398.0 321.5,399.0 321.5,400.0 321.0,400.5 320.5,401.0 320.0,401.5 320.0,401.5" fill="none" stroke="#00FF00" stroke-width="2" />
  <polyline points="646.0,482.5 645.0,482.5 644.0,482.5 643.0,482.5 642.0,482.5 641.0,482.5 640.0,482.5 639.0,482.5 638.0,482.5 637.0,482.5 636.0,482.5 635.0,482.5 634.0,482.5 633.0,482.5 632.0,482.5 631.0,482.5 630.0,482.5 629.0,482.5 628.0,482.5 627.0,482.5 626.0,482.5 625.0,482.5 624.0,482.5 623.0,482.5 622.0,482.5 621.0,482.5 620.0,482.5 619.0,482.5 618.0,482.5 617.0,482.5 616.0,482.5 615.0,482.5 614.0,482.5 613.0,482.5 612.0,482.5 611.0,482.5 610.0,482.5 609.0,482.5 608.0,482.5 607.0,482.5 606.0,482.5 605.0,482.5 604.0,482.5 603.0,482.5 602.0,482.5 601.0,482.5 600.0,482.5 599.0,482.5 598.0,482.5 597.0,482.5 596.0,482.5 595.0,482.5 594.0,482.5 593.0,482.5 592.0,482.5 591.0,482.5 590.0,482.5 589.5,482.0 589.0,481.5 588.5,481.0 588.5,480.0 588.0,479.5 587.5,479.0 588.0,478.5 588.5,478.0 589.0,477.5 590.0,477.5 591.0,477.5 592.0,477.5 593.0,477.5 594.0,477.5 595.0,477.5 596.0,477.5 597.0,477.5 598.0,477.5 599.0,477.5 600.0,477.5 601.0,477.5 602.0,477.5 603.0,477.5 604.0,477.5 605.0,477.5 606.0,477.5 607.0,477.5 608.0,477.5 609.0,477.5 610.0,477.5 611.0,477.5 612.0,477.5 613.0,477.5 614.0,477.5 615.0,477.5 616.0,477.5 617.0,477.5 618.0,477.5 619.0,477.5 620.0,477.5 621.0,477.5 622.0,477.5 623.0,477.5 624.0,477.5 625.0,477.5 626.0,477.5 627.0,477.5 628.0,477.5 629.0,477.5 630.0,477.5 631.0,477.5 632.0,477.5 633.0,477.5 634.0,477.5 635.0,477.5 636.0,477.5 637.0,477.5 638.0,477.5 639.0,477.5 640.0,477.5 640.5,477.0 640.5,476.0 640.5,475.0 641.0,474.5 641.5,474.0 641.5,473.0 641.5,472.0 641.5,471.0 642.0,470.5 642.5,470.0 642.5,469.0 642.5,468.0 642.0,467.5 641.5,467.0 641.5,466.0 641.0,465.5 640.5,465.0 640.5,464.0 640.0,463.5 639.5,463.0 639.5,462.0 639.5,461.0 639.0,460.5 638.5,460.0 638.5,459.0 638.0,458.5 637.5,458.0 637.5,457.0 637.0,456.5 636.5,456.0 636.5,455.0 636.5,454.0 636.0,453.5 635.5,453.0 635.5,452.0 635.0,451.5 634.5,451.0 634.5,450.0 634.5,449.0 634.0,448.5 633.5,448.0 633.5,447.0 633.0,446.5 632.5,446.0 632.5,445.0 632.0,444.5 631.5,444.0 631.5,443.0 631.0,442.5 630.5,442.0 630.0,441.5 629.5,441.0 629.0,440.5 628.5,440.0 628.0,439.5 627.5,439.0 627.0,438.5 626.5,438.0 626.0,437.5 625.5,437.0 625.0,436.5 624.5,436.0 624.0,435.5 623.5,435.0 623.0,434.5 622.5,434.0 622.0,433.5 621.5,433.0 621.0,432.5 620.5,432.0 620.0,431.5 619.5,431.0 619.0,430.5 618.5,430.0 618.0,429.5 617.5,429.0 617.0,428.5 616.5,428.0 616.0,427.5 615.0,427.5 614.5,427.0 614.0,426.5 613.0,426.5 612.0,426.5 611.5,426.0 611.0,425.5 610.0,425.5 609.5,425.0 609.0,424.5 608.0,424.5 607.5,424.0 607.0,423.5 606.0,423.5 605.5,423.0 605.0,422.5 604.0,422.5 603.0,422.5 602.5,422.0 602.0,421.5 601.0,421.5 600.5,421.0 600.0,420.5 599.0,420.5 598.5,420.0 598.0,419.5 597.0,419.5 596.0,419.5 595.0,419.5 594.0,419.5 593.0,419.5 592.0,419.5 591.0,419.5 590.0,419.5 589.0,419.5 588.0,419.5 587.0,419.5 586.5,419.0 586.0,418.5 585.5,418.0 586.0,417.5 586.5,417.0 587.0,416.5 587.5,416.0 587.5,415.0 588.0,414.5 588.5,414.0 589.0,413.5 590.0,413.5 591.0,413.5 592.0,413.5 592.5,414.0 593.0,414.5 594.0,414.5 595.0,414.5 596.0,414.5 596.5,415.0 597.0,415.5 598.0,415.5 599.0,415.5 600.0,415.5 601.0,415.5 601.5,416.0 602.0,416.5 603.0,416.5 604.0,416.5 605.0,416.5 605.5,417.0 606.0,417.5 607.0,417.5 608.0,417.5 609.0,417.5 610.0,417.5 610.5,418.0 611.0,418.5 611.5,419.0 612.0,419.5 613.0,419.5 613.5,420.0 614.0,420.5 614.5,421.0 615.0,421.5 615.5,422.0 616.0,422.5 617.0,422.5 617.5,423.0 618.0,423.5 618.5,424.0 619.0,424.5 619.5,425.0 620.0,425.5 621.0,425.5 621.5,426.0 622.0,426.5 622.5,427.0 623.0,427.5 623.5,428.0 624.0,428.5 624.5,429.0 625.0,429.5 626.0,429.5 626.5,430.0 627.0,430.5 627.5,431.0 628.0,431.5 628.5,432.0 629.0,432.5 630.0,432.5 630.5,433.0 631.0,433.5 631.5,434.0 632.0,434.5 632.5,435.0 632.5,436.0 633.0,436.5 633.5,437.0 633.5,438.0 634.0,438.5 634.5,439.0 634.5,440.0 635.0,440.5 635.5,441.0 635.5,442.0 636.0,442.5 636.5,443.0 637.0,443.5 637.5,444.0 637.5,445.0 638.0,445.5 638.5,446.0 638.5,447.0 639.0,447.5 639.5,448.0 639.5,449.0 640.0,449.5 640.5,450.0 641.0,450.5 641.5,451.0 641.5,452.0 642.0,452.5 642.5,453.0 642.5,454.0 643.0,454.5 643.5,455.0 643.5,456.0 644.0,456.5 644.5,457.0 644.5,458.0 645.0,458.5 645.5,459.0 645.5,460.0 645.5,461.0 645.5,462.0 646.0,462.5 646.5,463.0 646.5,464.0 646.5,465.0 646.5,466.0 646.5,467.0 646.5,468.0 646.5,469.0 647.0,469.5 647.5,470.0 647.5,471.0 647.5,472.0 647.5,473.0 647.5,474.0 647.5,475.0 647.5,476.0 647.5,477.0 648.0,477.5 648.5,478.0 648.5,479.0 648.5,480.0 648.0,480.5 647.5,481.0 647.0,481.5 646.5,482.0 646.0,482.5 646.0,482.5" fill="none" stroke="#FF0000" stroke-width="2" />
  <polyline points="462.0,501.5 461.0,501.5 460.0,501.5 459.0,501.5 458.0,501.5 457.0,501.5 456.0,501.5 455.0,501.5 454.0,501.5 453.0,501.5 452.0,501.5 451.0,501.5 450.0,501.5 449.0,501.5 448.0,501.5 447.0,501.5 446.0,501.5 445.0,501.5 444.0,501.5 443.0,501.5 442.0,501.5 441.0,501.5 440.0,501.5 439.0,501.5 438.0,501.5 437.0,501.5 436.0,501.5 435.0,501.5 434.0,501.5 433.0,501.5 432.0,501.5 431.0,501.5 430.0,501.5 429.0,501.5 428.0,501.5 427.0,501.5 426.0,501.5 425.0,501.5 424.0,501.5 423.0,501.5 422.0,501.5 421.0,501.5 420.0,501.5 419.0,501.5 418.0,501.5 417.0,501.5 416.0,501.5 415.0,501.5 414.0,501.5 413.0,501.5 412.0,501.5 411.0,501.5 410.0,501.5 409.0,501.5 408.0,501.5 407.5,501.0 407.0,500.5 406.5,500.0 407.0,499.5 407.5,499.0 407.0,498.5 406.5,498.0 406.5,497.0 406.5,496.0 407.0,495.5 407.5,495.0 408.0,494.5 409.0,494.5 410.0,494.5 411.0,494.5 412.0,494.5 413.0,494.5 414.0,494.5 415.0,494.5 416.0,494.5 417.0,494.5 418.0,494.5 419.0,494.5 420.0,494.5 421.0,494.5 422.0,494.5 423.0,494.5 424.0,494.5 425.0,494.5 426.0,494.5 427.0,494.5 428.0,494.5 429.0,494.5 430.0,494.5 431.0,494.5 432.0,494.5 433.0,494.5 434.0,494.5 435.0,494.5 436.0,494.5 437.0,494.5 438.0,494.5 439.0,494.5 440.0,494.5 441.0,494.5 442.0,494.5 443.0,494.5 444.0,494.5 445.0,494.5 446.0,494.5 447.0,494.5 448.0,494.5 449.0,494.5 450.0,494.5 451.0,494.5 452.0,494.5 453.0,494.5 454.0,494.5 455.0,494.5 456.0,494.5 457.0,494.5 458.0,494.5 458.5,494.0 458.5,493.0 458.5,492.0 458.0,491.5 457.5,491.0 457.5,490.0 457.5,489.0 457.5,488.0 457.5,487.0 457.5,486.0 457.0,485.5 456.5,485.0 456.5,484.0 456.5,483.0 456.5,482.0 456.5,481.0 456.5,480.0 456.0,479.5 455.5,479.0 455.5,478.0 455.5,477.0 455.5,476.0 455.5,475.0 455.5,474.0 455.0,473.5 454.5,473.0 454.5,472.0 454.5,471.0 454.0,470.5 453.5,470.0 453.5,469.0 453.0,468.5 452.5,468.0 452.0,467.5 451.5,467.0 451.5,466.0 451.0,465.5 450.5,465.0 450.0,464.5 449.5,464.0 449.0,463.5 448.5,463.0 448.5,462.0 448.0,461.5 447.5,461.0 447.0,460.5 446.5,460.0 446.5,459.0 446.0,458.5 445.5,458.0 445.0,457.5 444.5,457.0 444.5,456.0 444.0,455.5 443.5,455.0 443.0,454.5 442.5,454.0 442.0,453.5 441.5,453.0 441.5,452.0 441.0,451.5 440.5,451.0 440.0,450.5 439.5,450.0 439.5,449.0 439.0,448.5 438.5,448.0 438.0,447.5 437.0,447.5 436.5,447.0 436.0,446.5 435.0,446.5 434.5,446.0 434.0,445.5 433.0,445.5 432.5,445.0 432.0,444.5 431.0,444.5 430.5,444.0 430.0,443.5 429.0,443.5 428.5,443.0 428.0,442.5 427.0,442.5 426.5,442.0 426.0,441.5 425.0,441.5 424.5,441.0 424.0,440.5 423.0,440.5 422.5,440.0 422.0,439.5 421.0,439.5 420.5,439.0 420.0,438.5 419.0,438.5 418.5,438.0 418.0,437.5 417.0,437.5 416.0,437.5 415.0,437.5 414.0,437.5 413.0,437.5 412.0,437.5 411.0,437.5 410.0,437.5 409.0,437.5 408.0,437.5 407.0,437.5 406.0,437.5 405.0,437.5 404.5,437.0 404.0,436.5 403.5,436.0 404.0,435.5 404.5,435.0 405.0,434.5 405.5,434.0 405.5,433.0 405.5,432.0 406.0,431.5 406.5,431.0 407.0,430.5 408.0,430.5 409.0,430.5 410.0,430.5 410.5,431.0 411.0,431.5 412.0,431.5 413.0,431.5 414.0,431.5 414.5,432.0 415.0,432.5 416.0,432.5 417.0,432.5 418.0,432.5 419.0,432.5 419.5,433.0 420.0,433.5 421.0,433.5 422.0,433.5 423.0,433.5 423.5,434.0 424.0,434.5 425.0,434.5 426.0,434.5 427.0,434.5 428.0,434.5 428.5,435.0 429.0,435.5 429.5,436.0 430.0,436.5 430.5,437.0 431.0,437.5 432.0,437.5 432.5,438.0 433.0,438.5 433.5,439.0 434.0,439.5 434.5,440.0 435.0,440.5 435.5,441.0 436.0,441.5 437.0,441.5 437.5,442.0 438.0,442.5 438.5,443.0 439.0,443.5 439.5,444.0 440.0,444.5 440.5,445.0 441.0,445.5 442.0,445.5 442.5,446.0 443.0,446.5 443.5,447.0 444.0,447.5 444.5,448.0 445.0,448.5 445.5,449.0 446.0,449.5 447.0,449.5 447.5,450.0 448.0,450.5 448.5,451.0 449.0,451.5 449.5,452.0 450.0,452.5 450.5,453.0 450.5,454.0 451.0,454.5 451.5,455.0 451.5,456.0 452.0,456.5 452.5,457.0 452.5,458.0 453.0,458.5 453.5,459.0 454.0,459.5 454.5,460.0 454.5,461.0 455.0,461.5 455.5,462.0 455.5,463.0 456.0,463.5 456.5,464.0 457.0,464.5 457.5,465.0 457.5,466.0 458.0,466.5 458.5,467.0 458.5,468.0 459.0,468.5 459.5,469.0 459.5,470.0 460.0,470.5 460.5,471.0 460.5,472.0 460.5,473.0 460.5,474.0 460.5,475.0 461.0,475.5 461.5,476.0 461.5,477.0 461.5,478.0 461.5,479.0 461.5,480.0 461.5,481.0 461.5,482.0 461.5,483.0 461.5,484.0 462.0,484.5 462.5,485.0 462.5,486.0 462.5,487.0 462.5,488.0 462.5,489.0 462.5,490.0 462.5,491.0 462.5,492.0 462.5,493.0 462.5,494.0 463.0,494.5 463.5,495.0 463.5,496.0 463.5,497.0 463.5,498.0 463.5,499.0 463.5,500.0 463.0,500.5 462.5,501.0 462.0,501.5 462.0,501.5" fill="none" stroke="#00FFFF" stroke-width="2" />
  <polyline points="391.0,498.5 390.5,498.0 390.0,497.5 389.5,497.0 390.0,496.5 390.5,496.0 391.0,495.5 391.5,496.0 392.0,496.5 392.5,497.0 392.0,497.5 391.5,498.0 391.0,498.5 391.0,498.5" fill="none" stroke="#FF00FF" stroke-width="2" />
  <polyline points="648.0,753.5 647.0,753.5 646.0,753.5 645.0,753.5 644.0,753.5 643.0,753.5 642.0,753.5 641.0,753.5 640.0,753.5 639.0,753.5 638.0,753.5 637.0,753.5 636.0,753.5 635.0,753.5 634.0,753.5 633.0,753.5 632.0,753.5 631.0,753.5 630.0,753.5 629.0,753.5 628.0,753.5 627.0,753.5 626.0,753.5 625.0,753.5 624.0,753.5 623.0,753.5 622.0,753.5 621.0,753.5 620.0,753.5 619.0,753.5 618.0,753.5 617.0,753.5 616.0,753.5 615.0,753.5 614.0,753.5 613.0,753.5 612.0,753.5 611.0,753.5 610.0,753.5 609.0,753.5 608.0,753.5 607.0,753.5 606.0,753.5 605.0,753.5 604.0,753.5 603.0,753.5 602.0,753.5 601.0,753.5 600.0,753.5 599.0,753.5 598.0,753.5 597.0,753.5 596.0,753.5 595.0,753.5 594.0,753.5 593.0,753.5 592.0,753.5 591.0,753.5 590.0,753.5 589.5,753.0 589.0,752.5 588.5,752.0 588.5,751.0 588.5,750.0 589.0,749.5 589.5,749.0 590.0,748.5 591.0,748.5 592.0,748.5 593.0,748.5 594.0,748.5 595.0,748.5 596.0,748.5 597.0,748.5 598.0,748.5 599.0,748.5 600.0,748.5 601.0,748.5 602.0,748.5 603.0,748.5 604.0,748.5 605.0,748.5 606.0,748.5 607.0,748.5 608.0,748.5 609.0,748.5 610.0,748.5 611.0,748.5 612.0,748.5 613.0,748.5 614.0,748.5 615.0,748.5 616.0,748.5 617.0,748.5 618.0,748.5 619.0,748.5 620.0,748.5 621.0,748.5 622.0,748.5 623.0,748.5 624.0,748.5 625.0,748.5 626.0,748.5 627.0,748.5 628.0,748.5 629.0,748.5 630.0,748.5 631.0,748.5 632.0,748.5 633.0,748.5 634.0,748.5 635.0,748.5 636.0,748.5 637.0,748.5 638.0,748.5 639.0,748.5 640.0,748.5 641.0,748.5 642.0,748.5 643.0,748.5 644.0,748.5 645.0,748.5 645.5,748.0 645.5,747.0 645.5,746.0 645.0,745.5 644.5,745.0 644.5,744.0 644.5,743.0 644.5,742.0 644.0,741.5 643.5,741.0 643.5,740.0 643.5,739.0 643.5,738.0 643.0,737.5 642.5,737.0 642.5,736.0 642.5,735.0 642.5,734.0 642.0,733.5 641.5,733.0 641.5,732.0 641.5,731.0 641.5,730.0 641.0,729.5 640.5,729.0 640.5,728.0 640.5,727.0 640.5,726.0 640.0,725.5 639.5,725.0 639.5,724.0 639.5,723.0 639.0,722.5 638.5,722.0 638.5,721.0 638.0,720.5 637.5,720.0 637.0,719.5 636.5,719.0 636.0,718.5 635.5,718.0 635.5,717.0 635.0,716.5 634.5,716.0 634.0,715.5 633.5,715.0 633.5,714.0 633.0,713.5 632.5,713.0 632.0,712.5 631.5,712.0 631.5,711.0 631.0,710.5 630.5,710.0 630.0,709.5 629.5,709.0 629.0,708.5 628.5,708.0 628.5,707.0 628.0,706.5 627.5,706.0 627.0,705.5 626.5,705.0 626.5,704.0 626.0,703.5 625.5,703.0 625.0,702.5 624.0,702.5 623.5,702.0 623.0,701.5 622.0,701.5 621.5,701.0 621.0,700.5 620.0,700.5 619.5,700.0 619.0,699.5 618.0,699.5 617.5,699.0 617.0,698.5 616.0,698.5 615.5,698.0 615.0,697.5 614.0,697.5 613.5,697.0 613.0,696.5 612.0,696.5 611.5,696.0 611.0,695.5 610.0,695.5 609.5,695.0 609.0,694.5 608.0,694.5 607.5,694.0 607.0,693.5 606.0,693.5 605.5,693.0 605.0,692.5 604.0,692.5 603.5,692.0 603.0,691.5 602.0,691.5 601.5,691.0 601.0,690.5 600.0,690.5 599.5,690.0 599.0,689.5 598.0,689.5 597.0,689.5 596.0,689.5 595.0,689.5 594.0,689.5 593.0,689.5 592.0,689.5 591.0,689.5 590.0,689.5 589.0,689.5 588.0,689.5 587.5,689.0 587.0,688.5 586.5,688.0 587.0,687.5 587.5,687.0 587.5,686.0 587.5,685.0 588.0,684.5 588.5,684.0 589.0,683.5 590.0,683.5 591.0,683.5 592.0,683.5 592.5,684.0 593.0,684.5 594.0,684.5 595.0,684.5 596.0,684.5 597.0,684.5 597.5,685.0 598.0,685.5 599.0,685.5 600.0,685.5 601.0,685.5 601.5,686.0 602.0,686.5 603.0,686.5 604.0,686.5 605.0,686.5 606.0,686.5 606.5,687.0 607.0,687.5 608.0,687.5 609.0,687.5 610.0,687.5 611.0,687.5 611.5,688.0 612.0,688.5 613.0,688.5 613.5,689.0 614.0,689.5 615.0,689.5 615.5,690.0 616.0,690.5 616.5,691.0 617.0,691.5 618.0,691.5 618.5,692.0 619.0,692.5 620.0,692.5 620.5,693.0 621.0,693.5 622.0,693.5 622.5,694.0 623.0,694.5 623.5,695.0 624.0,695.5 625.0,695.5 625.5,696.0 626.0,696.5 626.5,697.0 627.0,697.5 627.5,698.0 627.5,699.0 628.0,699.5 628.5,700.0 629.0,700.5 629.5,701.0 630.0,701.5 630.5,702.0 631.0,702.5 631.5,703.0 631.5,704.0 632.0,704.5 632.5,705.0 633.0,705.5 633.5,706.0 634.0,706.5 634.5,707.0 635.0,707.5 635.5,708.0 636.0,708.5 636.5,709.0 636.5,710.0 637.0,710.5 637.5,711.0 638.0,711.5 638.5,712.0 639.0,712.5 639.5,713.0 640.0,713.5 640.5,714.0 640.5,715.0 641.0,715.5 641.5,716.0 642.0,716.5 642.5,717.0 642.5,718.0 643.0,718.5 643.5,719.0 643.5,720.0 643.5,721.0 644.0,721.5 644.5,722.0 644.5,723.0 644.5,724.0 645.0,724.5 645.5,725.0 645.5,726.0 645.5,727.0 646.0,727.5 646.5,728.0 646.5,729.0 646.5,730.0 646.5,731.0 647.0,731.5 647.5,732.0 647.5,733.0 647.5,734.0 648.0,734.5 648.5,735.0 648.5,736.0 648.5,737.0 649.0,737.5 649.5,738.0 649.5,739.0 649.5,740.0 650.0,740.5 650.5,741.0 650.5,742.0 650.5,743.0 650.5,744.0 650.5,745.0 650.5,746.0 650.5,747.0 650.5,748.0 650.0,748.5 649.5,749.0 649.5,750.0 649.5,751.0 649.5,752.0 649.0,752.5 648.5,753.0 648.0,753.5 648.0,753.5" fill="none" stroke="#FFFF00" stroke-width="2" />
  <polyline points="573.0,689.5 572.5,689.0 572.0,688.5 571.5,688.0 572.0,687.5 572.5,687.0 573.0,686.5 573.5,687.0 574.0,687.5 574.5,688.0 574.0,688.5 573.5,689.0 573.0,689.5 573.0,689.5" fill="none" stroke="#0080FF" stroke-width="2" />
  <polyline points="650.0,871.5 649.0,871.5 648.0,871.5 647.0,871.5 646.0,871.5 645.0,871.5 644.0,871.5 643.0,871.5 642.0,871.5 641.0,871.5 640.0,871.5 639.0,871.5 638.0,871.5 637.0,871.5 636.0,871.5 635.0,871.5 634.0,871.5 633.0,871.5 632.0,871.5 631.0,871.5 630.0,871.5 629.0,871.5 628.0,871.5 627.0,871.5 626.0,871.5 625.0,871.5 624.0,871.5 623.0,871.5 622.0,871.5 621.0,871.5 620.0,871.5 619.0,871.5 618.0,871.5 617.0,871.5 616.0,871.5 615.0,871.5 614.0,871.5 613.0,871.5 612.0,871.5 611.0,871.5 610.0,871.5 609.0,871.5 608.0,871.5 607.0,871.5 606.0,871.5 605.0,871.5 604.0,871.5 603.0,871.5 602.0,871.5 601.0,871.5 600.0,871.5 599.0,871.5 598.0,871.5 597.0,871.5 596.0,871.5 595.0,871.5 594.0,871.5 593.0,871.5 592.0,871.5 591.0,871.5 590.0,871.5 589.5,871.0 589.0,870.5 588.5,870.0 588.5,869.0 588.5,868.0 589.0,867.5 589.5,867.0 590.0,866.5 591.0,866.5 592.0,866.5 593.0,866.5 594.0,866.5 595.0,866.5 596.0,866.5 597.0,866.5 598.0,866.5 599.0,866.5 600.0,866.5 601.0,866.5 602.0,866.5 603.0,866.5 604.0,866.5 605.0,866.5 606.0,866.5 607.0,866.5 608.0,866.5 609.0,866.5 610.0,866.5 611.0,866.5 612.0,866.5 613.0,866.5 614.0,866.5 615.0,866.5 616.0,866.5 617.0,866.5 618.0,866.5 619.0,866.5 620.0,866.5 621.0,866.5 622.0,866.5 623.0,866.5 624.0,866.5 625.0,866.5 626.0,866.5 627.0,866.5 628.0,866.5 629.0,866.5 630.0,866.5 631.0,866.5 632.0,866.5 633.0,866.5 634.0,866.5 635.0,866.5 636.0,866.5 637.0,866.5 638.0,866.5 639.0,866.5 640.0,866.5 641.0,866.5 642.0,866.5 643.0,866.5 644.0,866.5 645.0,866.5 646.0,866.5 646.5,866.0 646.5,865.0 646.5,864.0 646.0,863.5 645.5,863.0 645.5,862.0 645.5,861.0 645.5,860.0 645.0,859.5 644.5,859.0 644.5,858.0 644.5,857.0 644.5,856.0 644.5,855.0 644.0,854.5 643.5,854.0 643.5,853.0 643.5,852.0 643.5,851.0 643.5,850.0 643.0,849.5 642.5,849.0 642.5,848.0 642.5,847.0 642.5,846.0 642.0,845.5 641.5,845.0 641.5,844.0 641.5,843.0 641.0,842.5 640.5,842.0 640.5,841.0 640.0,840.5 639.5,840.0 639.0,839.5 638.5,839.0 638.5,838.0 638.0,837.5 637.5,837.0 637.0,836.5 636.5,836.0 636.5,835.0 636.0,834.5 635.5,834.0 635.0,833.5 634.5,833.0 634.0,832.5 633.5,832.0 633.5,831.0 633.0,830.5 632.5,830.0 632.0,829.5 631.5,829.0 631.5,828.0 631.0,827.5 630.5,827.0 630.0,826.5 629.5,826.0 629.5,825.0 629.0,824.5 628.5,824.0 628.0,823.5 627.5,823.0 627.5,822.0 627.0,821.5 626.5,821.0 626.0,820.5 625.0,820.5 624.5,820.0 624.0,819.5 623.5,819.0 623.0,818.5 622.0,818.5 621.5,818.0 621.0,817.5 620.0,817.5 619.5,817.0 619.0,816.5 618.0,816.5 617.5,816.0 617.0,815.5 616.5,815.0 616.0,814.5 615.0,814.5 614.5,814.0 614.0,813.5 613.0,813.5 612.5,813.0 612.0,812.5 611.0,812.5 610.5,812.0 610.0,811.5 609.5,811.0 609.0,810.5 608.0,810.5 607.5,810.0 607.0,809.5 606.0,809.5 605.0,809.5 604.0,809.5 603.0,809.5 602.0,809.5 601.0,809.5 600.0,809.5 599.0,809.5 598.0,809.5 597.0,809.5 596.5,809.0 596.0,808.5 595.0,808.5 594.0,808.5 593.0,808.5 592.0,808.5 591.0,808.5 590.0,808.5 589.0,808.5 588.0,808.5 587.5,808.0 587.0,807.5 586.5,807.0 587.0,806.5 587.5,806.0 588.0,805.5 588.5,805.0 588.5,804.0 588.5,803.0 589.0,802.5 589.5,802.0 590.0,801.5 591.0,801.5 592.0,801.5 593.0,801.5 594.0,801.5 594.5,802.0 595.0,802.5 596.0,802.5 597.0,802.5 598.0,802.5 599.0,802.5 599.5,803.0 600.0,803.5 601.0,803.5 602.0,803.5 603.0,803.5 604.0,803.5 605.0,803.5 605.5,804.0 606.0,804.5 607.0,804.5 608.0,804.5 609.0,804.5 610.0,804.5 610.5,805.0 611.0,805.5 612.0,805.5 612.5,806.0 613.0,806.5 614.0,806.5 614.5,807.0 615.0,807.5 616.0,807.5 616.5,808.0 617.0,808.5 618.0,808.5 618.5,809.0 619.0,809.5 620.0,809.5 620.5,810.0 621.0,810.5 622.0,810.5 622.5,811.0 623.0,811.5 623.5,812.0 624.0,812.5 624.5,813.0 625.0,813.5 625.5,814.0 626.0,814.5 626.5,815.0 627.0,815.5 627.5,816.0 628.0,816.5 628.5,817.0 629.0,817.5 629.5,818.0 630.0,818.5 630.5,819.0 631.0,819.5 631.5,820.0 632.0,820.5 632.5,821.0 633.0,821.5 633.5,822.0 634.0,822.5 634.5,823.0 635.0,823.5 635.5,824.0 636.0,824.5 636.5,825.0 637.0,825.5 637.5,826.0 638.0,826.5 638.5,827.0 638.5,828.0 639.0,828.5 639.5,829.0 639.5,830.0 640.0,830.5 640.5,831.0 640.5,832.0 641.0,832.5 641.5,833.0 641.5,834.0 642.0,834.5 642.5,835.0 642.5,836.0 643.0,836.5 643.5,837.0 643.5,838.0 644.0,838.5 644.5,839.0 644.5,840.0 645.0,840.5 645.5,841.0 645.5,842.0 646.0,842.5 646.5,843.0 646.5,844.0 647.0,844.5 647.5,845.0 647.5,846.0 648.0,846.5 648.5,847.0 648.5,848.0 649.0,848.5 649.5,849.0 649.5,850.0 649.5,851.0 649.5,852.0 649.5,853.0 649.5,854.0 650.0,854.5 650.5,855.0 650.5,856.0 650.5,857.0 650.5,858.0 650.5,859.0 650.5,860.0 650.5,861.0 650.5,862.0 650.5,863.0 650.5,864.0 651.0,864.5 651.5,865.0 651.5,866.0 651.5,867.0 651.5,868.0 651.5,869.0 651.5,870.0 651.0,870.5 650.5,871.0 650.0,871.5 650.0,871.5" fill="none" stroke="#FF0080" stroke-width="2" />
  <polyline points="388.0,925.5 387.0,925.5 386.0,925.5 385.0,925.5 384.0,925.5 383.0,925.5 382.0,925.5 381.0,925.5 380.0,925.5 379.0,925.5 378.0,925.5 377.0,925.5 376.0,925.5 375.0,925.5 374.0,925.5 373.0,925.5 372.0,925.5 371.0,925.5 370.0,925.5 369.0,925.5 368.0,925.5 367.0,925.5 366.0,925.5 365.0,925.5 364.0,925.5 363.0,925.5 362.0,925.5 361.0,925.5 360.0,925.5 359.0,925.5 358.0,925.5 357.0,925.5 356.0,925.5 355.0,925.5 354.0,925.5 353.0,925.5 352.0,925.5 351.0,925.5 350.0,925.5 349.0,925.5 348.0,925.5 347.0,925.5 346.0,925.5 345.0,925.5 344.0,925.5 343.0,925.5 342.0,925.5 341.0,925.5 340.0,925.5 339.0,925.5 338.0,925.5 337.0,925.5 336.0,925.5 335.0,925.5 334.0,925.5 333.0,925.5 332.5,925.0 332.0,924.5 331.5,924.0 331.0,923.5 330.5,923.0 330.0,922.5 329.5,922.0 329.5,921.0 329.0,920.5 328.5,920.0 328.5,919.0 328.5,918.0 328.5,917.0 329.0,916.5 329.5,916.0 329.5,915.0 329.5,914.0 329.5,913.0 329.5,912.0 329.5,911.0 329.5,910.0 330.0,909.5 330.5,909.0 330.5,908.0 330.5,907.0 330.5,906.0 330.5,905.0 330.5,904.0 330.5,903.0 331.0,902.5 331.5,902.0 331.5,901.0 331.5,900.0 331.5,899.0 332.0,898.5 332.5,898.0 332.5,897.0 333.0,896.5 333.5,896.0 333.5,895.0 334.0,894.5 334.5,894.0 334.5,893.0 335.0,892.5 335.5,892.0 336.0,891.5 336.5,891.0 336.5,890.0 337.0,889.5 337.5,889.0 337.5,888.0 338.0,887.5 338.5,887.0 338.5,886.0 339.0,885.5 339.5,885.0 340.0,884.5 340.5,884.0 340.5,883.0 341.0,882.5 341.5,882.0 341.5,881.0 342.0,880.5 342.5,880.0 342.5,879.0 343.0,878.5 343.5,878.0 344.0,877.5 344.5,877.0 345.0,876.5 345.5,876.0 346.0,875.5 347.0,875.5 347.5,875.0 348.0,874.5 348.5,874.0 349.0,873.5 349.5,873.0 350.0,872.5 350.5,872.0 351.0,871.5 352.0,871.5 352.5,871.0 353.0,870.5 353.5,870.0 354.0,869.5 354.5,869.0 355.0,868.5 355.5,868.0 356.0,867.5 357.0,867.5 357.5,867.0 358.0,866.5 358.5,866.0 359.0,865.5 359.5,865.0 360.0,864.5 360.5,864.0 361.0,863.5 362.0,863.5 362.5,863.0 363.0,862.5 363.5,862.0 364.0,861.5 365.0,861.5 366.0,861.5 367.0,861.5 367.5,861.0 368.0,860.5 369.0,860.5 370.0,860.5 370.5,860.0 371.0,859.5 372.0,859.5 373.0,859.5 374.0,859.5 374.5,859.0 375.0,858.5 376.0,858.5 377.0,858.5 378.0,858.5 378.5,858.0 379.0,857.5 380.0,857.5 381.0,857.5 382.0,857.5 382.5,857.0 383.0,856.5 384.0,856.5 385.0,856.5 385.5,856.0 386.0,855.5 387.0,855.5 387.5,856.0 388.0,856.5 388.5,857.0 388.0,857.5 387.5,858.0 388.0,858.5 388.5,859.0 388.5,860.0 388.5,861.0 388.0,861.5 387.5,862.0 387.0,862.5 386.0,862.5 385.0,862.5 384.0,862.5 383.0,862.5 382.0,862.5 381.0,862.5 380.0,862.5 379.0,862.5 378.0,862.5 377.5,863.0 377.0,863.5 376.0,863.5 375.5,864.0 375.0,864.5 374.0,864.5 373.5,865.0 373.0,865.5 372.0,865.5 371.5,866.0 371.0,866.5 370.0,866.5 369.5,867.0 369.0,867.5 368.0,867.5 367.5,868.0 367.0,868.5 366.0,868.5 365.5,869.0 365.0,869.5 364.0,869.5 363.5,870.0 363.0,870.5 362.0,870.5 361.5,871.0 361.0,871.5 360.0,871.5 359.5,872.0 359.0,872.5 358.0,872.5 357.5,873.0 357.0,873.5 356.0,873.5 355.5,874.0 355.0,874.5 354.5,875.0 354.0,875.5 353.5,876.0 353.0,876.5 352.5,877.0 352.5,878.0 352.0,878.5 351.5,879.0 351.0,879.5 350.5,880.0 350.0,880.5 349.5,881.0 349.0,881.5 348.5,882.0 348.0,882.5 347.5,883.0 347.0,883.5 346.5,884.0 346.0,884.5 345.5,885.0 345.5,886.0 345.0,886.5 344.5,887.0 344.0,887.5 343.5,888.0 343.0,888.5 342.5,889.0 342.0,889.5 341.5,890.0 341.5,891.0 341.0,891.5 340.5,892.0 340.5,893.0 340.5,894.0 340.0,894.5 339.5,895.0 339.5,896.0 339.5,897.0 339.0,897.5 338.5,898.0 338.5,899.0 338.5,900.0 338.0,900.5 337.5,901.0 337.5,902.0 337.5,903.0 337.0,903.5 336.5,904.0 336.5,905.0 336.5,906.0 336.0,906.5 335.5,907.0 335.5,908.0 335.5,909.0 335.0,909.5 334.5,910.0 334.5,911.0 334.5,912.0 334.0,912.5 333.5,913.0 333.5,914.0 333.5,915.0 333.5,916.0 334.0,916.5 334.5,917.0 334.5,918.0 334.5,919.0 335.0,919.5 336.0,919.5 337.0,919.5 338.0,919.5 339.0,919.5 340.0,919.5 341.0,919.5 342.0,919.5 343.0,919.5 344.0,919.5 345.0,919.5 346.0,919.5 347.0,919.5 348.0,919.5 349.0,919.5 350.0,919.5 351.0,919.5 352.0,919.5 353.0,919.5 354.0,919.5 355.0,919.5 356.0,919.5 357.0,919.5 358.0,919.5 359.0,919.5 360.0,919.5 361.0,919.5 362.0,919.5 363.0,919.5 364.0,919.5 365.0,919.5 366.0,919.5 367.0,919.5 368.0,919.5 369.0,919.5 370.0,919.5 371.0,919.5 372.0,919.5 373.0,919.5 374.0,919.5 375.0,919.5 376.0,919.5 377.0,919.5 378.0,919.5 379.0,919.5 380.0,919.5 381.0,919.5 382.0,919.5 383.0,919.5 384.0,919.5 385.0,919.5 386.0,919.5 387.0,919.5 388.0,919.5 389.0,919.5 389.5,920.0 390.0,920.5 390.5,921.0 390.0,921.5 389.5,922.0 389.5,923.0 389.5,924.0 389.0,924.5 388.5,925.0 388.0,925.5 388.0,925.5" fill="none" stroke="#FF8000" stroke-width="2" />
  <polyline points="476.0,1039.5 475.0,1039.5 474.0,1039.5 473.0,1039.5 472.0,1039.5 471.5,1039.0 471.0,1038.5 470.0,1038.5 469.0,1038.5 468.0,1038.5 467.0,1038.5 466.0,1038.5 465.0,1038.5 464.0,1038.5 463.5,1038.0 463.0,1037.5 462.0,1037.5 461.0,1037.5 460.0,1037.5 459.0,1037.5 458.0,1037.5 457.0,1037.5 456.5,1037.0 456.0,1036.5 455.0,1036.5 454.5,1036.0 454.0,1035.5 453.0,1035.5 452.5,1035.0 452.0,1034.5 451.0,1034.5 450.5,1034.0 450.0,1033.5 449.0,1033.5 448.5,1033.0 448.0,1032.5 447.0,1032.5 446.5,1032.0 446.0,1031.5 445.5,1031.0 445.0,1030.5 444.0,1030.5 443.5,1030.0 443.0,1029.5 442.0,1029.5 441.5,1029.0 441.0,1028.5 440.0,1028.5 439.5,1028.0 439.0,1027.5 438.0,1027.5 437.5,1027.0 437.0,1026.5 436.0,1026.5 435.5,1026.0 435.0,1025.5 434.5,1025.0 434.0,1024.5 433.5,1024.0 433.0,1023.5 432.5,1023.0 432.0,1022.5 431.5,1022.0 431.5,1021.0 431.0,1020.5 430.5,1020.0 430.0,1019.5 429.5,1019.0 429.0,1018.5 428.5,1018.0 428.0,1017.5 427.5,1017.0 427.0,1016.5 426.5,1016.0 426.0,1015.5 425.5,1015.0 425.0,1014.5 424.5,1014.0 424.5,1013.0 424.0,1012.5 423.5,1012.0 423.0,1011.5 422.5,1011.0 422.0,1010.5 421.5,1010.0 421.0,1009.5 420.5,1009.0 420.5,1008.0 420.5,1007.0 420.0,1006.5 419.5,1006.0 419.5,1005.0 419.5,1004.0 419.5,1003.0 419.0,1002.5 418.5,1002.0 418.5,1001.0 418.5,1000.0 418.5,999.0 418.0,998.5 417.5,998.0 417.5,997.0 417.5,996.0 417.5,995.0 417.0,994.5 416.5,994.0 416.5,993.0 416.5,992.0 416.5,991.0 416.5,990.0 416.0,989.5 415.5,989.0 415.5,988.0 415.5,987.0 415.5,986.0 415.0,985.5 414.5,985.0 414.5,984.0 414.5,983.0 414.5,982.0 414.0,981.5 413.5,981.0 413.5,980.0 414.0,979.5 414.5,979.0 415.0,978.5 416.0,978.5 417.0,978.5 417.5,979.0 418.0,979.5 418.5,980.0 418.5,981.0 418.5,982.0 418.5,983.0 419.0,983.5 419.5,984.0 419.5,985.0 419.5,986.0 419.5,987.0 419.5,988.0 419.5,989.0 419.5,990.0 419.5,991.0 420.0,991.5 420.5,992.0 420.5,993.0 421.0,993.5 421.5,994.0 421.5,995.0 422.0,995.5 422.5,996.0 422.5,997.0 422.5,998.0 423.0,998.5 423.5,999.0 423.5,1000.0 424.0,1000.5 424.5,1001.0 424.5,1002.0 425.0,1002.5 425.5,1003.0 425.5,1004.0 425.5,1005.0 426.0,1005.5 426.5,1006.0 426.5,1007.0 427.0,1007.5 427.5,1008.0 427.5,1009.0 428.0,1009.5 428.5,1010.0 428.5,1011.0 429.0,1011.5 429.5,1012.0 430.0,1012.5 430.5,1013.0 431.0,1013.5 431.5,1014.0 432.0,1014.5 432.5,1015.0 433.0,1015.5 433.5,1016.0 434.0,1016.5 434.5,1017.0 435.0,1017.5 436.0,1017.5 436.5,1018.0 437.0,1018.5 437.5,1019.0 438.0,1019.5 438.5,1020.0 439.0,1020.5 439.5,1021.0 440.0,1021.5 440.5,1022.0 441.0,1022.5 441.5,1023.0 442.0,1023.5 442.5,1024.0 443.0,1024.5 443.5,1025.0 444.0,1025.5 445.0,1025.5 446.0,1025.5 446.5,1026.0 447.0,1026.5 448.0,1026.5 449.0,1026.5 449.5,1027.0 450.0,1027.5 451.0,1027.5 452.0,1027.5 453.0,1027.5 453.5,1028.0 454.0,1028.5 455.0,1028.5 456.0,1028.5 456.5,1029.0 457.0,1029.5 458.0,1029.5 459.0,1029.5 459.5,1030.0 460.0,1030.5 461.0,1030.5 462.0,1030.5 462.5,1031.0 463.0,1031.5 464.0,1031.5 465.0,1031.5 466.0,1031.5 466.5,1032.0 467.0,1032.5 468.0,1032.5 469.0,1032.5 469.5,1033.0 470.0,1033.5 471.0,1033.5 472.0,1033.5 472.5,1034.0 473.0,1034.5 473.5,1034.0 473.5,1033.0 473.5,1032.0 473.5,1031.0 473.5,1030.0 473.5,1029.0 473.5,1028.0 473.5,1027.0 473.5,1026.0 473.5,1025.0 473.5,1024.0 473.5,1023.0 473.5,1022.0 473.5,1021.0 473.5,1020.0 473.5,1019.0 473.5,1018.0 473.5,1017.0 473.5,1016.0 473.5,1015.0 473.5,1014.0 473.5,1013.0 473.5,1012.0 473.5,1011.0 473.5,1010.0 473.5,1009.0 473.5,1008.0 473.5,1007.0 473.5,1006.0 473.5,1005.0 473.5,1004.0 473.5,1003.0 473.5,1002.0 473.5,1001.0 473.5,1000.0 473.5,999.0 473.5,998.0 473.5,997.0 473.5,996.0 473.5,995.0 473.5,994.0 473.5,993.0 473.5,992.0 473.5,991.0 473.5,990.0 473.5,989.0 473.5,988.0 473.5,987.0 473.5,986.0 473.5,985.0 473.5,984.0 473.5,983.0 473.5,982.0 473.5,981.0 474.0,980.5 474.5,980.0 475.0,979.5 476.0,979.5 477.0,979.5 477.5,980.0 478.0,980.5 478.5,981.0 478.5,982.0 478.5,983.0 478.5,984.0 478.5,985.0 478.5,986.0 478.5,987.0 478.5,988.0 478.5,989.0 478.5,990.0 478.5,991.0 478.5,992.0 478.5,993.0 478.5,994.0 478.5,995.0 478.5,996.0 478.5,997.0 478.5,998.0 478.5,999.0 478.5,1000.0 478.5,1001.0 478.5,1002.0 478.5,1003.0 478.5,1004.0 478.5,1005.0 478.5,1006.0 478.5,1007.0 478.5,1008.0 478.5,1009.0 478.5,1010.0 478.0,1010.5 477.5,1011.0 477.5,1012.0 477.5,1013.0 477.5,1014.0 477.5,1015.0 477.5,1016.0 477.5,1017.0 477.5,1018.0 477.5,1019.0 477.5,1020.0 477.5,1021.0 477.5,1022.0 477.5,1023.0 477.5,1024.0 477.5,1025.0 477.5,1026.0 477.5,1027.0 477.5,1028.0 477.5,1029.0 477.5,1030.0 477.5,1031.0 477.5,1032.0 477.5,1033.0 477.5,1034.0 477.5,1035.0 477.5,1036.0 477.5,1037.0 477.5,1038.0 477.0,1038.5 476.5,1039.0 476.0,1039.5 476.0,1039.5" fill="none" stroke="#8080FF" stroke-width="2" />
  <polyline points="775.0,1327.5 774.0,1327.5 773.0,1327.5 772.0,1327.5 771.0,1327.5 770.0,1327.5 769.0,1327.5 768.0,1327.5 767.5,1327.0 767.0,1326.5 766.0,1326.5 765.0,1326.5 764.0,1326.5 763.0,1326.5 762.0,1326.5 761.0,1326.5 760.0,1326.5 759.0,1326.5 758.5,1326.0 758.0,1325.5 757.0,1325.5 756.5,1325.0 756.0,1324.5 755.0,1324.5 754.5,1324.0 754.0,1323.5 753.0,1323.5 752.0,1323.5 751.5,1323.0 751.0,1322.5 750.0,1322.5 749.5,1322.0 749.0,1321.5 748.0,1321.5 747.5,1321.0 747.0,1320.5 746.0,1320.5 745.5,1320.0 745.0,1319.5 744.0,1319.5 743.0,1319.5 742.5,1319.0 742.0,1318.5 741.0,1318.5 740.5,1318.0 740.0,1317.5 739.0,1317.5 738.5,1317.0 738.0,1316.5 737.5,1316.0 737.0,1315.5 736.5,1315.0 736.0,1314.5 735.5,1314.0 735.0,1313.5 734.5,1313.0 734.0,1312.5 733.5,1312.0 733.0,1311.5 732.5,1311.0 732.0,1310.5 731.0,1310.5 730.5,1310.0 730.0,1309.5 729.5,1309.0 729.0,1308.5 728.5,1308.0 728.0,1307.5 727.5,1307.0 727.0,1306.5 726.5,1306.0 726.0,1305.5 725.5,1305.0 725.0,1304.5 724.5,1304.0 724.0,1303.5 723.5,1303.0 723.5,1302.0 723.0,1301.5 722.5,1301.0 722.5,1300.0 722.0,1299.5 721.5,1299.0 721.5,1298.0 721.0,1297.5 720.5,1297.0 720.5,1296.0 720.0,1295.5 719.5,1295.0 719.5,1294.0 719.5,1293.0 719.0,1292.5 718.5,1292.0 718.5,1291.0 718.0,1290.5 717.5,1290.0 717.5,1289.0 717.0,1288.5 716.5,1288.0 716.5,1287.0 716.0,1286.5 715.5,1286.0 716.0,1285.5 716.5,1285.0 717.0,1284.5 717.5,1284.0 718.0,1283.5 718.5,1283.0 719.0,1282.5 719.5,1283.0 720.0,1283.5 720.5,1284.0 721.0,1284.5 721.5,1285.0 721.5,1286.0 722.0,1286.5 722.5,1287.0 722.5,1288.0 722.5,1289.0 723.0,1289.5 723.5,1290.0 723.5,1291.0 724.0,1291.5 724.5,1292.0 724.5,1293.0 724.5,1294.0 725.0,1294.5 725.5,1295.0 725.5,1296.0 726.0,1296.5 726.5,1297.0 726.5,1298.0 727.0,1298.5 727.5,1299.0 728.0,1299.5 728.5,1300.0 729.0,1300.5 729.5,1301.0 730.0,1301.5 730.5,1302.0 731.0,1302.5 731.5,1303.0 732.0,1303.5 732.5,1304.0 733.0,1304.5 733.5,1305.0 734.0,1305.5 735.0,1305.5 735.5,1306.0 736.0,1306.5 736.5,1307.0 737.0,1307.5 737.5,1308.0 738.0,1308.5 738.5,1309.0 739.0,1309.5 739.5,1310.0 740.0,1310.5 740.5,1311.0 741.0,1311.5 741.5,1312.0 742.0,1312.5 742.5,1313.0 743.0,1313.5 744.0,1313.5 744.5,1314.0 745.0,1314.5 746.0,1314.5 747.0,1314.5 747.5,1315.0 748.0,1315.5 749.0,1315.5 749.5,1316.0 750.0,1316.5 751.0,1316.5 751.5,1317.0 752.0,1317.5 753.0,1317.5 754.0,1317.5 754.5,1318.0 755.0,1318.5 756.0,1318.5 756.5,1319.0 757.0,1319.5 758.0,1319.5 759.0,1319.5 760.0,1319.5 761.0,1319.5 762.0,1319.5 763.0,1319.5 764.0,1319.5 764.5,1320.0 765.0,1320.5 766.0,1320.5 767.0,1320.5 768.0,1320.5 769.0,1320.5 770.0,1320.5 771.0,1320.5 771.5,1321.0 772.0,1321.5 772.5,1321.0 772.5,1320.0 772.5,1319.0 772.5,1318.0 772.5,1317.0 772.5,1316.0 772.5,1315.0 772.5,1314.0 772.5,1313.0 772.5,1312.0 772.5,1311.0 772.5,1310.0 772.5,1309.0 772.5,1308.0 772.5,1307.0 772.5,1306.0 772.5,1305.0 772.5,1304.0 773.0,1303.5 773.5,1303.0 773.5,1302.0 773.5,1301.0 773.5,1300.0 773.5,1299.0 773.5,1298.0 773.5,1297.0 773.5,1296.0 773.5,1295.0 773.5,1294.0 773.5,1293.0 773.5,1292.0 773.5,1291.0 773.5,1290.0 773.5,1289.0 773.5,1288.0 773.5,1287.0 774.0,1286.5 774.5,1286.0 775.0,1285.5 775.5,1286.0 776.0,1286.5 777.0,1286.5 777.5,1287.0 778.0,1287.5 778.5,1288.0 778.5,1289.0 778.5,1290.0 778.5,1291.0 778.5,1292.0 778.5,1293.0 778.5,1294.0 778.5,1295.0 778.5,1296.0 778.5,1297.0 778.0,1297.5 777.5,1298.0 777.5,1299.0 777.5,1300.0 777.5,1301.0 777.5,1302.0 777.5,1303.0 777.5,1304.0 777.5,1305.0 777.5,1306.0 777.5,1307.0 777.5,1308.0 777.5,1309.0 777.5,1310.0 777.5,1311.0 777.5,1312.0 777.5,1313.0 777.5,1314.0 777.5,1315.0 777.5,1316.0 777.5,1317.0 777.0,1317.5 776.5,1318.0 776.5,1319.0 776.5,1320.0 776.5,1321.0 776.5,1322.0 776.5,1323.0 776.5,1324.0 776.5,1325.0 776.5,1326.0 776.0,1326.5 775.5,1327.0 775.0,1327.5 775.0,1327.5" fill="none" stroke="#80FF80" stroke-width="2" />
</svg>