<?xml version='1.0' encoding='utf-8'?>
<svg xmlns="http://www.w3.org/2000/svg" version="1.1" width="1024" height="1536" viewBox="0 0 1024 1536">
  <rect x="0" y="0" width="1024" height="1536" fill="#FFFFFF" />
  <path d="M 448.00 313.00 L 559.00 312.00 M 559.00 312.00 L 559.00 117.00 M 559.00 117.00 L 436.00 118.00 M 436.00 118.00 L 436.00 309.00 M 436.00 309.00 L 448.00 313.00" stroke="#0000FF" stroke-width="2" fill="none" />
  <path d="M 92.00 428.00 L 417.00 428.00 M 417.00 428.00 L 418.00 120.00 M 418.00 120.00 L 186.00 119.00 M 186.00 119.00 L 92.00 250.00 M 92.00 250.00 L 92.00 428.00" stroke="#00FF00" stroke-width="2" fill="none" />
  <path d="M 579.00 539.00 L 852.00 539.00 M 852.00 539.00 L 853.00 231.00 M 853.00 231.00 L 578.00 232.00 M 578.00 232.00 L 579.00 539.00" stroke="#FF0000" stroke-width="2" fill="none" />
  <path d="M 523.20 936.00 L 523.00 921.00 M 523.00 921.00 L 559.00 918.00 M 559.00 918.00 L 558.00 819.00 M 558.00 819.00 L 576.00 818.80 M 576.00 818.80 L 576.00 750.30 M 576.00 750.30 L 559.00 749.00 M 559.00 749.00 L 559.00 524.00 M 559.00 524.00 L 576.00 522.90 M 576.00 522.90 L 576.00 451.20 M 576.00 451.20 L 559.00 451.00 M 559.00 451.00 L 560.00 333.00 M 560.00 333.00 L 521.00 329.00 M 521.00 329.00 L 521.30 314.00 M 521.30 314.00 L 460.10 314.00 M 460.10 314.00 L 458.00 329.00 M 458.00 329.00 L 438.00 332.00 M 438.00 332.00 L 437.00 345.00 M 437.00 345.00 L 420.00 345.60 M 420.00 345.60 L 420.00 416.20 M 420.00 416.20 L 436.00 416.00 M 436.00 416.00 L 438.00 528.00 M 438.00 528.00 L 420.00 525.70 M 420.00 525.70 L 420.00 592.10 M 420.00 592.10 L 437.00 596.00 M 437.00 596.00 L 437.00 815.00 M 437.00 815.00 L 420.00 816.30 M 420.00 816.30 L 420.00 882.00 M 420.00 882.00 L 436.00 882.00 M 436.00 882.00 L 436.00 919.00 M 436.00 919.00 L 457.00 918.00 M 457.00 918.00 L 458.80 936.00 M 458.80 936.00 L 523.20 936.00" stroke="#00FFFF" stroke-width="2" fill="none" />
  <path d="M 412.00 616.00 L 418.00 599.00 M 418.00 599.00 L 417.00 448.00 M 417.00 448.00 L 185.00 449.00 M 185.00 449.00 L 185.00 535.00 M 185.00 535.00 L 268.00 615.00 M 268.00 615.00 L 412.00 616.00" stroke="#FF00FF" stroke-width="2" fill="none" />
  <path d="M 860.00 837.00 L 869.00 836.00 M 869.00 836.00 L 869.00 822.00 M 869.00 822.00 L 930.00 819.00 M 930.00 819.00 L 929.00 567.00 M 929.00 567.00 L 855.00 567.00 M 855.00 567.00 L 852.00 559.00 M 852.00 559.00 L 844.00 558.00 M 844.00 558.00 L 578.00 560.00 M 578.00 560.00 L 580.00 836.00 M 580.00 836.00 L 860.00 837.00" stroke="#FFFF00" stroke-width="2" fill="none" />
  <path d="M 411.00 920.00 L 417.00 915.00 M 417.00 915.00 L 417.00 634.00 M 417.00 634.00 L 246.00 635.00 M 246.00 635.00 L 229.00 619.00 M 229.00 619.00 L 107.00 739.00 M 107.00 739.00 L 108.00 919.00 M 108.00 919.00 L 411.00 920.00" stroke="#0080FF" stroke-width="2" fill="none" />
  <path d="M 948.00 1394.00 L 947.00 851.00 M 947.00 851.00 L 915.00 850.00 M 915.00 850.00 L 901.00 852.00 M 901.00 852.00 L 901.00 1146.00 M 901.00 1146.00 L 873.00 1146.30 M 873.00 1146.30 L 873.00 1214.60 M 873.00 1214.60 L 901.00 1218.00 M 901.00 1218.00 L 901.00 1276.00 M 901.00 1276.00 L 578.00 1278.00 M 578.00 1278.00 L 500.00 1355.00 M 500.00 1355.00 L 499.00 1393.00 M 499.00 1393.00 L 948.00 1394.00" stroke="#FF0080" stroke-width="2" fill="none" />
  <path d="M 578.00 1245.00 L 869.00 1245.00 M 869.00 1245.00 L 870.00 857.00 M 870.00 857.00 L 579.00 856.00 M 579.00 856.00 L 578.00 1245.00" stroke="#FF8000" stroke-width="2" fill="none" />
  <path d="M 273.00 1324.00 L 486.00 1323.00 M 486.00 1323.00 L 555.00 1255.00 M 555.00 1255.00 L 560.00 1245.00 M 560.00 1245.00 L 561.00 1182.00 M 561.00 1182.00 L 578.00 1182.20 M 578.00 1182.20 L 576.00 1111.60 M 576.00 1111.60 L 564.00 1111.00 M 564.00 1111.00 L 560.00 1115.00 M 560.00 1115.00 L 559.00 940.00 M 559.00 940.00 L 136.00 939.00 M 136.00 939.00 L 133.00 1180.00 M 133.00 1180.00 L 273.00 1324.00" stroke="#8080FF" stroke-width="2" fill="none" />
</svg>