<?xml version='1.0' encoding='utf-8'?>
<svg xmlns="http://www.w3.org/2000/svg" version="1.1" width="1024" height="1024" viewBox="0 0 1024 1024">
  <rect x="0" y="0" width="1024" height="1024" fill="#FFFFFF" />
  <path d="M 780.00 302.00 L 784.00 270.00 M 784.00 270.00 L 782.00 61.00 M 782.00 61.00 L 539.00 59.00 M 539.00 59.00 L 538.80 298.00 M 538.80 298.00 L 780.00 302.00" stroke="#0000FF" stroke-width="2" fill="none" />
  <path d="M 365.00 317.00 L 366.00 61.00 M 366.00 61.00 L 164.00 60.00 M 164.00 60.00 L 78.00 145.00 M 78.00 145.00 L 78.00 298.00 M 78.00 298.00 L 300.00 297.00 M 300.00 297.00 L 304.00 317.00 M 304.00 317.00 L 365.00 317.00" stroke="#00FF00" stroke-width="2" fill="none" />
  <path d="M 525.00 225.00 L 524.00 62.00 M 524.00 62.00 L 380.00 61.00 M 380.00 61.00 L 379.00 224.00 M 379.00 224.00 L 525.00 225.00" stroke="#FF0000" stroke-width="2" fill="none" />
  <path d="M 441.00 643.00 L 441.00 634.00 M 441.00 634.00 L 453.00 632.00 M 453.00 632.00 L 454.00 622.00 M 454.00 622.00 L 463.00 621.20 M 463.00 621.20 L 463.00 577.00 M 463.00 577.00 L 454.00 573.00 M 454.00 573.00 L 454.00 557.00 M 454.00 557.00 L 526.00 554.00 M 526.00 554.00 L 524.00 436.00 M 524.00 436.00 L 537.00 435.40 M 537.00 435.40 L 537.00 382.50 M 537.00 382.50 L 526.00 382.00 M 526.00 382.00 L 525.00 326.00 M 525.00 326.00 L 459.00 325.00 M 459.00 325.00 L 459.00 314.00 M 459.00 314.00 L 525.00 313.00 M 525.00 313.00 L 526.00 292.00 M 526.00 292.00 L 535.00 292.00 M 535.00 292.00 L 535.00 245.90 M 535.00 245.90 L 527.00 245.00 M 527.00 245.00 L 516.00 235.00 M 516.00 235.00 L 516.20 227.00 M 516.20 227.00 L 473.40 227.00 M 473.40 227.00 L 473.00 237.00 M 473.00 237.00 L 379.00 237.00 M 379.00 237.00 L 377.00 246.00 M 377.00 246.00 L 368.00 246.80 M 368.00 246.80 L 368.00 292.00 M 368.00 292.00 L 378.00 292.00 M 378.00 292.00 L 379.00 313.00 M 379.00 313.00 L 408.00 313.00 M 408.00 313.00 L 410.00 325.00 M 410.00 325.00 L 399.00 327.00 M 399.00 327.00 L 399.00 365.00 M 399.00 365.00 L 390.00 365.80 M 390.00 365.80 L 390.00 410.90 M 390.00 410.90 L 398.00 411.00 M 398.00 411.00 L 399.00 484.00 M 399.00 484.00 L 337.00 486.00 M 337.00 486.00 L 337.00 608.00 M 337.00 608.00 L 328.00 618.00 M 328.00 618.00 L 322.00 636.00 M 322.00 636.00 L 396.00 633.00 M 396.00 633.00 L 396.20 643.00 M 396.20 643.00 L 441.00 643.00" stroke="#00FFFF" stroke-width="2" fill="none" />
  <path d="M 939.00 555.00 L 940.00 315.00 M 940.00 315.00 L 539.00 316.00 M 539.00 316.00 L 540.00 452.00 M 540.00 452.00 L 653.00 452.00 M 653.00 452.00 L 655.00 477.00 M 655.00 477.00 L 540.00 478.00 M 540.00 478.00 L 540.00 555.00 M 540.00 555.00 L 939.00 555.00" stroke="#FF00FF" stroke-width="2" fill="none" />
  <path d="M 364.00 464.00 L 386.00 446.00 M 386.00 446.00 L 386.00 329.00 M 386.00 329.00 L 292.00 330.00 M 292.00 330.00 L 286.00 322.00 M 286.00 322.00 L 179.00 324.00 M 179.00 324.00 L 179.00 368.00 M 179.00 368.00 L 275.00 463.00 M 275.00 463.00 L 364.00 464.00" stroke="#FFFF00" stroke-width="2" fill="none" />
  <path d="M 284.00 618.00 L 296.00 616.00 M 296.00 616.00 L 324.00 588.00 M 324.00 588.00 L 326.00 569.00 M 326.00 569.00 L 334.00 568.00 M 334.00 568.00 L 334.00 515.90 M 334.00 515.90 L 326.00 516.00 M 326.00 516.00 L 323.00 486.00 M 323.00 486.00 L 265.00 487.00 M 265.00 487.00 L 202.00 425.00 M 202.00 425.00 L 161.00 464.00 M 161.00 464.00 L 87.00 466.00 M 87.00 466.00 L 88.00 618.00 M 88.00 618.00 L 284.00 618.00" stroke="#0080FF" stroke-width="2" fill="none" />
  <path d="M 468.00 881.00 L 834.00 881.00 M 834.00 881.00 L 833.00 653.00 M 833.00 653.00 L 851.00 648.50 M 851.00 648.50 L 851.00 607.00 M 851.00 607.00 L 835.00 607.00 M 835.00 607.00 L 833.00 568.00 M 833.00 568.00 L 517.80 569.70 M 517.80 569.70 L 467.70 627.00 M 467.70 627.00 L 468.00 881.00" stroke="#FF0080" stroke-width="2" fill="none" />
  <path d="M 948.00 903.00 L 949.00 581.00 M 949.00 581.00 L 862.00 581.00 M 862.00 581.00 L 854.00 654.00 M 854.00 654.00 L 861.00 903.00 M 861.00 903.00 L 948.00 903.00" stroke="#FF8000" stroke-width="2" fill="none" />
  <path d="M 201.00 883.00 L 370.00 880.00 M 370.00 880.00 L 369.00 644.00 M 369.00 644.00 L 319.70 636.00 M 319.70 636.00 L 322.00 621.00 M 322.00 621.00 L 312.00 631.00 M 312.00 631.00 L 87.00 633.00 M 87.00 633.00 L 87.00 770.00 M 87.00 770.00 L 201.00 883.00" stroke="#8080FF" stroke-width="2" fill="none" />
  <path d="M 453.00 882.00 L 454.00 646.00 M 454.00 646.00 L 390.00 645.60 M 390.00 645.60 L 382.00 882.00 M 382.00 882.00 L 453.00 882.00" stroke="#80FF80" stroke-width="2" fill="none" />
</svg>