<?xml version='1.0' encoding='utf-8'?>
<svg xmlns="http://www.w3.org/2000/svg" version="1.1" width="1024" height="1536" viewBox="0 0 1024 1536">
  <rect x="0" y="0" width="1024" height="1536" fill="#FFFFFF" />
  <path d="M 295.00 297.00 L 443.00 297.00 M 443.00 297.00 L 443.00 108.00 M 443.00 108.00 L 253.00 108.00 M 253.00 108.00 L 178.00 181.00 M 178.00 181.00 L 295.00 297.00" stroke="#0000FF" stroke-width="2" fill="none" />
  <path d="M 497.90 999.00 L 500.00 985.00 M 500.00 985.00 L 543.00 984.00 M 543.00 984.00 L 544.00 904.00 M 544.00 904.00 L 556.00 903.80 M 556.00 903.80 L 556.00 845.90 M 556.00 845.90 L 542.00 844.00 M 542.00 844.00 L 543.00 683.00 M 543.00 683.00 L 557.00 682.80 M 557.00 682.80 L 557.00 624.80 M 557.00 624.80 L 546.00 624.00 M 546.00 624.00 L 543.00 394.00 M 543.00 394.00 L 557.00 393.80 M 557.00 393.80 L 557.00 336.10 M 557.00 336.10 L 542.00 335.00 M 542.00 335.00 L 542.00 108.00 M 542.00 108.00 L 462.00 108.00 M 462.00 108.00 L 461.00 186.00 M 461.00 186.00 L 446.00 188.00 M 446.00 188.00 L 446.00 244.60 M 446.00 244.60 L 461.00 245.00 M 461.00 245.00 L 462.00 313.00 M 462.00 313.00 L 418.00 315.00 M 418.00 315.00 L 418.00 368.00 M 418.00 368.00 L 404.00 369.90 M 404.00 369.90 L 404.00 426.00 M 404.00 426.00 L 416.00 426.00 M 416.00 426.00 L 416.00 526.00 M 416.00 526.00 L 321.00 528.00 M 321.00 528.00 L 320.00 598.00 M 320.00 598.00 L 240.00 678.00 M 240.00 678.00 L 240.00 799.00 M 240.00 799.00 L 392.00 799.00 M 392.00 799.00 L 419.00 802.00 M 419.00 802.00 L 420.00 854.00 M 420.00 854.00 L 405.00 856.00 M 405.00 856.00 L 405.00 912.00 M 405.00 912.00 L 418.00 912.00 M 418.00 912.00 L 419.00 985.00 M 419.00 985.00 L 437.00 987.00 M 437.00 987.00 L 437.00 999.00 M 437.00 999.00 L 497.90 999.00" stroke="#00FF00" stroke-width="2" fill="none" />
  <path d="M 560.00 416.00 L 914.00 416.00 M 914.00 416.00 L 913.00 109.00 M 913.00 109.00 L 561.00 108.00 M 561.00 108.00 L 560.00 416.00" stroke="#FF0000" stroke-width="2" fill="none" />
  <path d="M 83.00 493.00 L 400.00 493.00 M 400.00 493.00 L 399.00 316.00 M 399.00 316.00 L 287.00 314.00 M 287.00 314.00 L 165.00 193.00 M 165.00 193.00 L 83.00 275.00 M 83.00 275.00 L 83.00 493.00" stroke="#00FFFF" stroke-width="2" fill="none" />
  <path d="M 561.00 713.00 L 914.00 713.00 M 914.00 713.00 L 916.00 702.00 M 916.00 702.00 L 942.00 667.00 M 942.00 667.00 L 942.00 560.00 M 942.00 560.00 L 914.00 526.00 M 914.00 526.00 L 913.00 434.00 M 913.00 434.00 L 560.00 435.00 M 560.00 435.00 L 561.00 713.00" stroke="#FF00FF" stroke-width="2" fill="none" />
  <path d="M 913.00 1075.00 L 913.00 731.00 M 913.00 731.00 L 560.00 732.00 M 560.00 732.00 L 561.00 1075.00 M 561.00 1075.00 L 913.00 1075.00" stroke="#FFFF00" stroke-width="2" fill="none" />
  <path d="M 83.00 1090.00 L 309.00 1090.00 M 309.00 1090.00 L 402.00 993.00 M 402.00 993.00 L 402.00 835.00 M 402.00 835.00 L 85.00 834.00 M 85.00 834.00 L 83.00 1090.00" stroke="#0080FF" stroke-width="2" fill="none" />
  <path d="M 540.00 1396.00 L 543.00 1371.00 M 543.00 1371.00 L 543.00 1192.00 M 543.00 1192.00 L 558.00 1189.80 M 558.00 1189.80 L 558.00 1134.70 M 558.00 1134.70 L 542.00 1134.00 M 542.00 1134.00 L 542.00 1003.00 M 542.00 1003.00 L 415.00 1003.00 M 415.00 1003.00 L 379.00 1041.00 M 379.00 1041.00 L 379.00 1362.00 M 379.00 1362.00 L 412.00 1395.00 M 412.00 1395.00 L 540.00 1396.00" stroke="#FF0080" stroke-width="2" fill="none" />
  <path d="M 899.00 1412.00 L 975.00 1412.00 M 975.00 1412.00 L 976.00 1086.00 M 976.00 1086.00 L 947.00 1082.00 M 947.00 1082.00 L 948.00 1107.00 M 948.00 1107.00 L 899.00 1109.00 M 899.00 1109.00 L 900.00 1179.00 M 900.00 1179.00 L 874.00 1183.50 M 874.00 1183.50 L 874.00 1231.00 M 874.00 1231.00 L 899.00 1231.00 M 899.00 1231.00 L 899.00 1412.00" stroke="#FF8000" stroke-width="2" fill="none" />
  <path d="M 866.00 1396.00 L 866.00 1093.00 M 866.00 1093.00 L 560.00 1094.00 M 560.00 1094.00 L 561.00 1395.00 M 561.00 1395.00 L 866.00 1396.00" stroke="#8080FF" stroke-width="2" fill="none" />
  <path d="M 213.00 1321.00 L 362.00 1321.00 M 362.00 1321.00 L 362.00 1194.00 M 362.00 1194.00 L 376.00 1193.80 M 376.00 1193.80 L 376.00 1138.70 M 376.00 1138.70 L 363.00 1137.00 M 363.00 1137.00 L 361.00 1107.00 M 361.00 1107.00 L 214.00 1107.00 M 214.00 1107.00 L 213.00 1321.00" stroke="#80FF80" stroke-width="2" fill="none" />
</svg>