<?xml version='1.0' encoding='utf-8'?>
<svg xmlns="http://www.w3.org/2000/svg" version="1.1" width="1536" height="1024" viewBox="0 0 1536 1024">
  <rect x="0" y="0" width="1536" height="1024" fill="#FFFFFF" />
  <path d="M 189.00 347.00 L 589.00 347.00 M 589.00 347.00 L 589.00 75.00 M 589.00 75.00 L 188.00 76.00 M 188.00 76.00 L 189.00 347.00" stroke="#0000FF" stroke-width="2" fill="none" />
  <path d="M 608.00 240.00 L 882.00 240.00 M 882.00 240.00 L 882.00 75.00 M 882.00 75.00 L 607.00 76.00 M 607.00 76.00 L 608.00 240.00" stroke="#00FF00" stroke-width="2" fill="none" />
  <path d="M 901.00 377.00 L 1320.00 377.00 M 1320.00 377.00 L 1321.00 75.00 M 1321.00 75.00 L 900.00 76.00 M 900.00 76.00 L 901.00 377.00" stroke="#FF0000" stroke-width="2" fill="none" />
  <path d="M 738.40 726.00 L 738.00 712.00 M 738.00 712.00 L 778.00 710.00 M 778.00 710.00 L 779.00 688.00 M 779.00 688.00 L 794.00 691.60 M 794.00 691.60 L 794.00 625.70 M 794.00 625.70 L 783.00 626.00 M 783.00 626.00 L 779.00 502.00 M 779.00 502.00 L 794.00 500.40 M 794.00 500.40 L 794.00 432.80 M 794.00 432.80 L 779.00 433.00 M 779.00 433.00 L 779.00 380.00 M 779.00 380.00 L 882.00 377.00 M 882.00 377.00 L 882.00 350.00 M 882.00 350.00 L 895.00 349.00 M 895.00 349.00 L 895.00 282.50 M 895.00 282.50 L 884.00 283.00 M 884.00 283.00 L 881.00 258.00 M 881.00 258.00 L 770.00 258.00 M 770.00 258.00 L 767.00 243.00 M 767.00 243.00 L 704.00 243.00 M 704.00 243.00 L 704.00 255.00 M 704.00 255.00 L 608.00 258.00 M 608.00 258.00 L 608.00 269.00 M 608.00 269.00 L 592.00 272.40 M 592.00 272.40 L 592.00 334.40 M 592.00 334.40 L 606.00 334.00 M 606.00 334.00 L 608.00 347.00 M 608.00 347.00 L 688.00 347.00 M 688.00 347.00 L 692.00 422.00 M 692.00 422.00 L 678.00 423.40 M 678.00 423.40 L 678.00 492.80 M 678.00 492.80 L 692.00 493.00 M 692.00 493.00 L 693.00 616.00 M 693.00 616.00 L 668.00 620.00 M 668.00 620.00 L 586.00 619.00 M 586.00 619.00 L 584.00 641.00 M 584.00 641.00 L 570.00 641.80 M 570.00 641.80 L 570.00 700.20 M 570.00 700.20 L 584.00 700.00 M 584.00 700.00 L 585.00 711.00 M 585.00 711.00 L 593.00 712.00 M 593.00 712.00 L 678.00 711.00 M 678.00 711.00 L 679.70 726.00 M 679.70 726.00 L 738.40 726.00" stroke="#00FFFF" stroke-width="2" fill="none" />
  <path d="M 291.00 601.00 L 675.00 601.00 M 675.00 601.00 L 675.00 366.00 M 675.00 366.00 L 291.00 367.00 M 291.00 367.00 L 291.00 601.00" stroke="#FF00FF" stroke-width="2" fill="none" />
  <path d="M 1321.00 579.00 L 1320.00 396.00 M 1320.00 396.00 L 797.00 397.00 M 797.00 397.00 L 798.00 579.00 M 798.00 579.00 L 1321.00 579.00" stroke="#FFFF00" stroke-width="2" fill="none" />
  <path d="M 799.00 922.00 L 1321.00 921.00 M 1321.00 921.00 L 1320.00 597.00 M 1320.00 597.00 L 797.00 598.00 M 797.00 598.00 L 799.00 922.00" stroke="#0080FF" stroke-width="2" fill="none" />
  <path d="M 1352.00 922.00 L 1422.00 922.00 M 1422.00 922.00 L 1419.00 602.00 M 1419.00 602.00 L 1353.00 603.00 M 1353.00 603.00 L 1352.00 655.00 M 1352.00 655.00 L 1326.00 657.00 M 1326.00 657.00 L 1326.00 718.60 M 1326.00 718.60 L 1353.00 721.00 M 1353.00 721.00 L 1352.00 922.00" stroke="#FF0080" stroke-width="2" fill="none" />
  <path d="M 190.00 891.00 L 567.00 890.00 M 567.00 890.00 L 566.00 625.00 M 566.00 625.00 L 188.00 626.00 M 188.00 626.00 L 190.00 891.00" stroke="#FF8000" stroke-width="2" fill="none" />
  <path d="M 586.00 890.00 L 779.00 890.00 M 779.00 890.00 L 779.00 729.00 M 779.00 729.00 L 585.00 731.00 M 585.00 731.00 L 586.00 890.00" stroke="#8080FF" stroke-width="2" fill="none" />
</svg>