<?xml version='1.0' encoding='utf-8'?>
<svg xmlns="http://www.w3.org/2000/svg" version="1.1" width="1024" height="1536" viewBox="0 0 1024 1536">
  <rect x="0" y="0" width="1024" height="1536" fill="#FFFFFF" />
  <path d="M 126.00 399.00 L 384.00 399.00 M 384.00 399.00 L 389.00 115.00 M 389.00 115.00 L 126.00 116.00 M 126.00 116.00 L 126.00 399.00" stroke="#0000FF" stroke-width="2" fill="none" />
  <path d="M 406.00 351.00 L 571.00 351.00 M 571.00 351.00 L 570.00 115.00 M 570.00 115.00 L 405.00 117.00 M 405.00 117.00 L 406.00 351.00" stroke="#00FF00" stroke-width="2" fill="none" />
  <path d="M 587.00 509.00 L 896.00 507.00 M 896.00 507.00 L 895.00 116.00 M 895.00 116.00 L 589.00 116.00 M 589.00 116.00 L 587.00 509.00" stroke="#FF0000" stroke-width="2" fill="none" />
  <path d="M 473.00 977.00 L 473.00 966.00 M 473.00 966.00 L 486.00 963.00 M 486.00 963.00 L 488.00 884.00 M 488.00 884.00 L 571.00 884.00 M 571.00 884.00 L 571.00 871.00 M 571.00 871.00 L 585.00 866.00 M 585.00 866.00 L 585.00 808.00 M 585.00 808.00 L 574.00 807.00 M 574.00 807.00 L 573.00 748.00 M 573.00 748.00 L 585.00 748.00 M 585.00 748.00 L 585.00 690.00 M 585.00 690.00 L 573.00 690.00 M 573.00 690.00 L 570.00 478.00 M 570.00 478.00 L 584.00 477.80 M 584.00 477.80 L 584.00 419.00 M 584.00 419.00 L 570.00 418.00 M 570.00 418.00 L 571.00 368.00 M 571.00 368.00 L 553.00 367.00 M 553.00 367.00 L 550.00 355.00 M 550.00 355.00 L 494.40 355.00 M 494.40 355.00 L 494.00 364.00 M 494.00 364.00 L 406.00 369.00 M 406.00 369.00 L 406.00 858.00 M 406.00 858.00 L 392.00 862.40 M 392.00 862.40 L 392.00 919.80 M 392.00 919.80 L 404.00 920.00 M 404.00 920.00 L 406.00 962.00 M 406.00 962.00 L 418.00 964.00 M 418.00 964.00 L 419.00 977.00 M 419.00 977.00 L 473.00 977.00" stroke="#00FFFF" stroke-width="2" fill="none" />
  <path d="M 127.00 542.00 L 389.00 542.00 M 389.00 542.00 L 389.00 497.00 M 389.00 497.00 L 402.00 494.00 M 402.00 494.00 L 402.00 436.80 M 402.00 436.80 L 391.00 436.00 M 391.00 436.00 L 389.00 416.00 M 389.00 416.00 L 377.00 414.00 M 377.00 414.00 L 376.80 403.00 M 376.80 403.00 L 321.50 403.00 M 321.50 403.00 L 321.00 411.00 M 321.00 411.00 L 126.00 417.00 M 126.00 417.00 L 127.00 542.00" stroke="#FF00FF" stroke-width="2" fill="none" />
  <path d="M 588.00 775.00 L 895.00 774.00 M 895.00 774.00 L 895.00 525.00 M 895.00 525.00 L 588.00 526.00 M 588.00 526.00 L 588.00 775.00" stroke="#FFFF00" stroke-width="2" fill="none" />
  <path d="M 386.00 963.00 L 389.00 560.00 M 389.00 560.00 L 127.00 559.00 M 127.00 559.00 L 126.00 963.00 M 126.00 963.00 L 386.00 963.00" stroke="#0080FF" stroke-width="2" fill="none" />
  <path d="M 773.10 1281.00 L 774.00 1251.00 M 774.00 1251.00 L 896.00 1252.00 M 896.00 1252.00 L 895.00 792.00 M 895.00 792.00 L 589.00 792.00 M 589.00 792.00 L 588.00 898.00 M 588.00 898.00 L 503.00 901.00 M 503.00 901.00 L 503.00 1252.00 M 503.00 1252.00 L 717.00 1251.00 M 717.00 1251.00 L 719.00 1278.00 M 719.00 1278.00 L 773.10 1281.00" stroke="#FF0080" stroke-width="2" fill="none" />
  <path d="M 127.00 1252.00 L 486.00 1252.00 M 486.00 1252.00 L 486.00 980.00 M 486.00 980.00 L 125.00 981.00 M 125.00 981.00 L 127.00 1252.00" stroke="#FF8000" stroke-width="2" fill="none" />
  <path d="M 272.00 1419.00 L 905.00 1419.00 M 905.00 1419.00 L 905.00 1287.00 M 905.00 1287.00 L 271.00 1288.00 M 271.00 1288.00 L 272.00 1419.00" stroke="#8080FF" stroke-width="2" fill="none" />
</svg>