<?xml version='1.0' encoding='utf-8'?>
<svg xmlns="http://www.w3.org/2000/svg" width="3000" height="3000">
  <rect width="3000" height="3000" fill="black" />
  <g stroke-width="2.0" fill="none" opacity="0.8">
    <line x1="2583.69140625" y1="2222.0703125" x2="2583.69140625" y2="1620.7031249999998" stroke="rgb(0,255,0)" />
    <line x1="2147.4609375" y1="2462.109375" x2="1675.1953124999998" y2="2462.109375" stroke="rgb(0,255,0)" />
    <line x1="414.55078125" y1="2424.8046875" x2="414.55078125" y2="1248.046875" stroke="rgb(0,255,0)" />
    <line x1="788.96484375" y1="2618.9453125" x2="1454.58984375" y2="2618.9453125" stroke="rgb(0,255,0)" />
    <line x1="1425.5859375" y1="2725.5859375" x2="1425.5859375" y2="2618.9453125" stroke="rgb(0,255,0)" />
    <line x1="2583.69140625" y1="1059.375" x2="2583.69140625" y2="418.9453125" stroke="rgb(0,255,0)" />
    <line x1="414.55078125" y1="853.9062499999999" x2="414.55078125" y2="1059.375" stroke="rgb(0,255,0)" />
    <line x1="2583.69140625" y1="418.9453125" x2="1675.1953124999998" y2="418.9453125" stroke="rgb(0,255,0)" />
    <line x1="644.53125" y1="1191.40625" x2="788.96484375" y2="1191.40625" stroke="rgb(0,255,0)" />
    <line x1="2758.88671875" y1="1620.7031249999998" x2="2758.88671875" y2="1059.375" stroke="rgb(0,255,0)" />
    <line x1="414.55078125" y1="213.0859375" x2="414.55078125" y2="418.9453125" stroke="rgb(0,255,0)" />
    <line x1="2812.5" y1="2725.5859375" x2="2812.5" y2="1655.2734375" stroke="rgb(0,255,0)" />
    <line x1="2583.69140625" y1="1620.7031249999998" x2="2758.88671875" y2="1620.7031249999998" stroke="rgb(0,255,0)" />
    <line x1="1675.1953124999998" y1="1620.7031249999998" x2="1675.1953124999998" y2="1655.2734375" stroke="rgb(0,255,0)" />
    <line x1="2502.24609375" y1="1059.375" x2="2758.88671875" y2="1059.375" stroke="rgb(0,255,0)" />
    <line x1="2812.5" y1="2725.5859375" x2="2758.88671875" y2="2748.8281250000005" stroke="rgb(0,255,0)" />
    <line x1="1425.5859375" y1="2725.5859375" x2="1454.58984375" y2="2748.8281250000005" stroke="rgb(0,255,0)" />
    <line x1="233.49609375" y1="853.9062499999999" x2="414.55078125" y2="853.9062499999999" stroke="rgb(0,255,0)" />
    <line x1="233.49609375" y1="491.796875" x2="414.55078125" y2="418.9453125" stroke="rgb(0,255,0)" />
    <line x1="2583.69140625" y1="2462.109375" x2="2583.69140625" y2="2379.296875" stroke="rgb(0,255,0)" />
    <line x1="2758.88671875" y1="1620.7031249999998" x2="2812.5" y2="1655.2734375" stroke="rgb(0,255,0)" />
    <line x1="788.96484375" y1="2618.9453125" x2="727.44140625" y2="2565.4296875" stroke="rgb(0,255,0)" />
    <line x1="414.55078125" y1="1248.046875" x2="644.53125" y2="1191.40625" stroke="rgb(0,255,0)" />
    <line x1="644.53125" y1="1191.40625" x2="414.55078125" y2="1059.375" stroke="rgb(0,255,0)" />
    <line x1="727.44140625" y1="2565.4296875" x2="618.1640625" y2="2495.5078125" stroke="rgb(0,255,0)" />
    <line x1="414.55078125" y1="2424.8046875" x2="618.1640625" y2="2495.5078125" stroke="rgb(0,255,0)" />
    <line x1="1454.58984375" y1="2618.9453125" x2="1551.5625" y2="2542.96875" stroke="rgb(0,255,0)" />
    <line x1="1551.5625" y1="2542.96875" x2="1675.1953124999998" y2="2462.109375" stroke="rgb(0,255,0)" />
    <line x1="2371.58203125" y1="2462.109375" x2="2583.69140625" y2="2462.109375" stroke="rgb(0,255,0)" />
    <line x1="1675.1953124999998" y1="213.0859375" x2="1675.1953124999998" y2="418.9453125" stroke="rgb(0,255,0)" />
    <line x1="1675.1953124999998" y1="213.0859375" x2="414.55078125" y2="213.0859375" stroke="rgb(0,255,0)" />
    <line x1="233.49609375" y1="491.796875" x2="233.49609375" y2="853.9062499999999" stroke="rgb(0,255,0)" />
    <line x1="2758.88671875" y1="2748.8281250000005" x2="1454.58984375" y2="2748.8281250000005" stroke="rgb(0,255,0)" />
    <line x1="1675.1953124999998" y1="1451.3671875" x2="1675.1953124999998" y2="1059.375" stroke="rgb(0,0,255)" />
    <line x1="414.55078125" y1="853.9062499999999" x2="1243.359375" y2="853.9062499999999" stroke="rgb(0,0,255)" />
    <line x1="1675.1953124999998" y1="418.9453125" x2="1675.1953124999998" y2="853.9062499999999" stroke="rgb(0,0,255)" />
    <line x1="2583.69140625" y1="1655.2734375" x2="1675.1953124999998" y2="1655.2734375" stroke="rgb(0,0,255)" />
    <line x1="1675.1953124999998" y1="1059.375" x2="2502.24609375" y2="1059.375" stroke="rgb(0,0,255)" />
    <line x1="1322.16796875" y1="1815.625" x2="414.55078125" y2="1815.625" stroke="rgb(0,0,255)" />
    <line x1="1675.1953124999998" y1="2156.25" x2="1675.1953124999998" y2="1655.2734375" stroke="rgb(0,0,255)" />
    <line x1="1243.359375" y1="631.8359375" x2="1243.359375" y2="213.0859375" stroke="rgb(0,0,255)" />
    <line x1="1243.359375" y1="1815.625" x2="1243.359375" y2="1738.28125" stroke="rgb(0,0,255)" />
    <line x1="1243.359375" y1="1059.375" x2="1243.359375" y2="853.9062499999999" stroke="rgb(0,0,255)" />
    <line x1="1551.5625" y1="1815.625" x2="1675.1953124999998" y2="1815.625" stroke="rgb(0,0,255)" />
    <line x1="1322.16796875" y1="631.8359375" x2="1243.359375" y2="631.8359375" stroke="rgb(0,0,255)" />
    <line x1="1551.5625" y1="631.8359375" x2="1675.1953124999998" y2="631.8359375" stroke="rgb(0,0,255)" />
    <line x1="1675.1953124999998" y1="2462.109375" x2="1675.1953124999998" y2="2379.296875" stroke="rgb(0,0,255)" />
    <line x1="788.96484375" y1="1191.40625" x2="1243.359375" y2="1191.40625" stroke="rgb(0,0,255)" />
    <line x1="1243.359375" y1="1191.40625" x2="1243.359375" y2="1579.6874999999998" stroke="rgb(0,0,255)" />
    <line x1="1243.359375" y1="1579.6874999999998" x2="1243.359375" y2="1738.28125" stroke="rgb(255,0,0)" />
    <line x1="1675.1953124999998" y1="1059.375" x2="1675.1953124999998" y2="853.9062499999999" stroke="rgb(255,0,0)" />
    <line x1="1243.359375" y1="631.8359375" x2="1243.359375" y2="853.9062499999999" stroke="rgb(255,0,0)" />
    <line x1="1675.1953124999998" y1="2379.296875" x2="1675.1953124999998" y2="2156.25" stroke="rgb(255,0,0)" />
    <line x1="1675.1953124999998" y1="1451.3671875" x2="1675.1953124999998" y2="1620.7031249999998" stroke="rgb(255,0,0)" />
    <line x1="2758.88671875" y1="2748.8281250000005" x2="2758.88671875" y2="2771.484375" stroke="rgb(255,0,0)" />
    <line x1="2583.69140625" y1="2462.109375" x2="2583.69140625" y2="2495.5078125" stroke="rgb(255,0,0)" />
    <line x1="1551.5625" y1="631.8359375" x2="1322.16796875" y2="631.8359375" stroke="rgb(255,0,0)" />
    <line x1="1322.16796875" y1="1815.625" x2="1551.5625" y2="1815.625" stroke="rgb(255,0,0)" />
    <line x1="1243.359375" y1="1059.375" x2="1243.359375" y2="1191.40625" stroke="rgb(255,0,0)" />
    <line x1="2583.69140625" y1="2379.296875" x2="2583.69140625" y2="2222.0703125" stroke="rgb(255,0,0)" />
    <line x1="2371.58203125" y1="2462.109375" x2="2147.4609375" y2="2462.109375" stroke="rgb(255,0,0)" />
  </g>
  <g opacity="1.0">
    <circle cx="1675.1953124999998" cy="213.0859375" r="4.0" fill="rgb(0,255,0)" />
    <circle cx="414.55078125" cy="213.0859375" r="4.0" fill="rgb(0,255,0)" />
    <circle cx="1243.359375" cy="213.0859375" r="4.0" fill="rgb(0,0,255)" />
    <circle cx="414.55078125" cy="418.9453125" r="4.0" fill="rgb(0,255,0)" />
    <circle cx="1675.1953124999998" cy="418.9453125" r="4.0" fill="rgb(0,0,255)" />
    <circle cx="2583.69140625" cy="418.9453125" r="4.0" fill="rgb(0,255,0)" />
    <circle cx="233.49609375" cy="491.796875" r="4.0" fill="rgb(0,255,0)" />
    <circle cx="1675.1953124999998" cy="631.8359375" r="4.0" fill="rgb(0,0,255)" />
    <circle cx="1243.359375" cy="631.8359375" r="4.0" fill="rgb(255,0,0)" />
    <circle cx="1322.16796875" cy="631.8359375" r="4.0" fill="rgb(255,0,0)" />
    <circle cx="1551.5625" cy="631.8359375" r="4.0" fill="rgb(255,0,0)" />
    <circle cx="1243.359375" cy="853.9062499999999" r="4.0" fill="rgb(0,0,255)" />
    <circle cx="233.49609375" cy="853.9062499999999" r="4.0" fill="rgb(0,255,0)" />
    <circle cx="414.55078125" cy="853.9062499999999" r="4.0" fill="rgb(0,255,0)" />
    <circle cx="1675.1953124999998" cy="853.9062499999999" r="4.0" fill="rgb(255,0,0)" />
    <circle cx="1675.1953124999998" cy="1059.375" r="4.0" fill="rgb(0,0,255)" />
    <circle cx="1243.359375" cy="1059.375" r="4.0" fill="rgb(255,0,0)" />
    <circle cx="414.55078125" cy="1059.375" r="4.0" fill="rgb(0,255,0)" />
    <circle cx="2583.69140625" cy="1059.375" r="4.0" fill="rgb(0,255,0)" />
    <circle cx="2502.24609375" cy="1059.375" r="4.0" fill="rgb(0,255,0)" />
    <circle cx="2758.88671875" cy="1059.375" r="4.0" fill="rgb(0,255,0)" />
    <circle cx="644.53125" cy="1191.40625" r="4.0" fill="rgb(0,255,0)" />
    <circle cx="1243.359375" cy="1191.40625" r="4.0" fill="rgb(0,0,255)" />
    <circle cx="788.96484375" cy="1191.40625" r="4.0" fill="rgb(0,0,255)" />
    <circle cx="414.55078125" cy="1248.046875" r="4.0" fill="rgb(0,255,0)" />
    <circle cx="1675.1953124999998" cy="1451.3671875" r="4.0" fill="rgb(255,0,0)" />
    <circle cx="1243.359375" cy="1579.6874999999998" r="4.0" fill="rgb(255,0,0)" />
    <circle cx="1675.1953124999998" cy="1620.7031249999998" r="4.0" fill="rgb(0,255,0)" />
    <circle cx="2758.88671875" cy="1620.7031249999998" r="4.0" fill="rgb(0,255,0)" />
    <circle cx="2583.69140625" cy="1620.7031249999998" r="4.0" fill="rgb(0,255,0)" />
    <circle cx="1675.1953124999998" cy="1655.2734375" r="4.0" fill="rgb(0,0,255)" />
    <circle cx="2583.69140625" cy="1655.2734375" r="4.0" fill="rgb(0,255,0)" />
    <circle cx="2812.5" cy="1655.2734375" r="4.0" fill="rgb(0,255,0)" />
    <circle cx="1243.359375" cy="1738.28125" r="4.0" fill="rgb(0,0,255)" />
    <circle cx="414.55078125" cy="1815.625" r="4.0" fill="rgb(0,255,0)" />
    <circle cx="1322.16796875" cy="1815.625" r="4.0" fill="rgb(255,0,0)" />
    <circle cx="1243.359375" cy="1815.625" r="4.0" fill="rgb(0,0,255)" />
    <circle cx="1551.5625" cy="1815.625" r="4.0" fill="rgb(255,0,0)" />
    <circle cx="1675.1953124999998" cy="1815.625" r="4.0" fill="rgb(0,0,255)" />
    <circle cx="1675.1953124999998" cy="2156.25" r="4.0" fill="rgb(255,0,0)" />
    <circle cx="2583.69140625" cy="2222.0703125" r="4.0" fill="rgb(255,0,0)" />
    <circle cx="1675.1953124999998" cy="2379.296875" r="4.0" fill="rgb(0,0,255)" />
    <circle cx="2583.69140625" cy="2379.296875" r="4.0" fill="rgb(0,255,0)" />
    <circle cx="414.55078125" cy="2424.8046875" r="4.0" fill="rgb(0,255,0)" />
    <circle cx="2583.69140625" cy="2462.109375" r="4.0" fill="rgb(255,0,0)" />
    <circle cx="1675.1953124999998" cy="2462.109375" r="4.0" fill="rgb(0,255,0)" />
    <circle cx="2147.4609375" cy="2462.109375" r="4.0" fill="rgb(255,0,0)" />
    <circle cx="2371.58203125" cy="2462.109375" r="4.0" fill="rgb(0,255,0)" />
    <circle cx="2583.69140625" cy="2495.5078125" r="4.0" fill="rgb(255,0,0)" />
    <circle cx="618.1640625" cy="2495.5078125" r="4.0" fill="rgb(0,255,0)" />
    <circle cx="1551.5625" cy="2542.96875" r="4.0" fill="rgb(0,255,0)" />
    <circle cx="727.44140625" cy="2565.4296875" r="4.0" fill="rgb(0,255,0)" />
    <circle cx="788.96484375" cy="2618.9453125" r="4.0" fill="rgb(255,0,0)" />
    <circle cx="1454.58984375" cy="2618.9453125" r="4.0" fill="rgb(0,255,0)" />
    <circle cx="1425.5859375" cy="2618.9453125" r="4.0" fill="rgb(0,255,0)" />
    <circle cx="1425.5859375" cy="2725.5859375" r="4.0" fill="rgb(0,255,0)" />
    <circle cx="2812.5" cy="2725.5859375" r="4.0" fill="rgb(0,255,0)" />
    <circle cx="1454.58984375" cy="2748.8281250000005" r="4.0" fill="rgb(0,255,0)" />
    <circle cx="2758.88671875" cy="2748.8281250000005" r="4.0" fill="rgb(255,0,0)" />
    <circle cx="2758.88671875" cy="2771.484375" r="4.0" fill="rgb(255,0,0)" />
  </g>
</svg>